<svg xmlns="http://www.w3.org/2000/svg" width="618.423" height="715.103" viewBox="0 0 618.423 715.103">
  <g id="Layer_2" data-name="Layer 2" transform="translate(-161.98 0.001)">
    <g id="Layer_11" data-name="Layer 11" transform="translate(-0.005 -0.001)">
      <path id="Path_26" data-name="Path 26" d="M495.336,403.108c-32.782,16.945-381.015,9.816-406.643-34.574s53.654-97.365,142.074-110.364V240.225c-42.178-16.488-75.651-54.946-76.687-115.49,2.837-166.334,250.267-166.3,253.066,0-1.035,60.544-34.509,99-76.687,115.49V258.17C419.071,271.168,502.681,304.448,495.336,403.108Z" transform="translate(186.773 0.001)" fill="#fff"/>
      <path id="Path_27" data-name="Path 27" d="M114.058,160.752s114.684,105.3,179.868,119.832c34.509,7.669,118.864-149.539,118.864-149.539S604.508,73.53,385.95,73.53L273.489,177.671l-63.5-68.06" transform="translate(421.54 186.637) rotate(81)" fill="#fff"/>
      <path id="Path_28" data-name="Path 28" d="M385.6,169.657S261.822,269.862,196.639,284.394C162.129,292.063,77.774,134.855,77.774,134.855S-113.943,77.34,104.614,77.34L217.076,181.481l63.65-68.1" transform="translate(496.132 700.007) rotate(-93)" fill="#fff"/>
      <path id="Path_29" data-name="Path 29" d="M84.28,200.277V519.92H389.762V101.37" transform="translate(238.896 195.182)" fill="#fff"/>
    </g>
  </g>
</svg>
