<svg xmlns="http://www.w3.org/2000/svg" viewBox="0 0 182 147"><defs><style>.cls-1{fill:none;stroke:#fff;}.cls-2{font-size:44px;fill:#fff;font-family:WireOne, Wire One;}</style></defs><g id="Layer_2" data-name="Layer 2"><g id="Layer_15" data-name="Layer 15"><line class="cls-1" x1="101" y1="45.5" x2="101"/><line class="cls-1" x1="138.5" y1="73" x2="182" y2="73"/><line class="cls-1" x1="59" y1="76" y2="76"/><line class="cls-1" x1="102" y1="104.5" x2="102" y2="147"/><line class="cls-1" x1="71" y1="98" x2="29" y2="125"/><line class="cls-1" x1="126" y1="98" x2="164" y2="128"/><line class="cls-1" x1="71" y1="51" x2="40" y2="20"/><line class="cls-1" x1="135" y1="56" x2="172" y2="37"/><line class="cls-1" x1="121" y1="47" x2="130" y2="27"/><line class="cls-1" x1="82" y1="46" x2="74" y2="25"/><line class="cls-1" x1="59" y1="63" x2="29" y2="54"/><line class="cls-1" x1="59" y1="87" x2="29" y2="94"/><line class="cls-1" x1="84" y1="105" x2="77" y2="133"/><line class="cls-1" x1="115" y1="102" x2="127" y2="135"/><line class="cls-1" x1="138" y1="87" x2="177" y2="99"/><text class="cls-2" transform="translate(79.85 89.24)">ART</text></g></g></svg>