<?xml version="1.0" encoding="UTF-8"?><svg id="Layer_2" xmlns="http://www.w3.org/2000/svg" viewBox="0 0 249.56 157.14"><defs><style>.cls-1{fill:#fff;}</style></defs><g id="Layer_47"><path class="cls-1" d="M122.84,20.14c19.94,0,38.01,11.02,47.16,28.77l1.82,3.54,3.86-.98c3.44-.88,7.03-1.32,10.66-1.32,23.99,0,43.5,19.51,43.5,43.5,0,22.72-17.73,41.77-40.39,43.39-.97,.08-2.02,.11-3.11,.11H57.84c-.53,0-1.11-.01-1.77-.04-20.31-.93-36.23-17.6-36.23-37.96s17.05-38,38-38c2.78,0,5.52,.3,8.16,.88l4.6,1.02,1.3-4.53c6.47-22.6,27.42-38.38,50.95-38.38m0-5c-26.48,0-48.82,17.75-55.76,42-2.97-.66-6.07-1-9.24-1-23.75,0-43,19.25-43,43s18.18,41.91,41,42.95c.66,.03,1.33,.05,2,.05H186.34c1.18,0,2.35-.04,3.5-.13,25.16-1.79,45-22.76,45-48.37s-21.71-48.5-48.5-48.5c-4.11,0-8.1,.51-11.9,1.48-9.63-18.69-29.12-31.48-51.6-31.48h0Z"/><path class="cls-1" d="M122.97,12.32c20.79,0,40.45,11.08,51.32,28.92l1.78,2.92,3.36-.59c3.03-.53,6.07-.81,9.05-.81,5.37,0,10.56,.87,15.42,2.59,19.92,7.06,34.08,27.74,33.67,49.18-.01,.48-.94,24.15-21.11,40.19-10.21,8.12-22.54,10.19-23.19,10.3-1.13,.1-2.25,.12-2.31,.12h-.37c-.16,0-.31,0-.46,0h-.06l-93.15-.33-46.12-.17c-1.69-.15-3.37-.43-4.99-.85-15.38-3.9-32.02-20.84-33.24-42.44-.86-15.31,6.67-26.61,9-29.71,8.77-11.67,20.73-15.73,27.07-17.12,3.19-.7,6.48-1.05,9.79-1.05,1.24,0,2.5,.05,3.75,.15l3.69,.3,1.36-3.45c4.05-10.29,10.85-19.27,19.66-25.96,8.81-6.69,19.25-10.8,30.18-11.9,1.96-.2,3.95-.3,5.91-.3m0-5c-2.13,0-4.27,.11-6.41,.32-24.16,2.42-45.06,18.29-54,41-1.2-.1-2.59-.17-4.15-.17-3.07,0-6.77,.27-10.85,1.17-5.36,1.17-19.63,5.21-30,19-1.77,2.35-11.01,15.08-10,33,1.29,22.92,18.67,42.35,37,47,2.37,.6,4.44,.87,6,1,46.49,.17,92.98,.33,139.47,.5,.17,0,.35,0,.54,0,.14,0,.29,0,.44,0,0,0,1.38-.02,2.78-.15,.86-.08,14.51-2.4,25.77-11.35,22.5-17.89,23-44,23-44,.47-24.26-15.74-46.47-37-54-6.21-2.2-12.1-2.88-17.09-2.88-3.99,0-7.39,.44-9.91,.88-11.91-19.54-33.11-31.32-55.59-31.32h0Z"/><path class="cls-1" d="M123.07,5c21.74,0,42.46,10.68,55.44,28.57l1.64,2.26,2.78-.21c1.49-.11,3-.17,4.47-.17,7.14,0,13.97,1.29,20.3,3.82,21.65,8.67,36.81,31.03,36.86,54.37,.06,29.06-22.37,46.09-24.92,47.93-.09,.06-8.72,6.15-23.42,10.24-.79,.22-1.69,.3-1.98,.32-.11,0-.21,0-.3,0-.16,0-.27,0-.32,0-.94-.04-17.27-.13-147.53-.5-1.97-.43-3.92-1-5.81-1.69-15.72-5.78-33.43-22.8-35.16-46.49-1.15-15.8,5.49-28.08,9.55-33.99,7.25-10.55,17.02-17.82,28.25-21.02,4.25-1.21,8.69-1.83,13.19-1.83,.46,0,.89,0,1.31,.02l3.23,.08,1.4-2.91c.66-1.36,16.52-33.43,52.16-38.22,2.92-.39,5.89-.59,8.84-.59m0-5c-3.16,0-6.33,.21-9.51,.64-37.94,5.1-54.76,38.42-56,41-.46-.01-.94-.02-1.44-.02-3.82,0-8.89,.4-14.56,2.02-18.52,5.28-28.4,19.22-31,23C6.96,71.89-1.18,85.56,.15,103.82c1.81,24.82,20.09,44.08,38.42,50.82,2.9,1.06,5.37,1.66,7,2,100.23,.28,146.51,.44,147.85,.5,.04,0,.24,.01,.53,.01,.15,0,.32,0,.5,0,0,0,1.54-.06,3.12-.5,15.88-4.42,25-11,25-11,7.98-5.76,27.06-24.03,27-52-.06-27.07-18.02-50.2-40-59-8.32-3.33-16.14-4.18-22.16-4.18-1.78,0-3.4,.07-4.84,.18C168.53,11.29,146.27,0,123.07,0h0Z"/></g></svg>