<?xml version="1.0" encoding="UTF-8" standalone="no"?>
<!DOCTYPE svg PUBLIC "-//W3C//DTD SVG 1.1//EN" "http://www.w3.org/Graphics/SVG/1.1/DTD/svg11.dtd">
<svg width="100%" height="100%" viewBox="0 0 480 685" version="1.1" xmlns="http://www.w3.org/2000/svg" xmlns:xlink="http://www.w3.org/1999/xlink" xml:space="preserve" xmlns:serif="http://www.serif.com/" style="fill-rule:evenodd;clip-rule:evenodd;stroke-linejoin:round;stroke-miterlimit:2;">
    <g transform="matrix(1,0,0,1,-3044.8,-1621.73)">
        <g id="bottom">
        </g>
        <g id="window">
        </g>
        <g>
            <g transform="matrix(0.939759,0,0,1,56.9213,929.526)">
                <rect x="3179.41" y="692.205" width="510.246" height="684.427" style="fill:url(#_Linear1);"/>
            </g>
            <g transform="matrix(0.941486,0,0,1.02028,189.763,-29.1919)">
                <rect x="3108.55" y="1698.35" width="358.607" height="517.418" style="fill:url(#_Linear2);"/>
            </g>
            <g transform="matrix(1,0,0,1,-13.1148,66.8853)">
                <path d="M3274.42,1738.11C3274.42,1737.44 3274.76,1737.11 3275.42,1737.11L3276.42,1737.11C3277.09,1737.11 3277.42,1737.44 3277.42,1738.11L3277.42,1806.11C3277.42,1806.77 3277.09,1807.11 3276.42,1807.11L3275.12,1807.11C3274.52,1807.11 3274.12,1806.87 3273.92,1806.41L3242.72,1744.31C3242.59,1744.17 3242.47,1744.12 3242.37,1744.16C3242.27,1744.19 3242.22,1744.31 3242.22,1744.51L3242.32,1806.11C3242.32,1806.77 3241.99,1807.11 3241.32,1807.11L3240.32,1807.11C3239.66,1807.11 3239.32,1806.77 3239.32,1806.11L3239.32,1738.11C3239.32,1737.44 3239.66,1737.11 3240.32,1737.11L3241.52,1737.11C3242.12,1737.11 3242.52,1737.34 3242.72,1737.81L3273.92,1799.91C3274.06,1800.04 3274.17,1800.09 3274.27,1800.06C3274.37,1800.02 3274.42,1799.91 3274.42,1799.71L3274.42,1738.11Z" style="fill:white;fill-rule:nonzero;"/>
                <path d="M3310.62,1807.91C3306.29,1807.91 3302.71,1806.64 3299.87,1804.11C3297.04,1801.57 3295.36,1798.24 3294.82,1794.11C3294.56,1792.37 3294.42,1789.61 3294.42,1785.81L3294.42,1782.01C3294.42,1776.34 3294.52,1772.34 3294.72,1770.01C3295.26,1765.87 3296.96,1762.54 3299.82,1760.01C3302.69,1757.47 3306.29,1756.21 3310.62,1756.21C3315.02,1756.21 3318.67,1757.49 3321.57,1760.06C3324.47,1762.62 3326.12,1765.94 3326.52,1770.01C3326.79,1772.41 3326.92,1776.41 3326.92,1782.01C3326.92,1787.74 3326.79,1791.77 3326.52,1794.11C3326.06,1798.17 3324.37,1801.49 3321.47,1804.06C3318.57,1806.62 3314.96,1807.91 3310.62,1807.91ZM3310.62,1805.11C3314.22,1805.11 3317.22,1804.02 3319.62,1801.86C3322.02,1799.69 3323.39,1796.84 3323.72,1793.31C3323.79,1792.31 3323.82,1790.61 3323.82,1788.21L3323.82,1775.81C3323.82,1773.41 3323.79,1771.74 3323.72,1770.81C3323.39,1767.27 3322.02,1764.42 3319.62,1762.26C3317.22,1760.09 3314.22,1759.01 3310.62,1759.01C3307.02,1759.01 3304.04,1760.09 3301.67,1762.26C3299.31,1764.42 3297.96,1767.27 3297.62,1770.81C3297.49,1772.74 3297.42,1776.51 3297.42,1782.11C3297.42,1787.64 3297.49,1791.37 3297.62,1793.31C3297.96,1796.84 3299.31,1799.69 3301.67,1801.86C3304.04,1804.02 3307.02,1805.11 3310.62,1805.11Z" style="fill:white;fill-rule:nonzero;"/>
                <path d="M3359.02,1758.71C3359.02,1759.37 3358.69,1759.71 3358.02,1759.71L3347.62,1759.71C3347.36,1759.71 3347.22,1759.84 3347.22,1760.11L3347.22,1794.41C3347.22,1798.14 3347.96,1800.72 3349.42,1802.16C3350.89,1803.59 3353.22,1804.31 3356.42,1804.31L3358.02,1804.31C3358.69,1804.31 3359.02,1804.64 3359.02,1805.31L3359.02,1806.11C3359.02,1806.77 3358.69,1807.11 3358.02,1807.11L3356.12,1807.11C3352.26,1807.11 3349.31,1806.22 3347.27,1804.46C3345.24,1802.69 3344.22,1799.44 3344.22,1794.71L3344.22,1760.11C3344.22,1759.84 3344.09,1759.71 3343.82,1759.71L3338.72,1759.71C3338.06,1759.71 3337.72,1759.37 3337.72,1758.71L3337.72,1758.01C3337.72,1757.34 3338.06,1757.01 3338.72,1757.01L3343.82,1757.01C3344.09,1757.01 3344.22,1756.87 3344.22,1756.61L3344.22,1745.41C3344.22,1744.74 3344.56,1744.41 3345.22,1744.41L3346.22,1744.41C3346.89,1744.41 3347.22,1744.74 3347.22,1745.41L3347.22,1756.61C3347.22,1756.87 3347.36,1757.01 3347.62,1757.01L3358.02,1757.01C3358.69,1757.01 3359.02,1757.34 3359.02,1758.01L3359.02,1758.71Z" style="fill:white;fill-rule:nonzero;"/>
                <path d="M3260.42,1907.11C3259.76,1907.11 3259.42,1906.77 3259.42,1906.11L3259.42,1873.91C3259.42,1873.64 3259.39,1873.47 3259.32,1873.41L3242.12,1838.31C3242.06,1838.17 3242.02,1838.01 3242.02,1837.81C3242.02,1837.34 3242.29,1837.11 3242.82,1837.11L3243.82,1837.11C3244.42,1837.11 3244.82,1837.34 3245.02,1837.81L3260.62,1870.21C3260.69,1870.34 3260.79,1870.41 3260.92,1870.41C3261.06,1870.41 3261.16,1870.34 3261.22,1870.21L3276.82,1837.81C3277.02,1837.34 3277.42,1837.11 3278.02,1837.11L3279.02,1837.11C3279.36,1837.11 3279.59,1837.22 3279.72,1837.46C3279.86,1837.69 3279.86,1837.97 3279.72,1838.31L3262.52,1873.41C3262.46,1873.47 3262.42,1873.64 3262.42,1873.91L3262.42,1906.11C3262.42,1906.77 3262.09,1907.11 3261.42,1907.11L3260.42,1907.11Z" style="fill:white;fill-rule:nonzero;"/>
                <path d="M3303.22,1905.11C3306.29,1905.11 3308.94,1904.31 3311.17,1902.71C3313.41,1901.11 3314.96,1898.97 3315.82,1896.31C3316.02,1895.71 3316.42,1895.47 3317.02,1895.61L3317.92,1895.71C3318.19,1895.77 3318.41,1895.91 3318.57,1896.11C3318.74,1896.31 3318.79,1896.57 3318.72,1896.91C3317.79,1900.24 3315.92,1902.91 3313.12,1904.91C3310.32,1906.91 3306.99,1907.91 3303.12,1907.91C3298.92,1907.91 3295.41,1906.66 3292.57,1904.16C3289.74,1901.66 3288.06,1898.41 3287.52,1894.41C3287.19,1892.07 3287.02,1889.07 3287.02,1885.41L3287.02,1882.01C3287.02,1876.34 3287.16,1872.37 3287.42,1870.11C3287.82,1866.04 3289.46,1862.71 3292.32,1860.11C3295.19,1857.51 3298.79,1856.21 3303.12,1856.21C3307.66,1856.21 3311.36,1857.52 3314.22,1860.16C3317.09,1862.79 3318.72,1866.24 3319.12,1870.51C3319.32,1872.57 3319.42,1876.57 3319.42,1882.51C3319.42,1883.17 3319.09,1883.51 3318.42,1883.51L3290.42,1883.51C3290.16,1883.51 3290.02,1883.64 3290.02,1883.91C3290.02,1888.57 3290.06,1891.71 3290.12,1893.31C3290.46,1896.84 3291.81,1899.69 3294.17,1901.86C3296.54,1904.02 3299.56,1905.11 3303.22,1905.11ZM3303.22,1858.91C3299.56,1858.91 3296.56,1859.99 3294.22,1862.16C3291.89,1864.32 3290.52,1867.17 3290.12,1870.71C3290.06,1872.37 3290.02,1875.31 3290.02,1879.51C3290.02,1879.77 3290.16,1879.91 3290.42,1879.91L3316.02,1879.91C3316.29,1879.91 3316.42,1879.77 3316.42,1879.51C3316.42,1875.31 3316.36,1872.37 3316.22,1870.71C3315.82,1867.24 3314.44,1864.41 3312.07,1862.21C3309.71,1860.01 3306.76,1858.91 3303.22,1858.91Z" style="fill:white;fill-rule:nonzero;"/>
                <path d="M3350.62,1858.71C3350.62,1859.37 3350.29,1859.71 3349.62,1859.71L3339.22,1859.71C3338.96,1859.71 3338.82,1859.84 3338.82,1860.11L3338.82,1894.41C3338.82,1898.14 3339.56,1900.72 3341.02,1902.16C3342.49,1903.59 3344.82,1904.31 3348.02,1904.31L3349.62,1904.31C3350.29,1904.31 3350.62,1904.64 3350.62,1905.31L3350.62,1906.11C3350.62,1906.77 3350.29,1907.11 3349.62,1907.11L3347.72,1907.11C3343.86,1907.11 3340.91,1906.22 3338.87,1904.46C3336.84,1902.69 3335.82,1899.44 3335.82,1894.71L3335.82,1860.11C3335.82,1859.84 3335.69,1859.71 3335.42,1859.71L3330.32,1859.71C3329.66,1859.71 3329.32,1859.37 3329.32,1858.71L3329.32,1858.01C3329.32,1857.34 3329.66,1857.01 3330.32,1857.01L3335.42,1857.01C3335.69,1857.01 3335.82,1856.87 3335.82,1856.61L3335.82,1845.41C3335.82,1844.74 3336.16,1844.41 3336.82,1844.41L3337.82,1844.41C3338.49,1844.41 3338.82,1844.74 3338.82,1845.41L3338.82,1856.61C3338.82,1856.87 3338.96,1857.01 3339.22,1857.01L3349.62,1857.01C3350.29,1857.01 3350.62,1857.34 3350.62,1858.01L3350.62,1858.71Z" style="fill:white;fill-rule:nonzero;"/>
                <path d="M3226.27,2007.91C3222.61,2007.91 3219.34,2007.11 3216.47,2005.51C3213.61,2003.91 3211.37,2001.67 3209.77,1998.81C3208.17,1995.94 3207.37,1992.64 3207.37,1988.91L3207.37,1955.41C3207.37,1951.67 3208.17,1948.36 3209.77,1945.46C3211.37,1942.56 3213.61,1940.31 3216.47,1938.71C3219.34,1937.11 3222.61,1936.31 3226.27,1936.31C3230.01,1936.31 3233.32,1937.11 3236.22,1938.71C3239.12,1940.31 3241.37,1942.56 3242.97,1945.46C3244.57,1948.36 3245.37,1951.67 3245.37,1955.41L3245.37,1988.91C3245.37,1992.64 3244.57,1995.94 3242.97,1998.81C3241.37,2001.67 3239.12,2003.91 3236.22,2005.51C3233.32,2007.11 3230.01,2007.91 3226.27,2007.91ZM3226.27,2005.11C3231.07,2005.11 3234.96,2003.62 3237.92,2000.66C3240.89,1997.69 3242.37,1993.81 3242.37,1989.01L3242.37,1955.31C3242.37,1950.44 3240.89,1946.52 3237.92,1943.56C3234.96,1940.59 3231.07,1939.11 3226.27,1939.11C3221.54,1939.11 3217.71,1940.59 3214.77,1943.56C3211.84,1946.52 3210.37,1950.44 3210.37,1955.31L3210.37,1989.01C3210.37,1993.81 3211.84,1997.69 3214.77,2000.66C3217.71,2003.62 3221.54,2005.11 3226.27,2005.11Z" style="fill:white;fill-rule:nonzero;"/>
                <path d="M3293.47,1969.21C3294.47,1973.27 3294.97,1977.24 3294.97,1981.11C3294.97,1982.77 3294.87,1984.86 3294.67,1987.36C3294.47,1989.86 3294.21,1992.01 3293.87,1993.81C3292.87,1998.74 3291.01,2002.31 3288.27,2004.51C3285.54,2006.71 3281.87,2007.81 3277.27,2007.81C3274.14,2007.81 3271.67,2007.22 3269.87,2006.06C3268.07,2004.89 3266.71,2003.24 3265.77,2001.11C3265.71,2000.91 3265.62,2000.82 3265.52,2000.86C3265.42,2000.89 3265.37,2001.01 3265.37,2001.21L3265.37,2026.01C3265.37,2026.67 3265.04,2027.01 3264.37,2027.01L3263.37,2027.01C3262.71,2027.01 3262.37,2026.67 3262.37,2026.01L3262.37,1958.01C3262.37,1957.34 3262.71,1957.01 3263.37,1957.01L3264.37,1957.01C3265.04,1957.01 3265.37,1957.34 3265.37,1958.01L3265.37,1962.81C3265.37,1963.01 3265.42,1963.11 3265.52,1963.11C3265.62,1963.11 3265.74,1963.04 3265.87,1962.91C3268.14,1958.44 3272.17,1956.21 3277.97,1956.21C3282.17,1956.21 3285.51,1957.19 3287.97,1959.16C3290.44,1961.12 3292.27,1964.47 3293.47,1969.21ZM3289.27,1997.61C3290.94,1993.81 3291.77,1988.61 3291.77,1982.01C3291.77,1975.54 3291.11,1970.61 3289.77,1967.21C3288.64,1964.41 3287.19,1962.31 3285.42,1960.91C3283.66,1959.51 3281.24,1958.81 3278.17,1958.81C3275.37,1958.81 3273.14,1959.51 3271.47,1960.91C3269.81,1962.31 3268.51,1964.34 3267.57,1967.01C3266.24,1970.61 3265.57,1975.61 3265.57,1982.01C3265.57,1988.74 3266.31,1993.84 3267.77,1997.31C3268.77,1999.91 3270.06,2001.87 3271.62,2003.21C3273.19,2004.54 3275.31,2005.21 3277.97,2005.21C3283.24,2005.21 3287.01,2002.67 3289.27,1997.61Z" style="fill:white;fill-rule:nonzero;"/>
                <path d="M3323.77,2005.11C3326.84,2005.11 3329.49,2004.31 3331.72,2002.71C3333.96,2001.11 3335.51,1998.97 3336.37,1996.31C3336.57,1995.71 3336.97,1995.47 3337.57,1995.61L3338.47,1995.71C3338.74,1995.77 3338.96,1995.91 3339.12,1996.11C3339.29,1996.31 3339.34,1996.57 3339.27,1996.91C3338.34,2000.24 3336.47,2002.91 3333.67,2004.91C3330.87,2006.91 3327.54,2007.91 3323.67,2007.91C3319.47,2007.91 3315.96,2006.66 3313.12,2004.16C3310.29,2001.66 3308.61,1998.41 3308.07,1994.41C3307.74,1992.07 3307.57,1989.07 3307.57,1985.41L3307.57,1982.01C3307.57,1976.34 3307.71,1972.37 3307.97,1970.11C3308.37,1966.04 3310.01,1962.71 3312.87,1960.11C3315.74,1957.51 3319.34,1956.21 3323.67,1956.21C3328.21,1956.21 3331.91,1957.52 3334.77,1960.16C3337.64,1962.79 3339.27,1966.24 3339.67,1970.51C3339.87,1972.57 3339.97,1976.57 3339.97,1982.51C3339.97,1983.17 3339.64,1983.51 3338.97,1983.51L3310.97,1983.51C3310.71,1983.51 3310.57,1983.64 3310.57,1983.91C3310.57,1988.57 3310.61,1991.71 3310.67,1993.31C3311.01,1996.84 3312.36,1999.69 3314.72,2001.86C3317.09,2004.02 3320.11,2005.11 3323.77,2005.11ZM3323.77,1958.91C3320.11,1958.91 3317.11,1959.99 3314.77,1962.16C3312.44,1964.32 3311.07,1967.17 3310.67,1970.71C3310.61,1972.37 3310.57,1975.31 3310.57,1979.51C3310.57,1979.77 3310.71,1979.91 3310.97,1979.91L3336.57,1979.91C3336.84,1979.91 3336.97,1979.77 3336.97,1979.51C3336.97,1975.31 3336.91,1972.37 3336.77,1970.71C3336.37,1967.24 3334.99,1964.41 3332.62,1962.21C3330.26,1960.01 3327.31,1958.91 3323.77,1958.91Z" style="fill:white;fill-rule:nonzero;"/>
                <path d="M3371.17,1956.31C3375.71,1956.31 3379.29,1957.76 3381.92,1960.66C3384.56,1963.56 3385.87,1967.44 3385.87,1972.31L3385.87,2006.11C3385.87,2006.77 3385.54,2007.11 3384.87,2007.11L3383.87,2007.11C3383.21,2007.11 3382.87,2006.77 3382.87,2006.11L3382.87,1972.71C3382.87,1968.57 3381.77,1965.27 3379.57,1962.81C3377.37,1960.34 3374.41,1959.11 3370.67,1959.11C3366.74,1959.11 3363.62,1960.36 3361.32,1962.86C3359.02,1965.36 3357.87,1968.74 3357.87,1973.01L3357.87,2006.11C3357.87,2006.77 3357.54,2007.11 3356.87,2007.11L3355.87,2007.11C3355.21,2007.11 3354.87,2006.77 3354.87,2006.11L3354.87,1958.01C3354.87,1957.34 3355.21,1957.01 3355.87,1957.01L3356.87,1957.01C3357.54,1957.01 3357.87,1957.34 3357.87,1958.01L3357.87,1963.21C3357.87,1963.41 3357.92,1963.52 3358.02,1963.56C3358.12,1963.59 3358.21,1963.54 3358.27,1963.41C3359.54,1961.14 3361.27,1959.39 3363.47,1958.16C3365.67,1956.92 3368.24,1956.31 3371.17,1956.31Z" style="fill:white;fill-rule:nonzero;"/>
            </g>
        </g>
    </g>
    <defs>
        <linearGradient id="_Linear1" x1="0" y1="0" x2="1" y2="0" gradientUnits="userSpaceOnUse" gradientTransform="matrix(4.58432e-14,320.724,-748.676,1.96387e-14,3738.61,1064.93)"><stop offset="0" style="stop-color:rgb(110,132,158);stop-opacity:1"/><stop offset="1" style="stop-color:rgb(125,105,151);stop-opacity:1"/></linearGradient>
        <linearGradient id="_Linear2" x1="0" y1="0" x2="1" y2="0" gradientUnits="userSpaceOnUse" gradientTransform="matrix(3.22191e-14,242.463,-526.178,1.48466e-14,3501.56,1980.13)"><stop offset="0" style="stop-color:rgb(94,62,67);stop-opacity:1"/><stop offset="1" style="stop-color:rgb(55,18,25);stop-opacity:1"/></linearGradient>
    </defs>
</svg>
