<?xml version="1.0" encoding="UTF-8"?><svg id="Layer_2" xmlns="http://www.w3.org/2000/svg" viewBox="0 0 117.15 117.13"><defs><style>.cls-1{fill:none;stroke:#fff;stroke-miterlimit:10;stroke-width:2px;}</style></defs><g id="icon-tarot"><path class="cls-1" d="M69.79,97.11c-27.18,0-49.22-22.04-49.22-49.22C20.58,26.75,33.91,8.72,52.63,1.75,23.64,4.61,1,29.06,1,58.8c0,31.66,25.67,57.33,57.33,57.33,28.76,0,52.58-21.18,56.7-48.8-7.54,17.52-24.95,29.79-45.23,29.79Z"/><path class="cls-1" d="M111.67,58.8c-62.5-5.68-57.9-10.28-52.22,52.22,5.68-62.5,10.28-57.9-52.22-52.22,62.5,5.68,57.9,10.28,52.22-52.22-5.68,62.5-10.28,57.9,52.22,52.22Z"/><path class="cls-1" d="M90.45,90.85c-34.96-41.94-29.3-41.94-64.25,0,41.94-34.96,41.94-29.3,0-64.25,34.96,41.94,29.3,41.94,64.25,0-41.94,34.96-41.94,29.3,0,64.25Z"/></g></svg>