<?xml version="1.0" encoding="UTF-8"?><svg id="Layer_2" xmlns="http://www.w3.org/2000/svg" viewBox="0 0 96.2 111.21"><defs><style>.cls-1{fill:#fff;}.cls-2{fill:none;stroke:#fff;stroke-miterlimit:10;stroke-width:3px;}</style></defs><g id="icon-aimee"><g><path class="cls-1" d="M50.52,73.19c-.2,2.24-2.11,4.5-4.62,4.43-2.44-.06-4.18-2.28-4.38-4.43-.23-2.58,1.74-5.31,4.38-5.38,2.71-.07,4.86,2.71,4.62,5.38Z"/><ellipse class="cls-1" cx="78.66" cy="71.84" rx="3.33" ry="4.38"/><path class="cls-1" d="M70.42,83.98c-3.15,.91-6.5,1.04-9.75,.34-.74-.16-1.19-.81-1.02-1.41,.05-.18,.1-.36,.15-.55,.17-.59,.81-.93,1.43-.79,2.8,.6,5.69,.5,8.39-.28,.6-.17,1.25,.12,1.47,.7,.07,.18,.13,.35,.2,.53,.22,.58-.16,1.25-.87,1.46Z"/></g><path class="cls-2" d="M85.52,28.19c-.67-1-1.33-2-2-3,.84,.65,1.92,1.22,3,1,3.26-.66,3.91-7.94,4-9,.19-2.13,.49-6.12-2-10-.61-.96-1.77-2.76-4-4-3.74-2.08-7.78-1.06-12,0-2.56,.64-4.02,1.39-5,2-1.56,.97-3.2,1.98-4,4-.83,2.09-.31,4.09,0,5-.5,.14-1.25,.42-2,1-.44,.34-.76,.7-1,1-3.26-.35-7.34-.5-12,0-3.87,.41-7.24,1.18-10,2-.24-.3-.56-.66-1-1-.75-.58-1.5-.86-2-1-.08-.97-.3-2.41-1-4-.57-1.3-1.6-3.02-4-5-1.72-1.42-9.36-7.75-16-5-1.91,.79-3.14,2.09-4,3-2.76,2.91-3.56,6.16-4,8-1.37,5.78,.14,10.73,1,13l3,2-1,2,4,2c-1.35,2.17-2.7,4.51-4,7-3.73,7.13-6.26,13.95-8,20-.12,4.98,.32,15.1,6,26,4.47,8.58,10.31,14.05,14,17,1.4-9.27,3.34-19.33,6-30,2.44-9.77,5.17-18.78,8-27l30,15c2.75-2.3,5.87-5.26,9-9,2.98-3.57,5.27-7.01,7-10,1.1,1.36,2.58,3.38,4,6,3.81,7.02,4.46,13.3,5,19,.5,5.29-.43,11.2-2,23-.39,2.96-.75,5.39-1,7,2.02-3.62,4.53-9.04,6-16,.33-1.55,1.66-8.22,1-17-1.09-14.41-6.89-25.57-11-32,.67-1,1.33-2,2-3Z"/><path class="cls-2" d="M10.52,28.19c3.83,.09,6.91-.47,9-1,2.98-.75,7.73-2.01,12-6,1.97-1.84,3.24-3.7,4-5"/><path class="cls-2" d="M13.52,32.19c1.73-.06,4.17-.27,7-1,2.12-.55,7.11-1.89,12-6,1.62-1.36,3.93-3.62,6-7"/><path class="cls-2" d="M33.52,50.19c10.67,5,21.33,10,32,15,2.41-1.48,5.17-3.44,8-6,3.5-3.16,6.1-6.33,8-9,1.96,4.85,3.88,10.9,5,18,2.34,14.82,.11,27.24-2,35"/><path class="cls-1" d="M23.92,91.74c15.23,3.67,31.41,5.68,46.82,2.02,6.04-1.44,11.59-3.53,13.93-9.66,1.32-2.99,.99-5.9,2.86-8.91,2.19,3.13,1.06,6.76-.01,10.03-2.36,6.38-7.16,9.52-13.5,11.31-10.23,3.21-21.26,3.46-31.78,2.17-6.48-.83-12.9-2.12-19.12-4.06l.81-2.89h0Z"/><path class="cls-2" d="M59.52,16.19c3.44,.81,8.58,2.46,14,6,4.67,3.05,7.92,6.45,10,9"/><path class="cls-2" d="M62.52,14.19c3.25,.48,9.11,1.8,15,6,3.82,2.72,6.39,5.74,8,8"/><path class="cls-2" d="M79.52,92.19c.89,.43,1.95,1.06,3,2,.38,.34,.71,.67,1,1l-3,6-3,6c-3.22,.68-7.66,1.49-13,2-9.86,.95-17.52,.41-23,0-4.21-.32-9.66-.89-16-2-1.33-2.33-2.67-4.67-4-7"/><path class="cls-2" d="M22.52,96.19c8.63,2.58,16.22,3.6,22,4,5.79,.4,15.87,.58,28-2,4.52-.96,8.27-2.09,11-3"/><ellipse class="cls-2" cx="69.02" cy="103.69" rx="3.5" ry="2.5" transform="translate(-20.17 16.74) rotate(-12.08)"/></g></svg>