<?xml version="1.0" encoding="UTF-8"?><svg id="Layer_2" xmlns="http://www.w3.org/2000/svg" viewBox="0 0 115.59 115.75"><defs><style>.cls-1,.cls-2{fill:#fff;}.cls-3{fill:none;}.cls-3,.cls-2{stroke:#1d1917;stroke-miterlimit:10;}</style></defs><g id="Layer_23"><path class="cls-2" d="M69.29,96.23c-27.18,0-49.22-22.04-49.22-49.22C20.08,25.87,33.41,7.84,52.13,.88,23.14,3.74,.5,28.18,.5,57.92c0,31.66,25.67,57.33,57.33,57.33,28.76,0,52.58-21.18,56.7-48.8-7.54,17.52-24.95,29.79-45.23,29.79Z"/><g><path class="cls-1" d="M111.17,57.92c-62.5-5.68-57.9-10.28-52.22,52.22,5.68-62.5,10.28-57.9-52.22-52.22,62.5,5.68,57.9,10.28,52.22-52.22-5.68,62.5-10.28,57.9,52.22,52.22Z"/><path class="cls-3" d="M111.17,57.92c-62.5-5.68-57.9-10.28-52.22,52.22,5.68-62.5,10.28-57.9-52.22-52.22,62.5,5.68,57.9,10.28,52.22-52.22-5.68,62.5-10.28,57.9,52.22,52.22Z"/></g><g><path class="cls-1" d="M89.95,89.97c-34.96-41.94-29.3-41.94-64.25,0,41.94-34.96,41.94-29.3,0-64.25,34.96,41.94,29.3,41.94,64.25,0-41.94,34.96-41.94,29.3,0,64.25Z"/><path class="cls-3" d="M89.95,89.97c-34.96-41.94-29.3-41.94-64.25,0,41.94-34.96,41.94-29.3,0-64.25,34.96,41.94,29.3,41.94,64.25,0-41.94,34.96-41.94,29.3,0,64.25Z"/></g></g></svg>