<?xml version="1.0" encoding="UTF-8"?><svg xmlns="http://www.w3.org/2000/svg" viewBox="0 0 211 127"><defs><style>.d{fill:#fff;stroke:#000;stroke-miterlimit:10;stroke-width:2px;}</style></defs><g id="a"/><g id="b"><g id="c"><path class="d" d="M210,98c0,8.06-3.98,15.2-10.09,19.55-2.83,5.04-8.22,8.45-14.41,8.45H34c-8.33,0-15.93-3.08-21.74-8.17-6.9-6.05-11.26-14.93-11.26-24.83,0-15.42,10.57-28.37,24.86-31.99,5.34-17.37,21.52-30.01,40.64-30.01,4.37,0,8.58,.66,12.54,1.88C84.55,14.38,100.58,1,119.5,1c20.95,0,38.36,16.41,41.86,38.01,.21-.01,.43-.01,.64-.01,18.78,0,34,15.22,34,34,0,1.05-.05,2.09-.15,3.12,8.34,3.75,14.15,12.14,14.15,21.88Z"/></g></g></svg>