<?xml version="1.0" encoding="UTF-8"?><svg xmlns="http://www.w3.org/2000/svg" viewBox="0 0 207 207.25"><defs><style>.d,.e{fill:#fff;}.f{fill:none;}.f,.e{stroke:#000;stroke-miterlimit:10;stroke-width:2px;}</style></defs><g id="a"/><g id="b"><g id="c"><path class="e" d="M124,172.25c-48.6,0-88-39.4-88-88C36,46.44,59.84,14.21,93.31,1.75,41.49,6.87,1,50.58,1,103.75c0,56.61,45.89,102.5,102.5,102.5,51.43,0,94.01-37.88,101.37-87.26-13.47,31.32-44.61,53.26-80.87,53.26Z"/><g><path class="d" d="M198.88,103.75c-111.75-10.15-103.52-18.38-93.38,93.38,10.15-111.75,18.38-103.52-93.38-93.38,111.75,10.15,103.52,18.38,93.38-93.38-10.15,111.75-18.38,103.52,93.38,93.38Z"/><path class="f" d="M198.88,103.75c-111.75-10.15-103.52-18.38-93.38,93.38,10.15-111.75,18.38-103.52-93.38-93.38,111.75,10.15,103.52,18.38,93.38-93.38-10.15,111.75-18.38,103.52,93.38,93.38Z"/></g><g><path class="d" d="M160.94,161.05c-62.5-74.99-52.38-74.99-114.88,0,74.99-62.5,74.99-52.38,0-114.88,62.5,74.99,52.38,74.99,114.88,0-74.99,62.5-74.99,52.38,0,114.88Z"/><path class="f" d="M160.94,161.05c-62.5-74.99-52.38-74.99-114.88,0,74.99-62.5,74.99-52.38,0-114.88,62.5,74.99,52.38,74.99,114.88,0-74.99,62.5-74.99,52.38,0,114.88Z"/></g></g></g></svg>