<?xml version="1.0" encoding="UTF-8"?><svg id="Layer_2" xmlns="http://www.w3.org/2000/svg" viewBox="0 0 111.13 109.74"><defs><style>.cls-1{fill:none;stroke:#fff;stroke-miterlimit:10;stroke-width:2px;}</style></defs><g id="Layer_26"><path class="cls-1" d="M56.44,85.87c-18.69-4.66-30.75-21.75-34-37-1.85-8.67-.68-15.97,0-20,2.08-12.32,7.53-21.2,11-26-4.76,2.5-12.15,7.15-18.77,15.23C12.42,20.85,.41,36.36,1.02,55.96c.9,28.97,24.83,52.42,53.81,52.78,27.66,.34,50.66-19.92,54.61-46.41-2.57,4.08-11.61,17.33-29,22.54-3.75,1.12-12.95,3.76-24,1Z"/><path class="cls-1" d="M86.44,46.87c-4.02,7.87-13.29,13-23.5,13s-19.48-5.13-23.5-13c4.02-7.87,13.29-13,23.5-13s19.48,5.13,23.5,13Z"/><circle class="cls-1" cx="62.94" cy="46.37" r="7.5"/><line class="cls-1" x1="44.44" y1="40.87" x2="35.44" y2="32.87"/><line class="cls-1" x1="63.44" y1="33.87" x2="63.44" y2="21.87"/><line class="cls-1" x1="80.2" y1="40.96" x2="89.2" y2="32.96"/><line class="cls-1" x1="44.44" y1="52.87" x2="35.44" y2="60.87"/><line class="cls-1" x1="63.44" y1="59.87" x2="63.44" y2="71.87"/><line class="cls-1" x1="80.2" y1="52.77" x2="89.2" y2="60.77"/><line class="cls-1" x1="50.44" y1="29.87" x2="45.44" y2="20.87"/><line class="cls-1" x1="80.2" y1="72.88" x2="75.2" y2="63.88"/><line class="cls-1" x1="51.32" y1="64.39" x2="46.32" y2="73.39"/><line class="cls-1" x1="81.08" y1="21.38" x2="76.08" y2="30.38"/></g></svg>