<?xml version="1.0" encoding="UTF-8"?><svg id="Layer_2" xmlns="http://www.w3.org/2000/svg" viewBox="0 0 94.2 109.21"><defs><style>.cls-1,.cls-2{fill:#fff;}.cls-3{fill:none;}.cls-3,.cls-4{stroke:#fff;}.cls-3,.cls-4,.cls-2{stroke-miterlimit:10;}.cls-5,.cls-4{fill:#1d1917;}.cls-2{stroke:#1d1917;}</style></defs><g id="Layer_23"><g id="Layer_24"><path class="cls-1" d="M14.78,90.64c3.41,4.55,6.82,9.11,10.24,13.66,15.92-5.55,31.84-11.11,47.76-16.66l13.5-10.5c-.01,1.51-.02,3.56,0,6,.06,6.97,.1,10.46,.5,10.5,.4,.04,1.29-3.25,3.4-17.02l2.06-5.78-3.61-21.65-9.85-15.55H35.99L15.08,61.38c-.1,9.75-.2,19.51-.31,29.26Z"/></g><path class="cls-2" d="M32.52,49.19c10.67,5,21.33,10,32,15,2.41-1.48,5.17-3.44,8-6,3.5-3.16,6.1-6.33,8-9,2.05,4.87,4.11,11.08,5.26,18.45,2.31,14.78-.12,27.09-2.26,34.55,1.14-2.47,2.71-6.07,4.26-10.55,2.06-5.93,3.57-10.26,4-16,.23-2.99,.24-7.49-1-13"/><path class="cls-2" d="M78.52,91.19c.89,.43,1.95,1.06,3,2,.38,.34,.71,.67,1,1l-3,6-3,6c-3.22,.68-7.66,1.49-13,2-9.86,.95-17.52,.41-23,0-4.21-.32-9.66-.89-16-2-1.33-2.33-2.67-4.67-4-7"/><path class="cls-2" d="M21.52,95.19c8.63,2.58,16.22,3.6,22,4,5.79,.4,15.87,.58,28-2,4.52-.96,8.27-2.09,11-3"/><path class="cls-2" d="M84.52,27.19c-.67-1-1.33-2-2-3,.84,.65,1.92,1.22,3,1,3.26-.66,3.91-7.94,4-9,.19-2.13,.49-6.12-2-10-.61-.96-1.77-2.76-4-4-3.74-2.08-7.78-1.06-12,0-2.56,.64-4.02,1.39-5,2-1.56,.97-3.2,1.98-4,4-.83,2.09-.31,4.09,0,5-.5,.14-1.25,.42-2,1-.44,.34-.76,.7-1,1-3.26-.35-7.34-.5-12,0-3.87,.41-7.24,1.18-10,2-.24-.3-.56-.66-1-1-.75-.58-1.5-.86-2-1-.08-.97-.3-2.41-1-4-.57-1.3-1.6-3.02-4-5-1.72-1.42-9.36-7.75-16-5-1.91,.79-3.14,2.09-4,3-2.76,2.91-3.56,6.16-4,8-1.37,5.78,.14,10.73,1,13l3,2-1,2,4,2c-1.35,2.17-2.7,4.51-4,7-3.73,7.13-6.26,13.95-8,20-.12,4.98,.32,15.1,6,26,4.47,8.58,10.31,14.05,14,17,1.4-9.27,3.34-19.33,6-30,2.44-9.77,5.17-18.78,8-27l30,15c2.75-2.3,5.87-5.26,9-9,2.98-3.57,5.27-7.01,7-10,1.1,1.36,2.58,3.38,4,6,3.81,7.02,4.46,13.3,5,19,.5,5.29-.43,11.2-2,23-.39,2.96-.75,5.39-1,7,2.02-3.62,4.53-9.04,6-16,.33-1.55,1.66-8.22,1-17-1.09-14.41-6.89-25.57-11-32,.67-1,1.33-2,2-3Z"/><path class="cls-2" d="M9.52,27.19c3.83,.09,6.91-.47,9-1,2.98-.75,7.73-2.01,12-6,1.97-1.84,3.24-3.7,4-5"/><path class="cls-2" d="M12.52,31.19c1.73-.06,4.17-.27,7-1,2.12-.55,7.11-1.89,12-6,1.62-1.36,3.93-3.62,6-7"/><path class="cls-2" d="M58.52,15.19c3.44,.81,8.58,2.46,14,6,4.67,3.05,7.92,6.45,10,9"/><path class="cls-2" d="M61.52,13.19c3.25,.48,9.11,1.8,15,6,3.82,2.72,6.39,5.74,8,8"/><ellipse class="cls-2" cx="68.02" cy="102.69" rx="3.5" ry="2.5" transform="translate(-19.99 16.51) rotate(-12.08)"/><path class="cls-2" d="M22.52,92.19c8.79,2.46,16.37,3.52,22,4,7.21,.62,18.55,.93,30-3,2.49-.86,4.84-1.86,7-4,5.05-4.99,5.12-12.26,5-15"/><g><path class="cls-4" d="M49.52,72.19c-.2,2.24-2.11,4.5-4.62,4.43-2.44-.06-4.18-2.28-4.38-4.43-.23-2.58,1.74-5.31,4.38-5.38,2.71-.07,4.86,2.71,4.62,5.38Z"/><ellipse class="cls-4" cx="77.66" cy="70.84" rx="3.33" ry="4.38"/><g><path class="cls-5" d="M69.42,82.98c-3.15,.91-6.5,1.04-9.75,.34-.74-.16-1.19-.81-1.02-1.41,.05-.18,.1-.36,.15-.55,.17-.59,.81-.93,1.43-.79,2.8,.6,5.69,.5,8.39-.28,.6-.17,1.25,.12,1.47,.7,.07,.18,.13,.35,.2,.53,.22,.58-.16,1.25-.87,1.46Z"/><path class="cls-3" d="M69.42,82.98c-3.15,.91-6.5,1.04-9.75,.34-.74-.16-1.19-.81-1.02-1.41,.05-.18,.1-.36,.15-.55,.17-.59,.81-.93,1.43-.79,2.8,.6,5.69,.5,8.39-.28,.6-.17,1.25,.12,1.47,.7,.07,.18,.13,.35,.2,.53,.22,.58-.16,1.25-.87,1.46Z"/></g></g></g></svg>