<?xml version="1.0" encoding="UTF-8"?><svg id="Layer_2" xmlns="http://www.w3.org/2000/svg" viewBox="0 0 117.37 70.6"><defs><style>.cls-1{fill:#fff;stroke:#1d1917;stroke-miterlimit:10;}</style></defs><g id="Layer_23"><path class="cls-1" d="M116.87,54.51c0,4.49-2.22,8.46-5.62,10.89-1.58,2.81-4.58,4.7-8.02,4.7H18.87c-4.64,0-8.87-1.71-12.1-4.55-3.84-3.37-6.27-8.31-6.27-13.82,0-8.59,5.89-15.8,13.84-17.81,2.97-9.67,11.98-16.71,22.63-16.71,2.43,0,4.78,.37,6.98,1.05C47.02,7.95,55.94,.5,66.48,.5c11.66,0,21.36,9.14,23.31,21.16,.12,0,.24,0,.36,0,10.46,0,18.93,8.47,18.93,18.93,0,.58-.03,1.16-.08,1.74,4.64,2.09,7.88,6.76,7.88,12.18Z"/></g></svg>