<?xml version="1.0" encoding="UTF-8"?><svg id="Layer_2" xmlns="http://www.w3.org/2000/svg" viewBox="0 0 105.96 104.02"><defs><style>.cls-1{fill:none;stroke:#fff;stroke-miterlimit:10;stroke-width:2px;}</style></defs><g id="icon-material"><path class="cls-1" d="M92.74,75.24v26.83c0,.52-.42,.95-.95,.95h-12.71c-.52,0-.95-.42-.95-.95v-23.8c0-.59-.53-1.03-1.11-.93l-26.07,4.68c-.52,.09-1.02-.26-1.1-.78l-1.65-10.32c-.13-.82-1.17-1.08-1.68-.43l-6.52,8.43c-.43,.56-1.29,.47-1.6-.16-.58-1.21-1.24-2.52-1.98-3.93-.51-.97-1.05-1.95-1.61-2.94-.48-.84-1.78-.51-1.78,.47v29.5c0,.52-.42,.95-.95,.95h-12.5c-.52,0-.95-.42-.95-.95v-28.32c0-1.06-1.46-1.31-1.83-.32-1.04,2.77-2.13,5.48-3.27,8.11-1.49,3.45-3.07,6.54-4.73,9.28-.42,.7-1.46,.56-1.71-.21-.35-1.08-.76-2.22-1.24-3.43-.79-1.97-1.63-3.92-2.52-5.85-.79-1.7-1.53-3.2-2.23-4.51-.18-.33-.14-.72,.1-1.02,2.36-2.93,4.59-6.56,6.7-10.91,2-4.14,3.74-8.19,5.22-12.15,.23-.62-.23-1.27-.89-1.27H3.91c-.52,0-.95-.42-.95-.95v-12.61c0-.52,.42-.95,.95-.95h13.79c.52,0,.95-.42,.95-.95V2.7c0-.52,.42-.95,.95-.95h12.5c.52,0,.95,.42,.95,.95V31.82c.64-2.36,1.29-5.01,1.93-7.95,.64-2.93,1.25-5.91,1.83-8.91,.5-2.61,.89-5.03,1.17-7.26,.07-.55,.59-.92,1.13-.8l10.97,2.27c.54,.11,.88,.66,.72,1.2-1.27,4.2-2.6,8.48-4,12.87s-2.68,8.1-3.88,11.24c-.17,.45-.66,.69-1.13,.57l-7.54-2.03c-.6-.16-1.19,.29-1.19,.91v1.9c0,.52,.42,.95,.95,.95h13.04c.52,0,.95,.42,.95,.95v12.61c0,.52-.42,.95-.95,.95h-13.98v.43c.79,.64,1.88,1.66,3.28,3.06s2.85,2.92,4.35,4.56c1.5,1.65,2.92,3.2,4.24,4.67,1.12,1.24,2.03,2.27,2.71,3.08,.22,.26,.55,.38,.89,.32l28.86-5.13c.45-.08,.78-.47,.78-.93V1.95c0-.52,.42-.95,.95-.95h12.71c.52,0,.95,.42,.95,.95V58.39c0,.59,.53,1.04,1.11,.93l8.03-1.45c.52-.09,1.02,.26,1.1,.79l1.96,12.63c.08,.51-.26,.98-.76,1.08l-10.67,1.95c-.45,.08-.78,.47-.78,.93ZM7.78,35.59c-.59,.16-1.16-.28-1.18-.89-.05-2.05-.25-4.32-.57-6.79-.39-2.97-.91-6.01-1.56-9.13-.57-2.76-1.2-5.33-1.88-7.72-.15-.51,.15-1.04,.67-1.17l8.95-2.33c.48-.12,.98,.14,1.14,.61,.81,2.42,1.52,5,2.13,7.76,.68,3.08,1.25,6.07,1.72,8.97,.41,2.59,.7,4.96,.86,7.12,.03,.45-.26,.85-.7,.97-1.96,.53-7.23,1.96-9.58,2.6Zm47.12-2.51c.27-.41,.8-.55,1.23-.32,1.85,.99,3.78,2.12,5.79,3.41,2.29,1.47,4.47,2.95,6.55,4.46,1.81,1.31,3.32,2.56,4.53,3.76,.31,.31,.36,.8,.12,1.17l-6.77,10.76c-.33,.52-1.06,.6-1.48,.15-1.04-1.11-2.35-2.31-3.91-3.6-2.01-1.65-4.13-3.29-6.39-4.94-1.97-1.43-3.86-2.73-5.69-3.9-.44-.28-.57-.87-.28-1.31l6.31-9.64Zm15.04-3.59c-.35,.51-1.09,.56-1.49,.08-.97-1.15-2.18-2.37-3.63-3.65-1.86-1.65-3.87-3.31-6.01-4.99-1.86-1.46-3.66-2.76-5.41-3.92-.45-.3-.56-.89-.25-1.32,1.42-1.98,5.1-7.14,6.45-9.03,.28-.4,.82-.52,1.24-.27,1.78,1.04,3.62,2.22,5.54,3.54,2.18,1.5,4.26,3.03,6.23,4.56,1.7,1.33,3.1,2.6,4.19,3.8,.29,.32,.31,.8,.07,1.16l-6.92,10.05Z"/></g></svg>