<?xml version="1.0" encoding="UTF-8"?><svg xmlns="http://www.w3.org/2000/svg" viewBox="0 0 150 144"><defs><style>.e,.f,.g,.h{stroke:#1d1917;stroke-miterlimit:10;}.e,.i{fill:none;}.g{fill:#1d1917;}.h{fill:#fff;}</style></defs><g id="a"/><g id="b"><g id="c"><path class="h" d="M80.45,70.69c-1.11-3.62-3.11-11.86-.76-21.92,2.24-9.58,7.26-15.87,9.8-18.68,2.3,2.23,5.6,5.87,8.46,11.02,2.74,4.93,5.57,10.03,4.71,14.89-1.26,7.2-10.41,13.01-22.21,14.68Z"/><path class="h" d="M80.45,70.69c-4.45-.94-13.5-2.21-24.15,.93-12.84,3.78-20.54,11.78-23.52,15.23,.12,3.69,.96,15.51,10.01,25.7,5.43,6.11,11.56,9.1,15.15,10.52,12.75,.53,25.49,1.06,38.24,1.6,1.32-.6,12.07-5.73,14.81-17.71,2.27-9.94-1.88-20.6-10.56-27.01,3.72-1.52,9.52-4.48,14.93-10.1,8.59-8.91,10.96-19.06,11.69-23.31-4.22-.42-15.17-.96-26.97,5.18-11.72,6.09-17.55,15.27-19.65,18.97Z"/><path class="h" d="M45.76,125.11c8.07-1.37,17.87-2.38,28.99-2.19,13.8,.24,25.64,2.27,34.88,4.54-.38,2.25-4.21,15.57-4.21,15.57-8.88-.41-19.1-1.01-28.78-.97-11.1,.05-21.7,.43-31.76,1.05-.71-2.07,.07-16.25,.88-18.01Z"/><polygon class="f" points="51.85 124.2 50.63 142.79 58.26 142.11 59.52 123.18 51.85 124.2"/><polygon class="f" points="69.36 122.88 67.18 141.43 74.35 142.08 76.12 122.96 69.36 122.88"/><polygon class="f" points="85.16 123.45 82.41 141.18 89.12 142.15 91.75 124.14 85.16 123.45"/><polygon class="f" points="100.06 125.75 96.25 142.4 100.82 142.5 104.83 126.46 100.06 125.75"/><path class="e" d="M32.84,87.12c.37,.55,2.22,3.89,3.49,4.67,3.1,1.9,5.17,3.2,12.96,5.3"/><circle class="f" cx="71.04" cy="94.1" r="1"/><path class="h" d="M50.93,101c-.48-.26-1.3-.82-1.47-1.68-.27-1.37,.22-3.61,2.82-4.25"/><path class="h" d="M80.45,70.69c-1.11-3.62-3.11-11.86-.76-21.92,2.24-9.58,7.26-15.87,9.8-18.68,2.3,2.23,5.6,5.87,8.46,11.02,2.74,4.93,5.57,10.03,4.71,14.89-1.26,7.2-10.41,13.01-22.21,14.68Z"/><path class="h" d="M80.45,70.69c-4.45-.94-13.5-2.21-24.15,.93-12.84,3.78-20.54,11.78-23.52,15.23,.12,3.69,.96,15.51,10.01,25.7,5.43,6.11,11.56,9.1,15.15,10.52,12.75,.53,25.49,1.06,38.24,1.6,1.32-.6,12.07-5.73,14.81-17.71,2.27-9.94-1.88-20.6-10.56-27.01,3.72-1.52,9.52-4.48,14.93-10.1,8.59-8.91,10.96-19.06,11.69-23.31-4.22-.42-15.17-.96-26.97,5.18-11.72,6.09-17.55,15.27-19.65,18.97Z"/><path class="h" d="M45.76,125.11c8.07-1.37,17.87-2.38,28.99-2.19,13.8,.24,25.64,2.27,34.88,4.54-.38,2.25-4.21,15.57-4.21,15.57-8.42-.03-18.74-.07-28.42-.03-11.1,.05-22,0-32.12,.12-.71-2.07,.07-16.25,.88-18.01Z"/><polygon class="g" points="51.85 124.2 50.63 142.79 58.26 142.11 59.52 123.18 51.85 124.2"/><polygon class="g" points="69.36 122.88 68 142 75 142 76.12 122.96 69.36 122.88"/><polygon class="g" points="85.16 123.45 83 142 89.12 142.15 91.75 124.14 85.16 123.45"/><polygon class="g" points="100.06 125.75 96.25 142.4 100.82 142.5 104.83 126.46 100.06 125.75"/><path class="e" d="M32.84,87.12c.37,.55,2.22,3.89,3.49,4.67,3.1,1.9,5.17,3.2,12.96,5.3"/><circle class="f" cx="71.04" cy="94.1" r="1"/><path class="h" d="M50.93,101c-.48-.26-1.3-.82-1.47-1.68-.27-1.37,.22-3.61,2.82-4.25"/></g><g id="d"><rect class="i" width="150" height="144"/></g></g></svg>