<svg xmlns="http://www.w3.org/2000/svg" viewBox="0 0 76 65.78"><defs><style>.cls-1{fill:#fff;}</style></defs><g id="Layer_2" data-name="Layer 2"><g id="Layer_13" data-name="Layer 13"><path class="cls-1" d="M62.38,65.28c-3,0-6.44-.29-10.1-.59-4.32-.36-9.22-.77-14.28-.77s-10,.41-14.28.77c-3.66.3-7.11.59-10.1.59C9,65.28,6,64.6,4,63.07,1.64,61.31.5,58.28.5,53.79.5,36.49,17.32,22.42,38,22.42S75.5,36.49,75.5,53.79C75.5,63.36,70.48,65.28,62.38,65.28Z"/><path class="cls-1" d="M38,22.92c20.4,0,37,13.85,37,30.87,0,9.15-4.83,11-12.62,11-3,0-6.41-.29-10.06-.59-4.33-.36-9.24-.77-14.32-.77s-10,.41-14.32.77c-3.65.3-7.09.59-10.06.59C5.83,64.78,1,62.94,1,53.79c0-17,16.6-30.87,37-30.87m0-1c-21,0-38,14.27-38,31.87,0,9.82,5.29,12,13.62,12,6.59,0,15.1-1.36,24.38-1.36s17.79,1.36,24.38,1.36c8.33,0,13.62-2.17,13.62-12,0-17.6-17-31.87-38-31.87Z"/><rect x="37.04" y="44.71" width="2.5" height="13" transform="translate(-25 42.08) rotate(-45)"/><rect x="31.79" y="49.61" width="13" height="2.5" transform="translate(-24.75 41.97) rotate(-45)"/><circle cx="54.71" cy="47.46" r="2"/><circle cx="21.71" cy="47.46" r="2"/><path class="cls-1" d="M51.53,42.77c-3.55-.61-6.62-2.3-8-4.4a3.69,3.69,0,0,1-.63-2.92C46.28,21.53,51.4.5,58.05.5a3.63,3.63,0,0,1,.73.08L59,.64c2,.45,4.55,1,6.6,10,4,17.52-1,26-3.32,27.79-2.53,2-6.1,3.46-10.62,4.39Z"/><path class="cls-1" d="M58.05,1a2.68,2.68,0,0,1,.62.07l.26.06c2,.43,4.24.93,6.22,9.6C69.08,27.91,64.08,36.4,62,38a24.86,24.86,0,0,1-10.32,4.27h-.06c-3.43-.59-6.38-2.19-7.68-4.18a3.21,3.21,0,0,1-.57-2.53C46.53,22.64,51.79,1,58.05,1m0-1C51.21,0,46.37,19.05,42.41,35.33c-.81,3.34,3.29,6.94,9.05,7.93l.25,0c3-.61,7.54-1.84,10.92-4.5,2.11-1.65,7.65-10.12,3.5-28.29C63.92.86,61.12.6,58.89.1a3.44,3.44,0,0,0-.84-.1Z"/><path class="cls-1" d="M23.56,43.22a25.47,25.47,0,0,1-10.62-4.38C10.66,37.05,5.62,28.57,9.62,11c2.05-9,4.58-9.53,6.61-10L16.48,1a3.08,3.08,0,0,1,.73-.08C23.86.93,29,22,32.37,35.87a3.75,3.75,0,0,1-.64,2.93c-1.38,2.1-4.45,3.78-8,4.4Z"/><path class="cls-1" d="M17.22,1.43h0c6.25,0,11.51,21.63,14.66,34.56a3.13,3.13,0,0,1-.57,2.53c-1.3,2-4.24,3.59-7.66,4.18h-.08a24.66,24.66,0,0,1-10.32-4.27c-2.06-1.62-7.06-10.1-3.14-27.29,2-8.66,4.24-9.16,6.22-9.6l.26-.05a2.7,2.7,0,0,1,.63-.07m0-1a4.14,4.14,0,0,0-.84.09c-2.23.5-5,.77-7.23,10.41C5,29.11,10.53,37.58,12.63,39.23c3.38,2.65,7.89,3.89,10.92,4.5l.26,0c5.75-1,9.85-4.59,9-7.93C28.89,19.48,24.06.42,17.21.43Z"/></g></g></svg>