<?xml version="1.0" encoding="UTF-8"?><svg xmlns="http://www.w3.org/2000/svg" viewBox="0 0 89.58 122.77"><defs><style>.d{fill:none;}.d,.e,.f{stroke:#000;stroke-miterlimit:10;}.f{fill:#fff;}</style></defs><g id="a"/><g id="b"><g id="c"><path class="f" d="M38.54,41.66c-2.4-2.93-7.37-9.8-9-20-1.56-9.71,.71-17.44,2-21,2.98,1.2,7.4,3.31,12,7,4.4,3.53,8.95,7.17,10,12,1.56,7.14-4.71,15.98-15,22Z"/><path class="f" d="M38.54,41.66c-4.48,.82-13.33,3.07-22,10C6.08,60.02,1.98,70.34,.54,74.66c1.51,3.38,6.76,13.99,19,20,7.34,3.6,14.14,4.05,18,4,12-4.33,24-8.67,36-13,.99-1.06,9-9.87,7-22-1.66-10.06-9.54-18.35-20-21,2.86-2.82,7.11-7.75,10-15,4.58-11.5,2.93-21.79,2-26-4.07,1.21-14.4,4.85-23,15-8.54,10.08-10.46,20.78-11,25Z"/><path class="f" d="M27.04,105.16c6.95-4.32,15.64-8.97,26-13,12.87-5.01,24.59-7.61,34-9,.5,2.23,2,16,2,16-8.38,2.98-18.06,6.3-27,10-10.26,4.25-19.93,8.61-29,13-1.44-1.64-6.08-15.06-6-17Z"/><polygon class="e" points="32.33 102.01 38.24 119.68 45.04 116.16 39.04 98.16 32.33 102.01"/><polygon class="e" points="48.04 94.16 53.04 112.16 59.92 110.04 54.32 91.67 48.04 94.16"/><polygon class="e" points="62.87 88.7 67.04 106.16 73.62 104.51 69.24 86.85 62.87 88.7"/><polygon class="e" points="77.54 85.19 80.32 102.04 84.58 100.4 82.21 84.04 77.54 85.19"/><path class="d" d="M.69,74.89c.55,.37,3.53,2.76,5,3,3.58,.59,6,1,14,0"/><circle class="e" cx="38.69" cy="66.89" r="1"/><path class="f" d="M22.69,80.89c-.54-.06-1.51-.26-2-1-.77-1.17-1.16-3.42,1-5"/></g></g></svg>