<svg xmlns="http://www.w3.org/2000/svg" viewBox="0 0 76 95.59"><defs><style>.cls-1{fill:#fff;}</style></defs><g id="Layer_2" data-name="Layer 2"><g id="bunny-inverted"><path class="cls-1" d="M62.38,95.09c-3,0-6.44-.29-10.1-.6-4.32-.36-9.22-.77-14.28-.77s-10,.41-14.28.77c-3.66.31-7.11.6-10.1.6C9,95.09,6,94.41,4,92.88,1.64,91.12.5,88.08.5,83.6.5,66.3,17.32,52.23,38,52.23S75.5,66.3,75.5,83.6C75.5,93.17,70.48,95.09,62.38,95.09Z"/><path class="cls-1" d="M38,52.73c20.4,0,37,13.85,37,30.87,0,9.15-4.83,11-12.62,11-3,0-6.41-.29-10.06-.59-4.33-.37-9.24-.78-14.32-.78s-10,.41-14.32.78c-3.65.3-7.09.59-10.06.59C5.83,94.59,1,92.75,1,83.6c0-17,16.6-30.87,37-30.87m0-1C17,51.73,0,66,0,83.6c0,9.82,5.29,12,13.62,12,6.59,0,15.1-1.37,24.38-1.37s17.79,1.37,24.38,1.37c8.33,0,13.62-2.17,13.62-12C76,66,59,51.73,38,51.73Z"/><path class="cls-1" d="M23.62,73a28.84,28.84,0,0,1-11.34-8.63C9.7,61.05,3.45,46,5.5,16.76,6.55,1.76,9,1.13,11,.63l.26-.07A1.82,1.82,0,0,1,11.75.5c6.86,0,14.69,36.61,19.87,60.83A9.78,9.78,0,0,1,23.72,73Z"/><path class="cls-1" d="M11.75,1c1.47,0,4.68,2.51,9.61,19.33,3.35,11.44,6.53,26,9.77,41.1A9.27,9.27,0,0,1,23.69,72.5a28.3,28.3,0,0,1-11-8.42C10.13,60.79,4,45.88,6,16.8,7,2.16,9.41,1.55,11.16,1.11L11.42,1a1.24,1.24,0,0,1,.33,0m0-1a2.39,2.39,0,0,0-.59.08C8.94.66,6.12.77,5,16.73c-2.11,30.05,4.54,44.94,6.88,48a29.58,29.58,0,0,0,11.67,8.84l.26,0A10.26,10.26,0,0,0,32.1,61.22C26.08,33.06,18.81,0,11.75,0Z"/><rect x="48.82" y="77.8" width="13" height="2.5" transform="translate(-39.69 62.27) rotate(-45)"/><rect x="54.07" y="72.9" width="2.5" height="13" transform="translate(-39.94 62.38) rotate(-45)"/><rect x="12.73" y="78.2" width="13" height="2.5" transform="translate(-50.55 36.87) rotate(-45)"/><rect x="17.98" y="73.31" width="2.5" height="13" transform="translate(-50.8 36.97) rotate(-45)"/><path class="cls-1" d="M49.79,73.26a9.75,9.75,0,0,1-7.88-11.67C47.09,37.37,54.92.76,61.78.76a1.82,1.82,0,0,1,.46.06l.25.07C64.49,1.4,67,2,68,17c2,29.25-4.2,44.3-6.78,47.63a28.84,28.84,0,0,1-11.34,8.63Z"/><path class="cls-1" d="M61.78,1.26a1.26,1.26,0,0,1,.33.05l.26.06c1.75.45,4.14,1,5.16,15.69,2,29.09-4.13,44-6.68,47.28a28.19,28.19,0,0,1-11,8.42A9.26,9.26,0,0,1,42.4,61.7C45.64,46.56,48.82,32,52.17,20.59,57.1,3.78,60.31,1.26,61.78,1.26m0-1c-7.06,0-14.33,33.06-20.36,61.23a10.27,10.27,0,0,0,8.3,12.27l.26,0A29.77,29.77,0,0,0,61.65,65c2.34-3,9-17.91,6.88-48C67.41,1,64.58.93,62.37.34a2.46,2.46,0,0,0-.59-.08Z"/></g></g></svg>