<?xml version="1.0" encoding="UTF-8"?><svg xmlns="http://www.w3.org/2000/svg" viewBox="0 0 150.48 144.33"><defs><style>.h,.i,.j,.k{stroke-miterlimit:10;}.h,.i,.k{stroke:#1d1917;}.i,.j{fill:#1d1917;}.l{fill:none;}.j{stroke:#fff;}.k{fill:#fff;}</style></defs><g id="a"/><g id="b"><g id="c"><path class="k" d="M97.26,78.71c.71-3.72,2.8-11.94,9.58-19.73,6.45-7.42,13.84-10.64,17.4-11.93,.99,3.05,2.2,7.8,2.32,13.7,.11,5.64,.23,11.46-2.8,15.37-4.48,5.77-15.28,6.63-26.5,2.59Z"/><path class="k" d="M97.26,78.71c-3.5-2.91-16.36-10.63-27.26-12.71-6.48-1.23-13-2-13-2,0,0,1,26-1,27-7.31,3.66-5.63,20.56-3.12,23.48,11.02,6.43,22.04,12.86,33.06,19.29,1.45,.08,13.35,.58,21.37-8.73,6.66-7.72,7.97-19.08,3.29-28.81,4,.39,10.51,.49,17.92-1.94,11.76-3.86,18.6-11.73,21.24-15.13-3.53-2.35-12.96-7.94-26.26-8.03-13.21-.09-22.66,5.29-26.24,7.59Z"/></g><g id="d"><path class="k" d="M96.18,125.67c-12.75-.53-25.49-1.06-38.24-1.6-3.59-1.41-9.72-4.41-15.15-10.52-9.05-10.19-9.9-22.01-10.01-25.7l23.31,3.36,.91-27.21"/><path class="k" d="M54.68,95.18c-.17-.52-.4-1.49,.06-2.24,.73-1.19,2.62-2.49,4.96-1.2"/><circle class="h" cx="77" cy="94" r="1"/><g id="e"><path class="k" d="M45.47,125.8c8.07-1.37,17.87-2.38,28.99-2.19,13.8,.24,25.64,2.27,34.88,4.54-.38,2.25-4.21,15.57-4.21,15.57-8.88-.41-19.1-1.01-28.78-.97-11.1,.05-21.7,.43-31.76,1.05-.71-2.07,.07-16.25,.88-18.01Z"/><polygon class="h" points="51.56 124.89 50.34 143.48 57.96 142.79 59.23 123.86 51.56 124.89"/><polygon class="h" points="69.07 123.57 66.88 142.12 74.06 142.77 75.83 123.64 69.07 123.57"/><polygon class="h" points="84.86 124.14 82.11 141.87 88.83 142.84 91.46 124.83 84.86 124.14"/><polygon class="h" points="99.77 126.43 95.96 143.09 100.53 143.18 104.54 127.14 99.77 126.43"/><path class="k" d="M45.47,125.8c8.07-1.37,17.87-2.38,28.99-2.19,13.8,.24,25.64,2.27,34.88,4.54-.38,2.25-4.21,15.57-4.21,15.57-8.42-.03-18.74-.07-28.42-.03-11.1,.05-22,0-32.12,.12-.71-2.07,.07-16.25,.88-18.01Z"/><polygon class="i" points="51.56 124.89 50.34 143.48 57.96 142.79 59.23 123.86 51.56 124.89"/><polygon class="i" points="69.07 123.57 67.71 142.68 74.71 142.68 75.83 123.64 69.07 123.57"/><polygon class="i" points="84.86 124.14 82.71 142.68 88.83 142.84 91.46 124.83 84.86 124.14"/><polygon class="i" points="99.77 126.43 95.96 143.09 100.53 143.18 104.54 127.14 99.77 126.43"/></g></g><g id="f"><g><path class="j" d="M18.27,29.79c.83-1.57,2.32-3.69,4.01-5.39,2.61-2.67,5.12-3.23,7.93-1.96,2.25,.96,4.67,3.24,6.66,5.66,3.39,4.16,3.83,6.54,2.94,7.71l.1,.1c1.87,.32,4.21,1.87,6.09,4.25,2.52,3.19,3.02,5.73,3.37,6.8-.57,0-1.14,0-1.71,0-.28-.77-.71-3.08-2.89-5.87-2.5-3.08-4.8-4-6.73-3.72-.65,.13-1.31,.26-1.97,.39,3.59,2.54,6.25,5.31,6.62,9.2-.55,0-1.1,0-1.65,0-.91-8.83-14.68-11.25-22.77-17.18Zm15.24,6.28c.76-.22,1.51-.43,2.27-.64,2.32-.61,2.07-2.63-.97-5.86-3.47-3.74-6.99-4.69-9.66-2.52-1.2,.94-1.88,1.79-2.11,2.24,3.39,2.61,7.15,4.69,10.47,6.79Z"/><path class="j" d="M54.48,33.75c-2.08,.24-4.16,.52-6.25,.85,2.06,3.43,3.58,6.35,4.28,9.47,1.89-.02,3.78-.05,5.67-.06,.14,.97,.23,1.95,.27,2.95-2.4,0-4.79,0-7.19,0-.54-9.15-8.82-14.72-17.57-31.37,3.89-2.52,7.97-4.61,12.18-6.28,.74,2.32,1.46,4.47,2.15,6.47-2.99,.98-5.93,2.15-8.82,3.52,2.58,4.91,4.99,8.79,7.06,12.11,2.26-.5,4.51-.93,6.75-1.3,.53,1.29,1.02,2.5,1.47,3.65Z"/><path class="j" d="M56.94,13.52c-2.26,.45-4.5,1-6.72,1.66-.65-2.09-1.32-4.33-2.01-6.75,5.84-2.07,11.9-3.35,18.02-3.83,.17,2.74,.34,5.27,.5,7.63-2.3,.15-4.59,.41-6.87,.77,3.02,18.53,4.99,25.68,5.13,33.95-.56,0-1.11,0-1.67,0-.18-8.26-2.65-15.28-6.37-33.43Z"/><path class="j" d="M72.2,4.39c-.08,14.86-.15,23.78-.19,30.52,0,7.35,1.26,9.41,2.98,9.58,1.96-.15,3.11-2.33,4.26-9.42,1.03-6.58,2.68-15.22,4.73-29.6,1.07,.19,2.13,.4,3.19,.64-2.52,13.89-4.57,22.31-5.88,28.76-2.01,9.58-3.51,12.28-6.41,12.54-2.64-.29-4.46-2.65-4.86-12.59-.23-6.72-.6-15.61-1.07-30.37,1.08-.04,2.16-.06,3.24-.05Z"/><path class="j" d="M92.35,8.45c1.77-.43,4.15-.14,6.24,.74,3.24,1.35,4.67,4.08,4.67,7.59,.03,2.8-1.07,6.12-2.81,9.04-3.01,4.93-5.98,7.03-8.2,7.97-.02,.05-.05,.09-.07,.14,.87,1.01,.38,3.16-.47,5.85-1.11,3.6-1.01,6.09-.8,7.18-.57,0-1.14,0-1.71,0-.17-.8-.33-3.07,.42-6.34,.94-3.64,1.01-5.38-.83-5.71-.63-.06-1.27-.13-1.9-.18-1.57,4.6-2.53,8.22-2.66,12.23-.55,0-1.1,0-1.65,0,.26-9.14,4.21-16.49,9.77-38.5Zm-4.31,22.99c.74,.1,1.47,.2,2.21,.3,2.28,.25,4.98-1.68,7.38-6.14,2.74-5.12,2.14-9.27-.89-10.4-1.37-.49-2.47-.45-3.03-.25-2.19,6.96-4.13,12.18-5.67,16.48Z"/><path class="j" d="M92.79,46.96c.56-9.14,9.15-14.56,17.99-30.69,1.01,.68,2,1.38,2.97,2.12-2.32,9.02-5.1,13.84-7.52,17.66-1.66,2.63-3.08,4.57-3.83,6.84l.06-.03c1.72-2.88,4.61-4.94,8.99-7.6,3.94-2.39,8.3-4.84,11.85-8.18,.74,.81,1.47,1.64,2.18,2.49-8.04,6.1-22.17,8.47-23.09,17.42-.56,0-1.11,0-1.67,0-.87-4.57,1.03-7.58,3.17-11.84,1.44-2.79,3.19-6.29,5.06-10.76h-.13c-3.16,4.63-6.33,8.01-9.6,12.08-2.75,3.47-4.61,6.62-4.88,10.51-.52,0-1.04,0-1.56,0Z"/></g></g><g id="g"><rect class="l" width="150" height="144"/></g></g></svg>