<?xml version="1.0" encoding="UTF-8"?><svg id="Layer_2" xmlns="http://www.w3.org/2000/svg" viewBox="0 0 1505 281.16"><defs><style>.cls-1{fill:#e8e8e8;}.cls-2{fill:none;stroke:#bcbcbc;stroke-miterlimit:10;stroke-width:2px;}</style></defs><g id="test-scene"><g id="cloud-back"><path class="cls-1" d="M1505,211.16v70H0v-60h.03c-.01-.36-.03-.88-.03-1.5-.16-24.03,15.2-48.09,33-60.5,25.33-17.66,62.52-16.55,91.96,3.82,16.2-16.34,41.28-26.82,69.44-26.82,24.48,0,46.64,7.92,62.65,20.73,4.43-1.73,9.1-3.22,13.97-4.47,2.67-38.07,41.18-68.26,88.29-68.26,40.28,0,74.28,22.06,84.96,52.25,2.63-.17,5.3-.25,8-.25,39.06,0,72.52,17.31,86.49,41.89,11.55-2.51,24.2-3.89,37.44-3.89,8.54,0,16.83,.57,24.74,1.65,5.2-12.09,18.77-38.68,48.06-54.65,40.75-22.22,95.05-14.67,137.45,19.19,4.72-13.25,17.37-22.75,32.24-22.75,5.98,0,11.62,1.54,16.52,4.25,1.53-6.1,7.88-28.39,29.79-43.69,28.09-19.62,58.97-11.85,63.43-10.65,1.13-3.94,10.61-35.06,41.57-47.35,26.83-10.65,58.8-2.8,80,20,27.61-32.02,70.64-46,111-36,58.26,14.43,77.59,70.57,78.7,74,37.62-23.32,82.35-26.6,115.3-7,18.91,11.25,47.31,37.98,47.83,70.89,.05,3.24-.18,5.92-.39,7.75,9.79-5.24,20.95-8.2,32.82-8.2,38.44,0,69.62,31.13,69.74,69.56Z"/><path id="outline" class="cls-2" d="M1,208.16c1.16-5.82,7.5-34.49,34-51,26.4-16.45,62.16-14.19,90,6,6.64-6.18,27.18-23.71,59-27,39.06-4.04,66.88,16.29,73,21,4.67-1.67,9.33-3.33,14-5,4.91-25.47,17.05-39.24,23-45,36.07-34.96,104.91-28.39,136,6,7.74,8.56,11.85,17.41,14,23,9.43-.94,29.49-1.66,52,8,23.71,10.18,37.34,26.38,43,34,8.21-1.9,18.34-3.56,30-4,12.45-.47,23.3,.57,32,2,3.33-8.41,17.24-40.62,53-58,33.57-16.31,65.01-9.16,78-6,26.57,6.47,44.79,20.04,54,28,.76-1.98,5.85-14.6,20-20,14.63-5.58,27.21,1.02,29,2,1.81-6.54,8.63-27.92,30-43,27.72-19.56,58.08-13.13,63-12,1.52-5.57,8.17-27.32,30-41,24.28-15.21,49.7-9.41,58-7,17.68,5.14,28.95,15.64,34,21,30.65-34.11,77.49-47.45,119-34,51.59,16.72,69.15,66.46,71,72,11.32-7.78,31.89-19.15,59-20,33.68-1.05,75.73,14.19,94,50,8.48,16.62,9.29,32.68,9,42,6.44-3.34,21.06-9.75,40-8,6.76,.62,30.08,3.77,47,24,11.09,13.26,14.06,27.45,15,34"/><path class="cls-2" d="M257,157.16c4.6,4.24,15.12,15.13,18,32,3.6,21.08-5.21,48.69-28,58-16.25,6.64-39.94,4.11-51-12-6.65-9.68-10.1-26.22-1-38,6.53-8.45,19.53-14.67,31-10,8.02,3.27,11.8,10.44,13,13"/><path class="cls-2" d="M271,152.16c-.36,4.46-2.08,31.43,18,52,14.69,15.05,39.18,24.75,62,17,4.42-1.5,29.98-10.85,33-34,2.35-18.02-9.68-38.8-27-42-9.38-1.74-23.21,1.15-29,12-3.77,7.07-4.1,17.48,2,25,5.34,6.59,13.02,7.76,15,8"/><path class="cls-2" d="M779,134.16c5.14,5.4,18.15,20.55,20,43,2.03,24.65-9.65,55.36-36,66-15.17,6.13-40.35,7.67-55-9-9.55-10.87-16.61-31.74-5-47,8.74-11.49,25.29-16.13,41-11"/><path class="cls-2" d="M1053,37.16c-19.02,22.21-25.46,51.66-16,77,1.65,4.41,11.76,30.1,39,40,20.01,7.27,51.92,6.99,67-15,11.16-16.28,13.33-44.78-4-58-12.33-9.4-33.41-10.23-46,2-9.87,9.59-10.04,22.86-10,26"/><path class="cls-2" d="M1240,78.16c-4.68,3.56-23.95,19.06-28,46-4.32,28.74,11.02,54.94,31,69,20.66,14.53,55.79,22.77,78,4,13.03-11.01,24.62-33.85,15-53-7.07-14.08-23.49-21.95-38-21-3.93,.26-15.03,.99-22,10-5.27,6.82-8.29,18.53-2,28,4.85,7.3,13.81,11.14,23,10"/><path class="cls-2" d="M1402,150.16c-16.49,11.11-25.37,29.71-23,48,.25,1.89,3.66,25.26,24,35,20.04,9.59,48.47,1.96,55-15,3.38-8.78,2.06-23.07-8-29-8.98-5.3-22.53-2.52-31,8"/><path class="cls-2" d="M30,176.16c4.59-4.35,14.31-12.34,29-16,21.9-5.47,39.77,2.45,45,5"/><path class="cls-2" d="M220,152.16c3.12,.32,23.74,2.8,36,21,7.75,11.5,8.11,23.28,8,28"/><path class="cls-2" d="M202,213.16c-.32,2.09-1.33,10.44,4,18,5.37,7.61,15.07,11.45,25,10"/><path class="cls-2" d="M347,180.16c-6.41-.54-11.61-4.65-13-10-1.86-7.18,3.89-13.7,9-16,7.5-3.37,18.12,.34,24,10"/><path class="cls-2" d="M296,197.16c-3.17-3.4-13.97-15.82-15-35-1.23-22.94,12.44-38.23,15-41"/><path class="cls-2" d="M404,107.16c4.92,2.39,15.12,8.19,23,20,6.06,9.08,8.17,17.85,9,23,6.16-1.86,16.38-4.1,29-3,13.77,1.2,24.16,5.85,30,9"/><path class="cls-2" d="M541,188.16c8.97-2.24,20.91-4.25,35-4,10.03,.17,18.81,1.45,26,3"/><path class="cls-2" d="M620,165.16c4.12-6.45,10.51-14.89,20-23,12.38-10.58,24.76-16.1,33-19"/><path class="cls-2" d="M714,194.16c-1.53,2.85-5.65,11.41-3,21,3.88,14.05,19.56,20.49,31,21,13.48,.6,26.43-6.81,34-19"/><path class="cls-2" d="M852,115.16c2.56-5.76,10.09-20.61,27-30,27.91-15.5,56.8-2.5,60-1,.21-4.58,1.52-21.46,15-36,14.87-16.05,33.86-17.73,38-18"/><path class="cls-2" d="M1099,99.16c.82-1.53,5.72-10.42,15-12,11.4-1.94,22.1,8.41,25,19,2.99,10.93-2.84,20.23-4,22"/><path class="cls-2" d="M1052,60.16c3.42-6.2,9.58-15.53,20-24,14.45-11.75,29.36-15.59,37-17"/><path class="cls-2" d="M1153,17.16c6.08,.31,20.54,1.88,35,12,13.01,9.11,19.37,20.5,22,26"/><path class="cls-2" d="M1284,157.16c-.37-1.57-2.32-10.57,3-17,6.69-8.1,20.62-6.94,29-1,11.43,8.1,10.07,23.35,10,24"/><path class="cls-2" d="M1259,187.16c-4.24-2.22-21.84-12.03-30-34-7.85-21.12-1.72-39.34,0-44"/><path class="cls-2" d="M1329,77.16c5.92,.69,25.18,3.69,41,20,11.41,11.77,15.48,24.75,17,31"/><path class="cls-2" d="M1425,203.16c4.27-6.79,12.11-9.47,18-7,6.92,2.9,7.95,11.57,8,12,.59,5.66-2.17,9.84-3,11"/><path class="cls-2" d="M1410,158.16c4.67-2.21,17.01-7.3,33-5,15.02,2.16,25.01,9.65,29,13"/></g></g></svg>