<svg xmlns="http://www.w3.org/2000/svg" viewBox="0 0 2005 405"><defs><style>.cls-1{fill:#fff;}</style></defs><g id="Layer_2" data-name="Layer 2"><g id="Layer_8" data-name="Layer 8"><path class="cls-1" d="M2005,310a95,95,0,0,1-88,94.74c-2.31.17-4.65.26-7,.26H1308.7c-2.13,0-4.22-.1-6.29-.29a43.58,43.58,0,0,1-5,.29H0V329H.42c0-.83,0-1.66,0-2.5a78.51,78.51,0,0,1,115.43-69.28,86.74,86.74,0,0,1-.43-8.72c0-53.3,46.56-96.5,104-96.5a112.32,112.32,0,0,1,18.48,1.52C244.27,67.63,314.79,0,443.38,0c113,0,204.75,73.54,206,164.64,2.34-.57,4.72-1.06,7.14-1.44,10-8.08,23.83-13.09,39.18-13.09,14.23,0,27.14,4.29,36.88,11.3a34.69,34.69,0,0,1-1.23-13,34,34,0,0,1,33.88-30.59,33.39,33.39,0,0,1,18.14,5.39C788.22,89.36,825.84,63,871.52,63c49,0,88.73,30.33,88.73,67.75a51.34,51.34,0,0,1-1.06,10.46A67.36,67.36,0,0,1,989.9,134c30.27,0,55.46,19.23,60.85,44.62a119.6,119.6,0,0,1,46.62-9.13c50.79,0,92,29.62,92,66.14a48.25,48.25,0,0,1-1.68,12.59,71.74,71.74,0,0,1,38.78-11c34.75,0,62.91,23.1,62.91,51.62a43.29,43.29,0,0,1-3.54,17.1,64.58,64.58,0,0,1,29.43-3.87,66,66,0,0,1,101.55-17.46A99.35,99.35,0,0,1,1447,280c30.49,0,57,13.33,70.5,32.94A57.59,57.59,0,0,1,1577,280.48a69,69,0,0,1,100.16.1,92,92,0,0,1,166.25-38.31A95,95,0,0,1,2005,310Z"/></g></g></svg>