<svg xmlns="http://www.w3.org/2000/svg" viewBox="0 0 1505 272"><defs><style>.cls-1{fill:#fff;}</style></defs><g id="Layer_2" data-name="Layer 2"><g id="cloud-repeat"><path class="cls-1" d="M1505,202v70H0V212H0q0-.75,0-1.5c0-34,40.27-61.5,90-61.5a126.79,126.79,0,0,1,35,4.82C141.16,137.48,166.24,127,194.4,127c24.48,0,46.64,7.92,62.65,20.73a121.38,121.38,0,0,1,14-4.47C273.69,105.19,312.2,75,359.31,75c40.28,0,74.28,22.06,85,52.25q3.94-.25,8-.25c39.06,0,72.52,17.31,86.49,41.89A177.17,177.17,0,0,1,576.2,165a183.21,183.21,0,0,1,24.74,1.65c6-36.76,34.2-64.43,99.14-64.43,32.91,0,63,13.15,86.37,29a34.22,34.22,0,0,1,48.76-18.5C840.93,80.55,871.74,56,908.86,56a82.07,82.07,0,0,1,19.57,2.35C929.52-22.63,1051.8-4,1046.8,33c-1.75,12.92,4.85-33,91-33,65,0,98.29,19.83,102,69,5.34-.89,16-23,71-22,51,.93,92.17,38.51,92.17,85.89a76.46,76.46,0,0,1-.39,7.75A69.75,69.75,0,0,1,1505,202Z"/></g></g></svg>