<svg xmlns="http://www.w3.org/2000/svg" viewBox="0 0 1505.02 276.23"><defs><style>.cls-1{fill:#fff;}.cls-2{fill:none;stroke:#000;stroke-miterlimit:10;stroke-width:2px;}</style></defs><g id="Layer_2" data-name="Layer 2"><g id="cloud-repeat"><path class="cls-1" d="M1505,206.23v70H0v-60h0q0-.75,0-1.5c0-34,40.27-61.5,90-61.5a126.79,126.79,0,0,1,35,4.82c16.2-16.34,41.28-26.82,69.44-26.82,24.48,0,46.64,7.92,62.65,20.73a121.38,121.38,0,0,1,14-4.47c2.67-38.07,41.18-68.26,88.29-68.26,40.28,0,74.28,22.06,85,52.25q3.94-.25,8-.25c39.06,0,72.52,17.31,86.49,41.89a177.17,177.17,0,0,1,37.44-3.89A183.21,183.21,0,0,1,601,170.88c6-36.76,34.2-64.43,99.14-64.43,32.91,0,63,13.15,86.37,29a34.22,34.22,0,0,1,48.76-18.5c5.72-32.14,36.53-56.69,73.65-56.69a82.07,82.07,0,0,1,19.57,2.35c1.09-81,123.37-62.35,118.37-25.35-1.75,12.92,4.85-33,91-33,65,0,98.29,19.83,102,69,5.34-.89,16-23,71-22,51,.93,92.17,38.51,92.17,85.89a76.46,76.46,0,0,1-.39,7.75A69.75,69.75,0,0,1,1505,206.23Z"/></g><g id="Layer_6" data-name="Layer 6"><path class="cls-2" d="M1,216.23c-1-32,31.18-50.54,45-56,38-15,76.33-2,77-2l-1,1c1-1,28.36-24.51,61-28,0,0,31.83-3.4,63,13,7.54,4,10,7,10,7,.47.57.74.45,1.56-.19a14.51,14.51,0,0,1,5.45-2.66,35.41,35.41,0,0,1,8-1.15s3-40,38-57c28.39-13.79,66.69-14.26,90-4,28,12.33,40.89,34.67,42,38,.47,1.4.7,2.1,2,6a105.19,105.19,0,0,1,95,42,189.74,189.74,0,0,1,61-3c2.66-9.69,10.79-34,34-49,11.75-7.59,22.43-9.62,35-12a153.07,153.07,0,0,1,75,5,157,157,0,0,1,42,21c.76-2,5.85-14.6,20-20,14.63-5.58,27.22,1,29,2,1.53-6.1,7.91-28.56,30-44,27.89-19.49,58.43-12.17,63-11,0-5.66.84-23.5,14-38,13.43-14.78,31.05-16.58,45-18,26.44-2.69,45.62,6.72,52,13a27.1,27.1,0,0,1,6,9,23.7,23.7,0,0,1,1.08,11.54.14.14,0,0,0,.24.12c12.09-13,27.41-29.47,68.68-35.66,20-3,39.41-2.6,49-1,18,3,44.22,10.21,58,26,12.82,14.68,16.7,35.33,17,37a76.38,76.38,0,0,1,1,8,101.17,101.17,0,0,1,40-21,105.15,105.15,0,0,1,51,0c7.89,2,25.94,6.65,43,22,6.65,6,24,22,28,48a72.48,72.48,0,0,1,0,22,72.51,72.51,0,0,1,20-7,71.75,71.75,0,0,1,35,2,70.26,70.26,0,0,1,35,26,71.47,71.47,0,0,1,13,38"/><path class="cls-2" d="M342,160.23c-.24-.82-4.36-15.87,4-24,9.25-9,27.47-3.42,36,6,11.45,12.63,7,33.82-1,46-13.51,20.73-42.11,23.28-60,20-5.43-1-33.44-5.61-45-30-5.81-12.26-4.9-24.09-4-30"/><path class="cls-2" d="M212,196.23c-18-2-37,23.59-15,44,14,13,34.91,8.32,48-1,17.06-12.13,23-33.39,23-50,0-10-2-24-11-37"/><path class="cls-2" d="M1109,106.23c-10-14,6.88-33.22,18-36,16.46-4.11,33.5,10.07,39,24,8.86,22.43-10.65,48.13-27,60-17.87,13-43.35,17.66-66,8-27.62-11.77-36.28-38.57-39-47-9-28,.11-52.17,3-59a83.37,83.37,0,0,1,9-16"/><path class="cls-2" d="M1289,145.23c-3-3,0-39,36-29,17,4.74,23.42,25.1,22,39-2.39,23.36-28.32,35.48-43,39-33.11,8-58.75-15.8-60-17-26.67-25.56-19.13-63.29-18-69,2.58-12.93,10.91-28.77,15-35"/><path class="cls-2" d="M1405,199.23c0-.62.34-14,11-20,10.35-5.86,23.69-1,29,7,7.68,11.58-2,28.92-12,37-14.28,11.49-37.87,11.08-51-2-18.31-18.24-5.93-44.89-4-49,5.5-11.7,18.73-23,24-27"/><path class="cls-2" d="M206,221.23c1.38,1.88,7,9.17,16,10,13.5,1.25,22.34-13.26,24-16a38.23,38.23,0,0,0,5-24"/><path class="cls-2" d="M357,158.23c1-8,6-14,15-8,5.51,3.67,3.66,17.34-2,26-6.33,9.7-16.93,12.35-20,13"/><path class="cls-2" d="M288,164.23a57.22,57.22,0,0,1,0-21c3.25-17.15,13.65-27.95,18-32"/><path class="cls-2" d="M726,177.23c-18,8-15,49,19,59,25,7.35,50-4,60-33,8-23.12,2.21-38.68-5-50-7-11-12-15-15-19"/><path class="cls-2" d="M739,199.23c2.76,9.27,10.08,16.22,19,18,12.48,2.49,21.62-6.42,24-9,9.4-10.18,7.66-23.84,7-29-2.13-16.78-13.48-27-17-30"/><path class="cls-2" d="M632,171.23a48.29,48.29,0,0,1,13-25c14.6-14.67,33.7-14.14,37-14"/><path class="cls-2" d="M540,194.23a88.66,88.66,0,0,1,59-2"/><path class="cls-2" d="M862,124.23c2.15-5.29,8.67-19.25,24-28,27.08-15.45,62.1-2,64-1,1.16-8.09-1.79-23.64,7-36,5.39-7.58,14.48-15.36,31-19a44.92,44.92,0,0,1,25,2"/><path class="cls-2" d="M413.64,119.73a44.83,44.83,0,0,1,17.17,40.77,30.89,30.89,0,0,1,23.3-9.4,34.71,34.71,0,0,1,20.34,8.21"/><path class="cls-2" d="M1126,104.23c-1.84-6.21-.06-12.38,4-15,5.7-3.68,13.49,1.18,17,5,6.54,7.11,4.52,17.39,4,20-3.08,15.71-18.76,23-21,24"/><path class="cls-2" d="M1138,22.23c12.62-.81,23.61.19,30,2,10.69,3,28.77,8,37,21a40.75,40.75,0,0,1,6,22"/><path class="cls-2" d="M42,198.23a64.27,64.27,0,0,1,33-23c26-7.54,47.34,4.8,51,7"/><path class="cls-2" d="M191,153.23a54.48,54.48,0,0,1,29,0,53.7,53.7,0,0,1,18,9"/><path class="cls-2" d="M1303,145.23c.3-6.53,3.35-12.17,8-14,7.6-3,17.18,5.08,19,13,2.66,11.57-11.59,21.35-14,23-11.1,7.62-23.21,6.5-27,6"/><path class="cls-2" d="M1245,143.23a61.42,61.42,0,0,1-1-25c3.32-19.65,15.46-31.85,20-36"/><path class="cls-2" d="M1417,201.23a9.83,9.83,0,0,1,6-11,9.49,9.49,0,0,1,11,4c3.06,5.49-2.82,13.42-7,17-7.68,6.58-17.67,5.35-20,5"/><path class="cls-2" d="M1417,156.23a44.8,44.8,0,0,1,28-3c17.51,3.91,26.31,17.31,28,20"/><path class="cls-2" d="M1323,73.23a63.64,63.64,0,0,1,53,40"/><path class="cls-2" d="M889,129.23a46.06,46.06,0,0,1,17-13c19.79-8.66,38.84.43,42,2"/><path class="cls-2" d="M1059,61.23c1.28-4.52,5.5-14.18,18-24,15.16-11.9,34.86-15.27,39-15"/></g></g></svg>