<?xml version="1.0" encoding="UTF-8"?><svg id="Layer_2" xmlns="http://www.w3.org/2000/svg" viewBox="0 0 1331.04 270.28"><defs><style>.cls-1{fill:#fff;}.cls-2{fill:none;stroke:#000;stroke-miterlimit:10;stroke-width:2px;}</style></defs><g id="cloud"><path class="cls-1" d="M1325.07,180.7c2.33,4.82,5.42,12.88,5.97,23.89v65.69h-462.68c-1.41,0-2.8-.07-4.17-.19-1.09,.13-2.2,.19-3.32,.19H0v-50.43H.28c-.02-.55-.03-1.1-.03-1.66,0-28.76,23.32-52.09,52.09-52.09,8.86,0,17.2,2.21,24.5,6.12-.19-1.9-.29-3.84-.29-5.79,0-35.37,30.89-64.03,69.01-64.03,4.19,0,8.28,.34,12.26,1.01C162.08,46.42,208.87,1.55,294.2,1.55c74.98,0,135.86,48.8,136.67,109.24,3.53-2.7,12.28-8.61,24.98-9.71,15.42-1.34,26.7,5.29,30.23,7.57,.25-2.42,1.45-11.24,8.92-18.19,10.12-9.41,23.19-7.41,24.78-7.14,3.23-22.48,28.19-39.97,58.5-39.97,32.52,0,56.72,21.62,56.72,46.45,0,2.36,1.92,3.18,1.45,5.45,1.79-.99,19.42-10.35,38.36-1.47,16.65,7.81,21.65,23.77,22.39,26.28,22.33-11.37,48.47-9.77,67.18,4.25,19.72,14.77,23.06,37.25,23.65,41.93,16.2-11.49,37.43-10.98,51.32,.53,16.76,13.88,13.99,36.45,13.8,37.79,4.66-1.8,9.8-2.79,15.19-2.79,1.47,0,2.91,.07,4.33,.22,7.46-13.48,21.83-22.61,38.33-22.61,11.14,0,21.32,4.17,29.05,11.03,6.18-1.98,12.96-3.07,20.05-3.07,20.23,0,37.82,8.84,46.78,21.86,6.1-12.92,19.26-21.86,34.5-21.86,1.68,0,3.34,.11,4.96,.32,8.34-8.78,20.13-14.25,33.2-14.25s24.92,5.5,33.26,14.32c4.28-22.73,20.31-41.34,41.72-48.16,24.64-7.86,52.34,1.2,68.6,22.74,6.98-6.87,15.55-12.12,25.1-15.15,1.29-.41,9.67-3.01,19.1-2.94,22.32,.16,46.79,13.87,57.73,36.49Z"/><path id="outline" class="cls-2" d="M1.52,218.28c-.06-2.62-.25-26.73,19.38-41.89,15.61-12.05,37.48-13.62,55.74-3.98-.34-6.46-.54-26.57,13.27-44.46,15.15-19.62,41.24-28.9,67.68-24.55,.64-9.46,3.05-26.23,13.27-43.79,10.39-17.87,23.66-27.59,30.52-32.51,40.57-29.09,112.38-37.36,168.54-6.64,12.98,7.1,35.69,19.92,49.76,47.11,8.82,17.04,10.85,33.15,11.28,43.13,3.18-2.48,13.18-9.63,27.87-9.95,13.9-.31,23.78,5.67,27.2,7.96,.18-1.99,1.27-11.97,9.95-19.24,10.15-8.51,22.31-6.29,23.89-5.97,1.08-5.66,3.47-13.48,9.29-20.57,20.26-24.69,70.86-26.73,94.22-.66,3.83,4.28,11.7,14.63,13.27,33.18,1.44-.76,21.66-11.05,41.14,0,13.82,7.84,18.27,21.33,19.24,24.55,22.61-11.39,48.98-9.64,67.68,4.64,19.36,14.79,22.63,36.99,23.22,41.8,13.08-10.51,31.39-11.83,45.78-3.32,14.21,8.41,21.88,24.78,19.24,41.14,2.5-.8,5.63-1.58,9.29-1.99,4.15-.46,7.77-.32,10.62,0,1.52-2.74,9.5-16.5,26.54-21.23,21.78-6.05,38.98,8.03,40.48,9.29,5.04-1.76,20.34-6.39,38.48-.66,15.71,4.96,24.98,14.96,28.53,19.24,1.7-3.39,5.43-9.63,12.61-14.6,11.22-7.76,23.07-6.99,26.54-6.64,2.94-2.98,12.85-12.28,28.53-13.93,21.64-2.28,36.44,11.91,38.48,13.93,.63-3.84,4.81-26.96,26.54-41.14,23.04-15.03,47.39-7.99,51.76-6.64,17.95,5.58,28.21,17.76,31.85,22.56,4.6-4.51,15.6-14,32.51-17.25,2.61-.5,28.76-5.08,51.09,12.61,12.94,10.24,18.04,22.73,19.24,25.88,5.96,15.57,3.65,29.24,2.46,34.59"/><g id="line-inner"><path class="cls-2" d="M1.52,218.28c-.17,4.38-.52,24.63,13.74,37.4,20.9,18.72,61.04,10.51,71.66-10.62,4.86-9.66,4.69-24.42-3.98-33.18-10.65-10.76-31.84-10.39-38.48-.66-3.38,4.95-4.26,14.17,1.33,19.24,4.21,3.82,11.1,4.39,17.25,1.33"/><path class="cls-2" d="M157.26,103.07c3.39,1.02,22.95,7.24,32.51,27.2,8.08,16.87,7.07,39.44-6.64,54.41-15.37,16.78-44.91,22.06-58.39,8.63-8.06-8.03-11.94-24.31-3.98-34.5,7.45-9.54,24.5-12.75,31.19-5.31,3.91,4.35,3.15,11.08,2.65,13.93"/><path class="cls-2" d="M430.63,111.03c-14.12,9.91-20.96,27.06-17.25,43.13,3.57,15.46,15.95,26.26,29.2,29.86,15.48,4.21,36.89-.11,44.46-15.92,5.5-11.5,4.14-30.08-7.96-36.49-8.67-4.6-22.51-2.77-28.53,6.64-4.59,7.17-2.51,15.41-1.99,17.25"/><path class="cls-2" d="M636.32,95.11c4.14,20.41-4.64,40.21-20.57,48.44-15.31,7.91-38.09,5.59-47.11-8.63-5.99-9.44-7-25.86,2.65-33.18,7.26-5.51,20.87-6.1,26.54,1.99,4.88,6.97,1.04,16.37,.66,17.25"/><path class="cls-2" d="M696.04,116.34c5.68,14.68,3.85,30.36-5.31,40.48-7.69,8.49-23.2,16-33.18,9.29-6.62-4.46-11-15.31-6.64-23.22,2.5-4.53,8.14-8.57,14.6-7.96,5.54,.52,9.03,4.25,9.95,5.31"/><path class="cls-2" d="M853.3,196.63c-.29,15.85-9.78,29.49-23.22,33.84-15.92,5.15-35.92-3.21-39.81-17.25-2.5-9.02,1.16-22.11,10.62-25.88,5.78-2.3,15.01-1.83,19.24,4.64,2.96,4.52,3.59,12.16-1.33,16.59-4.7,4.23-12.77,3.98-17.92-1.33"/><path class="cls-2" d="M872.54,201.93c-1.37,2.48-7.74,14.6-3.32,28.53,4.51,14.21,18.65,25.31,33.84,24.55,11.05-.55,26.58-7.58,27.87-20.57,.96-9.68-6.02-22.39-17.25-23.22-7.6-.56-15.35,4.45-19.24,12.61"/><path class="cls-2" d="M1328.52,218.28c-.45,2.91-5.49,32.25-31.32,44.04-3.82,1.74-22.12,10.09-39.15,.66-16.36-9.06-26.11-31.59-17.92-50.43,8.45-19.42,33.87-30.12,48.44-21.23,8.26,5.04,15.6,17.94,10.62,29.86-4.27,10.21-16.19,16.39-28.53,13.93"/></g><g id="line-deco"><path class="cls-2" d="M59.72,213.88c7.09-1.62,14.49,1.29,18.58,7.3,4.07,5.99,4.07,13.91,0,19.91"/><path class="cls-2" d="M17.92,245.06c-2.37-3.38-9.26-14.1-8.63-29.2,.54-12.72,6.13-21.67,8.63-25.21"/><path class="cls-2" d="M94.22,135.58c2.55-4.06,7.31-10.46,15.26-15.92,10.15-6.98,20.15-8.75,25.21-9.29"/><path class="cls-2" d="M171.19,124.96c2.27,2.34,7.29,8.16,9.29,17.25,1.79,8.13,.27,14.79-.66,17.92"/><path class="cls-2" d="M126.07,179.37c-3.53-4.97-3.52-11.65,0-16.59,3.58-5.01,10.03-7.16,15.92-5.31"/><path class="cls-2" d="M173.18,81.84c2.5-6.8,6.87-16.5,14.6-26.54,13.32-17.33,28.79-25.54,37.16-29.86,22.76-11.76,44.25-13.81,57.06-13.93"/><path class="cls-2" d="M343.71,20.79c9.13,2.65,25.34,8.65,41.14,22.56,17.53,15.43,25.67,32.75,29.2,41.8"/><path class="cls-2" d="M476.41,141.55c1.46,1.7,3.73,4.85,4.64,9.29,1.69,8.26-2.17,16.89-8.63,21.9-9.92,7.69-21.78,3.6-22.56,3.32"/><path class="cls-2" d="M458.5,107.05c4.32,.28,10.1,1.09,16.59,3.32,7.3,2.51,12.85,5.91,16.59,8.63-.39-1.79-2.4-11.96,3.98-19.91,3.67-4.57,8.41-6.27,11.28-7.3,8.61-3.09,16.34-1.61,19.91-.66-.11-3.15,.17-7.65,1.99-12.61,4.2-11.42,13.58-16.96,16.59-18.58"/><path class="cls-2" d="M600.49,142.22c3.37-.35,11.41-1.68,18.58-7.96,12.19-10.67,11.41-26.48,11.28-28.53"/><path class="cls-2" d="M680.12,154.82c2.04-1.13,5.34-3.36,7.96-7.3,5.11-7.67,3.7-15.96,3.32-17.92"/><path class="cls-2" d="M682.77,112.36c-1.4-2.36-4.06-6.12-8.63-9.29-6.79-4.71-13.7-5.25-16.59-5.31"/><path class="cls-2" d="M715.95,120.32c3.77-.8,9.59-1.58,16.59-.66,7.42,.97,13.1,3.45,16.59,5.31"/><path class="cls-2" d="M762.39,132.93c2.79,1.98,6.57,5.17,9.95,9.95,5.18,7.32,6.75,14.6,7.3,18.58"/><path class="cls-2" d="M833.39,170.75c2.41,1.73,6.94,5.51,9.95,11.94,4.34,9.25,2.64,17.84,1.99,20.57"/><path class="cls-2" d="M806.85,205.25c2.52,1.69,5.62,1.99,7.96,.66,3.44-1.94,4-6.69,2.65-9.95-1.87-4.53-7.07-5.28-7.3-5.31"/><path class="cls-2" d="M911.02,247.05c7.25-.36,13.24-5.39,14.6-11.94,1.1-5.3-.98-10.92-5.31-14.6"/><path class="cls-2" d="M1016.52,208.57c.94-2.21,3.19-6.6,7.96-9.95,8.61-6.04,18.34-3.72,19.91-3.32"/><path class="cls-2" d="M1055.01,190.65c2.3-2.03,10.61-8.88,23.22-9.29,10.72-.34,18.45,4.16,21.23,5.97"/><path class="cls-2" d="M1279.28,227.81c1.01-.08,9.4-.83,13.27-7.3,4.11-6.87,1.62-17.64-7.3-23.89"/><path class="cls-2" d="M1252.74,250.37c2.57,2.92,6.46,6.39,11.94,8.63,17.82,7.26,35.57-5.46,37.16-6.64"/><path class="cls-2" d="M1319.76,223.83c1.51-4.32,4.22-13.93,1.99-25.88-2.03-10.86-7.14-18.33-9.95-21.9"/><path class="cls-2" d="M1137.29,158.14c4.07-3.33,11.68-8.64,22.56-11.28,15.4-3.73,28.09,.13,33.18,1.99"/><path class="cls-2" d="M913.01,187.34c2.77-.06,7.74,.21,13.27,2.65,6.36,2.81,10.18,7.05,11.94,9.29,4.06-1.64,10.48-3.67,18.58-3.98,8.32-.32,15.03,1.29,19.24,2.65"/></g></g></svg>