<?xml version="1.0" encoding="UTF-8"?><svg id="Layer_2" xmlns="http://www.w3.org/2000/svg" viewBox="0 0 1899 334.47"><defs><style>.cls-1{fill:#a3a3a3;}.cls-2{fill:none;stroke:#6b6969;stroke-miterlimit:10;stroke-width:2px;}</style></defs><g id="test-scene"><g id="cloud-deco"><path class="cls-1" d="M1899,199.47v135H0V199.47c.58-3.22,1.56-7.55,3.27-12.51,1.53-4.43,4.85-13.91,12.53-23.49,12.76-15.92,32.13-26.3,53.95-26.97,15.5-21.81,40.97-36.03,69.75-36.03,7.38,0,14.54,.94,21.38,2.69,14.57-33.37,47.87-56.69,86.62-56.69,49.29,0,89.77,37.74,94.1,85.9,12.95-8.77,28.57-13.9,45.4-13.9,28.88,0,54.23,15.11,68.57,37.86,10.72-12.18,26.43-19.86,43.93-19.86,11.66,0,22.51,3.41,31.63,9.29-.09-1.59-.13-3.18-.13-4.79,0-47.22,38.28-85.5,85.5-85.5,21.56,0,41.25,7.98,56.29,21.15,19.81-23.92,49.73-39.15,83.21-39.15,2.99,0,5.95,.12,8.87,.36,19.33-21.91,52.48-36.36,90.13-36.36,47.12,0,87.19,22.63,101.94,54.19,2-.13,4.02-.19,6.06-.19,42.36,0,78.51,26.6,92.63,64.02,11.17-6.38,24.1-10.02,37.87-10.02,1.06,0,2.12,.02,3.17,.07,16.33-16.71,39.12-27.07,64.33-27.07,15.39,0,29.88,3.86,42.55,10.68,22.13-23.22,53.35-37.68,87.95-37.68s62.78,13.09,84.66,34.37c16.67-41.26,57.11-70.37,104.34-70.37,50.85,0,93.82,33.74,107.74,80.05,11.01-5.16,23.3-8.05,36.26-8.05,7.81,0,15.37,1.05,22.56,3.01,14.85-18.31,37.53-30.01,62.94-30.01,41.7,0,76.03,31.5,80.5,72.01,.16-.01,.33-.01,.5-.01,10.23,0,19.8,2.84,27.95,7.79,5.04-1.75,23.95-7.64,44.05,1.21,20.54,9.04,34.33,29.94,36,54Z"/><g id="outline"><path class="cls-2" d="M1,199.47c.54-5.17,3.49-28.04,23.5-45.5,18.17-15.85,38.67-17.01,44.37-17.14,4.83-6.83,15.11-19.34,32.63-27.86,26.48-12.88,51.42-7.84,59-6,3.72-7.93,17.27-34.29,48-48,31.82-14.2,71.07-9.93,99,13,28.43,23.34,33.1,56.11,34,64,4.38-2.79,33.58-20.73,69-10,27.02,8.19,41.09,28.04,45,34,3.18-3.56,15.03-15.97,35-19,21.39-3.24,37.24,6.54,41,9-.55-8.26-.89-30.3,13-52,15.17-23.7,42.14-38.94,71-39,30.71-.06,51.46,17.1,57,22,5.95-7.46,19.75-22.69,43-32,21.03-8.42,39.6-7.9,49-7,7.52-7.41,20.05-18,38-26,37.29-16.61,71.69-10.3,85-7,12.46,3.09,36.14,8.97,55,30,6.96,7.76,11.32,15.42,14,21,8.47-.51,35.47-1.06,62,17,24.17,16.45,33.87,38.75,37,47,4.61-2.67,11.36-5.92,20-8,8.43-2.03,15.75-2.24,21-2,5.56-5.83,21.38-20.84,47-26,30-6.04,53.41,5.47,60,9,6.16-6.28,36.05-35.44,84-37,50.36-1.64,83.08,28.37,89,34,3.72-9.46,16.69-38.87,49-57,49.36-27.69,99.54-4.18,104-2,42.67,20.89,56.53,61.34,59,69,6.42-3.05,17.15-7.15,31-8,11.86-.73,21.6,1.2,28,3,3.42-4.39,20.83-25.81,52-30,30.6-4.11,52.8,11.31,59,16,27.09,20.52,31.32,50.49,32,56,3.31-.4,8.69-.64,15,1,5.95,1.54,10.33,4.13,13,6,4.83-1.68,24.15-7.77,44.5,1.5,20.28,9.24,33.71,30.15,35,54"/></g><g id="line-inner"><path class="cls-2" d="M69,136.47c6.73-.21,21.53,.33,35,10,21.27,15.28,31.4,47.76,18,72-7.98,14.44-25.63,28.35-46,26-13.31-1.54-31.67-10.46-35-28-2.4-12.63,3.05-29.52,17-35,9.09-3.57,22.28-2.48,30,7,8.6,10.56,4.32,24.05,4,25"/><path class="cls-2" d="M162,100.47c-14.16,29.08-12.84,62.08,4,86,22.9,32.53,73.41,46.72,103,24,22.78-17.49,33.08-56.8,16-79-9.57-12.44-29.79-22.17-47-15-10.79,4.5-20.31,15.95-21,30-.71,14.37,8.22,24.13,10,26"/><path class="cls-2" d="M455,155.47c11.47,18.54,11.95,41.21,1,58-12.17,18.67-33.16,21.63-36,22-4.61,.59-23.15,2.97-37-10-2.27-2.13-14.85-13.9-12-30,2.28-12.92,13.74-24.28,27-25,2.21-.12,14.17-.47,21,9,5.41,7.5,5.47,18.2,0,27"/><path class="cls-2" d="M529,144.47c2.94,2.61,22.96,20.98,21,48-.32,4.37-2.03,28.02-21,38-9.33,4.91-26.1,8.23-37-2-11.44-10.73-11.48-31.73-1-41,5.52-4.88,16.66-8.91,24-3,4.97,4,6.86,11.47,5,19"/><path class="cls-2" d="M760,37.47c23.84,2.53,43.68,18.86,50,41,6.09,21.32-.66,46.94-20,60-17.55,11.85-45.7,13.54-59-2-8.47-9.9-12.46-28.44-3-39,5.39-6.01,16.29-10.73,26-6,7.19,3.51,11.82,11.26,12,20"/><path class="cls-2" d="M958,55.47c-4.91-.09-25.92,.05-43,16-3.21,3-24.79,23.8-18,51,3.66,14.67,15.05,29.31,32,34,13.54,3.74,32.36,1.62,42-11,1.18-1.55,9.11-11.94,5-23-3.44-9.26-13.91-15.2-24-14-10.54,1.26-16.19,9.74-17,11"/><path class="cls-2" d="M1203,92.47c3.97,2.67,16.79,12.02,21,29,4.98,20.08-3.81,43.81-23,54-16.29,8.65-41.42,8.25-52-7-5.94-8.57-8.81-23.75,0-34,7.88-9.17,23.44-12.45,33-5,6.65,5.18,7.76,13.5,8,16"/><path class="cls-2" d="M545,166.47c3.68,5.19,14.33,18.72,33,24,20.46,5.78,48.85,1.16,61-19,7.82-12.97,10.45-34.91-2-46-6.76-6.03-19.26-9.99-30-4-8.54,4.76-13.61,14.5-13,25"/><path class="cls-2" d="M1819,144.47c-21.06,8.19-32.68,29.99-28,50,4.32,18.47,21.59,31.42,39,32,12.49,.42,31.62-5.3,35-20,2.08-9.05-1.63-22.31-13-27-9.67-3.99-21.51-.41-28,9"/><path class="cls-2" d="M1790,136.47c.04,1.79,.27,34.71-26,51-19.85,12.31-48.66,11.28-64-5-1.71-1.82-14.87-16.26-10-34,3.02-11.01,13.07-23.58,28-24,11.59-.33,22.62,6.76,28,18"/><path class="cls-2" d="M1378,85.47c-2.46,6.33-11.87,32.74,0,62,2.88,7.1,14.43,35.56,44,44,21.15,6.03,52.02,1.97,66-21,9.89-16.26,11.37-42.08-4-57-11.06-10.74-31.41-16.38-45-7-.84,.58-13.19,9.42-12,24,.82,10.11,7.83,19.07,18,23"/></g><g id="line-deco"><path class="cls-2" d="M84,204.47c-.02-.58-.51-9.7-8-14-7.42-4.26-16.34-.54-21,4-6.36,6.2-7.73,16.8-3,26"/><path class="cls-2" d="M116,211.47c1.68-4.12,4.96-13.78,3-26-2.24-13.97-9.98-22.86-13-26"/><path class="cls-2" d="M22,170.47c3.17-4.3,8.9-10.87,18-16,14.9-8.4,29.39-7.61,35-7"/><path class="cls-2" d="M95,125.47c4.57-3.54,12.65-8.89,24-12,10.96-3,20.33-2.65,26-2"/><path class="cls-2" d="M233,160.47c-5.27-7.36-6.06-16.74-2-24,4.03-7.21,11.27-9.5,13-10"/><path class="cls-2" d="M274,136.47c2.32,3.72,5.94,10.64,7,20,.41,3.63,1.64,16.16-6,29-6.62,11.12-16.15,16.2-20,18"/><path class="cls-2" d="M172,172.47c-2.89-5.41-7.59-15.95-8-30-.48-16.29,5.06-28.49,8-34"/><path class="cls-2" d="M234,58.47c6.82-1.33,22.23-3.37,40,3,7.56,2.71,20.08,8.56,31,21,10.19,11.61,14.29,23.59,16,30"/><path class="cls-2" d="M357,138.47c5.51-2.94,15.63-7.39,29-8,17.97-.81,31.38,5.8,37,9"/><path class="cls-2" d="M413,200.47c2.06-5.18,1.3-10.93-2-15-4.91-6.05-12.78-5.14-14-5-7.97,.92-14.17,7.65-16,15-2.77,11.16,5.59,19.6,6,20"/><path class="cls-2" d="M411,225.47c3.41,.48,14.25,1.54,25-5,15.55-9.46,17.76-26.81,18-29"/><path class="cls-2" d="M512,199.47c.05-3.97-1.92-7.56-5-9-4.3-2.02-10.51,.28-13,6"/><path class="cls-2" d="M502,225.47c2.37,.79,9.59,2.87,18,0,10.45-3.57,15.06-12.15,16-14"/><path class="cls-2" d="M539,179.47c-.24-2.77-1.53-13.92-11-23-9.27-8.89-20.16-9.84-23-10"/><path class="cls-2" d="M604,137.47c.58-.96,3.99-6.46,11-8,.84-.18,8.79-1.79,15,4,6.41,5.98,5.11,14.38,5,15"/><path class="cls-2" d="M605,181.47c-5.77,.87-17.88,1.84-31-4-4.15-1.85-21.69-9.65-28-29-4.06-12.47-1.41-23.41,0-28"/><path class="cls-2" d="M564,86.47c4.89-4.67,14.19-12.33,28-17,20.86-7.06,38.61-2.67,45-1,20.65,5.39,33.62,17.39,39,23,3.07-4.66,7.61-10.74,14-17,11.02-10.79,21.64-16.33,25-18,7.16-3.57,16.66-8.29,30-9,11.38-.6,20.55,1.99,26,4"/><path class="cls-2" d="M796,71.47c2.03,3.7,8.33,16.29,5,32-.93,4.38-3.51,15.7-14,24-7.86,6.22-16.2,7.61-20,8"/><path class="cls-2" d="M733,107.47c1.84-5.31,6.69-8.9,12-9,6.16-.11,11.79,4.5,13,11"/><path class="cls-2" d="M804,24.47c6.53-2.92,14.95-5.97,25-8,13.13-2.65,24.55-2.66,33-2"/><path class="cls-2" d="M883,18.47c5.65,.73,13.94,2.47,23,7,10.8,5.4,17.95,12.38,22,17"/><path class="cls-2" d="M941,124.47c.45-.77,3.69-6.07,10-7,6.18-.92,12.79,2.72,15,9,1.84,5.21,.26,11.16-4,15"/><path class="cls-2" d="M924,143.47c-2.74-1.6-12.97-8.02-17-21-5.93-19.12,7.06-34.89,8-36"/><path class="cls-2" d="M959,66.47c7.71-.17,22.12,.56,38,8,13.28,6.22,22.09,14.57,27,20"/><path class="cls-2" d="M1062,131.47c3.95-2.06,8.97-4.27,15-6,6.93-1.99,13.12-2.75,18-3"/><path class="cls-2" d="M1146,93.47c4.64-1.27,24.64-6.19,44,5,9.25,5.35,14.91,12.38,18,17"/><path class="cls-2" d="M1213,141.47c-.09,1.73-1,15.34-13,24-11.57,8.35-24.21,5.44-26,5"/><path class="cls-2" d="M1156,143.47c1.75-4.93,6.04-8.45,11-9,5.92-.66,11.78,3.02,14,9"/><path class="cls-2" d="M1245,81.47c7.03-4.11,20.24-10.56,38-12,22.35-1.82,39.45,5.3,47,9"/><path class="cls-2" d="M1449,143.47c-1.39-.68-7.23-3.7-9-10-2.25-8,3.54-16.03,9-19,8.84-4.82,23.61-.07,33,14"/><path class="cls-2" d="M1458,179.47c-3.21,1.01-23.57,7-44-5-20.95-12.31-25.39-33.79-26-37"/><path class="cls-2" d="M1405,71.47c4.28-7.11,11.47-16.81,23-25,27.82-19.78,59.16-15.34,67-14"/><path class="cls-2" d="M1350,87.47c3,1.67,6,3.33,9,5"/><path class="cls-2" d="M1534,48.47c5.74,3.97,12.94,9.79,20,18,7.92,9.21,12.9,18.21,16,25"/><path class="cls-2" d="M1601,108.47c4.15-1.59,9.93-3.32,17-4,7.82-.75,14.4,.07,19,1"/><path class="cls-2" d="M1711,78.47c5.45-.36,16.16-.33,28,5,15.24,6.86,23.15,18.36,26,23"/><path class="cls-2" d="M1755,179.47c-1.79,.95-19.15,9.8-36,1-8.63-4.51-13.12-11.55-15-15"/><path class="cls-2" d="M1707,143.47c.82-1.08,4.92-6.21,12-7,4.94-.55,8.67,1.31,10,2,5.94,3.07,8.35,8.39,9,10"/><path class="cls-2" d="M1772,160.47c1.74-3.17,4.24-8.69,5-16,.84-8.04-.81-14.47-2-18"/><path class="cls-2" d="M1833,191.47c4.12-4.5,10.71-5.71,16-3,5.04,2.58,8.08,8.31,7,14-.88,4.63-4.34,8.46-9,10"/><path class="cls-2" d="M1820,214.47c-2.96-1.11-10.21-4.31-15-12-9.09-14.61-.43-31.21,0-32"/><path class="cls-2" d="M1824,156.47c3.87-1.58,14.81-5.44,28-2,15.63,4.07,23.69,15.59,26,19,5.95,8.79,7.51,17.46,8,22"/></g></g></g></svg>