<?xml version="1.0" encoding="UTF-8"?><svg id="Layer_2" xmlns="http://www.w3.org/2000/svg" viewBox="0 0 1048.49 222.54"><defs><style>.cls-1{fill:#fff;}.cls-2{fill:none;stroke:#000;stroke-miterlimit:10;stroke-width:2px;}</style></defs><g id="Layer_45"><path class="cls-1" d="M1048.49,180.3c-11.32-20.17-27.54-30.48-34-34.17,4.18-17.24-1.17-35.34-14-47-14.43-13.12-35.97-15.96-54-7,.11-1.83,1.43-34.71-25-53-20.44-14.15-48.69-13.49-70,2-6.15-6.11-43.59-42.05-102-40-57.59,2.02-92.16,39.46-98,46-1.03-.94-21.46-18.92-48-11-26.22,7.82-33.6,33.52-34,35-2.08-.75-9.47-3.11-18,0-10.12,3.7-14.25,12.35-15,14-26.32-19.84-59.79-24.71-87-12-22.45,10.48-33.24,29.48-37,37-5.05-1.11-11.5-2.05-19-2-8.93,.06-16.43,1.49-22,3-3.05-5.09-8.64-12.76-18-19-19.06-12.69-39.53-9.92-45-9-11.88-25.67-39.13-40.32-66-36-24.17,3.89-44,22.47-50,47-2.67,1-5.33,2-8,3-3.78-3.09-21.4-16.82-47-15-23.42,1.66-38.18,15.25-42,19-4.18-1.16-38.28-9.99-67,12C11.1,126.44,5.6,145.13,.49,162.12v60.42H1048.49v-42.24Z"/><path class="cls-2" d="M94.49,100.13c2.76,1.01,15.27,5.93,21,19,6.42,14.65,1.84,33.82-12,43-10.72,7.12-27.76,8.74-38-1-6.58-6.26-7.73-14.71-8-18"/><path class="cls-2" d="M181.99,94.63c2.95,2.32,9.82,8.38,12.5,18.5,.29,1.08,5.64,22.49-8,31-9.14,5.7-24.59,4.22-30-6-3.41-6.45-2.13-15.07,3-22"/><path class="cls-2" d="M192.49,94.13c-1.32,17.31,6.57,33.12,20,40,9.09,4.65,24.49,7.16,35-2,6.03-5.25,12.71-16.32,8-27-3.38-7.67-11.6-12.75-21-13"/><path class="cls-2" d="M370.49,111.13c7.3,15.92,3.74,33.99-8,44-10.79,9.2-28.75,11.82-40,3-5.65-4.43-9.79-11.88-10-20-.06-2.45-.28-10.78,6-17,8.6-8.51,21.38-5.17,22-5"/><path class="cls-2" d="M412.49,109.13c-5.86,13.96-4.01,29.48,5,40,1.28,1.5,10.9,12.36,26,12,9.62-.23,24.76-5.08,28-18,2.31-9.22-1.52-22.23-12-26-6.81-2.45-14.87-.44-21,5"/><path class="cls-2" d="M651.49,47.13c11.58,11.76,15.13,28.56,9,42-5.62,12.32-19.99,23.17-34,20-7.83-1.77-19.39-8.8-19-20,.31-8.92,8.09-17.32,19-19"/><path class="cls-2" d="M851.49,40.13c-15.64,12.45-23.43,31.67-20,50,.29,1.54,5.95,29.32,30,36,17.12,4.75,40.57-2.01,46-19,3.88-12.16-1-31.01-15-35-9.47-2.7-20.86,2.04-28,12"/><path class="cls-2" d="M945.49,92.13c-15.02,8.27-20.8,25.43-15,38,4.66,10.1,16.64,16.93,28,15,7.71-1.31,18.87-7.29,19-17,.1-7.05-5.62-15.81-14-16-5.77-.13-11.4,3.83-14,10"/><path class="cls-2" d="M1014.49,146.13c-4.43-1.23-15.62-3.69-28,1-2.06,.78-25.52,10.1-27,32-.89,13.25,6.35,29.68,21,34,11.4,3.36,26.71-.78,32-12,3.22-6.84,3.77-18.55-4-24-5.99-4.2-15.63-3.78-21,2-3.82,4.11-4.01,9.35-4,11"/><path class="cls-2" d="M7.49,177.13c.15-5.35,.86-12.24,3-20,2.47-8.94,6-16,9-21"/><path class="cls-2" d="M48.49,110.13c4.23-2.24,12.73-6,24-6,14.61,0,25.05,6.31,29,9"/><path class="cls-2" d="M66.49,143.13c.05,.61,.92,9.71,9,14,6,3.18,13.5,2.4,19-2"/><path class="cls-2" d="M140.49,88.13c4.16-.32,13.81-.47,24,5,7.14,3.83,11.61,8.85,14,12"/><path class="cls-2" d="M161.49,123.13c-.27,.55-3.08,6.43,0,12,2.72,4.92,8.88,7.49,15,6"/><path class="cls-2" d="M239.49,99.13c.75,.17,7.15,1.74,10,8,2.21,4.86,1.43,10.67-2,15"/><path class="cls-2" d="M209.49,122.13c-1.57-1.62-10.58-11.21-10-26,.61-15.56,11.33-24.64,13-26"/><path class="cls-2" d="M278.49,61.13c4.72,3.33,11.21,8.76,17,17,3.85,5.49,6.36,10.74,8,15,4.08-1.32,11.21-3.02,20-2,12.13,1.41,20.45,7.2,24,10"/><path class="cls-2" d="M337.49,124.13c-5.6-2.01-11.61-1.37-15,2-4.98,4.95-4.57,16.06,4,23"/><path class="cls-2" d="M444.49,126.13c.64-.45,4.82-3.31,10-2,4.56,1.15,8.09,5.07,9,10"/><path class="cls-2" d="M452.49,153.13c-1.11,.38-15.36,5.05-27-4-12.38-9.63-10.31-25.83-10-28,1.49-10.28,7.7-16.8,10-19"/><path class="cls-2" d="M438.49,90.13c2.87-2.78,6.83-6.06,12-9,7.77-4.41,15.05-6.21,20-7"/><path class="cls-2" d="M501.49,77.13c4.66,.54,12.56,2.07,21,7,7.39,4.31,12.22,9.5,15,13,1.4-3.04,4.83-9.36,12-14,2.44-1.58,7.59-4.82,15-5,6.06-.15,10.69,1.82,13,3-.13-2.99,.06-7.7,2-13,2.99-8.15,8.41-12.97,11-15"/><path class="cls-2" d="M643.49,50.13c3.08,3.35,8.39,10.17,10,20,.62,3.79,1.41,9.02-1,15-2.47,6.11-6.9,9.57-9,11"/><path class="cls-2" d="M616.49,95.13c-2.31-3.75-2.31-8.43,0-12,3.04-4.69,8.49-4.98,9-5"/><path class="cls-2" d="M661.49,47.13c5.62-5.36,12.89-11.37,22-17,14.35-8.86,27.92-13.48,38-16"/><path class="cls-2" d="M762.49,13.13c8.9,.42,22.14,2.09,37,8,15.87,6.31,27.15,14.9,34,21"/><path class="cls-2" d="M871.49,85.13c4.66-5.4,11.69-7.76,18-6,6.2,1.73,9.28,6.75,10,8"/><path class="cls-2" d="M884.49,120.13c-2.09,.59-15.21,4.03-28-4-13.55-8.51-15.74-23.01-16-25"/><path class="cls-2" d="M870.49,40.13c3.76-1.64,14.03-5.52,27-3,11.52,2.24,19.21,8.37,23,12,7.44,7.12,10.65,14.96,12,19"/><path class="cls-2" d="M956.49,123.13c.13-.24,2.3-3.94,6-4,3.82-.06,6.54,3.8,7,7,.57,4.02-2.24,8.36-7,10"/><path class="cls-2" d="M940.49,131.13c-1.33-1.56-5.01-6.3-5-13,.01-7.86,5.11-15.26,13-19"/><path class="cls-2" d="M981.49,96.13c3.25,1.01,10.66,3.79,17,11,7.03,7.99,8.58,16.68,9,20"/><path class="cls-2" d="M988.49,187.13c.49-.98,1.94-3.55,5-5,5.36-2.54,10.64,.77,11,1"/><path class="cls-2" d="M1004.49,203.13c-.97,.83-8.1,6.7-18,5-10.77-1.85-15.53-11.04-16-12"/><path class="cls-2" d="M994.49,152.13c3.72-.67,11.87-1.6,21,2,13.76,5.42,19.66,17.14,21,20"/><g id="Layer_46"><path class="cls-2" d="M.99,162.04c.76-5.5,4.91-31.11,28-49,28.88-22.38,62.72-13.55,66.5-12.5,3.74-3.42,22.62-19.96,50.5-18.5,19.69,1.03,33.34,10.49,38.5,14.5,2.67-.67,5.33-1.33,8-2,.57-2.23,9.69-35.6,40.5-45.5,27.38-8.8,60.03,4.76,76,34,4.37-.95,23.6-4.61,42,7,11.24,7.09,17,16.61,19.5,21.5,5.5-1.59,12.81-3.15,21.5-3.5,8.13-.33,15.11,.48,20.5,1.5,3.44-7.01,12.81-23.58,32.5-34.5,28.12-15.59,56.01-7.83,62-6,13.71,4.2,23.42,11.25,29,16,.94-1.85,5.55-10.43,16-14,8.41-2.87,15.63-.79,18,0,.93-3.39,5.89-20.05,23-30,2.51-1.46,18.44-10.38,38-5,10.15,2.79,17.01,8.27,20.5,11.5,8.8-9.92,28.26-29.05,59.5-39.5,10.8-3.61,45.92-13.86,87,0,26.29,8.87,43.69,23.79,52.5,32.5,4.23-3.02,19.35-13.03,40.5-11.5,6.92,.5,26.36,3.1,41,20,15.63,18.05,14.31,39.11,14,43,4.44-2.17,14.33-6.25,27-5,4.95,.49,23.52,3.09,35,20,11.86,17.47,6.76,36.35,6,39,6.08,2.97,15.63,8.67,24,19,4.51,5.57,7.5,11.03,9.5,15.5"/></g></g></svg>