<svg xmlns="http://www.w3.org/2000/svg" viewBox="0 0 1038.65 659.18"><defs><style>.cls-1{fill:#fff;}.cls-2{fill:none;stroke:#000;stroke-miterlimit:10;stroke-width:2px;}</style></defs><g id="Layer_2" data-name="Layer 2"><g id="Layer_18" data-name="Layer 18"><path class="cls-1" d="M114.65,600.24a51.43,51.43,0,0,0,5,27c6.24,12.67,16,18.9,21,22s18,11.18,35,9a43.88,43.88,0,0,0,22-9,43.3,43.3,0,0,0,12-15c2.17,1.29,5.24,3.06,9,5a171.39,171.39,0,0,0,46,16c23.26,4.4,41.5,2.51,55,1a177.76,177.76,0,0,0,47-11,171.25,171.25,0,0,0,23-11,34.83,34.83,0,0,0,13,14c9.65,5.71,19.26,4.64,25,4a49.55,49.55,0,0,0,26-11,43.22,43.22,0,0,0,13-18,47.5,47.5,0,0,0,2-21c-4.3-29-163.7-104.1-297-40A248.38,248.38,0,0,0,114.65,600.24Z"/></g><g id="Layer_17" data-name="Layer 17"><path class="cls-1" d="M856.85,26.84h0A35,35,0,0,1,867.1,26c38.55,3.27,56.55,25.27,57.68,54.9a37.12,37.12,0,0,1-.25,5A42.46,42.46,0,0,1,945,80.58c24,0,43.53,20,43.53,44.66a45.41,45.41,0,0,1-.49,6.74L983.3,469.66l-927.21,0V128.21c0-21.74,18.19-37,49.2-37a77.06,77.06,0,0,1,21.85,3.09c10.11-10.46,25.77-17.17,43.34-17.17,15.29,0,29.11,5.07,39.11,13.27a74.19,74.19,0,0,1,8.72-2.86C220,63.14,244,43.82,273.42,43.82c25.15,0,46.37,14.12,53,33.44,1.64-.11,3.31-.16,5-.16,24.38,0,45.27,11.08,54,26.81a107.77,107.77,0,0,1,23.37-2.49,110.11,110.11,0,0,1,15.44,1.06C428,79,445.59,61.24,486.12,61.24c20.54,0,39.35,8.42,53.91,18.54a21.43,21.43,0,0,1,20.13-14.55,20.89,20.89,0,0,1,10.31,2.71c3.58-20.56,22.8-36.27,46-36.27a49.92,49.92,0,0,1,12.21,1.5c12,3.07,12,8,18,12.07,8.07-8.86,35.42-36.6,80-43a131.65,131.65,0,0,1,72,10,126.25,126.25,0,0,1,38,27l11-9"/><path class="cls-1" d="M114.18,603.4v0a3,3,0,0,0-4.16-2.81A42.38,42.38,0,0,1,94,603.69c-24,0-43.54-20-43.54-44.67a45.37,45.37,0,0,1,.5-6.73v-217l932,5V556.05c0,21.74-18.18,37-49.19,37A77,77,0,0,1,911.83,590c-10.11,10.45-25.77,17.17-43.34,17.17-15.29,0-29.12-5.07-39.12-13.27a72.36,72.36,0,0,1-8.72,2.85c-1.66,24.38-25.7,43.69-55.11,43.69-25.14,0-46.36-14.11-53-33.44-1.64.12-3.31.17-5,.17-24.38,0-45.27-11.08-54-26.81a108.26,108.26,0,0,1-23.37,2.49,111.61,111.61,0,0,1-15.43-1.06C611,605.32,593.38,623,552.84,623c-20.54,0-39.34-8.42-53.91-18.55A21.42,21.42,0,0,1,478.81,619a20.74,20.74,0,0,1-10.31-2.72"/><path class="cls-1" d="M69.59,101c-26.4,22.7-28.51,38.36-30.09,55.43-2.64,28.5,13.55,53.81,16.63,57.27"/><path class="cls-1" d="M58.86,561.66c-4.22-2.58-57.54-39.09-57.21-93.42.05-8.52,2.62-45.19,34.51-62.82,23.56-13,55.53-8.48,79.71,12.14"/><path class="cls-1" d="M52.65,386.24c-22.43-4.53-38.54-29.2-42-69-2-23-1.55-62.41,24.62-93.76,3.94-4.71,16.37-18.09,36.95-21.12,28.83-4.23,49.61,15.36,52.26,17.95"/><path class="cls-1" d="M76.45,530.45c-44.58-9.05-75.21-41.88-76-76-.58-24.23,13.68-58,41.7-64.92,15.3-3.78,29.11,1.85,35.89,5.28"/><path class="cls-1" d="M915.21,168.05c14.57-27.18,43.79-40.36,68.09-33.25,33.63,9.83,38.55,52.83,39.06,58.06,3.47,35-20.09,58.69-22.17,60.7a75.59,75.59,0,0,1-37.47,19.54"/><path class="cls-1" d="M913.1,310c-.14-2.63-1.29-33,21.11-49.09,23.28-16.7,55.93-6.42,72.85,10.56,24.46,24.56,19.06,73.55,4.22,97.65A82.63,82.63,0,0,1,968.52,404"/><path class="cls-1" d="M890.46,427.17c2.57-4,24.66-37.54,61.76-39.06,49.26-2,73.53,39.64,76,45.39C1040.5,462,1042,510,1013.45,541.71c-12.58,14-28.72,18.51-38.54,17.95"/><path class="cls-2" d="M988.05,136.38c3.17-23.23-5.61-40.47-20.41-49.42-10.56-6.4-25.09-8.29-36.48-4.35a27.41,27.41,0,0,0-6.94,3.48c-10.43,7.41-11.92,20.52-12.16,23.45-.13,1.49-1.5,21.9,13.89,31.27C937.7,148,956.53,147,963.3,135.6c5.66-9.56,2.32-25.46-6.95-29.53-5.19-2.28-14-1.63-17.37,4.34-3.23,5.7.58,12.53.87,13"/><path class="cls-2" d="M924.22,86.09c.86-7,0-13.9-2.61-23.45-4.73-17.34-19.08-25.11-23.45-27.8a59.91,59.91,0,0,0-31.27-8.68,39.55,39.55,0,0,0-10.42.87c-12.18,2.92-23.32,13-27.8,26.05-.56,1.64-8.32,25.48,7.82,40a33,33,0,0,0,33.88,6.08c11.68-4.74,23-17.73,20-31.27C888,57.26,876.94,46.21,866,48.74c-9.16,2.12-16,13.3-13.89,21.71.17.68,2,7.57,7.81,8.69,4.1.79,8.68-1.6,11.29-6.08"/><path class="cls-2" d="M646.65,45.24c18-21,32.32-27.7,43.06-32.65A127.78,127.78,0,0,1,736.61,1.3a139.57,139.57,0,0,1,51.24,6.08c12.67,4.08,34.18,16.23,48.8,31.86"/><path class="cls-2" d="M119.06,139.07c1.2-1.3,5.25-6,4.34-11.29-1.33-7.84-12.65-12.39-20.84-10.42C91.7,120,85.5,134.25,88.66,143.41c4.17,12.08,25,16.49,39.09,9.56,15.06-7.42,20.4-26.92,15.63-40.82-.37-1.1-4.89-13.65-16.5-18.24-2.72-1.08-11.06-2.61-17.37-2.61-7,0-11.59-.31-20.85,1.74-6.38,1.41-12.74,3.22-19.07,8-10.2,7.65-13.73,12.67-18,19A72.2,72.2,0,0,0,39.5,158c-.26,16.14,1.16,26.36,7.7,40.1S52.84,209,52.84,209"/><path class="cls-2" d="M126.88,93.91c4.46-4.77,11.63-10.38,26.92-14.77a58.4,58.4,0,0,1,26.93-1.74,66.07,66.07,0,0,1,19.11,6.95c5.08,2.62,8.48,4.8,10.42,7,6.32,7,7.91,21.16-.87,30.4-9.43,9.93-27.57,8.69-33,0-4-6.43-2-18.47,5.21-21.71,6-2.68,15.51.62,16.5,6.08.64,3.5-2.45,6.79-3.47,7.81"/><path class="cls-2" d="M385.71,104.33c6.14-1.24,10-2.28,18.24-2.61a115.83,115.83,0,0,1,20,.87"/><path class="cls-2" d="M209.39,90.43c3.77-1.16,4.92-1.45,8.69-2.6"/><path class="cls-2" d="M261.51,106.93s-13,1-12.16-12.16c.43-6.69,7.81-8.68,7.81-8.68,7.07-1.46,13.27.58,17.37,4.34,10.43,9.56,3.09,27.66-3.47,33-11.44,9.32-34.23,3.55-45.17-10.43-10.66-13.62-6.66-30.69-6.08-33,2.9-11.55,10.27-18.36,13.9-21.71,11.77-10.88,25.16-13.11,30.4-13.9a64.4,64.4,0,0,1,37.35,6.08c4.92,2.47,13.47,6.89,20,16.5a45.06,45.06,0,0,1,5.21,10.42A69.68,69.68,0,0,1,353.57,80c5.64,1.71,14.39,4.47,22.59,12.16a37.94,37.94,0,0,1,10.42,14.76c1.32,3.52,3.72,10,1.73,17.38-2.42,9-10.5,16.35-20,18.24s-22.66-1.28-26.93-11.3c-2.62-6.15-2.28-15.8,4.35-20.84,4.69-3.57,12-4.43,17.37-.87,3.66,2.42,7.69,7.73,6.08,13-1.16,3.81-5.3,7.81-9.56,7-3.15-.64-4.83-3.63-5.21-4.35"/><path class="cls-2" d="M486.46,129.52s-12.68,5.91-17.37-3.48c-3.47-7,2.61-13.89,6.08-16.5s9.82-3.27,15.64-2.61c10.64,1.21,18.47,19.4,14.76,32.14-4.7,16.15-27.91,23.43-45.16,20-20.13-4-29.67-22.14-31.27-25.19-2.43-4.61-8.94-18.73-4.35-35.61s17.53-25.87,21.72-28.66c27.61-18.44,65.46-7,86,5.21A89.62,89.62,0,0,1,540.31,80a21.42,21.42,0,0,1,9.56-12.16,20.82,20.82,0,0,1,10.42-2.61,22.34,22.34,0,0,1,10.42,2.61,44.81,44.81,0,0,1,38.22-35.61c5.59-.83,16.88-2.5,27.79,4.34,14.15,8.87,16.27,24.9,16.51,26.93.2,1.81,2.2,22-13,33-9.38,6.79-27,11.33-36.48.87-8-8.81-7.45-25,1.73-33,6.66-5.77,19-8.16,25.19-1.74,4.7,4.85,6,14.82.87,19.11-4.41,3.66-13.32,3-15.63-1.74-1.52-3.09.33-6.82.87-7.82"/><path class="cls-2" d="M75.2,106.5a62.5,62.5,0,0,1,46.9-6.08"/><path class="cls-2" d="M111.68,135.16c1.69-4,.36-8.49-2.61-10.42-3.69-2.4-9.78-.83-12.16,4.34"/><path class="cls-2" d="M162.92,88.26a29.45,29.45,0,0,1,26.06.87"/><path class="cls-2" d="M188.11,105.63c-1.07,0-4.94,0-7,2.61-2.92,3.76-.28,10.84,4.35,13.89,4.83,3.2,10.53,1.16,11.29.87"/><path class="cls-2" d="M495.58,72.63a81.29,81.29,0,0,1,18.24,5.21c6.13,2.56,14.8,6.29,22.58,14.76a52.34,52.34,0,0,1,7,9.56c-.34-1.57,1.38-13.82,6.95-21.72,1.12-1.58,4.35-3.91,12.16-5.21,8.46-1.41,12.07,3.55,13,4.34a51,51,0,0,1,4.34-14.76A51.54,51.54,0,0,1,590.25,50"/><path class="cls-2" d="M658,64.27a75.15,75.15,0,0,1,56.46-39.95"/><path class="cls-2" d="M752.68,20.85a88.79,88.79,0,0,1,68.61,34.74"/><path class="cls-2" d="M288,56.12a39.07,39.07,0,0,1,14.76,7.82c8.86,7.58,11.75,17.23,13,21.71a49.68,49.68,0,0,1,1.74,9.56,47.48,47.48,0,0,1,18.24-6.08c4.56-.53,16.07-1.7,26.92,5.21a35.81,35.81,0,0,1,8.69,7.82"/><path class="cls-2" d="M234.15,109.11a28.43,28.43,0,0,1-7-16.51c-.8-13.06,8.74-21.94,11.29-24.32a37.07,37.07,0,0,1,13-7.81"/><path class="cls-2" d="M362.69,123.87c3.85-6.22-2.1-9.09-4.34-9.55a10.77,10.77,0,0,0-11.29,5.21c-2.75,4.33-.42,9.53,0,10.42a13.49,13.49,0,0,0,8.68,7"/><path class="cls-2" d="M483.42,124.74c-1.73,1.74-9.55,1.74-8.68-5.21.45-3.64,6.38-6.84,10.42-7,4.39-.12,8.73,3.35,10.42,8.69"/><path class="cls-2" d="M482.55,149.06c-2,.73-19.05,6.53-33.87-3.47-12.08-8.15-14.71-21.41-15.63-26.06a47,47,0,0,1,1.73-24.32"/><path class="cls-2" d="M448.68,84.79a37.55,37.55,0,0,1,28.66-11.3"/><path class="cls-2" d="M623.26,41.36a24.68,24.68,0,0,1,14.77,7c6.13,6.26,6.68,14.28,6.94,18.24A35,35,0,0,1,644.11,77"/><path class="cls-2" d="M620.65,77c.57,2.29,3.62,1.48,5.22,1.74,2.54.41,3.48-4.93,3.47-7.82,0-4.14-5.56-7.87-10.42-7.82-6.59.07-10.41,7.07-11.29,8.69a20,20,0,0,0-1.74,13.89"/><path class="cls-2" d="M863.85,70.89c-.53-.36-4.1-2.84-4.34-7-.28-4.74,4-8.88,8.68-9.55a10.73,10.73,0,0,1,11.3,7"/><path class="cls-2" d="M863.85,94.34c-1.9.18-12.9,1.06-21.71-7-10-9.09-8.88-22.1-8.69-24.32A32.38,32.38,0,0,1,842.14,44"/><path class="cls-2" d="M863.85,35.28a37.93,37.93,0,0,1,15.64,0,38.54,38.54,0,0,1,19.1,10.42"/><path class="cls-2" d="M944.63,117.79c1.18-3.38,3.51-5.87,6.08-6.08,4.13-.34,7,5.4,7.81,8.69,1.19,4.65.08,11.23-5.21,14.76-5.93,4-12.6,1.06-13,.87"/><path class="cls-2" d="M922,126.48c-.85-1.45-5.92-10.29-2.6-20.85a25.71,25.71,0,0,1,9.55-13"/><path class="cls-2" d="M955.05,90.87a27.42,27.42,0,0,1,21.71,25.18"/><path class="cls-2" d="M50.58,556c-7.43-4.42-32.93-26.73-43.93-58.73-5.76-16.76-5-26-5-26-3-31,4.64-54.24,17.79-68A54.87,54.87,0,0,1,36.33,391.1c5.46-2.45,18.86-8.48,32.73-2.64,2.34,1,12.58,5.31,16.89,16.36,4.19,10.75,1.65,25-8.45,32.73-8.45,6.51-23.16,9.24-31.14,1.06-6-6.2-8.18-18.63-1.58-24.81,5.68-5.33,17.15-5.35,21.11.53,2.07,3.06,1.54,6.9,1.06,9"/><path class="cls-2" d="M52.65,386.24c-25-7-44-41.9-44-86,0-37,9-49,17-65,2.58-5.16,10.93-16.48,21.24-22.85,3.12-1.93,10.8-6.56,21.11-6.86,13.84-.4,34.38,7,38,23.75,2.55,11.84-3.36,28-15.84,31.67-10.33,3-24.51-2.75-26.39-12.14-1.23-6.15,2.53-15.38,9.5-16.36,4.38-.61,9.13,2.15,12.14,6.86"/><path class="cls-2" d="M982.78,560.19c5.6-1.65,16.24-5.44,24.8-12.14,13.14-10.29,18.72-22.7,22.17-30.62a101.22,101.22,0,0,0,7.39-49.62c-1-10-2.64-32.72-21.11-52.78-6-6.57-16.53-18.9-34.84-23.23-20.37-4.81-42.72,1.88-57.53,16.89-3.83,3.88-17.23,18.53-17.42,40.65-.06,6.36-.22,25.17,14.25,37.48,14.22,12.09,37.18,13.31,52.78,1.58,9.69-7.28,19.29-21.63,15.84-37.48-2.3-10.56-11.31-26-26.39-25.86-11.41.09-22.3,9-25.87,22.17"/><path class="cls-2" d="M1021.65,340.24c6-28,1.52-48.63-9.84-63.45-8.19-10.67-15.79-14.79-20.06-16.36-3.78-1.39-26.69-9.82-46.45,3.69-2.54,1.73-17.87,12.21-19,31.14"/><path class="cls-2" d="M991.75,260.43c5.26-3.13,6.91-4.51,14.25-13.73a75.37,75.37,0,0,0,13.72-26.92,77.6,77.6,0,0,0,1.06-35.89c-1.33-7.21-3.49-18.27-11.61-29.56-5-7-10.8-15-21.12-18-14-4-32.44,2.59-40.11,17.42-4.79,9.24-7.58,25.87,3.16,35.37,9.07,8,25.82,9.23,33.79-.53,7.5-9.19,5.5-26-3.7-30.62-6.11-3.06-16.11-1.09-20.06,5.81-2.45,4.28-3.38,11.91,1.59,15.83,3.57,2.82,9.11,2.89,13.72,0"/><path class="cls-2" d="M68.53,216.09a28.23,28.23,0,0,1,19,3.69c2.9,1.82,9.46,5.93,10.56,13.73.94,6.63-2.67,11.82-3.7,13.19"/><path class="cls-2" d="M70.11,240.37c-.09.64-.72,5.41,2.64,9a11.12,11.12,0,0,0,12.67,2.11"/><path class="cls-2" d="M28.8,329.54a68.43,68.43,0,0,1-4.75-46.45"/><path class="cls-2" d="M60.61,420.13a7.51,7.51,0,0,0-4.75-3.69c-3.48-.71-6.57,1.83-7.92,4.22-2.64,4.69.88,9.77,1.06,10a10.91,10.91,0,0,0,6.86,4.22"/><path class="cls-2" d="M79.09,425.94a23.31,23.31,0,0,0,2.64-11.61c-.43-10.12-7.65-16.32-9-17.42"/><path class="cls-2" d="M17.86,480.31a66.45,66.45,0,0,1-6.34-20.06,67.53,67.53,0,0,1,2.64-30.62"/><path class="cls-2" d="M54.28,547.52a121.44,121.44,0,0,1-39.59-49.09"/><path class="cls-2" d="M972.22,177a6.32,6.32,0,0,1-5.28-11.09"/><path class="cls-2" d="M973.8,162.25a10.79,10.79,0,0,1,7.39,3.69,11.12,11.12,0,0,1,2.11,9.5"/><path class="cls-2" d="M960.08,189.17a21.83,21.83,0,0,1-10.56-12.67c-2.84-9.32,2-16.9,2.64-17.95"/><path class="cls-2" d="M984.89,143.77a35.21,35.21,0,0,1,23.75,29"/><path class="cls-2" d="M997,242.48a51.7,51.7,0,0,0,15.3-39.59"/><path class="cls-2" d="M933.68,298.73c-.95-13.85,9.08-22.48,10.11-23.33"/><path class="cls-2" d="M955.85,267.82a34.31,34.31,0,0,1,22.17-3.7,34.72,34.72,0,0,1,21.65,13.73"/><path class="cls-2" d="M949,445.12a13.5,13.5,0,0,1,24.28-4.23"/><path class="cls-2" d="M975.91,460.42c-.1,1.25-1.2,12.24-11.08,18.48-11.2,7.07-23.12,1.37-23.76,1.05"/><path class="cls-2" d="M917.32,456.73c-.6-4.66-1.93-19.72,7.39-34.31,9.11-14.27,25.87-24.15,43.81-23.23,20.47,1.05,32.93,15.68,38,21.64a68.21,68.21,0,0,1,15.31,34.32"/><path class="cls-2" d="M985.41,548.58a69.88,69.88,0,0,0,33.79-40.65"/><path class="cls-2" d="M51.64,174.39a66.3,66.3,0,0,1,4.22-45.93"/><path class="cls-2" d="M50.58,555.44a44.58,44.58,0,0,0,20.87,41.93c10.57,6.4,25.1,8.29,36.48,4.34a27.47,27.47,0,0,0,6.95-3.47c10.43-7.41,11.91-20.53,12.16-23.45.12-1.49,1.5-21.9-13.9-31.27-11.75-7.15-30.57-6.23-37.35,5.21-5.66,9.56-2.31,25.46,6.95,29.53,5.19,2.28,14,1.63,17.37-4.34,3.24-5.7-.58-12.53-.86-13"/><path class="cls-2" d="M114.88,598.24c-.87,7,0,13.9,2.61,23.45,4.72,17.34,19.08,25.11,23.45,27.79a59.93,59.93,0,0,0,31.26,8.69,39.59,39.59,0,0,0,10.43-.87c12.17-2.92,23.32-13,27.79-26.06.56-1.63,8.33-25.47-7.82-40a33,33,0,0,0-33.87-6.08c-11.69,4.74-22.95,17.73-20,31.27,2.33,10.59,13.41,21.64,24.32,19.11,9.16-2.12,16-13.3,13.9-21.72-.17-.68-2-7.57-7.82-8.68-4.09-.79-8.67,1.6-11.29,6.08"/><path class="cls-2" d="M920,545.26c-1.2,1.29-5.24,6-4.34,11.29,1.34,7.84,12.66,12.39,20.85,10.42,10.86-2.61,17.06-16.9,13.89-26.06-4.16-12.07-25-16.48-39.08-9.55-15.06,7.42-20.41,26.92-15.63,40.82.37,1.1,4.88,13.64,16.5,18.24,2.72,1.08,11.06,2.61,17.37,2.61,6.95,0,11.59.3,20.84-1.74,6.39-1.41,12.75-3.23,19.08-8,10.2-7.64,12.85-16.1,13.79-23.65"/><path class="cls-2" d="M912.22,590.42c-4.46,4.77-11.63,10.38-26.93,14.77a58.25,58.25,0,0,1-26.92,1.73A65.81,65.81,0,0,1,839.26,600c-5.08-2.63-8.49-4.8-10.42-7-6.32-7-7.91-21.16.86-30.4,9.44-9.93,27.58-8.69,33,0,4,6.43,2,18.47-5.21,21.71-6,2.67-15.51-.62-16.5-6.08-.64-3.5,2.44-6.8,3.47-7.81"/><path class="cls-2" d="M653.39,580c-6.14,1.24-10,2.28-18.24,2.61a115.78,115.78,0,0,1-20-.87"/><path class="cls-2" d="M829.7,593.9c-3.76,1.15-4.92,1.44-8.68,2.6"/><path class="cls-2" d="M777.59,577.39s13-1,12.16,12.16c-.44,6.7-7.82,8.69-7.82,8.69a19.51,19.51,0,0,1-17.37-4.34c-10.42-9.56-3.09-27.66,3.48-33,11.44-9.32,34.22-3.55,45.16,10.42,10.66,13.63,6.66,30.7,6.08,33-2.9,11.54-10.27,18.36-13.9,21.71-11.76,10.88-25.16,13.1-30.39,13.9a64.48,64.48,0,0,1-37.35-6.08c-4.93-2.47-13.47-6.89-20-16.5a44.9,44.9,0,0,1-5.21-10.43,69.5,69.5,0,0,1-26.93-2.6c-5.64-1.71-14.39-4.47-22.58-12.16a38,38,0,0,1-10.42-14.77c-1.32-3.52-3.73-9.95-1.74-17.37,2.42-9,10.51-16.35,20-18.24s22.66,1.28,26.92,11.29c2.63,6.16,2.29,15.8-4.34,20.85-4.69,3.57-12,4.43-17.37.87-3.66-2.42-7.69-7.73-6.08-13,1.16-3.81,5.29-7.82,9.55-7,3.15.64,4.84,3.63,5.21,4.34"/><path class="cls-2" d="M552.63,554.81s12.68-5.91,17.38,3.48c3.47,6.94-2.61,13.89-6.08,16.5s-9.82,3.27-15.64,2.6c-10.64-1.21-18.47-19.39-14.76-32.13,4.7-16.15,27.91-23.43,45.16-20,20.12,4,29.66,22.14,31.27,25.19,2.43,4.61,8.94,18.73,4.34,35.61s-17.52,25.86-21.71,28.66c-27.62,18.43-65.46,7-86-5.21-3.36-2-6-3.88-7.82-5.21a21.39,21.39,0,0,1-9.55,12.16,20.68,20.68,0,0,1-10.42,2.6,22.33,22.33,0,0,1-10.43-2.6,44.78,44.78,0,0,1-38.21,35.61c-5.6.83-16.89,2.5-27.8-4.34-14.14-8.87-16.27-24.9-16.5-26.93-.21-1.81-2.2-22,13-33,9.38-6.8,27-11.33,36.48-.87,8,8.8,7.45,25-1.74,33-6.66,5.77-19,8.16-25.19,1.74-4.7-4.85-6-14.82-.87-19.11,4.41-3.66,13.33-3,15.64,1.74,1.51,3.09-.34,6.82-.87,7.82"/><path class="cls-2" d="M963.9,577.83A62.52,62.52,0,0,1,917,583.91"/><path class="cls-2" d="M876.17,596.07a29.51,29.51,0,0,1-26-.87"/><path class="cls-2" d="M851,578.7c1.07,0,4.94,0,6.95-2.61,2.93-3.77.29-10.84-4.34-13.9-4.83-3.19-10.53-1.15-11.29-.86"/><path class="cls-2" d="M543.51,611.7a81.45,81.45,0,0,1-18.24-5.21c-6.12-2.56-14.8-6.3-22.58-14.76a52.34,52.34,0,0,1-6.95-9.56c.35,1.57-1.37,13.82-6.95,21.71-1.11,1.59-4.34,3.91-12.16,5.22-8.45,1.41-12.06-3.55-13-4.35a51.2,51.2,0,0,1-14.77,29.53"/><path class="cls-2" d="M751.1,628.2a38.92,38.92,0,0,1-14.77-7.81c-8.86-7.58-11.75-17.24-13-21.72a49.6,49.6,0,0,1-1.74-9.55,47.53,47.53,0,0,1-18.24,6.08c-4.57.53-16.07,1.7-26.93-5.21a35.93,35.93,0,0,1-8.68-7.82"/><path class="cls-2" d="M805,575.22a28.4,28.4,0,0,1,6.95,16.51c.79,13-8.74,21.94-11.29,24.31a37.06,37.06,0,0,1-13,7.82"/><path class="cls-2" d="M555.67,559.59c1.74-1.74,9.56-1.74,8.69,5.21-.46,3.64-6.38,6.84-10.42,7-4.39.12-8.73-3.36-10.43-8.69"/><path class="cls-2" d="M556.54,535.27c2-.73,19.05-6.53,33.88,3.47,12.07,8.15,14.71,21.41,15.63,26.06a47,47,0,0,1-1.74,24.32"/><path class="cls-2" d="M590.42,599.54a37.49,37.49,0,0,1-28.67,11.29"/><path class="cls-2" d="M415.84,643a24.78,24.78,0,0,1-14.77-7c-6.13-6.26-6.68-14.28-6.95-18.24a34.9,34.9,0,0,1,.87-10.42"/><path class="cls-2" d="M418.44,607.36c-.56-2.29-3.62-1.48-5.21-1.74-2.55-.41-3.49,4.93-3.47,7.82,0,4.14,5.56,7.87,10.42,7.82,6.59-.07,10.41-7.07,11.29-8.69a20.11,20.11,0,0,0,1.74-13.9"/><path class="cls-2" d="M175.24,613.44c.54.36,4.1,2.84,4.35,6.95.28,4.74-4,8.88-8.69,9.55a10.73,10.73,0,0,1-11.29-7"/><path class="cls-2" d="M175.24,590c1.91-.18,12.91-1.06,21.72,7,10,9.09,8.88,22.1,8.68,24.32a32.35,32.35,0,0,1-8.68,19.1"/><path class="cls-2" d="M175.24,649.05a37.89,37.89,0,0,1-15.63,0,38.75,38.75,0,0,1-19.11-10.42"/><path class="cls-2" d="M94.47,566.54c-1.19,3.38-3.52,5.87-6.08,6.08-4.14.34-7-5.4-7.82-8.69-1.18-4.65-.07-11.23,5.21-14.76,5.93-4,12.61-1.07,13-.87"/><path class="cls-2" d="M117.05,557.85c.86,1.44,5.92,10.29,2.61,20.85a25.65,25.65,0,0,1-9.56,13"/><path class="cls-2" d="M84.05,593.46a27.41,27.41,0,0,1-21.72-25.19"/><path class="cls-2" d="M209.65,634.24c9.84,6.25,22,12.5,42,18,37.25,10.26,68,4.57,81,2,25.09-5,42.27-11.28,57-20"/><path class="cls-2" d="M334.59,629.1a75.17,75.17,0,0,1-69.13-2.42"/></g></g></svg>