<svg xmlns="http://www.w3.org/2000/svg" viewBox="0 0 2006.25 406.14"><defs><style>.cls-1{fill:#fff;}.cls-2{fill:none;stroke:#000;stroke-miterlimit:10;stroke-width:2px;}</style></defs><g id="Layer_2" data-name="Layer 2"><g id="cloud"><path class="cls-1" d="M781.5,293.14H771v-.7A79,79,0,0,0,781.5,293.14Z"/></g><g id="cloud_large"><path class="cls-1" d="M2005,311.14a95,95,0,0,1-88,94.74c-2.31.17-4.65.26-7,.26H1308.7c-2.13,0-4.22-.1-6.29-.29a43.58,43.58,0,0,1-5,.29H0v-76H.42c0-.83,0-1.66,0-2.5a78.51,78.51,0,0,1,115.43-69.28,86.74,86.74,0,0,1-.43-8.72c0-53.3,46.56-96.5,104-96.5a112.32,112.32,0,0,1,18.48,1.52C244.27,68.77,314.79,1.14,443.38,1.14c113,0,204.75,73.54,206,164.64,2.34-.57,4.72-1.06,7.14-1.44,10-8.08,23.83-13.09,39.18-13.09,14.23,0,27.14,4.29,36.88,11.3a34.69,34.69,0,0,1-1.23-13A34,34,0,0,1,765.21,119a33.39,33.39,0,0,1,18.14,5.39c4.87-33.88,42.49-60.24,88.17-60.24,49,0,85.48,32.58,85.48,70,0,3.55,2.9,4.79,2.19,8.21a67.36,67.36,0,0,1,30.71-7.23c30.27,0,55.46,19.23,60.85,44.62a119.6,119.6,0,0,1,46.62-9.13c50.79,0,92,29.62,92,66.14a48.25,48.25,0,0,1-1.68,12.59,71.74,71.74,0,0,1,38.78-11c34.75,0,62.91,23.1,62.91,51.62a43.29,43.29,0,0,1-3.54,17.1,64.58,64.58,0,0,1,29.43-3.87,66,66,0,0,1,101.55-17.46,99.35,99.35,0,0,1,30.22-4.62c30.49,0,57,13.33,70.5,32.94A57.59,57.59,0,0,1,1577,281.62a69,69,0,0,1,100.16.1,92,92,0,0,1,166.25-38.31A95,95,0,0,1,2005,311.14Z"/></g><g id="Layer_5" data-name="Layer 5"><path class="cls-2" d="M1,330.14c0-35,12.6-61.69,55-77,5.43-2,39-9,60,5,19.92,13.28,30,43,14,78-11.71,25.61-68,27-63-13"/><path class="cls-2" d="M116,258.14c0-11-1.76-58.11,40-85,34.26-22.07,68.44-20.06,77-19,7.56.93,58.22,8,82,53,16.78,31.74,19.38,80.87-11,109-21.34,19.75-62.73,32.65-87,11-20.58-18.37-25-58.17-5-76,16.14-14.38,48.84-15.07,58,1,7,12.21-2.45,29.27-4,32"/><path class="cls-2" d="M238,155.14c0-22,8.6-90.84,89-130,54.71-26.66,125.06-26.2,151-22,24.53,4,79.17,11.55,121,56,32,34,43,58,48,89,.32,2,2,18,2,18s22.89-15.76,47-15c20,.62,37,11,37,11-1,1.17-12.18-24.29,17-40,13-7,33,2,33,2s6.91-19.56,13-27c18-22,54-40,105-29,26.75,5.77,58.21,36.73,56,73-1.31,21.49-14.75,44.18-37,54-21.54,9.5-56.72,9.3-68-13-9.7-19.19,1.22-48.89,22-57,11.44-4.47,29.15-3.68,38,8,5.34,7,8.85,19.89,2,28-6.71,7.93-21.58,9.22-33,0"/><path class="cls-2" d="M58,286.14c11.4-9.4,27-10.45,38-3,9.6,6.5,16.38,20,12,32-3.1,8.51-10.48,12.7-13,14"/><path class="cls-2" d="M260,258.14c-9.49-7.78-27.95-6.8-37-2-12.66,6.69-18.29,26.5-8,43"/><path class="cls-2" d="M145,229.14c1.95-4.36,12.2-26,37-35a64.11,64.11,0,0,1,36-2"/><path class="cls-2" d="M263,198.14a37.9,37.9,0,0,1,19,11c10.08,10.87,10.07,24.07,10,27"/><path class="cls-2" d="M299,128.14a119.46,119.46,0,0,1,104-79"/><path class="cls-2" d="M492,56.14c7.91.66,42.48,4.46,69,34,21.47,23.9,25.15,50.74,26,60"/><path class="cls-2" d="M649,166.14c-7.06,7.45-25.45,25.64-31,50-2.55,11.19-9.58,42.05,9,67,16.64,22.34,52.39,38,79,23,21.57-12.19,36.64-44.3,24-63-9.77-14.46-36.48-21.45-51-9-9.43,8.08-10,21.14-10,25"/><path class="cls-2" d="M957,143.14c3.53-2,21-12,57-4,10.91,2.42,27,19.91,30,25s7,16,7,16,34-17,75-6c30.38,8.15,47,20,55,35a82.86,82.86,0,0,1,9,27,44.62,44.62,0,0,1,0,13s19-12,48-10c17.13,1.59,38.92,14.81,47,33,8,18,1,35,1,35s3.08-2.28,14-5a25.87,25.87,0,0,1,15,1s12-18.61,24-25c15-8,33-10,49-7,15.15,2.84,29,15,29,15a161.84,161.84,0,0,1,30-5c5.36-.37,24.57-1,42,9,14,8,28,22,28,22s3.59-10.34,19-20c3-1.89,10.62-6.65,24-10a44.64,44.64,0,0,1,17-1s17-14,30-18c16.06-4.95,35.46-4,49,4a146.22,146.22,0,0,1,21,15s4.08-12.7,8-25c7.93-24.88,32.11-37.79,40-42,6-3.19,30.91-15.65,62-9,11,2.34,27.06,5.78,39,19,7.88,8.71,17,18,17,18s10-10,20-15c24-12,51.31-12.53,61-11,33.53,5.28,52.83,27,58,33a97.11,97.11,0,0,1,19,34,94.7,94.7,0,0,1,4,35c-2.06,8.36-1.24,39.74-24,55-28.58,19.16-82.09,20.81-99-7-10.83-17.81-10.17-52.18,6-69,13-13.53,41.35-21.62,59-11,12.37,7.44,18.56,23.71,12,37-3.65,7.39-11.24,10.69-15,12"/><path class="cls-2" d="M1286,307.14c-.75,2.53-13,41.52-50,51-22.76,5.83-57,1-68-23-6.85-15-4.87-38.15,11-50,14.43-10.78,37.36-10,48,2,.73.82,7.86,9.13,6,20-1.75,10.23-10.72,18.34-21,20-13.83,2.23-23.37-8.29-24-9"/><path class="cls-2" d="M1050.73,180.14c1.77,2.84,14,23.19,6.47,46.12-9.17,27.9-39.09,33.74-43.45,34.6-17.11,3.34-48.36,1.37-57.3-21.15-5.78-14.53-1.28-35.17,12.94-45.16,16-11.25,40.94-6.64,47.14,6.73,3.1,6.68,1.91,16.45-3.7,22.1-7.07,7.12-20.69,7.22-31.43-1.92"/><path class="cls-2" d="M690,250.14c1.1-.52,9.46-4.28,18,0,7.25,3.63,10.62,11.05,11,17,.92,14.48-15.69,23.75-18,25-16.57,8.92-34.44,1.81-39,0-3-1.19-22.84-9.47-31-31"/><path class="cls-2" d="M673,180.14c6-10,19.47-11.26,39-8,18,3,36,18,36,18s-7-33.32,7-46c11-10,43-1,43-1s4-37,33-40"/><path class="cls-2" d="M985,151.14a35.7,35.7,0,0,1,22,3c12.94,6.38,17.21,18.59,18,21"/><path class="cls-2" d="M1038,195.14a36.25,36.25,0,0,1,1,21,36.83,36.83,0,0,1-15,21"/><path class="cls-2" d="M1076,195.14a89,89,0,0,1,56,1"/><path class="cls-2" d="M1145,205.14c2,1.08,9.84,5.53,13,15a25.94,25.94,0,0,1,1,12"/><path class="cls-2" d="M1098,209.14a41,41,0,0,1,19,3,34,34,0,0,1,15,11,32.35,32.35,0,0,1,6,14"/><path class="cls-2" d="M1254,263.14c3,.79,10.21,3.16,15,10s4.37,14.1,4,21a55.82,55.82,0,0,1-7,24"/><path class="cls-2" d="M1208,286.14a16.63,16.63,0,0,1,10,4,17,17,0,0,1,5,8c.46,1.59,2,6.85-1,12a14.35,14.35,0,0,1-7,6,15.2,15.2,0,0,1-11,0"/><path class="cls-2" d="M1315,303.14c-1.14,2.75-12.86,34,3,59,11.39,18,29.35,23.52,35,25,3.27.85,27.26,6.71,48-8,6.29-4.47,21.84-15.51,20-32-1.44-12.9-13-24.51-27-26-14.62-1.57-24.72,8.66-26,10"/><path class="cls-2" d="M1531,324.14a41.23,41.23,0,0,1,48-21"/><path class="cls-2" d="M1594,300.14c1.72-3.08,11.11-19.25,27-21,9-1,17.41,2.95,26,7a87,87,0,0,1,15,9"/><path class="cls-2" d="M1392,335.14c.62.23,10.75,4.27,12,13,1.4,9.79-9.67,16.57-12,18-11.61,7.1-24.61,2.83-27,2"/><path class="cls-2" d="M1923,298.14a16.32,16.32,0,0,1,18,2c6,5.23,6.18,14,3,20-3.9,7.38-12,8.83-13,9"/><path class="cls-2" d="M1895,317.14c-7.62,15-7.65,32,1,43,9.83,12.5,23.78,15.21,36,15,9.91-.18,30.67-3.49,42-16,10.83-12,18.52-33.17,17-52-1.54-19.1-9-36.35-23-52-20.78-23.28-53.6-22.26-59-22"/></g></g></svg>