<svg xmlns="http://www.w3.org/2000/svg" viewBox="0 0 1966.91 1832.67"><defs><style>.cls-1{fill:#fff;}.cls-2{fill:none;stroke:#000;stroke-miterlimit:10;stroke-width:2px;}</style></defs><g id="Layer_2" data-name="Layer 2"><g id="cloud-about"><path class="cls-1" d="M1872.89,353.83a86.48,86.48,0,0,1-.93,12.75l-9,1113.35L106.39,1480V359.46c0-41.19,34.45-70.16,93.2-70.16a146.39,146.39,0,0,1,41.4,5.85c19.15-19.81,48.82-32.53,82.1-32.53,29,0,55.16,9.61,74.1,25.15a140.14,140.14,0,0,1,16.52-5.42c3.16-46.17,48.69-82.76,104.4-82.76,47.64,0,87.84,26.73,100.46,63.35,3.11-.22,6.27-.32,9.46-.32,46.19,0,85.76,21,102.28,50.8a204.09,204.09,0,0,1,44.28-4.72,211.13,211.13,0,0,1,29.24,2c7.07-44.57,40.44-78.12,117.24-78.12,38.91,0,74.54,15.94,102.13,35.13,5.58-16.06,20.55-27.58,38.13-27.58a39.44,39.44,0,0,1,19.53,5.15c6.78-39,43.19-68.73,87.09-68.73a94.57,94.57,0,0,1,23.14,2.85C1192.39,81.21,1288.78,2,1407.48,2c135.09,0,209.18,72.89,215.91,165.45a115,115,0,0,1,19.42-1.64c60.36,0,109.27,46.56,109.27,104a93.91,93.91,0,0,1-.47,9.4,80.4,80.4,0,0,1,38.81-9.94C1836,269.22,1872.89,307.12,1872.89,353.83Z"/><path class="cls-1" d="M95.64,1478.72a86.58,86.58,0,0,1,.93-12.75V352.54H1862.14V1473.1c0,41.18-34.45,70.16-93.2,70.16a146,146,0,0,1-41.4-5.86c-19.15,19.81-48.82,32.53-82.1,32.53-29,0-55.16-9.61-74.1-25.14a138.3,138.3,0,0,1-16.52,5.41c-3.16,46.17-48.69,82.77-104.4,82.77-47.64,0-87.84-26.74-100.46-63.35-3.11.21-6.27.31-9.46.31-46.19,0-85.76-21-102.28-50.79a204.71,204.71,0,0,1-44.28,4.72,209.57,209.57,0,0,1-29.24-2c-7.07,44.58-40.44,78.13-117.24,78.13-38.91,0-74.54-16-102.13-35.13a40.57,40.57,0,0,1-38.13,27.57,39.31,39.31,0,0,1-19.53-5.15c-6.78,39-43.19,68.73-87.09,68.73a94.57,94.57,0,0,1-23.14-2.84c-1.3,98.18-97.69,177.44-216.39,177.44-135.09,0-209.19-72.89-215.91-165.45a114,114,0,0,1-19.42,1.65c-60.36,0-109.28-46.57-109.28-104a93.89,93.89,0,0,1,.48-9.4,80.29,80.29,0,0,1-38.81,9.94C132.58,1563.33,95.64,1525.44,95.64,1478.72Z"/><g id="Layer_14" data-name="Layer 14"><path class="cls-1" d="M132,307.93c-50,43-54,72.67-57,105-5,54,25.67,101.95,31.5,108.5"/><path class="cls-1" d="M106,1479.93c-8-4.89-104.63-66.08-104-169,.1-16.14.57-93.59,61-127,44.64-24.68,105.2-16,151,23"/><path class="cls-1" d="M125,784.93c-18.73-13.17-51.65-40.71-70-87-4.48-11.3-37.58-98.6,12-158,7.45-8.92,31-34.27,70-40,54.61-8,94,29.1,99,34"/><path class="cls-1" d="M166,1226.93c-89.35-21.9-151-92.25-153-167-.1-3.65-1-92.61,70-136,37.15-22.69,75.2-21.45,91-20"/><path class="cls-1" d="M145,969.93C60.5,952.77,2.48,890.58,1,825.93-.13,780,26.88,716,80,702.93c29-7.15,55.15,3.5,68,10"/><path class="cls-1" d="M1734,434.93c27.6-51.5,83-76.46,129-63,63.71,18.62,73,100.09,74,110,6.56,66.39-38.07,111.19-42,115-26.85,26.05-57.26,34.21-71,37"/><path class="cls-1" d="M1730,703.93c-.26-5-2.45-62.55,40-93,44.11-31.64,106-12.17,138,20,46.35,46.52,36.11,139.33,8,185-26.77,43.5-65,60.49-81,66"/><path class="cls-1" d="M1759,875.93c13.43-13.88,53.68-33.41,92-28,71.61,10.1,84.79,127.7,87,144,4.58,33.67,14.37,105.76-35,160-32,35.12-73,45.53-92,49"/><path class="cls-1" d="M1689,1228.93c4.88-7.66,46.73-71.11,117-74,93.33-3.84,139.31,75.09,144,86,23.25,54,26,145-28,205-23.83,26.48-54.39,35.06-73,34"/></g><g id="Layer_16" data-name="Layer 16"><path class="cls-2" d="M1872,374.93c6-44-10.64-76.67-38.66-93.63-20-12.12-47.54-15.7-69.11-8.23a52.09,52.09,0,0,0-13.16,6.58c-19.76,14.05-22.58,38.89-23,44.43-.24,2.82-2.84,41.49,26.33,59.24,22.26,13.54,57.92,11.79,70.75-9.88,10.73-18.1,4.39-48.22-13.16-55.94-9.83-4.32-26.5-3.08-32.91,8.23-6.12,10.79,1.1,23.74,1.64,24.68"/><path class="cls-2" d="M1751,279.65c1.64-13.16,0-26.32-4.94-44.42-9-32.84-36.15-47.56-44.43-52.66-25.78-15.86-50.79-16.38-59.23-16.45-6.79-.06-12.47-.1-19.75,1.64-23.07,5.53-44.19,24.74-52.65,49.37-1.07,3.09-15.78,48.26,14.8,75.69,16.6,14.88,42,20.5,64.18,11.52s43.48-33.59,37.84-59.24c-4.41-20.07-25.39-41-46.07-36.2-17.35,4-30.39,25.19-26.33,41.14.33,1.28,3.86,14.33,14.81,16.45,7.76,1.5,16.43-3,21.39-11.52"/><path class="cls-2" d="M1189.92,179.28c1-18.33,5.41-46.54,24.68-79,28.53-48,71.81-68,92.14-77.34,38.64-17.79,72.08-20.29,88.86-21.39a264.38,264.38,0,0,1,97.08,11.52c24,7.73,56.23,18.1,83.92,47.72,17.71,18.94,27.17,38.92,31.26,47.72,11.05,23.77,14.11,43,14.81,47.72,1.08,7.3,1.49,6.94,1.65,11.51"/><path class="cls-2" d="M225.68,380c2.28-2.46,9.95-11.32,8.23-21.39-2.53-14.86-24-23.48-39.49-19.75-20.58,4.95-32.32,32-26.33,49.36,7.9,22.88,47.42,31.23,74,18.1,28.53-14.06,38.66-51,29.62-77.33-.72-2.08-9.27-25.85-31.27-34.56-5.15-2-21-4.93-32.91-4.93-13.16,0-22-.58-39.49,3.29C156,295.49,144,298.93,132,307.93c-19.31,14.49-26,24-34,36a136.74,136.74,0,0,0-23,72c-.48,30.56,2.2,49.94,14.6,76s10.67,20.53,10.67,20.53"/><path class="cls-2" d="M240.49,294.46c8.45-9,22-19.65,51-28,8-2.29,27.19-7.58,51-3.29,16.44,3,28.85,9.37,36.2,13.16,9.62,5,16.08,9.1,19.75,13.17,12,13.28,15,40.08-1.65,57.59-17.87,18.82-52.23,16.46-62.53,0-7.61-12.19-3.86-35,9.88-41.14,11.31-5.06,29.38,1.18,31.26,11.52,1.21,6.64-4.63,12.88-6.58,14.81"/><path class="cls-2" d="M730.84,314.21c11.62-2.35,18.89-4.32,34.55-4.94a218.2,218.2,0,0,1,37.85,1.65"/><path class="cls-2" d="M396.81,287.88c7.13-2.19,9.32-2.74,16.45-4.94"/><path class="cls-2" d="M495.54,319.14s-24.66,1.85-23-23c.83-12.69,14.81-16.46,14.81-16.46,13.4-2.77,25.14,1.11,32.91,8.23,19.74,18.1,5.85,52.4-6.58,62.53-21.67,17.66-64.85,6.73-85.57-19.75-20.19-25.8-12.61-58.15-11.51-62.52,5.49-21.88,19.45-34.78,26.32-41.14,22.29-20.61,47.67-24.82,57.59-26.33a122.16,122.16,0,0,1,70.76,11.52c9.33,4.68,25.51,13.05,37.84,31.26A85,85,0,0,1,619,263.2a131.61,131.61,0,0,1,51,4.94c10.69,3.24,27.26,8.46,42.79,23,5.52,5.18,14.4,13.71,19.74,28,2.5,6.67,7.06,18.87,3.29,32.91-4.58,17.09-19.9,31-37.84,34.56s-42.93-2.42-51-21.39c-5-11.66-4.33-29.93,8.23-39.49,8.89-6.77,22.72-8.39,32.9-1.65,6.94,4.59,14.58,14.64,11.52,24.68-2.19,7.22-10,14.81-18.1,13.17-6-1.22-9.15-6.88-9.87-8.23"/><path class="cls-2" d="M921.71,361.93s-24,11.2-32.91-6.59c-6.58-13.16,4.94-26.32,11.52-31.26s18.59-6.19,29.62-4.94c20.16,2.3,35,36.75,28,60.89-8.91,30.6-52.88,44.38-85.57,37.84-38.11-7.62-56.19-41.94-59.23-47.72-4.6-8.73-16.94-35.48-8.23-67.46,8.76-32.15,33.2-49,41.14-54.3,52.31-34.92,124-13.24,162.9,9.87a173,173,0,0,1,14.81,9.88c1-3.35,5.37-15.84,18.1-23a39.52,39.52,0,0,1,19.74-4.94,42.45,42.45,0,0,1,19.75,4.94,84.85,84.85,0,0,1,72.4-67.46c10.59-1.57,32-4.73,52.65,8.22,26.8,16.8,30.82,47.18,31.26,51,.4,3.43,4.18,41.63-24.68,62.53-17.76,12.87-51,21.46-69.11,1.64-15.2-16.68-14.11-47.45,3.3-62.52,12.61-10.93,35.93-15.45,47.71-3.29,8.91,9.18,11.41,28.08,1.65,36.2-8.35,6.94-25.24,5.64-29.62-3.29-2.87-5.86.64-12.93,1.65-14.81"/><path class="cls-2" d="M142.59,318.32a118.47,118.47,0,0,1,88.85-11.52"/><path class="cls-2" d="M211.7,372.62c3.21-7.67.69-16.08-4.94-19.74-7-4.55-18.54-1.58-23,8.22"/><path class="cls-2" d="M308.78,283.77a55.84,55.84,0,0,1,49.36,1.64"/><path class="cls-2" d="M356.5,316.68c-2-.05-9.36,0-13.17,4.93-5.54,7.14-.54,20.54,8.23,26.33,9.16,6.05,20,2.18,21.39,1.65"/><path class="cls-2" d="M939,254.15A154.59,154.59,0,0,1,973.54,264c11.61,4.86,28,11.93,42.78,28a99.41,99.41,0,0,1,13.17,18.11c-.65-3,2.6-26.19,13.16-41.14,2.11-3,8.23-7.41,23-9.87,16-2.67,22.86,6.72,24.68,8.22a96.79,96.79,0,0,1,28-55.94"/><path class="cls-2" d="M1246.68,120.87a142.34,142.34,0,0,1,107-75.69"/><path class="cls-2" d="M1426,38.6a168.32,168.32,0,0,1,130,65.81"/><path class="cls-2" d="M545.72,222.89a73.58,73.58,0,0,1,28,14.81C590.48,252,596,270.34,598.38,278.83a94.24,94.24,0,0,1,3.29,18.1,90.11,90.11,0,0,1,34.55-11.52c8.65-1,30.44-3.21,51,9.88a67.72,67.72,0,0,1,16.46,14.8"/><path class="cls-2" d="M443.71,323.26c-4.24-5-12.24-15.93-13.17-31.27-1.5-24.74,16.56-41.57,21.39-46.07a70.17,70.17,0,0,1,24.68-14.81"/><path class="cls-2" d="M687.23,351.23c7.3-11.78-4-17.21-8.23-18.1-6.81-1.42-15.72.95-21.39,9.87-5.21,8.21-.79,18.07,0,19.75,4.75,10,14.94,12.78,16.46,13.16"/><path class="cls-2" d="M916,352.88c-3.29,3.29-18.1,3.29-16.46-9.88.87-6.89,12.09-12.95,19.75-13.16,8.32-.23,16.54,6.35,19.75,16.45"/><path class="cls-2" d="M914.3,399c-3.82,1.37-36.09,12.37-64.17-6.58-22.88-15.44-27.87-40.56-29.62-49.37a89.14,89.14,0,0,1,3.29-46.07"/><path class="cls-2" d="M850.13,277.19a71,71,0,0,1,54.3-21.39"/><path class="cls-2" d="M1180.87,194.91c5.16.6,17.85,2.84,28,13.17,11.62,11.86,12.65,27.06,13.16,34.55a66.18,66.18,0,0,1-1.64,19.75"/><path class="cls-2" d="M1175.93,262.38c1.07,4.34,6.86,2.8,9.87,3.29,4.83.78,6.61-9.34,6.59-14.81,0-7.84-10.54-14.91-19.75-14.81-12.49.13-19.72,13.39-21.39,16.45-6.26,11.48-4.08,22.92-3.29,26.33"/><path class="cls-2" d="M1636.66,250.86c-1-.68-7.77-5.39-8.23-13.16-.53-9,7.65-16.83,16.45-18.1s17.86,4.1,21.39,13.16"/><path class="cls-2" d="M1636.66,295.29c-3.6.34-24.45,2-41.14-13.17-19-17.22-16.82-41.87-16.45-46.07,1.67-19.42,12.62-32.12,16.45-36.2"/><path class="cls-2" d="M1636.66,183.4a71.89,71.89,0,0,1,29.61,0,73.09,73.09,0,0,1,36.2,19.74"/><path class="cls-2" d="M1789.68,339.71c2.25-6.4,6.66-11.12,11.52-11.52,7.84-.64,13.23,10.24,14.81,16.46,2.24,8.81.14,21.28-9.87,28-11.23,7.5-23.88,2-24.68,1.65"/><path class="cls-2" d="M1746.9,356.17c-1.62-2.74-11.21-19.49-4.93-39.49a48.61,48.61,0,0,1,18.1-24.69"/><path class="cls-2" d="M1809.43,288.7a52,52,0,0,1,41.14,47.72"/><path class="cls-2" d="M96,1472.93c-14.07-8.37-69.85-42.58-88.5-119.5a199.55,199.55,0,0,1-2-82c3.15-15.48,7.77-37,24.5-58.5,7.3-9.36,19.86-25.06,42.5-33.5,6.25-2.33,34.45-12,64,1,31.61,13.86,59.46,51.76,50,87-4.64,17.32-18.94,36.39-41,42-18.07,4.59-47.49,1.7-57-20-8.75-20,2.1-49.67,23-54,12.86-2.66,27.47,4.69,37,18"/><path class="cls-2" d="M73,1179.93c-11.25-7.74-43.95-30.53-55-88-10-52,1.07-79.34,5-91,6.93-20.55,15.46-45.89,41-63,6.51-4.36,31.38-21.56,63-15,6,1.24,34.84,7.23,47,33,11.65,24.69,4.81,60.84-20,74-20.87,11.07-53.93,5.56-61-13-6.08-16,6.59-43,25-44,10.21-.57,20.5,6.93,27,18"/><path class="cls-2" d="M67,935.93c-7.15-4.15-53.41-30.89-64-92C-4.94,798.39,12,755,37,728.93a104.05,104.05,0,0,1,32-23c10.34-4.65,35.73-16.08,62-5,4.43,1.87,23.83,10.05,32,31,7.94,20.35,3.14,47.27-16,62-16,12.33-43.89,17.5-59,2-11.45-11.75-15.49-35.29-3-47,10.78-10.1,32.5-10.12,40,1,3.92,5.8,2.92,13.08,2,17"/><path class="cls-2" d="M61,709.93c-11.42-19.71-24.41-46.77-21-97,.83-12.18,2.48-33.14,15-56,5.25-9.58,14.48-25.94,34-38,5.91-3.65,20.47-12.44,40-13,26.22-.75,65.13,13.2,72,45,4.85,22.42-6.37,53.09-30,60-19.57,5.72-46.44-5.22-50-23-2.33-11.67,4.79-29.15,18-31,8.3-1.16,17.29,4.08,23,13"/><path class="cls-2" d="M1862,1480.93c10.62-3.13,30.78-10.3,47-23,24.9-19.49,35.47-43,42-58,4-9.08,18.85-45.35,14-94-1.88-19-5-62-40-100-11.46-12.44-31.32-35.81-66-44-38.59-9.12-80.92,3.55-109,32-7.25,7.35-32.63,35.09-33,77-.1,12-.42,47.69,27,71,26.94,22.9,70.44,25.23,100,3,18.36-13.8,36.55-41,30-71-4.36-20-21.43-49.22-50-49-21.61.17-42.24,17.12-49,42"/><path class="cls-2" d="M1884,1169.93c14.45-8.26,17.59-12.21,35-40,23.51-37.52,22.78-74.64,22-114-.58-29.53-1.89-70.88-27-114-8.14-14-15.33-26.89-30-39-31-25.61-85.68-40.47-130-14-5.49,3.28-52.2,32.27-50,84,1.29,30.26,19,61,49,75,29.4,13.77,72.71,12.55,95-16,17.69-22.66,23.14-63.84,0-82-17.72-13.92-51.43-13.71-66,7-12.46,17.71-4,40.54-3,43"/><path class="cls-2" d="M1878,857.93c11-8,24-20,38-42,18.07-28.39,20.93-54.87,23-80,2.82-34.2-.48-66.93-22-95-15.5-20.22-29.9-28-38-31-7.16-2.64-50.55-18.6-88,7-4.8,3.28-33.84,23.13-36,59-.3,5-1.55,34.71,21,55,20.28,18.25,57,26.34,78,7,14.33-13.2,22.59-40.32,9-58-9.12-11.88-27.88-19.19-44-12-14.63,6.52-19.27,21.51-20,24"/><path class="cls-2" d="M1879,609.93c10-5.92,13.09-8.53,27-26a143,143,0,0,0,26-51c8.54-30.94,4.18-56.17,2-68-2.51-13.65-6.6-34.61-22-56-9.5-13.2-20.45-28.42-40-34-26.63-7.6-61.46,4.91-76,33-9.06,17.5-14.36,49,6,67,17.18,15.18,48.91,17.48,64-1,14.22-17.41,10.42-49.28-7-58-11.57-5.79-30.53-2.06-38,11-4.64,8.11-6.42,22.56,3,30,6.76,5.34,17.27,5.46,26,0"/><path class="cls-2" d="M130,525.93c5.35-.8,21-2.4,36,7,5.49,3.44,17.92,11.23,20,26,1.78,12.58-5,22.39-7,25"/><path class="cls-2" d="M133,571.93c-.18,1.22-1.37,10.26,5,17,5.81,6.15,15.49,7.84,24,4"/><path class="cls-2" d="M68,685.93a129.53,129.53,0,0,1-9-88"/><path class="cls-2" d="M115,760.93c-.52-.94-3.4-5.86-9-7-6.6-1.35-12.45,3.47-15,8-5,8.89,1.66,18.52,2,19a20.75,20.75,0,0,0,13,8"/><path class="cls-2" d="M150,771.93a43.85,43.85,0,0,0,5-22c-.81-19.17-14.48-30.91-17-33"/><path class="cls-2" d="M34,874.93a126.44,126.44,0,0,1-12-38,127.78,127.78,0,0,1,5-58"/><path class="cls-2" d="M112,986.93c-6.53,4.17-10.54,11.11-10,18,.77,9.76,10.58,18.46,23,18"/><path class="cls-2" d="M162,1003.93a40.28,40.28,0,0,0,8-26c-1-17.62-14.07-27.84-17-30a42.24,42.24,0,0,0-15-7"/><path class="cls-2" d="M56,975.93a111.65,111.65,0,0,0-24,73"/><path class="cls-2" d="M38,1087.93a99.42,99.42,0,0,0,21,49"/><path class="cls-2" d="M103,1456.93a230.22,230.22,0,0,1-75-93"/><path class="cls-2" d="M21,1281.93a84.13,84.13,0,0,1,5-36,85.37,85.37,0,0,1,30-39"/><path class="cls-2" d="M147,1206.93a70.7,70.7,0,0,1,18,21c3.79,6.77,11.45,20.49,8,37a43.55,43.55,0,0,1-7,16"/><path class="cls-2" d="M127,1292.93c-1.46.06-13.44.38-21-9-4.83-6-8.52-16.8-3-25,4.44-6.58,12.3-7.78,14-8"/><path class="cls-2" d="M1842,451.93a12,12,0,0,1-10-21"/><path class="cls-2" d="M1845,423.93a20.53,20.53,0,0,1,14,7c6.46,7.65,4.24,17.05,4,18"/><path class="cls-2" d="M1819,474.93c-2.43-1.28-15.21-8.28-20-24-5.37-17.66,3.7-32,5-34"/><path class="cls-2" d="M1866,388.93a66.71,66.71,0,0,1,45,55"/><path class="cls-2" d="M1889,575.93a98,98,0,0,0,29-75"/><path class="cls-2" d="M1819,690.93c4.51-8.64,14.67-12.37,23-9a18.38,18.38,0,0,1,11,19"/><path class="cls-2" d="M1814,735.93c-3.13-.47-24.44-4-37-24-14-22.28-5-45.67-4-48"/><path class="cls-2" d="M1811,623.93a65,65,0,0,1,42-7c24.9,4.41,38.29,22.22,41,26"/><path class="cls-2" d="M1907,795.93a88.17,88.17,0,0,0,9-49"/><path class="cls-2" d="M1793,950.93c-.2-.63-4.13-13.64,5-24s22.3-8.13,23-8"/><path class="cls-2" d="M1845,947.93c.22,3.35.81,18.23-10,31-14.3,16.89-36,15.2-38,15"/><path class="cls-2" d="M1732,965.93c-2.8-4.07-14.7-22.31-11-47a66.35,66.35,0,0,1,20-38"/><path class="cls-2" d="M1918,1065.93a182.35,182.35,0,0,0,1-82"/><path class="cls-2" d="M1891,893.93a77.72,77.72,0,0,0-56-39"/><path class="cls-2" d="M1798,1262.93a25.58,25.58,0,0,1,46-8"/><path class="cls-2" d="M1849,1291.93c-.19,2.36-2.28,23.18-21,35-21.2,13.39-43.79,2.6-45,2"/><path class="cls-2" d="M1738,1284.93c-1.13-8.83-3.65-37.35,14-65,17.26-27,49-45.75,83-44,38.78,2,62.38,29.69,72,41,21.44,25.17,27.18,52.41,29,65"/><path class="cls-2" d="M1867,1458.93a132.28,132.28,0,0,0,64-77"/><path class="cls-2" d="M98,446.93a125.49,125.49,0,0,1,8-87"/></g><g id="Layer_15" data-name="Layer 15"><path class="cls-2" d="M96,1471.93c-3,30,11.51,62.47,39.54,79.44,20,12.12,47.54,15.7,69.11,8.23a51.82,51.82,0,0,0,13.16-6.59c19.76-14,22.57-38.88,23-44.42.23-2.82,2.84-41.49-26.33-59.24-22.26-13.54-57.92-11.8-70.75,9.87-10.73,18.11-4.39,48.23,13.16,56,9.83,4.32,26.5,3.08,32.91-8.23,6.12-10.8-1.1-23.74-1.65-24.68"/><path class="cls-2" d="M217.76,1553c-1.64,13.17,0,26.33,4.94,44.43,9,32.84,36.15,47.56,44.42,52.66,25.78,15.86,50.8,16.38,59.24,16.45,6.79.06,12.47.1,19.75-1.64,23.06-5.54,44.18-24.74,52.65-49.37,1.07-3.09,15.78-48.26-14.81-75.69-16.59-14.88-42-20.5-64.17-11.52s-43.49,33.59-37.85,59.24c4.42,20.07,25.39,41,46.08,36.2,17.35-4,30.38-25.19,26.32-41.14-.32-1.28-3.86-14.34-14.81-16.45-7.75-1.5-16.43,3-21.39,11.52"/><path class="cls-2" d="M778.86,1653.39c-1,18.33-5.41,46.54-24.68,79-28.54,48-71.81,68-92.15,77.34C623.4,1827.5,590,1830,573.18,1831.1a264.35,264.35,0,0,1-97.08-11.52c-24-7.73-56.23-18.11-83.92-47.72-17.71-18.94-27.17-38.92-31.26-47.72-11.05-23.77-14.12-43-14.81-47.72-1.09-7.3-1.49-6.94-1.65-11.51"/><path class="cls-2" d="M1743.09,1452.64c-2.27,2.46-9.94,11.32-8.22,21.39,2.53,14.86,24,23.48,39.49,19.75,20.57-5,32.31-32,26.32-49.36-7.89-22.88-47.41-31.23-74-18.1-28.53,14.06-38.66,51-29.62,77.33.71,2.08,9.26,25.84,31.26,34.56,5.16,2,21,4.93,32.91,4.93,13.17,0,22,.58,39.49-3.29,12.1-2.67,24.14-6.11,36.14-15.11,19.32-14.49,24.34-30.5,26.13-44.81"/><path class="cls-2" d="M1728.28,1538.21c-8.45,9-22,19.65-51,28-8,2.29-27.19,7.58-51,3.29-16.44-3-28.85-9.37-36.2-13.16-9.62-5-16.08-9.1-19.75-13.17-12-13.28-15-40.08,1.65-57.59,17.87-18.82,52.23-16.46,62.52,0,7.62,12.18,3.87,35-9.87,41.14-11.31,5.06-29.38-1.18-31.26-11.52-1.21-6.64,4.63-12.88,6.58-14.81"/><path class="cls-2" d="M1237.94,1518.46c-11.62,2.35-18.89,4.32-34.55,4.94a218.1,218.1,0,0,1-37.85-1.65"/><path class="cls-2" d="M1572,1544.79c-7.13,2.19-9.33,2.74-16.46,4.93"/><path class="cls-2" d="M1473.24,1513.52s24.66-1.84,23,23c-.83,12.69-14.81,16.45-14.81,16.45-13.4,2.77-25.15-1.1-32.91-8.22-19.75-18.1-5.85-52.4,6.58-62.53,21.67-17.66,64.84-6.73,85.56,19.75,20.2,25.8,12.62,58.15,11.52,62.52-5.49,21.88-19.45,34.78-26.33,41.14-22.28,20.61-47.66,24.82-57.59,26.33a122.23,122.23,0,0,1-70.75-11.52c-9.33-4.68-25.52-13-37.85-31.27a85.07,85.07,0,0,1-9.87-19.74,131.67,131.67,0,0,1-51-4.94c-10.69-3.24-27.26-8.47-42.78-23-5.52-5.19-14.41-13.71-19.75-28-2.49-6.67-7.06-18.86-3.29-32.9,4.59-17.09,19.91-31,37.85-34.56s42.92,2.42,51,21.39c5,11.66,4.33,29.93-8.23,39.49-8.89,6.77-22.73,8.39-32.91,1.65-6.93-4.59-14.57-14.64-11.52-24.68,2.2-7.22,10-14.81,18.1-13.17,6,1.22,9.16,6.88,9.88,8.23"/><path class="cls-2" d="M1047.07,1470.74s24-11.2,32.91,6.58c6.58,13.17-4.94,26.33-11.52,31.27s-18.59,6.19-29.62,4.93c-20.16-2.29-35-36.74-28-60.88,8.91-30.6,52.88-44.38,85.56-37.84,38.12,7.62,56.19,41.94,59.24,47.72,4.6,8.73,16.94,35.48,8.23,67.46-8.76,32.15-33.2,49-41.14,54.3-52.31,34.92-124,13.24-162.9-9.87a173,173,0,0,1-14.81-9.88c-1,3.35-5.37,15.84-18.1,23a39.57,39.57,0,0,1-19.75,4.94,42.4,42.4,0,0,1-19.74-4.94,84.85,84.85,0,0,1-72.4,67.46c-10.6,1.57-32,4.73-52.65-8.22-26.81-16.8-30.83-47.18-31.27-51-.39-3.43-4.17-41.63,24.68-62.53,17.77-12.87,51-21.46,69.11-1.65,15.21,16.69,14.12,47.46-3.29,62.53-12.61,10.92-35.93,15.44-47.72,3.29-8.9-9.18-11.4-28.08-1.64-36.2,8.35-6.94,25.24-5.64,29.62,3.29,2.86,5.86-.64,12.92-1.65,14.81"/><path class="cls-2" d="M1826.19,1514.35a118.42,118.42,0,0,1-88.86,11.51"/><path class="cls-2" d="M1660,1548.9a55.86,55.86,0,0,1-49.37-1.64"/><path class="cls-2" d="M1612.28,1516c2,0,9.36,0,13.16-4.93,5.55-7.14.55-20.54-8.22-26.33-9.16-6-20-2.19-21.39-1.65"/><path class="cls-2" d="M1029.79,1578.52a154.42,154.42,0,0,1-34.55-9.87c-11.61-4.86-28-11.93-42.79-28a98.43,98.43,0,0,1-13.16-18.1c.65,3-2.6,26.19-13.16,41.14-2.12,3-8.23,7.41-23,9.87-16,2.67-22.86-6.72-24.68-8.22a97,97,0,0,1-28,55.94"/><path class="cls-2" d="M722.09,1711.8a142.35,142.35,0,0,1-107,75.69"/><path class="cls-2" d="M542.74,1794.07a168.32,168.32,0,0,1-130-65.81"/><path class="cls-2" d="M1423.05,1609.78a73.51,73.51,0,0,1-28-14.81c-16.78-14.35-22.26-32.64-24.68-41.13a94.24,94.24,0,0,1-3.29-18.1,90.09,90.09,0,0,1-34.56,11.52c-8.65,1-30.44,3.21-51-9.88a67.83,67.83,0,0,1-16.45-14.81"/><path class="cls-2" d="M1525.07,1509.41c4.24,5,12.23,15.93,13.17,31.26,1.5,24.74-16.57,41.58-21.4,46.08a70.33,70.33,0,0,1-24.68,14.81"/><path class="cls-2" d="M1052.83,1479.79c3.29-3.29,18.1-3.29,16.45,9.88-.86,6.89-12.08,12.95-19.74,13.16-8.32.23-16.54-6.36-19.75-16.46"/><path class="cls-2" d="M1054.47,1433.72c3.83-1.37,36.09-12.37,64.18,6.58,22.88,15.44,27.87,40.56,29.61,49.37a88.94,88.94,0,0,1-3.29,46.07"/><path class="cls-2" d="M1118.65,1555.48a71.08,71.08,0,0,1-54.3,21.39"/><path class="cls-2" d="M787.91,1637.76c-5.17-.6-17.85-2.84-28-13.17-11.62-11.86-12.66-27.06-13.17-34.55a66.46,66.46,0,0,1,1.65-19.75"/><path class="cls-2" d="M792.85,1570.29c-1.07-4.34-6.86-2.8-9.88-3.29-4.82-.78-6.6,9.34-6.58,14.81,0,7.84,10.54,14.9,19.75,14.81,12.48-.13,19.72-13.39,21.39-16.46,6.26-11.47,4.07-22.91,3.29-26.32"/><path class="cls-2" d="M332.12,1581.81c1,.68,7.77,5.39,8.23,13.16.53,9-7.65,16.83-16.46,18.1S306,1609,302.5,1599.91"/><path class="cls-2" d="M332.12,1537.38c3.6-.34,24.45-2,41.14,13.17,18.94,17.22,16.81,41.87,16.45,46.07-1.68,19.42-12.62,32.12-16.45,36.2"/><path class="cls-2" d="M332.12,1649.27a71.93,71.93,0,0,1-29.62,0,73.22,73.22,0,0,1-36.2-19.74"/><path class="cls-2" d="M179.09,1493c-2.24,6.4-6.65,11.12-11.51,11.51-7.84.65-13.23-10.23-14.81-16.45-2.24-8.81-.15-21.29,9.87-28,11.23-7.5,23.88-2,24.68-1.65"/><path class="cls-2" d="M221.87,1476.5c1.63,2.74,11.22,19.49,4.94,39.49a48.52,48.52,0,0,1-18.1,24.68"/><path class="cls-2" d="M159.35,1544a52,52,0,0,1-41.14-47.71"/></g></g></g></svg>