<svg xmlns="http://www.w3.org/2000/svg" viewBox="0 0 1505.78 360"><defs><style>.cls-1{fill:#fff;}</style></defs><g id="Layer_2" data-name="Layer 2"><g id="Layer_7" data-name="Layer 7"><path class="cls-1" d="M1505.78,290.22A69.73,69.73,0,0,1,1436,360H90c-49.71,0-90-27.53-90-61.5S40.29,237,90,237a126.86,126.86,0,0,1,35,4.82C141.23,225.48,166.33,215,194.5,215c24.49,0,46.66,7.92,62.68,20.73a122.18,122.18,0,0,1,14-4.47c2.67-38.07,41.2-68.26,88.34-68.26,40.3,0,74.31,22.06,85,52.25q3.94-.25,8-.25c39.08,0,72.56,17.31,86.54,41.89A177.36,177.36,0,0,1,576.5,253a183.36,183.36,0,0,1,24.75,1.65c6-36.76,34.22-64.43,99.19-64.43,32.93,0,63.07,13.15,86.42,29a34.24,34.24,0,0,1,48.78-18.5c5.73-32.14,36.55-56.69,73.69-56.69a82.15,82.15,0,0,1,19.58,2.35C930,65.37,1011.56,0,1112,0c114.3,0,177,60.12,182.68,136.46a99.81,99.81,0,0,1,16.43-1.35c51.06,0,92.45,38.4,92.45,85.78a76.46,76.46,0,0,1-.39,7.75,69.79,69.79,0,0,1,102.61,61.58Z"/></g></g></svg>