<?xml version="1.0" encoding="UTF-8"?><svg xmlns="http://www.w3.org/2000/svg" viewBox="0 0 135.71 209.02"><defs><style>.k,.l{fill:none;}.k,.l,.m{stroke-miterlimit:10;}.k,.m{stroke:#000;}.l{stroke:#fff;}.m{fill:#fff;}</style></defs><g id="a"/><g id="b"><g id="c"><path class="m" d="M1.56,197.21l30.25-48.87c1.24-2,3.4-3.24,5.74-3.31,20.98-.59,41.96-1.18,62.94-1.77,2.64-.07,5.09,1.34,6.34,3.66,8.74,16.19,18.55,34.5,27.53,51.16,2.48,4.61-.8,10.22-6.04,10.3-39.84,.62-80.85-1.08-120.72-.51-5.53,.08-8.96-5.96-6.05-10.66Z"/></g><g id="d"><path class="m" d="M44.79,132.14c-5.49,1.38-8.96,.14-12,2-1.6,.98-16.05,.98-10.84,.99,4.84,0-2.55,1.77-.16,4.01,7.92,7.41,8.28,8.31,10.61,10.68,.24,.24,.55,.38,.87,.48,8.4,2.74,30.74,4.67,46.52,3.84,18.51-.97,20.09-2.89,27.4-5.77,.39-.15,.75-.39,1.03-.7,3.3-3.59,5.61-6.68,8.47-10.04,1.35-1.59,.5-4.05-1.55-4.45-8.88-1.74-20.23-3.52-23.35-4.04-5.7-.95-24.03,2.61-28.43,2.11-.37-.04-.73-.02-1.09,.07-3.1,.78-12.87-.34-17.48,.82Z"/><path class="m" d="M86.79,21.14v-7c2.11-1.89,6.48-5.29,13-7,4.81-1.26,11.44-3.46,16,0,2.11,1.61,2.84,3.69,4,7,2.76,7.88,.77,15.28,0,18-.36,1.27-.73,2.31-1,3-2.71,1.97-5.17,2.72-7,3-8.82,1.37-18.71-5.45-25-17Z"/></g><g id="e"><path class="m" d="M82.79,23.14c-.03-.22-.18-1.81,1-3,.76-.76,1.66-.95,2-1,3.99,.83,10.93,2.81,18,8,6.2,4.55,9.95,9.68,12,13l-5,3c-2.28,.32-4.29,.25-6,0-13.82-2.02-20.93-17.57-22-20Z"/></g><g id="f"><path class="m" d="M25.79,128.14c3,6,7.15,5.38,12,7,6,2,22.99,4.08,39,4,4.39-.02,21.09-1.7,28-4,6-2,8.72-3.98,10-5,10-8,8-23,8-28,0-11.87,1.5-26.26-9-35-3.77-3.13-7.85-4.52-16-6-27.78-5.04-41.67-7.56-54,0-17.92,10.98-28,28-25,50,.84,6.15,4.37,14.14,7,17Z"/><path class="k" d="M21.79,135.14c15.42,4.61,25,6,34,7,25.63,2.85,43.72-1.93,48-3,6.61-1.66,9.06-2.52,13-4"/></g><g id="g"><path class="m" d="M31.79,144.14c-2.65-1.68-6.27-4.27-10-8C6.5,120.83-.03,99.46,.79,94.14c2-13,5-35,21-52,11.13-11.82,25.11-14.59,35-17,8.98-2.18,17.73-4.2,28-1,9.22,2.87,14.31,6.6,19,11,1.42,1.33,8.87,6.56,16,18,4.48,7.19,10.51,21.16,13,28,4,11-6.44,44.25-10,55,0-10-2-22.65-2-30,0-17-4-22-9-35-.93,3.09-3.06,8.68-8,14-4.01,4.31-8.26,6.72-11,8-6.38-2.2-13.94-5.36-22-10-9.23-5.3-16.51-11.03-22-16-.14,11.89-2.18,20.95-4,27-2.95,9.8-2.93,10.34-5,20-1.42,6.6-3.54,11.24-6,22-.78,3.4-1.5,6.18-2,8Z"/></g><g id="h"><path class="m" d="M19.79,39.14c-3.73-1-6.45-2.81-8-4-1.13-3.04-3.71-11.24-1-21,1.73-6.26,4.93-10.61,7-13,2.8-.55,7.47-1.11,13,0,3.99,.8,13.51,2.7,18,11,.61,1.12,3.33,6.15,2,12-2.6,11.47-18.99,18.23-31,15Z"/><path class="m" d="M16.79,37.14c8.51,.23,13.03-1.56,17-3,5.61-2.04,10-4,14-9,1.31-1.64,2.99-4.75,3-6l2,1v9c-2.31,2.58-6.87,6.99-14,10-7.67,3.24-14.49,3.24-18,3l-5-3,1-2Z"/></g><g id="i"><ellipse cx="64.29" cy="104.14" rx="7.5" ry="7"/><ellipse cx="111.04" cy="102.89" rx="4.75" ry="6.25"/><g><path d="M98.82,120.34c-4.2,1.14-8.64,1.31-12.97,.46-1.32-.26-2.14-1.44-1.82-2.5h0c.31-1.06,1.46-1.65,2.56-1.44,3.73,.74,7.55,.6,11.15-.38,1.07-.29,2.23,.23,2.64,1.26h0c.4,1.03-.28,2.24-1.56,2.59Z"/><path class="l" d="M98.82,120.34c-4.2,1.14-8.64,1.31-12.97,.46-1.32-.26-2.14-1.44-1.82-2.5h0c.31-1.06,1.46-1.65,2.56-1.44,3.73,.74,7.55,.6,11.15-.38,1.07-.29,2.23,.23,2.64,1.26h0c.4,1.03-.28,2.24-1.56,2.59Z"/></g></g><g id="j"><path class="m" d="M11.79,34.14c3.75,.53,9.47,.81,16-1,13.5-3.74,20.81-13.74,23-17"/><path class="m" d="M86.79,14.14c4.45,1.14,11.04,3.38,18,8,6.71,4.45,11.23,9.43,14,13"/><path class="k" d="M15.79,39.14c6.04,.56,10.9-.24,14-1,3.9-.95,10.25-2.58,16-8,3.84-3.61,5.91-7.51,7-10"/><path class="k" d="M48.79,67.14v-11c8.42,7.26,18.38,14.82,30,22,4.78,2.95,9.46,5.61,14,8,6.9-3.74,10.79-7.98,13-11,2.92-3.99,5.99-10.05,9-16,.42-.83,3.77,5.47,4,5,1.44,2.88,.29-.05,2,5,4,11.84,4.62,21.46,5,28,.5,8.74,.36,21.59-3,37"/><path class="k" d="M97.79,152.14c1.33,18.67,2.67,37.33,4,56"/><path class="k" d="M88.79,153.14c.33,18.33,.67,36.67,1,55"/><path class="k" d="M92.79,148.14c0-1,0-3,2-4,3.22-1.61,7.89-2.21,9,0,.63,1.25-.15,3.03-1,4-.71,.81-2.75,2-7,2-2,0-3-1-3-2Z"/></g></g></svg>