<?xml version="1.0" encoding="UTF-8"?><svg id="Layer_2" xmlns="http://www.w3.org/2000/svg" viewBox="0 0 139.32 132.93"><defs><style>.cls-1{fill:#fff;}.cls-2{fill:#d8d8d8;}.cls-3{stroke:#fff;stroke-miterlimit:10;stroke-width:3px;}.cls-3,.cls-4{fill:none;}</style></defs><g id="test-scene"><g id="Layer_30"><path id="fill" class="cls-2" d="M112.63,66.13c-11.52,2.65-23.04,5.29-34.56,7.94-2.5,11.67-5.01,23.33-7.51,34.99-2.65-11.67-5.29-23.33-7.94-34.99-11.67-2.65-23.33-5.29-34.99-7.94,11.67-2.5,23.33-5.01,34.99-7.51,2.65-11.52,5.29-23.04,7.94-34.56,2.5,11.52,5.01,23.04,7.51,34.56,11.52,2.5,23.04,5.01,34.56,7.51Z"/><polygon class="cls-1" points="70.34 108.85 70.34 66.35 62.62 74.08 70.34 108.85"/><path class="cls-1" d="M62.62,58.62l-34.78,7.73h42.5"/><path class="cls-1" d="M70.34,23.84v42.5l7.73-7.73-7.73-34.78Z"/><path class="cls-1" d="M78.07,74.08l34.78-7.73h-42.5"/><path id="outline" class="cls-4" d="M112.63,66.13c-11.52,2.65-23.04,5.29-34.56,7.94-2.5,11.67-5.01,23.33-7.51,34.99-2.65-11.67-5.29-23.33-7.94-34.99-11.67-2.65-23.33-5.29-34.99-7.94,11.67-2.5,23.33-5.01,34.99-7.51,2.65-11.52,5.29-23.04,7.94-34.56,2.5,11.52,5.01,23.04,7.51,34.56,11.52,2.5,23.04,5.01,34.56,7.51Z"/><path id="fill-2" class="cls-1" d="M43.51,39.52c8.94,6.94,17.89,13.88,26.83,20.82,9.02-7.01,18.03-14.03,27.05-21.04-7.01,9.02-14.03,18.03-21.04,27.05,7.08,9.09,14.17,18.18,21.25,27.26-9.09-7.23-18.18-14.45-27.26-21.68-8.94,7.23-17.89,14.45-26.83,21.68,7.08-9.09,14.17-18.18,21.25-27.26-7.08-8.94-14.17-17.89-21.25-26.83Z"/><path class="cls-2" d="M70.34,66.35v5.58c-9.02,7.16-18.03,14.31-27.05,21.47"/><path class="cls-2" d="M70.34,66.35h-5.58c-7.16-9.02-14.31-18.03-21.47-27.05"/><path class="cls-2" d="M70.34,66.35h6.01c7.01,9.02,14.03,18.03,21.04,27.05"/><path class="cls-2" d="M70.34,66.35v-6.01c9.02-7.01,18.03-14.03,27.05-21.04"/><path id="outline-2" class="cls-4" d="M43.51,39.52c8.87,7.01,17.75,14.03,26.62,21.04,9.09-7.08,18.18-14.17,27.26-21.25-7.08,9.09-14.17,18.18-21.25,27.26,7.16,9.02,14.31,18.03,21.47,27.05-9.16-7.16-18.32-14.31-27.48-21.47-9.02,7.16-18.03,14.31-27.05,21.47,7.16-9.02,14.31-18.03,21.47-27.05-7.01-9.02-14.03-18.03-21.04-27.05Z"/></g><g id="Layer_32"><path class="cls-3" d="M9.73,58.04l-7.61,7.61,7.61,7.61"/><path class="cls-3" d="M62.78,123.2l7.61,7.61,7.61-7.61"/><path class="cls-3" d="M129.59,59.33l7.61,7.61-7.61,7.61"/><path class="cls-3" d="M77.77,9.73l-7.61-7.61-7.61,7.61"/></g></g><g id="Layer_34"><line class="cls-4" x1="61.69" y1="72.68" x2="64.42" y2="69.95"/></g></svg>