<?xml version="1.0" encoding="UTF-8" standalone="no"?>
<!DOCTYPE svg PUBLIC "-//W3C//DTD SVG 1.1//EN" "http://www.w3.org/Graphics/SVG/1.1/DTD/svg11.dtd">
<svg width="100%" height="100%" viewBox="0 0 916 1421" version="1.1" xmlns="http://www.w3.org/2000/svg" xmlns:xlink="http://www.w3.org/1999/xlink" xml:space="preserve" xmlns:serif="http://www.serif.com/" style="fill-rule:evenodd;clip-rule:evenodd;stroke-linecap:round;stroke-linejoin:round;stroke-miterlimit:1.5;">
    <g transform="matrix(1,0,0,1,-3782.6,-1146.75)">
        <g id="bottom">
        </g>
        <g id="window">
        </g>
        <g transform="matrix(1.23649,0,0,1.26786,2155.16,-687.741)">
            <rect x="1316.18" y="1446.92" width="740.427" height="1120.65" style="fill:rgb(173,166,121);"/>
            <g transform="matrix(0.769833,0,0,0.81653,384.902,371.035)">
                <rect x="1316.18" y="1446.92" width="740.427" height="1120.65" style="fill:rgb(172,154,118);"/>
                <clipPath id="_clip1">
                    <rect x="1316.18" y="1446.92" width="740.427" height="1120.65"/>
                </clipPath>
                <g clip-path="url(#_clip1)">
                    <g transform="matrix(1.14083,0,0,0.127127,-224.145,1979)">
                        <rect x="1316.18" y="1446.92" width="740.427" height="1120.65" style="fill:rgb(127,123,99);"/>
                    </g>
                    <g transform="matrix(1.14083,0,0,0.127127,-224.145,2247.3)">
                        <rect x="1316.18" y="1446.92" width="740.427" height="1120.65" style="fill:rgb(127,123,99);"/>
                    </g>
                    <g transform="matrix(1.14083,0,0,0.127127,-224.145,1693.1)">
                        <rect x="1316.18" y="1446.92" width="740.427" height="1120.65" style="fill:rgb(127,123,99);"/>
                    </g>
                    <g transform="matrix(1.14083,0,0,0.127127,-224.145,1412.81)">
                        <rect x="1316.18" y="1446.92" width="740.427" height="1120.65" style="fill:rgb(127,123,99);"/>
                    </g>
                </g>
                <rect x="1316.18" y="1446.92" width="740.427" height="1120.65" style="fill:none;stroke:rgb(127,123,99);stroke-width:16.71px;"/>
            </g>
        </g>
    </g>
</svg>
