<?xml version="1.0" encoding="utf-8"?>
<!-- Generator: Adobe Illustrator 26.3.1, SVG Export Plug-In . SVG Version: 6.00 Build 0)  -->
<svg version="1.1" id="Layer_2_00000068641580045648928300000014268963052877762694_"
	 xmlns="http://www.w3.org/2000/svg" xmlns:xlink="http://www.w3.org/1999/xlink" x="0px" y="0px" viewBox="0 0 655.7 413"
	 style="enable-background:new 0 0 655.7 413;" xml:space="preserve">
<style type="text/css">
	.st0{fill:#FFFFFF;stroke:#000000;stroke-width:2;stroke-miterlimit:10;}
	.st1{fill:none;stroke:#000000;stroke-width:2;stroke-miterlimit:10;}
	.st2{stroke:#000000;stroke-width:2;stroke-miterlimit:10;}
	.st3{fill:none;stroke:#000000;stroke-width:3;stroke-miterlimit:10;}
	.st4{fill:#FFFFFF;}
</style>
<g id="head">
	<path class="st0" d="M653.8,412c-1-1.5-1.9-3-2.8-4.5c-35.9-58.5-52.4-112.6-59.9-137.9c-13.7-46-9.5-51.3-25-95.9
		c-14.7-42.4-25.5-72.5-51.9-102.9c-9.8-11.2-36.4-41.1-80.9-58c-6.7-2.5-79.5-28.9-152.9,6c-12.2,5.8-21.5,11.9-27.6,16.3
		c-14.4,0.2-35.5,1.9-59.3,9.7c-57.7,19-90.4,60.3-109.6,85.1c-48.6,63.1-61.1,129.4-72.3,188.6C4.4,357.1,1.9,389.6,1,412
		L653.8,412L653.8,412z"/>
	<path class="st1" d="M87.2,286.6c-8.3,35.5-15,72.8-19.6,111.9c-0.5,4.2-0.9,8.4-1.4,12.5"/>
	<path class="st1" d="M585.2,411c-7-22.5-12.5-41.6-16.6-56.4c-30.2-109.2-33.1-161.3-75.7-223.2c-15.6-22.7-31.3-39-41.3-48.7"/>
	<path class="st0" d="M134.1,411h358.1c2-10.9,3.5-22.2,5-35.1c3-24.1,6.9-55.2,3-95.9c-2.1-21.8-4.1-43.4-14-69.9
		c-5.8-15.5-17.1-46-43-70.9c-48.5-46.7-116.6-43-136.9-42c-18.3,0.9-72.4,4.5-120.9,46c-11.9,10.2-44.6,40.7-58.9,90.9
		c-7.5,26.3-5.7,50.5-2,98.9C127,364.9,128.9,388.7,134.1,411L134.1,411z"/>
	<path class="st0" d="M328.4,1.7c47.1-5.6,80.4,24,88.6,31.3c31.9,28.4,39.1,64.6,41,75c11.4,62.1-20.9,134.5-80.3,162.2
		c-26.8,12.5-52.5,12.8-68.3,11.5c3.6-6.6,17.2-32.8,9-66.2c-5.2-21.2-20.6-36.4-38.7-55.5c-23-24.2-30.5-23.5-37.2-38.2
		c-12.9-28,1.6-58.3,4-63.4C256.2,38.1,285.6,6.8,328.4,1.7L328.4,1.7z"/>
	<path class="st1" d="M314.4,282c7.2-8.8,29.8-38.7,28-80.3c-1.6-36.7-21.5-62.5-31-74.9c-9-11.7-18.1-20.1-24.7-25.7"/>
	<path class="st1" d="M336.9,281.3c10.8-8.1,27-22.3,39.8-43.8c28.9-48.7,18.4-97.7,13.3-121c-4.5-20.8-12.5-55.9-44-82.7
		C329,19.2,311.1,12.3,299.4,9"/>
	<path class="st0" d="M263.5,31.8c4.8,2.5,9.7,7.6,15.1,25c4.8,15.3,10.3,41.6,5.5,77.1c-0.9,4.6-2.3,11.3-4.4,19.2
		c-13.5,49.8-39.4,83-53.5,100.7c-22.2,27.9-44.6,44.9-60.4,59.4c-7.5,6.8-21,12.2-38.5,28.4c-2.9-8-9.8-6.9-18.1-8.3
		c-11.9-2-20.2,6.2-20.8,6.9c-0.8-4.7-1.6-9.5-2.2-14.6c0,0-0.9-7.7-1.3-15.6c-3.9-75.3,29-146,29-146
		c6.3-13.4,35.9-74.7,95.9-115.9C242.4,25.8,256.6,28.1,263.5,31.8L263.5,31.8z"/>
	<path class="st1" d="M85,310c3.2-2,6.9-4.5,10.9-7.3c0,0,12.6-9,25.1-20.7c6.9-6.5,37.6-36.7,62-74c45.8-69.8,69.3-163.4,73-178.4"
		/>
	<path class="st0" d="M89.8,411h44.3c-1-4.3-1.9-8.8-2.7-13.4c-3.8-21.5-4.8-40.7-4.5-56.4c-2-1.9-8.5-7.7-18.2-8.2
		c-13.9-0.7-22.8,9.8-24.2,11.6c-9.8,12.1-7.8,27.6-6.8,35.3C79.3,392.6,84.3,403,89.8,411L89.8,411z"/>
	<path class="st0" d="M532.4,411c7.2-8.5,15.1-21.2,17.2-37.7c1-7.8,3-23.2-6.8-35.3c-1.4-1.8-10.3-12.3-24.2-11.6
		c-9.5,0.5-15.9,6-18,7.9c-0.5,13.1-1.6,27-3.4,41.7c-1.5,12.3-3.4,24-5.6,35.1L532.4,411L532.4,411z"/>
	<g id="eye">
		<path d="M360.2,347c6.4-11.6,19.8-21.1,32.7-24c23-5.6,48.7,7.9,57.4,29.8l0.4,0.9l-0.7,0.6c-18.3,15.1-43.5,21.2-66.1,13.2
			c22.6,7,47,0.2,64.4-15.2l-0.3,1.5c-10.2-19.2-32.6-32.3-54.4-27.6C380.4,329.1,370,338.2,360.2,347L360.2,347L360.2,347z"/>
		<g>
			<path d="M426.3,330.3c3.7-4.5,7.4-9,11.1-13.5"/>
			<polygon points="424.8,329 437.4,316.8 427.8,331.6 424.8,329 			"/>
		</g>
		<g>
			<path d="M446.5,348.5c4.8-2.9,9.5-5.8,14.3-8.7"/>
			<polygon points="445.5,346.8 460.8,339.8 447.6,350.2 445.5,346.8 			"/>
		</g>
		<g>
			<path d="M402,324.5c0-5.1,0.1-10.2,0.1-15.4"/>
			<polygon points="400,324.5 402.1,309.1 404,324.5 400,324.5 			"/>
		</g>
		<ellipse class="st2" cx="403.9" cy="341.2" rx="19.9" ry="18.1"/>
		<path class="st3" d="M475.1,323.1c-4.6-6.4-21-27.3-50.8-34.9c-40.5-10.3-72.6,12.6-77,15.9"/>
	</g>
	<g id="eye-2">
		<path d="M254.1,349c-9.8-8.9-20.2-18-33.4-20.7c-21.8-4.7-44.2,8.5-54.3,27.6l-0.3-1.5c17.4,15.5,41.9,22.2,64.4,15.2
			c-22.6,8-47.8,1.8-66.1-13.2l-0.7-0.6l0.4-0.9c8.7-21.9,34.4-35.4,57.4-29.8C234.3,328,247.7,337.5,254.1,349L254.1,349L254.1,349
			z"/>
		<g>
			<path d="M188,332.3c-3.7-4.5-7.4-9-11.1-13.5"/>
			<polygon points="186.4,333.6 176.9,318.8 189.5,331.1 186.4,333.6 			"/>
		</g>
		<g>
			<path d="M167.8,350.6c-4.8-2.9-9.5-5.8-14.3-8.7"/>
			<polygon points="166.7,352.3 153.5,341.9 168.8,348.9 166.7,352.3 			"/>
		</g>
		<g>
			<path d="M212.3,326.5c0-5.1-0.1-10.2-0.1-15.4"/>
			<polygon points="210.3,326.5 212.2,311.1 214.3,326.5 210.3,326.5 			"/>
		</g>
		<ellipse class="st2" cx="210.4" cy="343.2" rx="19.9" ry="18.1"/>
		<path class="st3" d="M139.2,325.2c4.6-6.4,21-27.3,50.8-34.9c40.6-10.3,72.6,12.6,77,15.9"/>
	</g>
</g>
<g>
	<g>
		<path class="st4" d="M37.3,98.6c0.1-0.2,0.3-0.4,0.4-0.6c0.3-0.4,0.6-0.5,0.9-0.1c10.8,9.9,21.4,18.7,31.9,26.4
			c0.3,0.3,0.3,0.6,0.1,0.9c-0.1,0.2-0.3,0.4-0.4,0.6c-0.3,0.4-0.6,0.5-0.8,0.2c-5-3.6-10-7.5-15.1-11.6c0-0.1-0.1-0.1-0.1-0.1
			c-0.1,0-0.1,0.1-0.2,0.1c-4,6-7.9,12.4-11.8,19c-0.1,0.2-0.1,0.3,0,0.4c5,4,9.9,7.7,14.9,11.2c0.3,0.2,0.3,0.6,0.1,1
			c-0.1,0.2-0.3,0.5-0.4,0.7c-0.3,0.5-0.5,0.6-0.8,0.3c-10.4-7.2-20.9-15.6-31.5-25.1c-0.3-0.3-0.3-0.7-0.1-1.1
			c0.1-0.2,0.3-0.5,0.4-0.7c0.3-0.5,0.5-0.6,0.8-0.2c5.1,4.5,10.1,8.8,15.1,12.8c0.1,0.1,0.2,0,0.3-0.1c3.9-6.7,7.8-13,11.8-19.1
			c0.1-0.1,0.1-0.3,0-0.4c-5-4.2-10.1-8.6-15.2-13.3C37.1,99.3,37.1,99,37.3,98.6z"/>
		<path class="st4" d="M79.1,110c-2.8,0.8-5.4,0.5-7.9-0.9c-0.3-0.2-0.8-0.5-1.5-1c-5.2-4.2-10.5-8.6-15.8-13.3
			c-2.7-2.4-4.2-5.4-4.4-8.9c-0.3-3.6,0.8-6.9,3.1-10c2.1-2.7,4.5-4.3,7.4-4.7c2.8-0.4,5.5,0.4,8.1,2.3c0.4,0.3,0.9,0.7,1.5,1.2
			c5.3,4.9,10.6,9.6,15.9,14c2.7,2.2,4.1,4.8,4.3,7.7c0.2,3-0.9,5.8-3.2,8.6C84.3,107.5,81.8,109.2,79.1,110z M87.8,96.6
			c-0.2-2.5-1.4-4.7-3.6-6.6c-5.3-4.4-10.6-9-16-14c-0.6-0.5-1-0.9-1.3-1.1c-2.2-1.6-4.5-2.2-6.8-1.9c-2.4,0.4-4.4,1.7-6.2,4
			c-1.9,2.6-2.8,5.4-2.6,8.3c0.2,3,1.5,5.5,3.8,7.6c5.3,4.8,10.6,9.2,15.9,13.4c0.6,0.4,1,0.7,1.3,0.9c2.1,1.2,4.3,1.5,6.7,0.9
			c2.3-0.6,4.4-2,6.1-4.2C87,101.6,88,99.1,87.8,96.6z"/>
		<path class="st4" d="M84.4,41.4c0.2-0.2,0.3-0.3,0.5-0.5c0.1-0.1,0.3-0.1,0.4-0.1c0.2,0,0.3,0.1,0.4,0.3
			c10.8,11.3,21.5,21.4,32.2,30.4c0.1,0.1,0.2,0.2,0.2,0.4c0,0.1,0,0.3-0.1,0.4c-0.1,0.1-0.3,0.2-0.4,0.4c-0.3,0.2-0.6,0.2-0.9,0
			c-9.8-8.2-19.5-17.3-29.3-27.4c-0.1-0.1-0.1-0.2-0.2-0.1c0,0-0.1,0.1,0,0.2c2.5,6.7,5,13.3,7.4,19.6c0.2,0.3,0.1,0.5-0.1,0.8
			c-0.1,0.1-0.1,0.1-0.2,0.2c-0.3,0.3-0.6,0.3-0.8,0.2c-6.8-2.1-13.6-4.3-20.5-6.6c-0.1,0-0.2,0-0.3,0.1c0,0,0,0.1,0.1,0.2
			c9.8,9.7,19.5,18.4,29.3,26.2c0.3,0.3,0.3,0.5,0,0.8c-0.1,0.1-0.3,0.3-0.4,0.4c-0.3,0.3-0.6,0.3-0.9,0
			c-10.7-8.5-21.4-18.2-32.3-29c-0.3-0.3-0.3-0.7-0.1-0.9c0.2-0.2,0.3-0.4,0.5-0.6c0.2-0.3,0.5-0.3,0.8-0.2c7.4,2.5,14.7,4.9,22,7.2
			c0.1,0,0.2,0,0.2,0c0.1-0.1,0.1-0.1,0-0.2c-2.6-6.8-5.3-13.9-7.9-21.2C84.1,41.9,84.2,41.7,84.4,41.4z"/>
		<path class="st4" d="M110,24.3c0,0.2,0,0.3-0.1,0.3c-4.4,2.7-8.8,5.8-13.3,9.2c-0.1,0.1-0.1,0.2,0,0.3c4.7,5.1,9.5,9.9,14.2,14.5
			c0.1,0.1,0.3,0.1,0.3,0.1c3.1-2.3,6.1-4.3,9.2-6.2c0.1-0.1,0.3-0.1,0.4,0c0.2,0,0.3,0.1,0.4,0.3c0.1,0.1,0.2,0.2,0.3,0.3
			c0.1,0.1,0.2,0.2,0.2,0.4c0,0.1,0,0.3-0.2,0.3c-3,1.9-6.1,4-9.1,6.2c-0.1,0.1-0.1,0.2,0,0.3c4.7,4.6,9.4,9,14.2,13.1
			c0,0,0,0.1,0.1,0.1c0.1,0,0.1,0,0.2,0c4.4-3.1,8.7-5.7,13-8.1c0.1-0.1,0.3-0.1,0.5-0.1c0.2,0,0.3,0.1,0.4,0.2
			c0.1,0.1,0.2,0.2,0.4,0.3c0.3,0.3,0.3,0.5,0.1,0.6c-4.6,2.5-9.3,5.4-14,8.8c-0.3,0.2-0.6,0.2-0.9-0.1
			c-10.7-9.3-21.3-19.6-32.1-31.2c-0.3-0.4-0.3-0.6-0.1-0.8c4.8-3.7,9.6-7.1,14.3-10c0.3-0.2,0.6-0.1,0.9,0.3
			c0.1,0.1,0.3,0.3,0.4,0.4C109.9,24,110,24.2,110,24.3z"/>
	</g>
</g>
</svg>
