<?xml version="1.0" encoding="UTF-8"?><svg id="Layer_2" xmlns="http://www.w3.org/2000/svg" viewBox="0 0 655.66 413.03"><defs><style>.cls-1{stroke-width:3px;}.cls-1,.cls-2,.cls-3,.cls-4{stroke:#000;stroke-miterlimit:10;}.cls-1,.cls-3{fill:none;}.cls-2,.cls-3,.cls-4{stroke-width:2px;}.cls-4{fill:#fff;}</style></defs><g id="head"><path class="cls-4" d="M653.84,412.03c-.95-1.52-1.89-3.01-2.79-4.47-35.92-58.54-52.43-112.63-59.92-137.87-13.7-46-9.48-51.26-24.99-95.88-14.73-42.38-25.52-72.52-51.93-102.91-9.76-11.25-36.35-41.07-80.93-57.97-6.67-2.52-79.51-28.86-152.85,6-12.18,5.79-21.51,11.93-27.58,16.26-14.44,.16-35.52,1.9-59.32,9.73-57.73,18.98-90.42,60.26-109.56,85.11C35.35,193.13,22.85,259.43,11.68,318.64c-7.25,38.45-9.74,70.91-10.64,93.39H653.84Z"/><path class="cls-3" d="M87.16,286.6c-8.26,35.5-14.96,72.83-19.55,111.93-.49,4.18-.95,8.35-1.39,12.5"/><path class="cls-3" d="M585.23,411.03c-7.05-22.54-12.54-41.65-16.62-56.43-30.16-109.24-33.08-161.27-75.72-223.19-15.61-22.67-31.26-39-41.34-48.71"/><path class="cls-4" d="M134.06,411.03H492.17c1.99-10.89,3.45-22.25,5.05-35.07,3.02-24.14,6.87-55.22,3-95.91-2.08-21.82-4.13-43.36-13.99-69.93-5.75-15.5-17.08-46.04-42.96-70.93-48.52-46.66-116.59-43.01-136.87-41.96-18.31,.95-72.38,4.54-120.88,45.96-11.9,10.16-44.63,40.68-58.94,90.91-7.49,26.28-5.66,50.49-2,98.9,2.41,31.89,4.32,55.69,9.47,78.03Z"/><path class="cls-4" d="M328.39,1.71c47.09-5.63,80.38,24.01,88.58,31.32,31.91,28.42,39.1,64.64,41,75,11.39,62.06-20.94,134.53-80.28,162.19-26.76,12.47-52.45,12.79-68.29,11.49,3.65-6.56,17.2-32.82,8.99-66.22-5.21-21.2-20.6-36.41-38.68-55.48-22.95-24.2-30.47-23.53-37.24-38.18-12.92-27.95,1.56-58.27,4-63.38,9.73-20.39,39.09-51.63,81.92-56.76Z"/><path class="cls-3" d="M314.38,282.04c7.21-8.81,29.76-38.68,27.99-80.27-1.56-36.67-21.45-62.51-30.97-74.93-8.97-11.7-18.06-20.12-24.74-25.65"/><path class="cls-3" d="M336.92,281.32c10.81-8.14,26.98-22.31,39.75-43.8,28.92-48.66,18.36-97.65,13.32-121-4.48-20.76-12.54-55.86-43.96-82.73-17.07-14.6-34.89-21.45-46.62-24.84"/><path class="cls-4" d="M263.54,31.82c4.76,2.53,9.66,7.56,15.08,25.04,4.75,15.31,10.34,41.55,5.5,77.09-.87,4.64-2.26,11.32-4.41,19.22-13.54,49.75-39.45,83-53.54,100.72-22.2,27.91-44.56,44.9-60.37,59.36-7.47,6.83-20.98,12.25-38.48,28.35-2.88-8-9.78-6.91-18.05-8.33-11.91-2.04-20.15,6.24-20.83,6.94-.84-4.67-1.58-9.53-2.17-14.57,0,0-.9-7.67-1.31-15.64-3.87-75.33,29.01-145.96,29.01-145.96,6.26-13.45,35.91-74.69,95.86-115.87,32.61-22.4,46.76-20.03,53.71-16.34Z"/><path class="cls-3" d="M84.96,309.99c3.22-2.03,6.88-4.45,10.87-7.29,0,0,12.61-8.99,25.1-20.68,6.91-6.46,37.59-36.72,62.05-73.99C228.77,138.25,252.3,44.59,255.98,29.59"/><path class="cls-4" d="M89.77,411.03h44.33c-.98-4.32-1.9-8.8-2.73-13.43-3.84-21.48-4.8-40.66-4.54-56.42-2.02-1.94-8.53-7.67-18.22-8.17-13.87-.72-22.78,9.84-24.21,11.61-9.78,12.11-7.77,27.58-6.76,35.34,1.64,12.64,6.64,23.05,12.13,31.07Z"/><path class="cls-4" d="M532.36,411.03c7.21-8.53,15.06-21.24,17.21-37.74,1.01-7.76,3.02-23.23-6.76-35.34-1.42-1.76-10.34-12.33-24.21-11.61-9.46,.49-15.87,5.97-17.95,7.92-.54,13.06-1.61,27.01-3.42,41.71-1.52,12.31-3.42,23.99-5.57,35.07h40.7Z"/><g id="eye"><path d="M360.2,347.01c6.4-11.59,19.76-21.09,32.66-23.97,22.97-5.64,48.73,7.87,57.39,29.77l.39,.94-.72,.59c-18.28,15.09-43.48,21.22-66.1,13.25,22.59,7.02,47.03,.25,64.44-15.21l-.33,1.53c-10.18-19.19-32.59-32.31-54.35-27.64-13.21,2.79-23.59,11.88-33.37,20.75h0Z"/><g><path d="M426.29,330.29c3.7-4.5,7.41-8.99,11.11-13.49"/><polygon points="424.75 329.02 437.4 316.8 427.84 331.56 424.75 329.02 424.75 329.02"/></g><g><path d="M446.51,348.54c4.76-2.91,9.52-5.82,14.29-8.73"/><polygon points="445.47 346.84 460.8 339.81 447.56 350.25 445.47 346.84 445.47 346.84"/></g><g><path d="M401.97,324.48c.03-5.12,.06-10.25,.09-15.37"/><polygon points="399.97 324.47 402.06 309.11 403.97 324.49 399.97 324.47 399.97 324.47"/></g><ellipse class="cls-2" cx="403.91" cy="341.18" rx="19.89" ry="18.07"/><path class="cls-1" d="M475.08,323.15c-4.64-6.42-21-27.34-50.79-34.92-40.55-10.31-72.58,12.61-76.98,15.87"/></g><g id="eye-2"><path d="M254.08,349.05c-9.78-8.87-20.16-17.96-33.37-20.74-21.76-4.67-44.17,8.46-54.35,27.64l-.33-1.53c17.36,15.45,41.91,22.24,64.44,15.21-22.62,7.97-47.82,1.84-66.1-13.25l-.72-.59,.39-.94c8.66-21.9,34.42-35.41,57.39-29.77,12.9,2.88,26.24,12.38,32.66,23.97h0Z"/><g><path d="M187.99,332.33c-3.7-4.5-7.41-8.99-11.11-13.49"/><polygon points="186.44 333.6 176.88 318.84 189.53 331.06 186.44 333.6 186.44 333.6"/></g><g><path d="M167.77,350.58c-4.76-2.91-9.52-5.82-14.29-8.73"/><polygon points="166.73 352.29 153.48 341.85 168.81 348.88 166.73 352.29 166.73 352.29"/></g><g><path d="M212.31,326.52c-.03-5.12-.06-10.25-.09-15.37"/><polygon points="210.31 326.54 212.22 311.15 214.31 326.51 210.31 326.54 210.31 326.54"/></g><ellipse class="cls-2" cx="210.37" cy="343.22" rx="19.89" ry="18.07"/><path class="cls-1" d="M139.2,325.19c4.64-6.42,21-27.34,50.79-34.92,40.55-10.31,72.58,12.61,76.98,15.87"/></g></g></svg>