<svg xmlns="http://www.w3.org/2000/svg" xmlns:xlink="http://www.w3.org/1999/xlink" width="59" height="42" viewBox="0 0 59 42">
  <defs>
    <clipPath id="clip-path">
      <rect width="59" height="42" fill="none"/>
    </clipPath>
  </defs>
  <g id="Repeat_Grid_7" data-name="Repeat Grid 7" clip-path="url(#clip-path)">
    <g transform="translate(-1276 -904)">
      <rect id="Rectangle_49" data-name="Rectangle 49" width="12" height="12" transform="translate(1276 904)" fill="#fff"/>
    </g>
    <g transform="translate(-1261 -904)">
      <rect id="Rectangle_49-2" data-name="Rectangle 49" width="12" height="12" transform="translate(1276 904)" fill="#fff"/>
    </g>
    <g transform="translate(-1246 -904)">
      <rect id="Rectangle_49-3" data-name="Rectangle 49" width="12" height="12" transform="translate(1276 904)" fill="#fff"/>
    </g>
    <g transform="translate(-1231 -904)">
      <rect id="Rectangle_49-4" data-name="Rectangle 49" width="12" height="12" transform="translate(1276 904)" fill="#fff"/>
    </g>
    <g transform="translate(-1276 -890)">
      <rect id="Rectangle_49-5" data-name="Rectangle 49" width="12" height="12" transform="translate(1276 904)" fill="#fff"/>
    </g>
    <g transform="translate(-1261 -890)">
      <rect id="Rectangle_49-6" data-name="Rectangle 49" width="12" height="12" transform="translate(1276 904)" fill="#fff"/>
    </g>
    <g transform="translate(-1246 -890)">
      <rect id="Rectangle_49-7" data-name="Rectangle 49" width="12" height="12" transform="translate(1276 904)" fill="#fff"/>
    </g>
    <g transform="translate(-1231 -890)">
      <rect id="Rectangle_49-8" data-name="Rectangle 49" width="12" height="12" transform="translate(1276 904)" fill="#fff"/>
    </g>
    <g transform="translate(-1276 -876)">
      <rect id="Rectangle_49-9" data-name="Rectangle 49" width="12" height="12" transform="translate(1276 904)" fill="#fff"/>
    </g>
    <g transform="translate(-1261 -876)">
      <rect id="Rectangle_49-10" data-name="Rectangle 49" width="12" height="12" transform="translate(1276 904)" fill="#fff"/>
    </g>
    <g transform="translate(-1246 -876)">
      <rect id="Rectangle_49-11" data-name="Rectangle 49" width="12" height="12" transform="translate(1276 904)" fill="#fff"/>
    </g>
    <g transform="translate(-1231 -876)">
      <rect id="Rectangle_49-12" data-name="Rectangle 49" width="12" height="12" transform="translate(1276 904)" fill="#fff"/>
    </g>
  </g>
</svg>
