<?xml version="1.0" encoding="UTF-8"?><svg id="Layer_2" xmlns="http://www.w3.org/2000/svg" viewBox="0 0 455 445.54"><defs><style>.cls-1{fill:none;}.cls-1,.cls-2,.cls-3{stroke:#000;stroke-miterlimit:10;}.cls-3{fill:#fff;}</style></defs><g id="Layer_27"><path id="thighs" class="cls-3" d="M84.79,386.23c-1.73-.61-9.07-3.2-12.65-10.84-.74-1.58-3.1-6.82-1.29-12.9,1.45-4.9,4.89-7.72,7.74-10.06,1.98-1.63,3.17-1.88,6.02-3.31,0,0,1.99-1.1,3.79-2.1,6.53-3.65,15.08-9.3,15.08-9.3,5.09-3.37,15.89-10.51,29.05-17.02,4.04-2,11.31-5.42,16.52-7.74,.71-.32,3.85-1.71,8.36-3.73,1.46-.65,3.31-1.48,4.71-2.1,3.32-1.84,6.17-3.5,8.48-4.88,7.29-4.35,5.99-3.99,8.52-5.29,.63-.32,1.99-1,3.48-2.32,1.14-1.01,1.92-2.01,2.39-2.69,12.27,6.22,23.26,8.76,30.64,9.91,3.17,.49,23.99,3.55,42.84-2.58,3.72-1.21,10.85-3.91,18.84-8.26,2.59-1.41,4.7-2.68,6.19-3.61,.93,.63,2.38,1.62,4.13,2.84,4.21,2.94,6.37,4.58,10.06,7.23,0,0,3.2,2.3,7.74,5.42,8.79,6.05,18.96,8.93,32.52,14.97,1.77,.79,10.99,5.6,29.42,15.23,18.66,9.74,16.32,8.68,16.52,8.77,8.72,3.94,12.91,4.8,17.03,9.55,1.42,1.64,4.75,5.59,5.16,11.35,.53,7.47-4.13,12.85-6.19,15.23-1.13,1.31-5.39,5.95-12.13,8-9.31,2.83-17.76-1.02-25.81-4.39,0,0-30-12.56-58.84-19.61-11.37-2.78-17.06-4.17-24.26-4.9-5.84-.59-11.34-.72-19.61-2.58-4.96-1.12-8.96-2.41-11.61-3.35-2.31-.25-5-.39-8-.26-2.59,.11-4.93,.41-6.97,.77-1.65,1.08-4.22,2.68-7.48,4.39-8.46,4.41-15.61,6.37-18.84,7.23-37.44,9.94-61.92,8.55-85.42,18.84,0,0-13.34,5.84-28.9,5.42-1.38-.04-4.05-.17-7.23-1.29Z"/><path class="cls-1" d="M157.41,309.21c.82,1.49,2.11,3.57,4.02,5.79,2.44,2.83,4.22,4.88,6.71,5.42,2.26,.49,4.5-.4,9.29-3.87,1.94-1.41,6.64-4.6,13.16-11.61,2.09-2.25,3.72-4.17,4.76-5.44"/><path class="cls-1" d="M310.85,306.15c-.38,.44-4.03,4.74-7.22,7.56-.94,.83-2.28,1.87-4.13,2.06-1.86,.19-3.39-.62-10.06-6.71-5.24-4.78-5.98-5.3-10.32-10.32-1.01-1.17-1.82-2.17-2.38-2.86"/><path class="cls-3" d="M159.53,308.26c.69,1.26,1.79,3.06,3.42,5,2.22,2.63,3.6,4.26,5.71,4.55,.49,.07,1.94,.19,5.81-2.23,2.28-1.42,3.33-2.43,6.48-5.13,5.4-4.63,6.68-5.42,9-8.13,1.19-1.39,2.07-2.6,2.61-3.39"/><path class="cls-3" d="M308.92,305.07c-1.19,1.47-2.24,2.67-3.03,3.54-3.64,4.02-4.86,4.61-6,4.55-.49-.03-.89-.16-1.84-.68-3.56-1.91-5.97-4.22-6.35-4.59-3.86-3.74-5.79-5.61-5.85-5.67-1.96-2.03-4.81-4.92-8.42-8.42"/><path id="leg-right" class="cls-3" d="M79.24,383.27c5.45,3.43,13.63,7.93,24.22,11.39,8.91,2.91,19.7,5.13,39.37,5.45,9.07,.15,19.79-.11,46.63-2.99,47.65-5.11,71.47-7.66,75.69-8.25,2.68-.38,9.86-1.41,19.37-.74,1.99,.14,6.08,.49,13.13,1.9,13.42,2.69,22.4,6.22,39.83,13.18,9.21,3.68,12.15,5.16,14.77,8.49,3.07,3.89,2.45,6.16,7.14,12.82,5.15,7.31,8.6,8.42,9.61,8.7,.86,.24,4.64,1.3,8.5-.52,1.22-.57,2.11-1.28,2.69-1.8l7.31,.62c1.55-1.33,3.69-3.52,5.34-6.71,3.59-6.95,2.32-13.84,1.36-19.04-.93-5.05-1.8-9.74-5.67-13.73-2.7-2.79-5.8-4.13-8.25-5.2-3.44-1.5-7.18-2.4-11.99-3.56-2-.48-3.42-.78-5.59-1.56-1.74-.63-4.02-1.47-6.24-3.05-2.47-1.77-3.74-3.65-4.58-4.76-2.59-3.38-5.71-5.17-11.95-8.75-17.05-9.78-48.8-12.1-48.8-12.1-18.83-1.38-19.9,0-41.8-.82-9.68-.36-5.86-.49-50.14-4.2-35.72-2.99-53.19-4.16-59.33-5.43-2.92-.61-5.94-.6-8.9-1-1.92-.26-3.56-.51-5.42,.24-1.21,.49-1.64,1.05-3.64,2.67-.54,.44-2.65,2.14-4.86,3.56-3.61,2.32-5.1,2.36-6.84,4.52-.69,.85-1.11,1.66-1.35,2.2"/><path class="cls-1" d="M380.19,430.89c1.64-2.13,3.93-5.6,5.53-10.36,1.09-3.24,2.53-7.54,1.67-12.85-.79-4.88-3.11-8.06-6.63-12.87-1.81-2.48-4.16-5.64-8.3-8.57-2.53-1.78-4.89-2.9-6.62-3.59"/><path class="cls-1" d="M355.51,417.75c.43,.2,3.48,1.57,6.12,.08,3.31-1.87,3.01-6.59,2.96-7.27-.17-2.12-1.19-5.21-7.67-10.18-5.45-4.17-10.36-6.3-18.77-9.68-4.8-1.93-10.56-4.18-17.11-6.64"/><path id="leg-left" class="cls-3" d="M358.53,344.05c-.22-.99-.71-2.53-1.97-3.82-.96-.98-1.99-1.43-5.46-2.59-3.14-1.05-4.72-1.58-5.79-1.84-6.48-1.6-12.93-1.35-13.87-1.31-11.45,.51-28.8,5.07-35.38,6.76-25.75,6.62-26.64,5.19-37.67,9.14-2.41,.86-10.79,3.94-22.48,7.46-2.28,.69-4.14,1.23-5.33,1.57-.74-.67-1.89-1.52-3.45-1.88-2.85-.67-4.83,.79-7.69,1.86-5.87,2.2-11.78,1.38-15.38,.88-1.92-.27-3.96-.72-7.68-.99-1.97-.14-3.6-.18-4.65-.18-4.09-.56-8.19-1.12-12.28-1.68-4.51,3.32-7.75,6.64-9.94,9.17-3.14,3.63-6.57,7.69-5.98,11.1,.08,.48,.41,1.91,.41,3.93,0,1.76-.26,3.1-.32,3.34-.63,2.76-7.59,5.19-16.87,5.66-6.5,5.55-11.08,10.95-14.12,14.99-7.04,9.36-8.83,15.44-9.53,18.54-1.83,8.03,.16,11.25,.91,12.27,.61,.83,1.95,2.34,4.08,3.5,2.04,1.11,3.93,1.42,5.04,1.51,.92,.93,3.22,2.97,6.67,3.48,3.87,.57,6.89-1.12,8.49-2.05,4.86-2.82,5.98-6.41,9.95-12.02,2.31-3.26,5.48-6.38,11.82-12.62,6.75-6.64,10.12-9.96,15.52-13.31,3.05-1.9,7.12-4.38,13.01-6.03,5.34-1.49,9.15-2.56,14.19-2.03,2.4,.25,5.89,1.34,9.37-.41,.96-.48,1.66-1.04,2.11-1.45,3.9,.1,9.57,.23,16.4,.35,27.51,.48,41.27,.72,54.93,.27,24.7-.81,26.47-4.2,66.06-7.75,11.01-.99,20.08-1.58,26.12-1.92"/><path class="cls-3" d="M230.58,359.42c-.93,.7-2.19,1.77-3.42,3.31-1.75,2.18-2.57,4.18-3.31,6.04-.46,1.16-1.51,3.98-2.09,7.87-.36,2.42-.88,6.08-.04,10.71,.56,3.11,1.56,5.69,2.54,7.67"/><path class="cls-3" d="M133.13,441.44c-1.07-2-2.45-5.22-2.75-9.33-.39-5.43,1.35-9.35,3.72-14.68,3.68-8.29,8.31-13.31,11.13-16.31,4.89-5.21,7.48-6.17,8.39-6.46,2.41-.79,3.62-.46,6.38-1.73,3.13-1.43,5.18-3.5,6.14-4.6,.56-.64,1.29-1.57,4.35-7.62,1.85-3.67,1.89-3.93,2.57-5.2,1.04-1.96,3.96-7.32,9.65-11.53,1.95-1.45,5.27-3.52,10.02-4.84"/><path class="cls-1" d="M222.15,396.47c-1.83-3.07-4.16-8.14-4.24-14.56-.08-6.07,1.9-10.66,3.58-14.57,1.86-4.33,4.03-7.62,5.64-9.8"/><path class="cls-1" d="M158.84,430.04c-1.16-1.34-3.87-4.86-3.76-9.59,.05-2.14,.67-4.38,2.81-7.77,3.11-4.93,6.75-8.01,15.36-14.36,7.67-5.66,11.51-8.49,13.87-9.57,7.09-3.28,13.45-4.08,17.54-4.56,5.41-.64,10.01-.53,13.37-.27"/><path class="cls-1" d="M212.49,391.66c-5.39-3.97-8.25-9.31-7.01-13.62,.83-2.89,3.69-5.91,5.7-5.42,2.13,.52,2.69,4.85,2.96,7.02,.32,2.5,.42,6.75-1.66,12.03Z"/><path class="cls-1" d="M211.51,391.57c-3.07,4.53-3.82,9.25-1.66,11.93,1.45,1.8,4.49,3.06,5.91,2.07,1.51-1.05,.74-4.31,.35-5.95-.44-1.89-1.54-4.95-4.61-8.06Z"/><path id="band" class="cls-3" d="M184.66,271.13c.93,3.67,1.34,6.77,1.55,9.03,.24,2.66,.41,4.63,0,7.23-.4,2.57-1.19,4.6-1.81,5.94,1.47,1.05,3.57,2.44,6.19,3.87,1.89,1.03,6.06,3.18,13.42,5.42,11.22,3.41,20.48,4.18,23.48,4.39,4.01,.28,9.64,.63,17.03-.26,2.28-.27,9.12-1.2,17.55-4.13,3.28-1.14,8.26-2.9,14.19-6.45,3.84-2.3,6.86-4.62,9.03-6.45-.02-1.18-.03-2.97,0-5.16,.05-3.45,.17-4.71,.03-6.83-.09-1.27-.29-3.09-.8-5.29-13.98,4.85-25.83,6.43-34.06,6.97-15.71,1.02-28.53-1.13-43.35-3.61-9.36-1.57-17.07-3.31-22.45-4.65Z"/><path class="cls-1" d="M233.89,351.87c.69-6.47,.8-11.76,.77-15.45-.1-11.71-1.68-13.33-.77-19.1,.2-1.27,.72-4.02-.26-7.23-.59-1.92-1.22-2.38-1.81-4.13-1.11-3.31-.36-6.12,0-8.26,.51-2.99,.72-7.41-.77-13.42,4.22-.26,8.43-.52,12.65-.77-.08,2.5-.17,5.84-.26,9.81-.09,3.91-.12,6.08,.17,9.03,.18,1.82,.42,3.33,.6,4.39-.19,1.23-.43,3.12-.52,5.42-.18,4.95,.51,7.77,1.03,11.87,.37,2.96,.42,7.14,.52,15.48,.04,3.49,.04,7.54-.06,12.05"/><circle class="cls-1" cx="237.77" cy="295.16" r="3.87"/><path class="cls-3" d="M264.66,280.16c.75,3,1.11,5.48,1.29,7.23,.74,7.04,.76,8.74,.76,8.74,.02,1.37-.02,2.83,.84,4.43,.67,1.26,1.6,2.08,2.28,2.57l5.16-3.35c-.71-1.02-1.7-2.69-2.32-4.9-.62-2.22-.49-3.66-.52-8.26-.04-7.27-.39-8.1-1.03-8.52-.52-.34-2.11-.98-6.45,2.06Z"/><path class="cls-3" d="M190.85,299.78c2.67,2.2,4.39,3.61,4.39,3.61h0s2.31-1.99,3.02-2.72c1.06-1.1,1.56-2.52,1.88-9.92,.39-8.87-.28-7.7,.26-10.84,.44-2.56,1.03-4.11,.13-5.31-1.09-1.44-3.61-1.39-5.59-1.12-1.25,3.92-1.5,7.11-1.5,9.27,0,4.49,1.04,6.72,.26,10.58-.59,2.91-1.88,5.1-2.84,6.45Z"/><path class="cls-3" d="M277.43,152.03c2.26-4.74,7.08-6.82,9.29-7.74,9.28-3.85,18.01,.28,19.64,1.08,6.27,8.58,11.17,15.73,14.43,20.6,0,0,20.73,31.38,29.42,40.26,2.67,2.73,5.44,5.56,9.68,8.9,7.42,5.86,11.21,5.51,13.55,9.68,1.51,2.7,1.07,6.89-.39,15.48-2.28,13.4-3.49,20.54-8.42,22.31-1.3,.47-4.18,1.03-9-1.79-10.26-8.02-18.4-15.46-24.39-21.29-7.5-7.31-13.12-13.92-24.39-27.1-9.76-11.42-14.24-17.33-18.58-25.16-2.59-4.67-3.89-7.79-5.81-12.39-4.91-11.76-7.43-17.8-5.03-22.84Z"/><path class="cls-3" d="M403.82,147.2c-.3-1.37,2.46-2.57,3.29-6.58,.13-.61,.15-1.57,.19-3.48,.1-4.2-.22-5.15,0-7.45,.17-1.83,.55-3.08,1.16-5.13,1.45-4.83,3.4-8.26,4.65-10.26,1.55-2.47,2.48-4.1,4.26-6,1.72-1.84,3.41-3.13,4.65-3.97,.78,2.12,.71,3.7,.51,4.74-.1,.54-.2,.98-1.1,3.49-1.34,3.77-1.75,4.68-1.35,5.03,.23,.21,.65,.18,3-.77,2.07-.84,3.1-1.26,4.55-2.03,1-.53,2.73-1.46,4.84-3,1.73-1.26,3.43-2.48,5.13-4.55,1.12-1.35,.91-1.46,2.61-3.77,.49-.67,1.94-2.6,4.06-4.84,3.72-3.91,4.82-3.78,5.23-3.68,.77,.2,1.2,.91,1.35,1.16,1.64,2.7-1.3,11.14-9.29,20.71-8.06,9.65-12.35,9.8-18.45,18.32-3.92,5.48-5.98,10.76-7.1,14.32-9.72,.05-11.95-1.15-12.19-2.26Z"/><path class="cls-3" d="M420.47,150.29c-.06-2.08,.18-5.12,1.94-7.94,.55-.88,.34-.75,5.42-5.13,1.58-1.36,3.77-3.51,8.15-7.82,.77-.76,4.2-4.14,6.56-6.99,1.4-1.7,2.35-3.13,2.67-3.6,.33-.5,.67-1.04,1.01-1.62,1.97-3.36,2.96-6.21,3.68-8.32q.03-.09,2.1-7.64c.57-2.08,.96-4.21,1.6-6.27,.68-2.19,1.18-3.37,.75-3.7-.57-.44-2.37,.9-3.29,1.74-2.51,2.29-3.13,4.96-4.06,7.55,0,0-1.76,4.87-5.23,9.68-2.35,3.26-4.84,5.04-9.1,8.32-2.76,2.13-6.66,4.95-11.61,7.94-1.8,1.24-4.03,3.14-5.94,5.94-5.24,7.67-4.03,16.2-3.61,18.58,2.99-.24,5.98-.47,8.97-.71Z"/><path class="cls-3" d="M351.37,234.1c1.66-7.43,5.57-12.58,6.77-14.13,2.31-2.97,3.51-3.81,6.97-7.16,3.23-3.13,5.64-6.6,10.45-13.55,6.83-9.85,10.59-15.29,14.32-23.42,.72-1.56,2.49-6.22,6-15.48,2.6-6.86,4.73-12.54,6.19-16.45,2.38,1.47,4.62,2.36,6.58,2.9,0,0,3.59,1.01,15.1,.77,0,.04-3.07,12.03-4.06,15.87-2.32,8.92-5.21,20.08-9.68,32.52-2.16,6.02-5.51,15.25-11.42,26.71-7.18,13.94-10.78,20.91-16.45,25.35-3.58,2.81-8.7,5.37-10.65,10.26-.33,.84-1.12,3.14-3.29,4.45-1.75,1.06-3.59,1-4.26,.97-3.22-.15-5.47-2.11-6.39-2.9-5.14-4.46-8.64-15.76-6.19-26.71Z"/><path class="cls-3" d="M396.28,155.32c1.46,.89,3.73,2.11,6.71,3.04,3.41,1.07,6.18,1.26,10.58,1.55,2.07,.13,4.92,.25,8.35,.16l-1.17,3.88c-1.67,.11-4.06,.2-6.93,.09-3.56-.14-7.14-.3-11.45-1.55-1.86-.54-4.48-1.46-7.45-3.1,.45-1.36,.91-2.71,1.36-4.07Z"/><path class="cls-3" d="M161.1,149.3c-1.68,3.46-3.99,8.07-6.89,13.4-7.11,13.05-13.46,22.55-16.12,26.44-7.3,10.68-10.95,16.02-15.64,20.69-12.96,12.9-16.11,15.53-16.13,15.55h0c-1.64,1.64-3.4,3.4-3.76,3.79-1.41,1.53-3.25,5.71-3.77,10.54-.35,3.26-1.04,9.63,2.91,15.29,5.54,7.92,15.7,8.07,16.81,8.06,1.59-.71,3.9-1.82,6.53-3.43,7.17-4.38,11.57-9.29,14.25-12.33,11.05-12.54,16.57-18.81,23.57-27.92,0,0,6.47-8.42,18.03-27.24,1.22-1.99,3.73-6.28,4.73-12.4,.08-.48,.13-.9,.17-1.3,.21-2.08,1.46-16.81-9.38-24.76-5.77-4.23-12.19-4.51-15.31-4.39Z"/><path class="cls-3" d="M54.63,147.06c-.04-1.22-.84-1.5-3.84-7.41-1.16-2.28-2.03-4.16-2.03-4.16-2.05-4.42-1.78-4.59-2.68-5.77-1.71-2.27-3.99-3.37-5.54-4.13-1.17-.57-1.14-.41-5.04-1.81-2.97-1.07-4.45-1.6-5.26-2.08-2.49-1.47-4-3.4-5.03-4.84-2.51-3.5-2.87-5.78-4.26-5.81-1.3-.02-2.24,1.95-2.32,2.13-.21,.46-.84,2.03,.58,5.81,.65,1.71,1.87,4.28,4.26,6.97-2.8-1.22-4.75-2.63-6-3.68-.89-.75-1.89-1.78-3.84-3.83-2.14-2.24-3.78-4.04-4.17-4.46-4.6-5.04-5.89-6.74-6.76-6.38-.28,.12-.68,.52-.71,2.09-.26,13.32,10.16,23.37,10.16,23.37,8.15,8.15,15.95,2.81,23.74,10.06,4.33,4.03,6.2,9.1,7.1,12.65,9.72-3.82,11.71-6.73,11.65-8.72Z"/><path class="cls-3" d="M40.31,155.96c-.63-4.43-2.6-6.6-3.68-7.55-1.83-1.61-3.94-2.04-7.35-3.1-6.44-2-7.23-1.62-10.26-3.1-3.24-1.58-5.33-3.47-6.58-4.65-3.17-2.97-4.99-5.97-5.87-7.6-.61-1.13-1.07-2.26-1.99-4.52-1.24-3.05-2.8-7.27-3.71-12.48-.56-3.19-.41-4.13,.07-4.4,.88-.47,2.7,1.34,3.02,1.66,2.69,2.68,2.44,5.14,4.55,10.55,1.11,2.85,2,5.06,4.07,7.31,.84,.91,2.29,2.45,4.54,3.43,3.49,1.52,6.09,.45,9.45,.44,0,0,6.23,.05,11.93,4.3,7.72,5.76,7.62,17.04,7.58,18.87l-5.77,.83Z"/><path class="cls-3" d="M36.44,156.54c6.25,14.9,11.74,27.54,16.06,37.35,7.2,16.34,10.04,22.13,13.94,29.03,0,0,10.52,18.6,24,30.13,1.64,1.4,3.95,3.37,7.48,5.16,4.27,2.16,4.96,1.33,9.55,3.61,4.51,2.24,5.84,4.03,8.35,3.51,1.86-.38,3.16-1.79,4.04-2.73,1.99-2.15,2.64-4.49,2.9-5.42,3.16-11.33-3.68-23.81-3.68-23.81-2.55-4.65-3.69-4.66-13.16-15.16-8.24-9.14-13.92-16.39-15.23-18.06-7.47-9.59-12.66-17.64-15.74-22.45-3.57-5.57-6.11-9.89-8.52-14-4.65-7.92-8.35-14.7-11.03-19.74-2.24,2.71-4.41,4.48-6,5.61-1.89,1.35-4.19,2.53-8.71,4.84-1.77,.9-3.24,1.63-4.26,2.13Z"/><path class="cls-3" d="M41.15,172.28c3.67-.69,6.54-1.73,8.52-2.58,5.06-2.18,8.55-4.93,11.1-6.97,1.9-1.52,3.39-2.9,4.39-3.87,.77,1.2,1.55,2.41,2.32,3.61-1.18,1.41-3.05,3.42-5.68,5.42-3.72,2.83-7.11,4.25-10.58,5.68-2.06,.85-4.95,1.91-8.52,2.84-.52-1.38-1.03-2.75-1.55-4.13Z"/><path class="cls-3" d="M176.2,105.7c-3.02,6.01-6.76,12.08-6.76,12.08-.4,.65-.81,1.3-1.22,1.95-.63,.98-1.25,1.95-1.88,2.89,5.09,2.08,9.59,3.49,13.16,4.45,1.1,.3,5.55,1.48,11.81,2.52,5.43,.9,8.44,1.06,13.16,1.55,9.48,.98,13.04,1.95,18.77,2.71,19.33,2.57,35.35-.93,40.65-2.13,6.78-1.54,13.02-3.01,19.35-7.16,2.57-1.68,6.76-4.86,10.65-8.13,2.14-1.81,3.88-3.38,5.1-4.52-1.84-1.46-4.41-3.78-6.84-7.1-6-8.21-6.03-16.27-7.74-25.35-1.94-10.26-4.57-24.21-9.48-38.13-4.47-12.67-6.71-19.01-11.23-23.03-13.19-11.77-37.28-8.46-52.84,.19-1.62,.9-22.41,12.87-28.45,36-4.47,17.14-.93,40.74-6.2,51.21Z"/><path class="cls-3" d="M312.27,99.58c-8.05-7.53-13.31-14.9-16.65-20.32-6.96-11.34-10.16-21.82-11.61-26.71-2.65-8.92-1.83-9.93-4.84-18.58-2.85-8.21-4.95-14.05-10.06-19.94-1.89-2.18-7.04-7.96-15.68-11.23-1.29-.49-15.4-5.59-29.61,1.16-2.36,1.12-4.17,2.31-5.34,3.14-2.82,.03-6.9,.37-11.5,1.89-10.99,3.62-17.24,11.4-21.29,16.45-2.04,2.54-7.08,9.24-10.45,19.16-1.56,4.61-2.2,8.88-3.48,17.42-2.49,16.62-1.17,18.13-3.87,25.16-.51,1.33-3.07,7.83-8.71,14.9-3.06,3.84-6.11,6.7-8.52,8.71,.83,1.37,2.12,3.15,4.06,4.84,3.3,2.87,6.76,3.98,8.71,4.45,2.25-1.19,5.47-3.23,8.52-6.58,4.88-5.37,6.51-11.03,8.13-16.65,1.16-4.01,2.42-9.9,2.52-17.23-.1-6.2,.53-17.16,6-29.23,2.74-6.04,10.57-20.9,27.68-30.39,4.95-2.74,25.1-14.02,38.32-5.81,4.28,2.66,7.41,7.09,9.1,9.48,4.56,6.45,6.47,12.79,7.35,16.84,3,11.39,5.62,21.19,8.13,30.97,0,0,4.39,16.74,11.42,25.89,.36,.47,.68,.86,.97,1.2,4.19,4.97,8.62,8.24,11.81,10.26,2.97-3.1,5.94-6.19,8.9-9.29Z"/><path class="cls-1" d="M181.27,127.52c1.88-2.71,4.28-6.57,6.49-11.49,3.82-8.54,5.15-16.02,5.68-20.39,.44-3.64,.75-8.59,.26-14.45"/><path class="cls-1" d="M195.98,130.26c1.67-1.48,3.99-3.85,5.97-7.26,3.16-5.44,3.73-10.5,4.13-14.45,.31-3.08,.45-7.56-.52-12.9"/><path class="cls-1" d="M261.69,132.19c-2.2-2.41-4.87-5.88-7.1-10.48-3.47-7.17-4.24-13.76-4.39-17.81"/><path class="cls-1" d="M281.81,125.31c-2.41-1.52-5.8-3.98-9.15-7.72-5.08-5.69-7.3-11.27-9.03-15.74-1.57-4.06-3.45-10.13-4.13-17.81"/><path class="cls-1" d="M287.94,121.65c-2.34-1.09-5.59-2.9-8.83-5.88-5.78-5.31-8.13-11.19-10.58-17.55-1.88-4.88-4.1-12.1-4.9-21.26"/><path class="cls-1" d="M161.05,99.61c2.72,2.52,6.71,5.82,12,8.94,3.81,2.24,8.78,4.67,19.1,7.74,9.54,2.84,18.21,5.42,30.45,6.45,9.85,.83,20.52,1.74,33.55-2.06,8.68-2.53,15.51-6.31,19.55-8.57,6.41-3.59,11.45-7.25,15.08-10.15"/><path class="cls-1" d="M292.68,100.97c1.66-1.12,3.59-2.61,5.56-4.55,2.02-1.98,3.56-3.93,4.72-5.61"/><path class="cls-3" d="M216.64,108.66c.45,5.91,.68,8.86,0,11.81-1.03,4.47-3.53,7.89-4.68,9.48-2.4,3.32-3.32,3.23-3.56,4.65-.77,4.6,7.97,11.03,16.29,13.35,3.63,1.01,11.93,3.28,19.66-1.94,7.43-5.01,9.07-13.4,9.36-15.1-.92-.4-2.3-1.15-3.56-2.52-1.73-1.88-2.31-3.92-2.62-5.03-1.09-3.85-1.37-11.37-.19-20.9-23.14-4.07-29.95-2.35-31.08,.58-.3,.78,.03,1.08,.37,5.61Z"/><path class="cls-3" d="M161.43,149.07c1.83-.83,4.68-2.15,8.19-3.81,4.33-2.05,4.97-2.4,7.29-3.42,3.24-1.42,5.8-2.39,8.95-3.58,3.13-1.18,4.7-1.78,6.05-2.17,4.84-1.41,7.25-2.12,9.78-1.48,2.96,.75,2.22,2.27,8.01,6.31,3.98,2.78,7.3,4.07,8.74,4.67,1.29,.54,2.79,1.02,4.67,1.41,4.56,.95,10.16,2.11,15.48-.52,7.59-3.75,7.62-11.75,14.97-13.42,1.59-.36,2.26-.14,8,.77,3.62,.58,2.29,.32,2.3,.26,.02-.13,7.45,.69,16.28,2.32,2.36,.44,5.82,1.12,10.06,2.16,7.38,1.82,9.43,2.85,10.26,3.29,2.02,1.07,7.85,4.67,5.89,3.5-3.47,13.04-4.79,17.92-5.15,19.2-.04,.15-.23,.8-.47,1.69-.26,.99-.5,1.97-.73,2.93-4.09,17.79-4.39,32-4.39,32-.16,8.11,.86,14.67,2.92,27.77,1.35,8.62,3.5,20.51,6.98,34.66-3.83,2.97-7.67,5.95-11.5,8.92-4.24,2.94-8.03,4.85-10.79,6.07-7.75,3.44-14.42,4.67-20.9,5.68-9.86,1.53-10.51,1.28-20.13,1.29-4.21,0-10.62-.16-13.13-.23-.66-.02-1.25-.4-1.54-.98l-.35-.71c-.28-.57-.84-.94-1.47-.98-3.95-.25-9.83-.97-9.83-.97-1.11,.04-3.88-.47-9.4-1.51-8.68-1.62-18.21-4.17-18.21-4.17-3.97-.99-10.56-2.64-16.77-5.42-2.52-1.13-5.94-2.87-9.81-5.55,3.17-6.88,5.1-12.84,6.3-17.2,2.98-10.86,3.58-19.75,4.64-37.08,.57-9.16,.85-13.74,.67-17.85-.69-16.03-4.71-27.53-6.19-31.48-1.95-5.2-4.04-9.39-5.68-12.39Z"/><path class="cls-3" d="M227.18,283.66c.57-10.72,1.12-23.5,1.48-37.95,.41-16.77,.81-34.64,0-57.68-.38-10.88-1.07-23.8-2.32-38.35"/><path class="cls-3" d="M240.92,285.58c-.1-6.86-.22-17.35-.26-30.19-.07-24.25,.26-27.37,0-43.1-.32-19.23-1.13-33.73-1.55-40.52-.61-9.96-1.31-18.4-1.88-24.71"/><circle class="cls-1" cx="232.73" cy="159.78" r="2.8"/><circle class="cls-1" cx="234.31" cy="183.11" r="2.8"/><circle class="cls-1" cx="234.31" cy="212.04" r="2.8"/><circle class="cls-1" cx="234.9" cy="242.99" r="2.8"/><circle class="cls-1" cx="234.9" cy="275" r="2.8"/><path class="cls-1" d="M173.92,143.22c4.76,20.91,6.01,38.13,6.25,50.11,.35,17.78-1.32,34.37-3.76,58.58-.84,8.37-1.65,15.25-2.21,19.83"/><path class="cls-1" d="M183.22,139.27c2.62,21.28,4.46,45.01,4.79,70.83,.3,23.59-.71,45.44-2.45,65.25"/><path class="cls-3" d="M195.93,148.69c.24,26.05,.46,45.2,.6,57.15,.25,20.83,.48,37.45-.39,60.77-.18,4.72-.36,8.62-.49,11.26"/><path class="cls-3" d="M203.76,155.8c1.55,26.02,2.54,53.05,2.83,81.01,.16,14.74,.11,29.21-.11,43.4"/><path class="cls-3" d="M214.2,162.35c.44,21.12,.63,42.73,.52,64.78-.09,18.46-.39,36.59-.86,54.39"/><path class="cls-3" d="M222.87,158.24c.21,21.4,.33,42.94,.37,64.63,.04,19.99,0,39.86-.1,59.61"/><path class="cls-3" d="M244.93,157.26c.83,16.08,1.34,29.71,1.67,40.06,.87,27.58,.97,49.5,1.03,65.03,.04,9.57,.02,17.56,0,23.24"/><path class="cls-3" d="M257.16,285.36c-.17-15.86-.24-28.93-.28-38.08-.09-21.52,.08-32.65,0-58.84-.04-13.94-.13-25.24-.2-32.27"/><path class="cls-3" d="M264.22,150.08c-.2,23.48-.12,47.47,.29,71.95,.35,20.78,.92,41.2,1.68,61.23"/><path class="cls-3" d="M273.28,138.32c-.59,27.15-.63,55.28,0,84.32,.43,19.97,1.16,39.49,2.14,58.53"/><path class="cls-3" d="M280.83,136.55c-.35,23.16,.1,42.08,.6,55.36,1.42,37.44,1.3,54.72,2.06,69.16,.37,7.07,.73,12.93,.99,16.98"/><path class="cls-1" d="M291.05,138.79c-1.29,18.97-1.5,34.36-1.47,44.68,.05,15.34,.66,24.38,1.81,56.77,.5,14.22,.86,25.75,1.07,32.99"/><path class="cls-1" d="M300.24,267.73c-1.13-16.62-2.25-33.24-3.38-49.86"/><path class="cls-1" d="M297.18,185.71c.26-10.9,.69-22,1.29-33.29,.2-3.75,.42-7.47,.65-11.18"/><path class="cls-1" d="M296.63,188.74c24.47,29.67,43.26,50.88,49.32,56.58,2.42,2.27,5.38,4.49,9.03,7.23,7.1,5.31,8.56,5.59,9.81,5.42,3.29-.46,4.13-3.94,9.29-10.06,3.85-4.57,6.7-6.58,8.77-8.52,11.77-11.02,20.99-41.12,32.26-75.32,1.29-3.92,3.17-9.59,5.48-16.45"/><path class="cls-1" d="M298,179.33c23.68,28.9,41.99,49.45,47.95,54.93,3.56,3.27,4.18,3.59,9.03,7.23,6.93,5.19,8.5,5.5,9.81,5.42,2.63-.16,4.48-1.96,10.06-8.8,5.79-7.1,6.81-7.99,9.45-12.08,5.71-8.82,18.13-37.94,31.33-78.5"/><path class="cls-1" d="M300.13,168.72c14.31,18.73,26.25,33.82,34.82,44.89,0,0,4.03,5.2,18.39,17.21,4.65,3.89,7.53,5.77,10.91,5.33,.98-.13,4.07-.72,11.64-10.44,2.1-2.7,4.71-6.05,6.97-10.06,5.02-8.91,15.68-34.16,28.24-68.45"/><path class="cls-1" d="M303.25,157.03c10.52,13.24,18.31,24.31,23.61,32.2,0,0,8.99,13.37,29.01,31.1,1.06,.94,3.5,3.04,6.61,2.89,3.03-.15,5.25-2.32,7.47-4.74,8.06-8.75,10.87-13.77,10.87-13.77,7.5-13.43,11.07-22.36,11.07-22.36,3.91-9.8,8.63-22.12,13.73-36.62"/><path class="cls-1" d="M173.92,191.57c-4.57,7.06-14.13,21.55-25.13,35.95-4.88,6.39-9.75,12.38-15.61,17.16-.91,.75-4.51,3.63-8.93,7.07-2.75,2.14-5.03,3.88-6.59,5.06,0,0-.59,.25-1.12,.38-4.43,1.15-8.64-1.03-12.13-3.1-16.24-9.63-23.74-19.35-23.74-19.35-13.25-17.19-15.72-29.38-31.23-62.45-3.7-7.88-6.85-14.16-8.74-17.88"/><path class="cls-1" d="M172.56,182.15c-3.52,5.59-16.44,25.86-30.48,42.27-2.57,3.01-7.65,7.6-17.81,16.77-3.88,3.5-6.45,5.73-10.42,6.44-4.48,.8-9.25-.6-15.33-4.72-13.79-9.31-20.61-23.19-21.6-25.21-8.98-18.27-19.9-40.2-32.13-66.06"/><path class="cls-1" d="M169.47,168.67c-5.69,9.93-12.68,21.8-20.94,35.11,0,0-16.05,25.87-31.74,33.81-5.31,2.69-9.03,1.29-9.03,1.29h0c-4.47-1.61-7.46-4.17-10.25-6.84-4.12-3.96-7.88-7.68-12.46-14.32-7.29-10.57-11.68-19.58-12.39-21.03-6.65-13.78-14.25-29.56-22.69-47.52"/><path class="cls-1" d="M165.84,158.24c-3.18,5.04-9.22,14.62-17.05,26.95-1.01,1.59-8.99,14.1-20.65,29.16-8.82,11.4-13.09,15.65-18.06,15.23-.91-.08-3.46-.46-10.58-7.48-8-7.9-12.39-14.84-12.39-14.84-6.26-9.92-18.83-31.52-34.29-60.52"/><path class="cls-3" d="M189.16,134.17c3.63,.08,6.25-.67,7.94-1.35,3.8-1.54,5.07-3.57,8.52-4.26,2.69-.54,5.07,.08,6.59,.63l-2.54,3.04c3.3,3.89,6.5,5.97,8.92,7.17,2.09,1.04,8.98,4.09,11.03,5.23,.58,.32,2.32,1.29,1.74,.97-.91,2.25-2.25,4.95-4.26,7.74-3.67,5.12-7.92,8.26-10.84,10.06-1.95-.96-13.44-6.69-20.32-14.71-1.84-2.14-4.58-5.41-6-10.45-.47-1.67-.68-3.1-.77-4.06Z"/><path class="cls-3" d="M235.57,146.11c.99-.62,2.4-1.54,4.06-2.71,3.92-2.75,6.16-4.32,8.32-6.77,1.2-1.36,2.79-3.47,4.16-6.49l-1.52-1.87c1.67-.01,4.14,.11,7.04,.81,3.58,.87,5.15,1.98,8.52,3.1,2.13,.71,5.25,1.5,9.3,1.71-.8,1.87-2.09,4.57-4.08,7.58-4.01,6.08-8.45,9.76-11.42,12.19-2.25,1.84-5.48,4.23-9.68,6.58-2.5-1.07-6.59-3.21-10.26-7.35-2.16-2.44-3.55-4.86-4.45-6.77Z"/><path class="cls-1" d="M191.53,134.28c.27,1.54,.78,3.68,1.82,6.06,1.91,4.37,4.51,7.06,6.71,9.29,4.16,4.22,8.31,6.61,11.61,8.52,1.8,1.04,3.33,1.81,4.39,2.32,1.93-1.35,4.2-3.2,6.45-5.68,3.29-3.61,5.33-7.22,6.58-9.94"/><path class="cls-1" d="M237.09,144.52c.94,1.84,2.37,4.18,4.54,6.55,2.87,3.14,5.88,5.06,8,6.19,2.58-1.31,5.88-3.27,9.29-6.19,.78-.67,3.92-3.39,7.23-7.74,1.81-2.38,4.02-5.7,5.98-9.96"/><path class="cls-1" d="M192.53,138.2c3.27,.02,5.39-.86,6.71-1.65,2.39-1.44,3.09-3.16,5.61-4.06,1.87-.67,3.65-.49,4.81-.26"/><path class="cls-1" d="M195.93,144.25c3.31,.15,5.4-.71,6.7-1.54,2.07-1.31,2.57-2.7,4.84-4.45,2.16-1.67,4.37-2.44,5.92-2.84"/><path class="cls-1" d="M201.83,151.46c3.39-1.3,5.5-2.99,6.79-4.29,1.49-1.5,1.94-2.51,3.63-4.19,2.07-2.05,4.17-3.27,5.6-3.98"/><path class="cls-1" d="M209.39,156.8c2.53-2.06,4.58-3.91,6.11-5.35,1.26-1.19,2.6-2.46,4.26-4.26,1.86-2.03,3.31-3.85,4.35-5.23"/><path class="cls-1" d="M270.27,137.03c-2.51-.75-4.5-1.45-5.8-1.93-3.49-1.28-5.02-2.03-8.13-3-1.96-.61-3.58-1-4.57-1.22"/><path class="cls-1" d="M266.53,142.82c-2.71-.87-4.77-1.81-6.13-2.49-1.85-.92-2.79-1.57-5.84-3.26-1.94-1.07-3.52-1.91-4.52-2.42"/><path class="cls-1" d="M260.2,149.51c-.82-.68-2.12-1.75-3.76-3-.71-.54-1.97-1.48-6.29-4.45-1.1-.75-2.63-1.81-4.5-3.07"/><path class="cls-1" d="M254.47,154.33c-2.53-2.06-4.58-3.91-6.11-5.35-2.42-2.27-3.81-3.77-4.26-4.26-1-1.09-1.82-2.05-2.4-2.76"/><path class="cls-3" d="M196.14,74.81c-.75-3-3.08-5.1-5.61-5.23-2.64-.13-4.43,1.93-4.69,2.25-1.89,2.35-1.51,5.34-1.31,6.85,.75,5.75,5.12,9.16,5.81,9.68,3.75,2.84,7.76,3.08,9.29,3.1-1.16-5.55-2.32-11.1-3.48-16.65Z"/><path class="cls-3" d="M264.35,73.52c.75-3,3.08-5.1,5.61-5.23,2.64-.13,4.43,1.93,4.69,2.25,1.89,2.35,1.51,5.34,1.31,6.85-.75,5.75-5.12,9.16-5.81,9.68-3.75,2.84-7.76,3.08-9.29,3.1,1.16-5.55,2.32-11.1,3.48-16.65Z"/><path class="cls-3" d="M194.02,50.42c-1.45,5.09-1.1,9.78-.39,19.16,.75,9.87,1.24,15.73,4.45,22.84,1.26,2.78,3.87,7.68,8.52,12.58,4.12,4.35,8.01,6.64,8.9,7.16,2.16,1.26,5.22,3.02,9.68,3.97,5.7,1.22,10.38,.41,12.58-.1,4.97-1.14,8.32-3.3,10.06-4.45,4.67-3.09,7.39-6.55,8.9-8.52,1-1.29,3.38-4.54,5.42-9.29,2.34-5.45,2.92-9.82,3.68-15.87,.58-4.68,1.33-10.7,.58-18.58-.4-4.23-.8-8.4-2.71-13.55-1.11-3-3.31-8.92-8.32-13.74-9.4-9.04-22.59-8.33-26.52-8.13-3.55,.18-14.02,.88-23.42,8.9-2.3,1.97-8.65,7.88-11.42,17.61Z"/><path class="cls-1" d="M200.02,70.61c.75-1.04,3.42-4.45,8.26-5.68,6.59-1.68,11.8,2.05,12.52,2.58"/><path class="cls-1" d="M262.16,69.4c-.75-1.04-3.42-4.45-8.26-5.68-6.59-1.68-11.8,2.05-12.52,2.58"/><path class="cls-1" d="M224.31,98.05c.48,.48,3.31,3.21,7.74,3.1,4.58-.12,7.32-3.18,7.74-3.68"/><path class="cls-1" d="M228.66,87.97c.2,.18,1.73,1.51,3.87,1.16,1.71-.28,2.68-1.45,2.9-1.74"/><path class="cls-3" d="M233.11,.82c.77-.13,12.09-1.86,19.18,5.36,3.94,4.01,4.53,8.69,5.28,14.63,.5,3.94,1.3,10.3-1.81,17.59-1.23,2.88-4.48,10.48-13.09,14.45-5.44,2.51-10.59,2.44-13.23,2.23,.71-1.27,3.33-6.36,1.74-12.83-1.01-4.11-3.99-7.05-7.49-10.75-4.45-4.69-5.9-4.56-7.22-7.4-2.5-5.41,.3-11.29,.77-12.28,4.24-8.87,14.81-10.82,15.87-11Z"/><path class="cls-1" d="M230.4,55.13c1.4-1.71,5.77-7.49,5.42-15.55-.3-7.1-4.09-12.03-6-14.52-2.22-2.89-4.55-4.85-6.19-6.06"/><path class="cls-1" d="M234.77,54.99c2.09-1.58,5.23-4.32,7.7-8.49,5.6-9.43,3.56-18.92,2.58-23.44-.87-4.02-2.43-10.82-8.52-16.03-3.31-2.83-6.76-4.16-9.03-4.81"/><path class="cls-3" d="M220.55,6.66c1.5,.79,2.06,2.34,2.92,4.85,1.84,5.35,1.6,9.97,1.51,11.24-.09,1.38-.26,2.62-.45,3.7,0,0-.31,1.8-.85,3.72-2.2,7.82-6.44,14.25-6.44,14.25-.84,1.25-2.15,3.12-3.93,5.26-4.4,5.29-7.51,7.26-11.7,11.5-2.08,2.11-4.93,5.29-7.89,9.7-.73-.27-2.02-.64-3.65-.52-2.08,.15-3.56,1.02-4.24,1.48-.14-2.83-.21-6.7,.11-11.28,.79-11.32,3.42-19.6,4.19-21.94,0,0,4.17-12.56,10.45-20.32,.92-1.14,4.17-5.05,9.55-8.47,3.26-2.07,7.45-4.73,10.41-3.17Z"/><path class="cls-1" d="M185.95,60.55c1.8-1.14,4.31-2.89,6.97-5.42,3.71-3.52,5.86-6.78,7.54-9.36,8.39-12.88,12.6-19.36,13.36-21.1,1.82-4.14,4.07-10.34,5.26-18.45"/><path class="cls-3" d="M265.82,177.58c-.92-.48-2.92-1.71-4-4.13-.71-1.59-1.54-4.84,.13-6.58,.4-.42,.85-.65,1.16-.77,.82,.67,1.71,1.52,2.58,2.58,2.17,2.66,3.15,5.4,3.61,7.23,.77,.04,1.55,.09,2.32,.13,.33-1.94,.78-3.52,1.16-4.65,1.44-4.28,2.82-5.18,3.23-5.42,.69-.41,1.36-.57,1.81-.65,.21,.5,.5,1.3,.65,2.32,.3,2.1-.22,3.82-1.03,6.45-.25,.8-.62,1.91-1.16,3.23,.47,.51,1.16,1.37,1.68,2.58,.43,1.01,1.43,3.33,.39,5.29-.6,1.13-1.6,1.63-2.71,2.19-1.93,.98-3.7,1.02-4.9,1.03-1.16,.01-2.74,.02-4.52-.77-1.06-.47-2.13-.95-2.71-2.06-.7-1.35-.27-2.81,.13-4.13,.26-.86,.83-2.35,2.19-3.87Z"/><path class="cls-3" d="M268.53,184.42c.13,.17,.6,.75,1.42,.9,.85,.16,1.74-.19,2.32-.9"/><circle class="cls-3" cx="267.89" cy="181.6" r=".65"/><circle class="cls-3" cx="273.19" cy="181.6" r=".65"/><line class="cls-2" x1="192.94" y1="88.06" x2="193.4" y2="102.16"/><line class="cls-2" x1="269.96" y1="86.83" x2="269.69" y2="100.93"/><path class="cls-3" d="M195.3,108.44l-1.41-.74c-.22-.11-.48-.11-.69,0l-1.41,.74c-.55,.29-1.18-.18-1.08-.79l.27-1.57c.04-.24-.04-.49-.21-.66l-1.14-1.11c-.44-.43-.2-1.18,.41-1.27l1.58-.23c.24-.04,.45-.19,.56-.41l.71-1.43c.27-.55,1.06-.55,1.34,0l.7,1.43c.11,.22,.32,.37,.56,.41l1.58,.23c.61,.09,.85,.84,.41,1.27l-1.14,1.11c-.18,.17-.26,.42-.21,.66l.27,1.57c.1,.61-.54,1.07-1.08,.78Z"/><path class="cls-3" d="M269.25,101.19c.37,.85,.36,1.58,.34,2.2-.03,.89-.08,2.45-1.24,3.56-.56,.53-1.19,.77-1.6,.89,.14,.07,2.08,.96,3.9-.15,1.87-1.15,1.89-3.37,1.88-3.67-.02-1.74-1.09-2.87-1.33-3.11-1.29-1.28-2.88-1.33-3.2-1.33,.33,.26,.89,.79,1.26,1.62Z"/><path class="cls-1" d="M204.66,74.34c1.61,.66,3.01,.97,4,1.14,1.62,.27,3.88,.64,6.48-.19,1.41-.45,2.46-1.11,3.12-1.59"/><g><path d="M208.67,75.49l-1.81,2.19"/><polygon points="209.06 75.81 206.86 77.69 208.28 75.18 209.06 75.81 209.06 75.81"/></g><g><path d="M205.82,74.46c-.77,.47-1.55,.95-2.32,1.42"/><polygon points="206.08 74.89 203.5 75.88 205.56 74.03 206.08 74.89 206.08 74.89"/></g><g><path d="M213.53,76.11c0,.83,0,1.67-.01,2.5"/><polygon points="214.03 76.12 213.51 78.61 213.03 76.11 214.03 76.12 214.03 76.12"/></g><g><path d="M217.42,74.51c.52,.65,1.03,1.31,1.55,1.96"/><polygon points="217.81 74.2 218.96 76.48 217.02 74.82 217.81 74.2 217.81 74.2"/></g><path class="cls-1" d="M257.76,74.19c-1.61,.66-3.01,.97-4,1.14-1.62,.27-3.88,.64-6.48-.19-1.41-.45-2.46-1.11-3.12-1.59"/><g><path d="M253.75,75.34l1.81,2.19"/><polygon points="254.13 75.02 255.55 77.53 253.36 75.66 254.13 75.02 254.13 75.02"/></g><g><path d="M256.6,74.31c.77,.47,1.55,.95,2.32,1.42"/><polygon points="256.86 73.88 258.92 75.73 256.34 74.73 256.86 73.88 256.86 73.88"/></g><g><path d="M248.89,75.96c0,.83,0,1.67,.01,2.5"/><polygon points="249.39 75.96 248.9 78.46 248.39 75.96 249.39 75.96 249.39 75.96"/></g><g><path d="M245,74.36c-.52,.65-1.03,1.31-1.55,1.96"/><polygon points="245.4 74.67 243.46 76.32 244.61 74.05 245.4 74.67 245.4 74.67"/></g></g></svg>