<svg xmlns="http://www.w3.org/2000/svg" viewBox="0 0 240.17 192.53"><defs><style>.cls-1{fill:#fff;}</style></defs><g id="Layer_2" data-name="Layer 2"><g id="Layer_11" data-name="Layer 11"><path class="cls-1" d="M175.89,103.4c0,10.75-112,10.75-112,0,0-21.45,19.94-33.84,43-37.18v-4.6c-11-4.23-19.73-14.09-20-29.62.74-42.67,65.27-42.66,66,0-.27,15.53-9,25.39-20,29.62v4.6C156,69.56,175.9,82,175.89,103.4Z"/><path class="cls-1" d="M152.89,104.53s19,19.21,36,23c9,2,31-39,31-39s50-15-7-15l-29.33,27.16L167,82.94"/><path class="cls-1" d="M87.28,104.34s-19,19.21-36,23c-9,2-31-39-31-39s-50-15,7-15L56.61,100.5l16.6-17.76"/><polyline class="cls-1" points="159.95 100.37 159.95 192.53 80.28 192.53 80.28 100.62"/></g></g></svg>