<svg xmlns="http://www.w3.org/2000/svg" viewBox="0 0 359.98 551.99"><defs><style>.cls-1,.cls-2,.cls-4,.cls-5,.cls-7{fill:#fff;}.cls-1{stroke:#fff;}.cls-1,.cls-2,.cls-3,.cls-5,.cls-6,.cls-7,.cls-8,.cls-9{stroke-miterlimit:10;}.cls-2,.cls-3,.cls-5,.cls-6,.cls-9{stroke:#000;}.cls-3{fill:none;}.cls-5{stroke-width:1.5px;}.cls-6,.cls-9{fill:#fffffd;}.cls-7,.cls-8{stroke:#020202;}.cls-8{fill:#fcfcfc;}.cls-9{stroke-width:0.5px;}</style></defs><g id="Layer_2" data-name="Layer 2"><g id="base"><path id="hair-back" class="cls-1" d="M280.44,149s-16.78,10.58-42.24,15.74c-15.43,3.13-92.55,5.72-118,.56S78,149.54,78,149.54,86.21,82.7,103.5,49.67s39.23-43.1,50.33-43.1c13.89,0,21,1.7,24.76,3.28C182,8.13,189,6,204.57,6c11.09,0,33,10.06,50.32,43.1S280.44,149,280.44,149Z"/><path class="cls-2" d="M261.35,287.85s49.89,115.93,54.2,120.24,7.54,11.49,21.89,11.49,16.87-10.77,16.52-26.21-17.23-51.32-17.23-51.32-35.54-106.6-43.43-114.86c-3.72-3.89-13.77-7.89-13.77-7.89Z"/><path class="cls-2" d="M348,389.32a15.19,15.19,0,0,1,11.4,16.21c-1.15,11.18-6,14.57-19.2,23.28-15.79,10.41-53.48,22.61-63.88,26.92s-77.17,24.76-77.17,24.76l-9.33-28.71,125-59.94a45.65,45.65,0,0,1,31-3.07Z"/><path d="M174.77,181.21s-35.81,1-36.86,2.14S159.14,207,159.14,207Z"/><path class="cls-2" d="M96.41,287.6S46.52,403.53,42.21,407.83s-7.54,11.49-21.89,11.49S3.45,408.55,3.8,393.12,21,341.79,21,341.79s35.54-106.6,43.43-114.85c3.72-3.89,13.77-7.9,13.77-7.9Z"/><path class="cls-2" d="M12,383.28A15.2,15.2,0,0,0,.58,399.49c1.15,11.18,6,14.57,19.2,23.28,15.79,10.41,53.48,22.61,63.89,26.92s77.16,24.76,77.16,24.76l9.34-28.71-125-59.94a45.64,45.64,0,0,0-31-3.07Z"/><g id="Layer_19" data-name="Layer 19"><path class="cls-2" d="M283.78,551.45s-2.64-58.12-9.13-81.93C268.78,448,265.4,443.74,257,434.17l-146.64-1.61c-13.26,0-17,10.41-23,31.8S78,551.45,78,551.45"/></g><g id="Layer_21" data-name="Layer 21"><path class="cls-2" d="M83.74,491.84c7.58,1.56,23.65,7.08,34.9,8.57,13,1.72,14.18,2.61,17.27-.05,3.53-3,3.49-8.35,3.48-11.61,0-8.26-.33-25.71,2.08-44.94"/><path class="cls-3" d="M90.32,462a15.16,15.16,0,0,0,6.88-.37c7.17-2.14,13.28-12,14.5-21.8"/><path class="cls-2" d="M83.74,486.32c7,2.55,17,5.25,23.68,7,8.5,2.28.08,0,20.51,3.48,1.2.21,3.64.63,5.42-.77,2.29-1.8,2-5.6,1.94-7-.14-16.29,1.42-25.43,1.94-45.7"/><path class="cls-2" d="M278.62,490.54c-7.58,1.56-27.78,7.67-39,9.16-13,1.72-14.19,2.61-17.28-.06-3.52-3-3.48-8.34-3.48-11.61,0-8.25.34-25.71-2.08-44.93"/><path class="cls-3" d="M269.14,462.24c-3,.49-6.54-.83-8.12-1.31-7.16-2.14-13.27-12-14.5-21.8"/><path class="cls-2" d="M277.79,484.93c-7,2.55-20.34,5.93-27,7.71-8.5,2.29-.08,0-20.52,3.49-1.2.2-3.64.62-5.42-.78-2.28-1.8-2-5.59-1.93-7,.14-16.29-1.42-25.42-1.94-45.69"/></g><g id="Layer_22" data-name="Layer 22"><path class="cls-2" d="M186.62,504.66c-.17,2.46-.37,6.15-.39,10.64,0,6.69.37,11.05.78,17.86.25,4.28.57,10.39.77,17.87l-7.35.42A95.42,95.42,0,0,0,180,537c-.51-4.82-1.18-7.35-1.39-13.18-.07-2.11,0-3,0-8.09s0-9.15,0-11.88Z"/></g><path id="belt" class="cls-2" d="M255.08,407.17v30.07s-28.84,8.06-77.35,8.13h-.68c-48.51-.07-77.33-8.13-77.33-8.13V407.17Z"/><polygon id="belt-right" class="cls-2" points="238.72 445.12 234.66 445.91 229.82 445.37 229.82 405.97 238.72 405.97 238.72 445.12"/><polygon id="belt-left" class="cls-2" points="116.07 445.12 120.52 445.99 124.97 445.37 124.97 405.97 116.07 405.97 116.07 445.12"/><rect class="cls-2" x="176.92" y="409.84" width="18.51" height="35.54"/><g id="torso-right"><path class="cls-4" d="M182.83,212.13V419.75l9.06.25s43.65,2.07,76.74-7.12l1.15-118.33s5.11-35.84,24.18-66.39c0,0-32.69-19.31-69.68-36.77l-41.45,20.74"/><path d="M183.33,212.13c-.08-.07.62,209.69-.48,207.12,28.63,1.05,57.8.51,85.64-6.85l-.36.48.42-29.58c.24-18.66.81-69.44,1-88.77a207.36,207.36,0,0,1,15.71-50.86,167.71,167.71,0,0,1,8.25-15.78l.17.7q-34.05-19.77-69.64-36.74c2.15-.56-41.52,20.84-41,20.73l-.45-.9c.26,0,41.44-20.8,41.67-20.84,6,2.86,12,5.75,17.93,8.75q26.41,13.29,52,28.14l.44.25-.27.44C281.61,248.35,274,271.34,270,294.58c0-.13-.49,59.17-.48,59.14-.13,14.9-.3,44.63-.36,59.54-14.07,3.88-28.59,5.69-43.09,6.68a402,402,0,0,1-43.22.31h-.49v-.49c1-.54-1.81-209.28,1-207.62Z"/></g><g id="torso-left"><path class="cls-4" d="M174.2,211.87V419.75h-9s-43.66,2.07-76.74-7.12L87.26,294.3s-5.12-35.84-24.19-66.4c0,0,32.69-19.3,69.68-36.76l41.45,20.73"/><path d="M174.7,211.87c-.49.51,1,208.91-.49,208.38-3.28.07-7.59-.11-10.79.06-25.31.5-50.94-.75-75.51-7.3-.1.06-.9-118.62-1-118.71-4-23-11.7-46.19-24.29-66.13l-.27-.44.44-.26q25.58-14.86,52-28.14c5.94-3,11.93-5.89,17.94-8.75.2,0,41.45,20.82,41.67,20.85l-.45.89c.58.15-43.25-21.3-41-20.73C109.26,202.85,86,215.16,63.33,228.33l.17-.69c1.52,2.55,3,5.12,4.37,7.76a196.56,196.56,0,0,1,15.95,41.45c1.51,5.75,2.83,11.54,3.76,17.42-.16-.48,1.88,120.5,1,117.87,20.82,5.59,42.57,7.1,64.07,7.3,7.11.07,14.47-.31,21.59-.19-1.3,3.18-.11-208.1-.5-207.38Z"/></g><g id="ear-right"><path class="cls-4" d="M233.76,105.26s3.27-4.63,9.89-2.82,5.61,17,4.82,20.38c-2.32,9.81-6.33,12.13-11.29,13.42s-10.9,0-10.9,0Z"/><path d="M233.31,105.05a9.47,9.47,0,0,1,9.37-3.28c5.28.73,6.3,7,6.65,11.38.45,6.56-.45,13.62-4.52,19-4.47,5.45-12.22,5.41-18.64,4.6l-.5-.1.12-.5,7.52-31.08Zm.91.42-7.46,30.89s-.4-.62-.37-.6c7.26,1.93,16.82.35,19.85-7.35a30.45,30.45,0,0,0,2.31-15.21c-.39-4-1.17-9.93-6-10.56a8.72,8.72,0,0,0-8.3,2.83Z"/></g><g id="ear-left"><path class="cls-4" d="M127.44,105.26s-3.27-4.63-9.89-2.82-5.61,17-4.82,20.38c2.33,9.81,6.33,12.13,11.3,13.42s10.9,0,10.9,0Z"/><path d="M127,105.47a8.74,8.74,0,0,0-8.28-2.67c-4.72.69-5.42,6.44-5.82,10.42a31.23,31.23,0,0,0,2.18,15.13c2.88,7.71,12.58,9.57,19.74,7.41,0,0-.38.6-.37.6L127,105.47Zm.91-.42,7.51,31.08.13.51-.51.09c-6.43.62-14.13.86-18.68-4.56-4.19-5.34-5.19-12.44-4.72-19,.35-4.4,1.45-10.85,6.86-11.52a9.5,9.5,0,0,1,9.41,3.44Z"/></g><g id="neck"><path class="cls-4" d="M209.61,195.28,180.94,214l-.37.24-.38-.24-28.66-18.67a13,13,0,0,0,4.62-7.74c1.2-5.42,1-29.43,1-29.43H204s-.2,24,1,29.43A13,13,0,0,0,209.61,195.28Z"/><path d="M210.11,195.28c-9.76,6.5-19.65,13.09-29.54,19.5l-.27-.17-29-18.92-.61-.39c4.32-2.79,5.57-8.19,5.7-13.06.3-4.82.4-9.65.47-14.47a93.07,93.07,0,0,0-.21-10.16h47.88v.5a79.91,79.91,0,0,0-.25,9.66c.07,4.83.15,9.66.49,14.47.21,3.16.49,6.4,2.16,9.15a11.48,11.48,0,0,0,3,3.44.62.62,0,0,1,.27.45Zm-1,0a.44.44,0,0,0,.16.38l-.09-.07-.12-.1c-5.26-4.43-4.9-11.79-5.13-18-.29-6.45.06-12.89-.44-19.34l.5.51H157.15l.5-.51c-.24,3.23-.18,6.45-.2,9.67,0,4.84-.09,9.68-.36,14.51s-1.14,10.14-5.28,13.41v-.83l29,18.9h-.54c9.56-6.24,19.11-12.33,28.81-18.49Z"/></g><rect class="cls-2" x="171.08" y="211.4" width="20.27" height="208.35"/><g id="face"><path class="cls-4" d="M229,140.51C226.47,151.25,187.62,172,181.73,175a19.58,19.58,0,0,1-2,0c-5.89-3-45-23.73-47.49-34.47C129.5,128.89,122.15,101,124.47,89s3.66-19.13,6.19-26.32c3.68-10.45,6-14.13,13.94-20.13,11.87-9,27.3-7.84,36-7.41,8.7-.43,24.13-1.56,36,7.41C224.53,48.57,227.72,53,231,61c5.55,13.61,5.45,23.74,5.74,28C237.66,102.52,231.69,128.89,229,140.51Z"/><path d="M229.5,140.63c-3,9.71-25.67,22.05-34.66,27.43-4.33,2.44-8.66,4.88-13,7.41a9,9,0,0,1-2.43-.1l-.09-.05-.18-.09-.7-.38c-6-3.33-13.43-7.49-19.41-10.94-7.33-4.28-14.57-8.81-21-14.54-2.37-2.21-4.79-4.55-6.14-7.59-1.44-5.19-2.42-10.34-3.63-15.58-2.28-11.4-5.08-23-4.57-34.68.68-5.28,1.89-10.45,2.93-15.67,1.81-8.3,4.06-16.63,8.31-24.07A38.27,38.27,0,0,1,155.26,36.7c8.13-2.64,17.17-2.52,25.32-2.06a91.06,91.06,0,0,1,17.85.28A41.4,41.4,0,0,1,228,53.52a72.45,72.45,0,0,1,9.36,34.31c.64,17.87-4.1,35.49-7.9,52.8Zm-1-.25c3.65-17.27,8.22-34.72,7.48-52.48-.52-11.69-3.23-23.49-9-33.7-3-5-7.53-8.93-12.3-12.27A38.85,38.85,0,0,0,198.28,36a89.39,89.39,0,0,0-17.7-.36c-12.4-.87-26-.42-36.16,7.58a33.57,33.57,0,0,0-8.7,9,60.07,60.07,0,0,0-5,11.56A109,109,0,0,0,127.46,76c-1.14,6.2-3,12.38-3,18.71.47,15.83,4.83,31.33,8.73,46.58,3.53,6.41,10.14,10.44,15.87,14.76a231,231,0,0,0,29.88,18l.71.35.18.09.08,0,0,0-.09,0h.33c.51,0,1,0,1.57-.05l-.21.05a142,142,0,0,0,13.09-6.9c8.55-5.17,30.88-18.18,33.86-27.25Z"/></g><path id="collar-right" class="cls-2" d="M197.68,201.59,184.48,210c-1.68,1.17,0,2.87,1.46,4.29l23.33,20.65a5.48,5.48,0,0,0,6.74.68c5.35-3.4,15.25-9.94,20.72-15.13,7.75-7.36,15.1-19.55,15.1-19.55l-15.16-7.58a37.32,37.32,0,0,1-5.89-3.66s-7.69-7.35-10.7-8.12a53.07,53.07,0,0,0-15.43-1.48l.08,2.19c1.75-.13,10.72.29,10.9,1.62C216,186.76,202.57,197.7,197.68,201.59Z"/><path id="collar-left" class="cls-2" d="M163.53,201.59,176.72,210c1.68,1.17,0,2.87-1.46,4.29l-23.33,20.65a5.48,5.48,0,0,1-6.74.68c-5.35-3.4-15.25-9.94-20.72-15.13-7.75-7.36-15.09-19.55-15.09-19.55l15.15-7.58a36.44,36.44,0,0,0,5.89-3.66s7.69-7.35,10.7-8.12a50,50,0,0,1,15.21-1.4v2c-2.32-.09-10.57.35-10.76,1.73C145.18,186.76,158.64,197.7,163.53,201.59Z"/><path class="cls-4" d="M177.05,445.37l.14,12.88s.05,6,1.39,17.36c.48,4-2.13,10-1.18,14.29s0,12.06,0,16c0,0-.52,2.61,3.67,2.9s12.91,0,12.91,0a3,3,0,0,0,1.79-2.9c.12-3.85.95-11.52,0-15.8s1.66-10.16,1.19-14.15a171.27,171.27,0,0,1-1.39-17.19l-.15-13.19"/><path d="M177.55,445.37c0,5.05,0,10.13.1,15.16s.67,10.07,1.23,15.1c.21,2.63-.48,5.11-.91,7.59a17.31,17.31,0,0,0-.2,7.44c.64,5.11-.12,10.18-.22,15.22-.05,3.47,5,2.66,7.33,2.88,3,0,6.06,0,9.09-.1a2.89,2.89,0,0,0,1.36-1.3c.69-1.84.33-4,.58-5.92.2-4,.44-8-.39-12-.55-4.05,1.13-8,1.37-12,.06-2.31-.59-5.61-.78-8a153.22,153.22,0,0,1-1-16l-.24-8h1c0,5.35-.14,10.71,0,16,.15,3.84.5,8.13.87,12a28.27,28.27,0,0,1,.31,4c-.19,4-1.75,7.88-1.28,11.89.79,3.95.5,8,.28,12-.27,2,.09,4.1-.63,6a2.87,2.87,0,0,1-1.5,1.39c-3,.07-6.07.16-9.1.15-2.53-.17-7.71.63-7.63-3.16,0-4.9.75-10.15.07-15.09a13.88,13.88,0,0,1-.35-3.81c.16-3.75,1.61-7.51,1.32-11.22a240.07,240.07,0,0,1-1.74-30.32Z"/></g><g id="Layer_17" data-name="Layer 17"><path d="M183.21,143.63a.77.77,0,0,1,.75-.77l4.3-.17,4.65-.37a.78.78,0,0,1,.84.78v0a.78.78,0,0,1-.72.78l-5.18.39-3.84.12A.78.78,0,0,1,183.21,143.63Z"/><path d="M178,143.63a.77.77,0,0,0-.75-.77l-4.3-.17-4.65-.37a.78.78,0,0,0-.84.78v0a.78.78,0,0,0,.72.78l5.18.39,3.84.12A.79.79,0,0,0,178,143.63Z"/><rect class="cls-3" x="160.68" y="93.09" width="0.9" height="6.22" rx="0.45" transform="translate(252.58 260.07) rotate(-150)"/><rect class="cls-3" x="152.25" y="91.67" width="0.9" height="6.22" rx="0.45" transform="translate(305.4 189.57) rotate(180)"/><rect class="cls-3" x="143.58" y="93.99" width="0.9" height="6.22" rx="0.45" transform="translate(-29.25 85.02) rotate(-30)"/><path d="M186.31,127a9.89,9.89,0,0,1-11.77,0,1.15,1.15,0,0,1-.38-1.66h0a1.27,1.27,0,0,1,1.58.05,7.86,7.86,0,0,0,9.38,0,1.27,1.27,0,0,1,1.58-.05h0A1.14,1.14,0,0,1,186.31,127Z"/><path d="M184.28,152.65h-7.86a.73.73,0,0,1-.72-.73.72.72,0,0,1,.72-.72h7.86a.72.72,0,0,1,.73.72A.73.73,0,0,1,184.28,152.65Z"/><rect class="cls-3" x="146.3" y="106.75" width="0.63" height="4.34" rx="0.32" transform="translate(74.1 -58.71) rotate(30)"/><rect class="cls-3" x="152.19" y="107.73" width="0.63" height="4.34" rx="0.32"/><rect class="cls-3" x="158.23" y="106.99" width="0.63" height="4.34" rx="0.32" transform="translate(350.44 124.42) rotate(150)"/><g id="Layer_18" data-name="Layer 18"><path class="cls-5" d="M164.4,102.29c0,3.17-5.19,5.74-11.6,5.74s-11.6-2.57-11.6-5.74c0,0,5.19-5.73,11.6-5.73S164.4,102.29,164.4,102.29Z"/><rect class="cls-3" x="216.56" y="93.99" width="0.9" height="6.22" rx="0.45" transform="translate(356.39 289.69) rotate(-150)"/><rect class="cls-3" x="208.12" y="92.57" width="0.9" height="6.22" rx="0.45" transform="matrix(-1, 0, 0, -1, 417.14, 191.37)"/><rect class="cls-3" x="199.45" y="94.89" width="0.9" height="6.22" rx="0.45" transform="translate(-22.22 113.08) rotate(-30)"/><rect class="cls-3" x="202.17" y="107.65" width="0.63" height="4.34" rx="0.32" transform="translate(82.04 -86.53) rotate(30)"/><rect class="cls-3" x="208.06" y="108.63" width="0.63" height="4.34" rx="0.32"/><rect class="cls-3" x="214.11" y="107.89" width="0.63" height="4.34" rx="0.32" transform="translate(455.15 98.16) rotate(150)"/><path class="cls-5" d="M220.27,103.19c0,3.17-5.19,5.74-11.6,5.74s-11.6-2.57-11.6-5.74c0,0,5.2-5.73,11.6-5.73S220.27,103.19,220.27,103.19Z"/><ellipse cx="208.45" cy="102.67" rx="6.02" ry="4.97"/><circle class="cls-4" cx="211.09" cy="100.94" r="1.28"/></g><ellipse cx="152.58" cy="101.77" rx="6.02" ry="4.97"/><circle class="cls-4" cx="155.22" cy="100.04" r="1.28"/></g><g id="eyebrows"><path d="M164.07,92.39a26,26,0,0,0-24,0,.57.57,0,0,1-.78-.21h0a.56.56,0,0,1,.27-.76,27,27,0,0,1,25,0,.57.57,0,0,1,.28.76h0A.58.58,0,0,1,164.07,92.39Z"/><path d="M220.66,92.39a26,26,0,0,0-24,0,.57.57,0,0,1-.78-.21h0a.56.56,0,0,1,.27-.76,27,27,0,0,1,25,0,.57.57,0,0,1,.27.76h0A.58.58,0,0,1,220.66,92.39Z"/></g><g id="Layer_26" data-name="Layer 26"><path class="cls-4" d="M169,7.25c-.78.85.78,27.35,5.68,29.67s11.1,5.17,16.77,16.26S201.84,78,201.67,78.73s7-7.14,12.16-19.3C216.54,53,220.12,44.5,218.68,28A29.11,29.11,0,0,0,205.19,5.28C199.07.94,193.73.51,185.63.51,183.57.51,174.92.79,169,7.25Z"/><path d="M169.33,7.57a82,82,0,0,0,.6,12.33,67.4,67.4,0,0,0,2.35,12.42c.68,1.91,1.35,4,3.44,4.71a30.82,30.82,0,0,1,14.12,12.71,103.28,103.28,0,0,1,5.68,11.45,135.94,135.94,0,0,1,6.38,17.23l0,.27v.07s0,0,0-.11-.11-.13-.21-.13-.06,0-.07,0c4.45-4.61,7.63-10.44,10.38-16.19,3.55-7.66,6.19-15.78,6.37-24.27.63-13.51-1.95-25.13-14.11-32.76C199.08,1.55,192.52,1,186.28,1c-6.18-.11-12.7,1.93-16.95,6.56Zm-.7-.65c4.46-4.86,11.21-7,17.66-6.91,6.4-.1,13.21.56,18.57,4.4,12.55,7.86,15.3,19.72,14.64,33.69-.19,8.62-2.8,17-6.63,24.63a69.66,69.66,0,0,1-10.63,16c-.14.08-.26.31-.53.34a.31.31,0,0,1-.3-.38v0c-1.55-5.92-4-11.58-6.41-17.21a102.07,102.07,0,0,0-5.67-11.37,30.37,30.37,0,0,0-8.42-9.27c-2.16-1.63-4.62-2.53-7-3.9a10.31,10.31,0,0,1-2.39-4.31A68.84,68.84,0,0,1,169.07,20a75.16,75.16,0,0,1-.67-12.45,1.35,1.35,0,0,1,.23-.63Z"/><path class="cls-4" d="M169,7.25c6.84,2.69,8.43,11.7,8.45,21.77a58.16,58.16,0,0,1-6.61,25.08c-3.12,6.08-6.93,9.87-9.25,12.6-4.63,5.46-11.6,10.86-16.9,14.7A82.79,82.79,0,0,0,131,93.53l-6.73,8.73a37.07,37.07,0,0,0-4-.53,20.66,20.66,0,0,0-3,.29c-1.29-2.58-2.23-43.39,6.31-62.38,6.29-14,14.33-23.49,23.56-28.71C152.53,7.86,164.13,5.33,169,7.25Z"/><path d="M169.09,7c8.7,3.64,9,16.08,8.91,24.17a59.8,59.8,0,0,1-8,25.72c-6,9.54-14.51,17.33-23.62,23.87a87.93,87.93,0,0,0-15.23,13c-2.18,2.8-4.59,5.76-6.85,8.61l0,0h-.07a17.31,17.31,0,0,0-7-.06l-.23,0-.08-.21a8,8,0,0,1-.42-2,175.87,175.87,0,0,1,0-29c.88-10.3,2.09-20.72,5.9-30.42C128.54,26.82,138.33,12.3,153.67,8c5-1.26,10.38-2.55,15.42-1Zm-.22.56c-4.87-1.46-10.2-.17-15,1.08C138.81,13,129.53,27.55,123.55,41.18c-3.71,9.54-5,19.89-5.91,30q-.66,7.68-.77,15.4c0,5.06-.31,10.3.63,15.27l-.31-.17a16,16,0,0,1,7,.47c2.2-3,4.37-5.92,6.6-8.85A83,83,0,0,1,140.48,84c7-5.48,14.47-10.56,20.29-17.33a57.28,57.28,0,0,0,15.94-35.63c.13-7.76.55-19.89-7.84-23.53Z"/><circle class="cls-6" cx="181.07" cy="224.4" r="5.1"/><circle class="cls-6" cx="181.07" cy="407.17" r="5.1"/><circle class="cls-6" cx="181.07" cy="371.99" r="5.1"/><circle class="cls-6" cx="181.07" cy="334.77" r="5.1"/><circle class="cls-6" cx="181.07" cy="294.13" r="5.1"/><circle class="cls-6" cx="181.07" cy="260.31" r="5.1"/><path d="M125.91,133.86a304,304,0,0,0,0,31.66h-1a304,304,0,0,0,0-31.66Z"/><polygon class="cls-7" points="133.36 177.45 127.66 175.58 122.89 179.22 122.9 173.22 117.97 169.81 123.68 167.97 125.4 162.22 128.91 167.09 134.91 166.95 131.37 171.79 133.36 177.45"/><path d="M236.9,132.79c-.56,10.55-.49,21.12,0,31.66h-1c.48-10.54.55-21.11,0-31.66Z"/><path class="cls-8" d="M238.3,164.32a9,9,0,0,0-2.59-.41,9,9,0,0,1-5.07,15.82,8.71,8.71,0,1,0,7.66-15.41Z"/><circle class="cls-6" cx="186.17" cy="432.56" r="6.29"/><circle class="cls-9" cx="186.17" cy="432.56" r="4.53"/></g><g id="white"><path class="cls-4" d="M30.11,332.7l2.18-1.84,10.52,39.72-5.24,22.84-6.31,6.05-6.79,3.45-8-.4s-5.81-2.07-7.76-3.78c-1.77-1.56-5-9-5-9Z"/><path class="cls-4" d="M335,341.68l-2-2L319.5,378.51,323,401.68l5.84,6.5,6.52,3.94,8,.19s5.95-1.63,8-3.2c1.88-1.42,5.6-8.56,5.6-8.56Z"/></g><g id="Layer_25" data-name="Layer 25"><path class="cls-3" d="M288.28,238.17q28.5,67.13,53.82,139.48c1,2.93,11.53,17.68,9.14,25.27-5.68,18.07-48.77,34.06-84.17,45"/><path class="cls-3" d="M281.7,252.5c29.26,89.62,48.09,124.59,55.24,139.6.71,1.48,3.93,4.58,3.1,8.77-1.78,9-42,27.16-78,39.29"/><path class="cls-3" d="M275,271.88c24.88,75,44.51,104.12,51.63,119.19.62,1.31,2.59,7.14,1.19,11-1.7,4.66-37.32,17.51-70.85,32.1"/><path class="cls-3" d="M270.46,290.58c25.17,66.2,37.14,92.28,42.23,98.42.74.9,4.22,4.85,3.09,8.26-1.25,3.78-6.31,7.37-8.11,7.72-7.37,1.43-22.13,7.33-52.59,23.25"/></g><g id="Layer_23" data-name="Layer 23"><path class="cls-3" d="M69.17,238.7Q39.63,310,11.27,382.81c-.57,1.46-3.47,4.61-3.62,9.29-.64,20,43.21,38,86.76,51.37"/><path class="cls-3" d="M75.89,252.64Q48.62,315.51,22.62,380.23c-.48,1.19-4.47,5.11-4.13,10.32.26,3.89,2.73,8.35,10.56,13.58,18.83,12.58,63.3,26,70.67,28.23"/><path class="cls-3" d="M82.34,272.64A1157.64,1157.64,0,0,1,35.52,380.23c-.42.86-2.37,2.5-2.58,5.16-1,12.7,34,25.86,66.78,35.61"/><path class="cls-3" d="M86.8,291.55c-24.72,62.31-36.58,87.06-41.06,91-.44.38-2.72,2.22-2.56,4.49.26,3.88,7.45,6.3,9.89,7.15,9.61,3.36,11.83,4.48,35.31,15.68"/></g><g id="lines-torso"><line class="cls-3" x1="164.58" y1="223.69" x2="165.15" y2="419.75"/><line class="cls-3" x1="153.79" y1="233.24" x2="152.8" y2="419.32"/><line class="cls-3" x1="139.55" y1="231.89" x2="143.4" y2="419.32"/><line class="cls-3" x1="131.17" y1="225.98" x2="131.98" y2="419.75"/><line class="cls-3" x1="124.47" y1="220.44" x2="123.54" y2="418.6"/><line class="cls-3" x1="116.58" y1="211.4" x2="116.07" y2="417.82"/><line class="cls-3" x1="107.71" y1="203.5" x2="107.71" y2="416.96"/><line class="cls-3" x1="94.35" y1="211.4" x2="98.16" y2="414.97"/><line class="cls-3" x1="85.83" y1="214.19" x2="87.26" y2="294.3"/><line class="cls-3" x1="73.88" y1="221.71" x2="74.5" y2="250.22"/><line class="cls-3" x1="200.24" y1="226.89" x2="200.24" y2="420.19"/><line class="cls-3" x1="209.27" y1="234.89" x2="209.61" y2="419.32"/><line class="cls-3" x1="219.98" y1="233.47" x2="219.98" y2="419.32"/><line class="cls-3" x1="229.82" y1="226.13" x2="230.65" y2="419.1"/><line class="cls-3" x1="238.71" y1="219.04" x2="237.52" y2="419.32"/><line class="cls-3" x1="247.01" y1="208.22" x2="246.86" y2="416.95"/><line class="cls-3" x1="257.87" y1="208.2" x2="255.08" y2="415.96"/><line class="cls-3" x1="268.53" y1="213.9" x2="265.02" y2="413.82"/><line class="cls-3" x1="279.53" y1="219.3" x2="276.04" y2="268.39"/><line class="cls-3" x1="287.46" y1="224.4" x2="287.8" y2="239.1"/></g><g id="patch"><path class="cls-2" d="M230.69,300.23s-3.79,3.21,1,2.95,9.23-1.81,12.46-6.83c2.27-3.55,3.61-7,2.32-6.85a13.31,13.31,0,0,0-3.67,1.53"/><path class="cls-2" d="M218.06,289.4l-2.34,1.42a9.21,9.21,0,0,0,2.06,5.07,11.11,11.11,0,0,0,3.74,3.34l2.72-2.14"/><path class="cls-2" d="M238.4,274.41l2-1.85a9.18,9.18,0,0,1,4.28,3.4,11.16,11.16,0,0,1,2.16,4.54l-2.82,2"/><circle class="cls-2" cx="230.97" cy="285.64" r="13.59"/><circle cx="231.69" cy="284.75" r="9.39"/><circle class="cls-4" cx="234.67" cy="280.57" r="1.94"/></g><g id="lines"><path d="M91.34,149.11c2.8-15.32,5.6-30.64,9.09-45.82s8.85-30.09,17.35-43.21l.84.54c-13.84,19.18-18,42.91-22.33,65.66-1.44,7.64-2.72,15.32-4,23l-1-.17Z"/><path d="M170.82,5c9.6.43,19.89,1.88,27.71,7.88,7.14,5.72,9,15,9.18,23.65a94.14,94.14,0,0,1-1.16,18.29c-1.16,8.06-2.79,16-4.71,23.95l-.35-.08c3.6-16.48,10-44.36,1.43-59.56C198.72,12,190.64,8.76,182.84,7.27a71.59,71.59,0,0,0-12-1.27V5Z"/><path d="M217.63,20.7a117.65,117.65,0,0,1,24.29,26c6.73,9.85,10.25,21.43,14,32.62,4.13,11.16,6.22,22.94,8.2,34.61s3.51,23.46,4.83,35.26l-1,.1c-2.81-23.43-5-47.33-12.65-69.77-3.74-11.16-7.22-22.71-13.88-32.52a99.11,99.11,0,0,0-24.41-25.44l.57-.82Z"/><path d="M253.07,155.34c-.27-16.29-1.17-32.72-4.5-48.69-3.49-14.91-9.89-29-16.43-42.78l-.67-1.38-.34-.68c-.13-.22-.15-.5-.58-.56l.89-.46c-.21.39,0,.57.1.81l.34.69.68,1.37a284.46,284.46,0,0,1,13.21,31.05c4.16,11.59,5.81,23.9,6.91,36.1q1.14,12.24,1.39,24.52Z"/><path d="M78.21,141.49a171.41,171.41,0,0,0,33.5,14.1,192.09,192.09,0,0,0,41.07,6.54,22.67,22.67,0,0,0,5.15-.14l.08,1c-1.8-.15-3.51-.17-5.26-.27-19.08-1.23-38.27-4.35-56.06-11.55a177.25,177.25,0,0,1-19-8.81l.49-.87Z"/><path d="M203.22,162.33c15-1.48,30.15-2.49,44.91-5.61a131.46,131.46,0,0,0,23.33-9.21,56.6,56.6,0,0,0,8.73-5l.51.86c-10.58,5.16-21,10.85-32.44,13.84-8.2,1.87-16.62,2.61-24.95,3.57q-10,1-20.06,1.86l0-.32Z"/><path d="M120.08,101.48c2.28-9.68,6.67-19.37,14.33-26,3.17-2.65,6.87-4.56,10.13-7.1A72.85,72.85,0,0,0,159.63,53.8c4.28-5.62,6.35-12.5,8-19.29,2.06-9.15,1.13-18.73-1.51-27.68l1-.28a65.67,65.67,0,0,1,2.48,14c.66,9.51-1.76,19-5.56,27.62-4.3,8.49-11.52,15.12-19.06,20.73-3.25,2.52-7,4.41-10.14,7a39.73,39.73,0,0,0-9.54,12.45,58.48,58.48,0,0,0-4.78,13.19l-.35-.07Z"/><path d="M116.32,89.66c.61-8.25,3-16.29,5.23-24.24a152.09,152.09,0,0,1,8.68-23.27C135.81,31,144.63,21.74,154,13.62c3.25-2.65,6.42-5.41,10.23-7.26l.36.94c-3.6,1.72-6.89,4.47-10,7-9.39,8-18.25,17.05-23.89,28.09a151.14,151.14,0,0,0-8.89,23.12c-2.29,7.91-4.78,15.92-5.47,24.16Z"/><path d="M113.44,123.93A215.88,215.88,0,0,0,108,154.74l-.48,0a227.39,227.39,0,0,1,3.33-23.37c.51-2.58,1-5.14,1.7-7.73l.94.31Z"/><path d="M133.28,142.41c-.68,5.11-1.51,12.6-1.87,17.68h-.48c.21-5.09.83-12.72,1.37-17.85l1,.18Z"/><path d="M226.77,145.05c.39,4.37.83,10.78,1,15.11h-.48c-.19-2.21-.41-5.32-.63-7.5l-.85-7.46,1-.16Z"/><path d="M181.44,174.79s-.72.88-5.15-1.51c-10.74-5.82-19.12-10.59-19.12-10.59L156.9,175s21.66,15.75,24.31,15.75,23-15.75,23-15.75L204,162.77l-11.58,6.75Z"/><path class="cls-3" d="M111.7,199.89s10.23,14.3,13.71,17.61c2.67,2.55,19,16.34,22.49,15.72s24.12-19.77,25.31-21.13a15.77,15.77,0,0,0,1.89-2.85"/><path class="cls-3" d="M185.74,209l1.21,1.8c1.19,1.77,17.22,15.73,18.87,17,3.23,2.45,5.92,6.15,7.78,5.64,3.37-.94,19.28-13,23-16.94S249,199.66,249,199.66"/></g><g id="lines-collar"><path class="cls-2" d="M145.57,183.86a55.89,55.89,0,0,1-31.2,19.71"/><path class="cls-2" d="M149.39,189.31a73.84,73.84,0,0,1-29.76,21.27"/><path class="cls-2" d="M156.33,195.66c-2,3.51-6.94,6.35-13.34,11.4-7,5.52-13.35,9-17.58,10.44"/><path class="cls-2" d="M161.48,200c-1.86,3.88-6.53,8.28-13.33,14.08A62.42,62.42,0,0,1,133,223.91"/><path class="cls-2" d="M168.79,205.79c-4.38,5.36-8.81,9.1-13.84,13.51-4.32,3.79-8,7.59-13.83,10.7"/><path class="cls-2" d="M139.58,182.23s7.31-1.61,9.49,0"/><path class="cls-2" d="M191.35,205.34c4.31,3.6,11,8.77,15.35,12.55,4.8,4.17,9.27,7.28,13.84,11.4"/><path class="cls-2" d="M199.88,200.51c4.23,4.09,9.05,8.37,14.5,12.69,5.06,4,10,7.5,14.61,10.52"/><path class="cls-2" d="M206.13,194.85A131.47,131.47,0,0,0,235,218.31"/><path class="cls-2" d="M210,190.49c4.42,3.66,9.14,7.39,14.15,11.13s11.32,7.36,16,10.5"/><path class="cls-2" d="M214.79,185.88a86.92,86.92,0,0,1,12.33,8c3.41,2.66,5.46,4.69,9.55,7.22a53.3,53.3,0,0,0,8.39,4.22"/><path class="cls-2" d="M214.79,183.23s3.05-2.82,5.29-1.7"/></g></g></svg>