<svg xmlns="http://www.w3.org/2000/svg" viewBox="0 0 629.03 641.77"><defs><style>.cls-1,.cls-2,.cls-4,.cls-7{fill:#fff;}.cls-1,.cls-5,.cls-6,.cls-9{stroke:#000;}.cls-1,.cls-2,.cls-3,.cls-5,.cls-6,.cls-7,.cls-8,.cls-9{stroke-miterlimit:10;}.cls-2{stroke:#fff;}.cls-3{fill:#fdffff;}.cls-3,.cls-7,.cls-8{stroke:#020202;}.cls-5{fill:none;}.cls-6,.cls-9{fill:#fffffd;}.cls-8{fill:#fcfcfc;}.cls-9{stroke-width:0.5px;}</style></defs><g id="Layer_2" data-name="Layer 2"><g id="base"><path class="cls-1" d="M506.5,510.43s-136.08.1-188,.1-203.68,8.68-203.68,8.68c-35.78-36,12.59-65.32,57.49-73.84,22.56-4.27,40.26-6.69,40.26-6.69,10.1-1.12,21.11-1.14,22.81-1.44l77.68,1,77.68-1c1.71.3,10.44.11,15.39.74,0,0,85.94,5.5,102.9,20C546.16,489.7,506.5,510.43,506.5,510.43Z"/><path d="M316.85,180s35.81,1,36.86,2.23S332.48,207,332.48,207Z"/><path id="belt" class="cls-1" d="M390.71,407.17v30.07s-28.83,8.06-77.34,8.13h-.68c-48.51-.07-77.34-8.13-77.34-8.13V407.17Z"/><polygon id="belt-right" class="cls-1" points="374.36 445.12 370.29 445.91 365.46 445.37 365.46 405.97 374.36 405.97 374.36 445.12"/><polygon id="belt-left" class="cls-1" points="251.7 445.12 256.15 445.99 260.6 445.37 260.6 405.97 251.7 405.97 251.7 445.12"/><rect class="cls-1" x="312.55" y="409.84" width="18.51" height="35.54"/><path id="hair-back" class="cls-2" d="M416.08,149s-16.78,10.58-42.24,15.74c-15.43,3.13-92.55,5.72-118,.56s-42.23-15.74-42.23-15.74,8.25-66.84,25.54-99.87,39.23-43.1,50.33-43.1c13.89,0,21,1.7,24.76,3.28,3.43-1.72,10.44-3.84,26-3.84,11.09,0,33,10.06,50.32,43.1S416.08,149,416.08,149Z"/><path class="cls-3" d="M522,249l11.46-20.33a12.88,12.88,0,0,1,10.23-6.51l47.09-3.52a19,19,0,0,0,11.77-5.27l20.34-19.59a6.34,6.34,0,0,1,2.75-1.58c1.05-.27,2.24-.27,2.84.81.92,1.66-15.91,25.2-23.69,35.91A15.21,15.21,0,0,1,594.58,235l-32.36,4.5a11.92,11.92,0,0,0-8.86,6.16l-7,13Z"/><path class="cls-1" d="M397,287.85s49.89,115.93,54.19,120.24,7.54,11.49,21.9,11.49,16.87-10.77,16.51-26.21-17.23-51.32-17.23-51.32-35.53-106.6-43.43-114.86c-3.72-3.89-13.76-7.89-13.76-7.89Z"/><path class="cls-1" d="M458.71,405.48a15.2,15.2,0,0,0,16.22,11.4c11.17-1.15,14.56-6,23.27-19.2,10.41-15.79,22.62-53.48,26.92-63.89s24.77-77.16,24.77-77.16l-28.72-9.34-59.94,125a45.64,45.64,0,0,0-3.06,31Z"/><path class="cls-3" d="M107,248.71,95.56,228.38a12.85,12.85,0,0,0-10.23-6.5l-47.09-3.52a19,19,0,0,1-11.77-5.27L6.12,193.49a6.25,6.25,0,0,0-2.74-1.58c-1-.27-2.25-.27-2.84.81-.93,1.66,15.91,25.2,23.69,35.91a15.22,15.22,0,0,0,10.22,6.14l32.35,4.5a11.94,11.94,0,0,1,8.87,6.16l7,13Z"/><path d="M310.41,181.21s-35.81,1-36.86,2.14S294.78,207,294.78,207Z"/><path class="cls-1" d="M232,287.6s-49.89,115.93-54.2,120.23-7.53,11.49-21.89,11.49-16.87-10.77-16.51-26.2,17.23-51.33,17.23-51.33,35.53-106.6,43.43-114.85c3.72-3.89,13.76-7.9,13.76-7.9Z"/><path class="cls-1" d="M170.31,405.22a15.18,15.18,0,0,1-16.21,11.4c-11.18-1.15-14.56-6-23.28-19.19-10.4-15.8-22.61-53.48-26.91-63.89s-24.77-77.17-24.77-77.17L107.85,247l60,125a45.61,45.61,0,0,1,3.06,31Z"/><g id="torso-right"><path class="cls-4" d="M318.47,212.13V419.75l9,.25s43.66,2.07,76.74-7.12l1.15-118.33s5.12-35.84,24.19-66.39c0,0-32.69-19.31-69.68-36.77l-41.45,20.74"/><path d="M319,212.13c-.08,0,.61,209.68-.49,207.12,28.64,1.05,57.81.51,85.65-6.85l-.37.48.42-29.58c.25-18.67.81-69.43,1-88.77a207.79,207.79,0,0,1,15.71-50.86,167.71,167.71,0,0,1,8.25-15.78l.17.7q-34-19.77-69.64-36.74c2.16-.57-41.52,20.85-41,20.73l-.45-.9c.27,0,41.44-20.8,41.67-20.84,6,2.86,12,5.75,17.94,8.75q26.41,13.29,52,28.14l.45.25-.28.44c-12.78,19.93-20.42,42.92-24.41,66.16,0-.13-.5,59.17-.48,59.14-.13,14.71-.3,44.45-.37,59.17v.37l-.37.1c-13.95,3.81-28.34,5.6-42.72,6.58a402,402,0,0,1-43.22.31H318v-.49c1-.31-1.86-209.41,1-207.62Z"/></g><g id="torso-left"><path class="cls-4" d="M309.84,211.87V419.75h-9.06s-43.65,2.07-76.74-7.12L222.89,294.3s-5.11-35.84-24.18-66.4c0,0,32.69-19.3,69.68-36.76l41.45,20.73"/><path d="M310.34,211.87c-.5.51,1,208.91-.5,208.38-7.14-.14-14.49.26-21.6.19-21.73-.21-43.63-1.73-64.7-7.43-.09,0-.9-118.61-1-118.71-4-23-11.7-46.19-24.29-66.13l-.27-.44.44-.26q25.58-14.86,52-28.14c5.93-3,11.93-5.89,17.93-8.75.21,0,41.45,20.82,41.67,20.85l-.45.89c.51.09-43.18-21.25-41-20.73-23.71,11.26-46.94,23.57-69.64,36.74l.17-.69c1.52,2.55,3,5.12,4.38,7.76a196,196,0,0,1,15.94,41.45c1.51,5.75,2.83,11.54,3.77,17.42-.17-.45,1.88,120.48,1,117.87,20.81,5.59,42.57,7.1,64.07,7.3,7.1.07,14.47-.31,21.59-.19-1.3,3.17-.11-208.09-.5-207.38Z"/></g><g id="ear-right"><path class="cls-4" d="M369.4,105.26s3.27-4.63,9.89-2.82,5.61,17,4.81,20.38c-2.32,9.81-6.33,12.13-11.29,13.42s-10.9,0-10.9,0Z"/><path d="M368.94,105.05a9.48,9.48,0,0,1,9.37-3.28c5.29.73,6.3,7,6.66,11.38.45,6.56-.45,13.62-4.53,19-4.47,5.45-12.21,5.41-18.63,4.6l-.51-.1.13-.5,7.51-31.08Zm.91.42-7.45,30.89a7,7,0,0,1-.37-.6c7.25,1.93,16.81.35,19.84-7.35a30.34,30.34,0,0,0,2.31-15.21c-.38-4-1.17-9.93-6-10.56a8.73,8.73,0,0,0-8.31,2.83Z"/></g><g id="ear-left"><path class="cls-4" d="M263.08,105.26s-3.28-4.63-9.9-2.82-5.61,17-4.81,20.38c2.32,9.81,6.33,12.13,11.29,13.42s10.9,0,10.9,0Z"/><path d="M262.62,105.47a8.74,8.74,0,0,0-8.28-2.67c-4.71.69-5.42,6.44-5.82,10.42a31.35,31.35,0,0,0,2.19,15.13c2.88,7.71,12.58,9.57,19.74,7.41,0,0-.38.6-.38.6l-7.45-30.89Zm.91-.42,7.52,31.08.12.51-.5.09c-6.44.62-14.14.86-18.69-4.56-4.18-5.34-5.18-12.44-4.71-19,.34-4.4,1.44-10.85,6.86-11.52a9.49,9.49,0,0,1,9.4,3.44Z"/></g><g id="neck"><path class="cls-4" d="M345.24,195.28,316.58,214l-.38.24-.38-.24-28.65-18.67a13,13,0,0,0,4.61-7.74c1.2-5.42,1-29.43,1-29.43h46.84s-.19,24,1,29.43A13,13,0,0,0,345.24,195.28Z"/><path d="M345.74,195.28c-9.76,6.5-19.65,13.09-29.54,19.5l-.26-.17-29.05-18.92-.61-.39c4.33-2.79,5.58-8.19,5.7-13.06.31-4.82.4-9.65.48-14.47a93.08,93.08,0,0,0-.22-10.16h47.88v.5a79.9,79.9,0,0,0-.24,9.66c.07,4.83.14,9.66.48,14.47.22,3.16.49,6.4,2.16,9.15a11.78,11.78,0,0,0,3,3.44.59.59,0,0,1,.27.45Zm-1,0a.44.44,0,0,0,.16.38l0,0-.06,0-.13-.1c-5.26-4.43-4.89-11.79-5.12-18-.29-6.45.06-12.89-.45-19.34l.5.51H292.78l.5-.51c-.24,3.23-.18,6.45-.2,9.67,0,4.84-.09,9.68-.36,14.51s-1.14,10.14-5.27,13.41v-.83l29,18.9h-.54c9.57-6.24,19.12-12.33,28.81-18.49Z"/></g><rect class="cls-1" x="306.72" y="211.4" width="20.27" height="208.35"/><g id="face"><path class="cls-4" d="M364.62,140.51C362.11,151.25,323.26,172,317.37,175a19.58,19.58,0,0,1-2,0c-5.89-3-45-23.73-47.49-34.47C265.14,128.89,257.79,101,260.11,89s3.66-19.13,6.19-26.32c3.68-10.45,6-14.13,13.94-20.13,11.87-9,27.3-7.84,36-7.41,8.7-.43,24.13-1.56,36,7.41,7.93,6,11.12,10.41,14.39,18.45,5.54,13.61,5.44,23.74,5.74,28C373.3,102.52,367.33,128.89,364.62,140.51Z"/><path d="M365.14,140.63c-3,9.71-25.67,22.05-34.66,27.43-4.34,2.44-8.67,4.88-13,7.41a9,9,0,0,1-2.43-.1l-.08-.05-.18-.09-.71-.38c-6-3.33-13.43-7.49-19.41-10.94-7.32-4.28-14.57-8.81-21-14.54-2.36-2.21-4.78-4.55-6.14-7.59-1.44-5.19-2.41-10.34-3.62-15.58-2.28-11.4-5.08-23-4.57-34.68.67-5.28,1.89-10.45,2.92-15.67,1.82-8.3,4.06-16.63,8.32-24.07A38.23,38.23,0,0,1,290.9,36.7c8.12-2.64,17.16-2.52,25.31-2.06a91.17,91.17,0,0,1,17.86.28,41.38,41.38,0,0,1,29.6,18.6A72.45,72.45,0,0,1,373,87.83c.64,17.87-4.1,35.49-7.89,52.8Zm-1-.25c3.64-17.27,8.22-34.72,7.47-52.48-.52-11.69-3.23-23.49-9-33.7-3-5-7.52-8.93-12.3-12.27A38.8,38.8,0,0,0,333.91,36a89.38,89.38,0,0,0-17.7-.36c-12.4-.87-26-.42-36.16,7.58a33.68,33.68,0,0,0-8.69,9,60.11,60.11,0,0,0-5,11.56A111.22,111.22,0,0,0,263.09,76c-1.13,6.2-3,12.38-3,18.71.48,15.83,4.84,31.33,8.73,46.58,3.53,6.41,10.14,10.44,15.88,14.76a230.33,230.33,0,0,0,29.88,18l.7.35.18.09.09,0,0,0-.08,0h.32c.52,0,1.05,0,1.57-.05l-.21.05a140.77,140.77,0,0,0,13.09-6.9c8.56-5.17,30.88-18.18,33.87-27.25Z"/></g><path id="collar-right" class="cls-1" d="M333.31,201.59,320.11,210c-1.68,1.17,0,2.87,1.47,4.29l23.33,20.65a5.48,5.48,0,0,0,6.74.68c5.35-3.4,15.25-9.94,20.72-15.13,7.74-7.36,15.09-19.55,15.09-19.55l-15.16-7.58a37.32,37.32,0,0,1-5.89-3.66s-7.69-7.35-10.69-8.12a53.07,53.07,0,0,0-15.43-1.48l.07,2.19c1.75-.13,10.73.29,10.91,1.62C351.65,186.76,338.2,197.7,333.31,201.59Z"/><path id="collar-left" class="cls-1" d="M299.16,201.59l13.2,8.36c1.68,1.17,0,2.87-1.47,4.29l-23.33,20.65a5.48,5.48,0,0,1-6.74.68c-5.35-3.4-15.25-9.94-20.72-15.13-7.74-7.36-15.09-19.55-15.09-19.55l15.16-7.58a37.32,37.32,0,0,0,5.89-3.66s7.69-7.35,10.69-8.12a50,50,0,0,1,15.21-1.4v2c-2.32-.09-10.57.35-10.75,1.73C280.82,186.76,294.27,197.7,299.16,201.59Z"/><path d="M318.84,143.63a.77.77,0,0,1,.75-.77l4.3-.17,4.65-.37a.78.78,0,0,1,.84.78v0a.78.78,0,0,1-.72.78l-5.17.39-3.84.12A.79.79,0,0,1,318.84,143.63Z"/><path d="M313.63,143.63a.77.77,0,0,0-.75-.77l-4.3-.17-4.65-.37a.77.77,0,0,0-.83.78v0a.78.78,0,0,0,.72.78l5.17.39,3.84.12A.78.78,0,0,0,313.63,143.63Z"/><path d="M299.41,103.54a16,16,0,0,1-22.86,0c-.91-.93-1-2.24-.27-2.72h0a2,2,0,0,1,2.48.55,12.92,12.92,0,0,0,18.44,0,2.06,2.06,0,0,1,2.49-.55h0C300.39,101.3,300.33,102.61,299.41,103.54Z"/><rect class="cls-5" x="279.09" y="105.32" width="0.9" height="6.22" rx="0.45" transform="translate(91.67 -125.25) rotate(30)"/><rect class="cls-5" x="287.53" y="106.73" width="0.9" height="6.22" rx="0.45"/><rect class="cls-5" x="296.2" y="105.66" width="0.9" height="6.22" rx="0.45" transform="translate(607.95 54.65) rotate(150)"/><path d="M355.74,103.84a16,16,0,0,1-22.86,0c-.92-.93-1-2.24-.28-2.72h0a2.06,2.06,0,0,1,2.49.55,12.94,12.94,0,0,0,18.44,0,2,2,0,0,1,2.48-.55h0C356.72,101.6,356.65,102.91,355.74,103.84Z"/><rect class="cls-5" x="335.42" y="105.62" width="0.9" height="6.22" rx="0.45" transform="translate(99.36 -153.37) rotate(30)"/><rect class="cls-5" x="343.86" y="107.03" width="0.9" height="6.22" rx="0.45"/><rect class="cls-5" x="352.53" y="105.96" width="0.9" height="6.22" rx="0.45" transform="translate(713.2 27.04) rotate(150)"/><path d="M322,127a9.89,9.89,0,0,1-11.77,0,1.14,1.14,0,0,1-.39-1.66h0a1.27,1.27,0,0,1,1.58.05,7.88,7.88,0,0,0,9.39,0,1.25,1.25,0,0,1,1.57-.05h0C322.74,125.76,322.59,126.56,322,127Z"/><path d="M319.92,152.65h-7.86a.73.73,0,0,1-.73-.73.73.73,0,0,1,.73-.72h7.86a.72.72,0,0,1,.72.72A.73.73,0,0,1,319.92,152.65Z"/><path class="cls-4" d="M312.69,445.37l.13,12.29a162.85,162.85,0,0,0,1.39,16.57c.48,3.84-2.13,9.5-1.18,13.63s0,11.51,0,15.22"/><path d="M313.19,445.37a196.13,196.13,0,0,0,1.26,28.88c.21,3.71-1.08,7.17-1.21,10.8a16.11,16.11,0,0,0,.26,3.52c.5,4.88-.07,9.73,0,14.51h-1c.21-3.66.69-7.21.67-10.85.19-2.47-1-4.76-.74-7.22.22-3.61,1.86-7.07,1.53-10.7-1.41-9.44-1.62-19.39-1.8-28.93Z"/><path class="cls-4" d="M331.06,445.57l.14,12.7a162.85,162.85,0,0,0,1.39,16.57c.48,3.84-2.13,9.5-1.18,13.63s0,11.51,0,15.23"/><path d="M331.56,445.56a200.65,200.65,0,0,0,1.11,29.11c.37,4.87-2.16,9.6-1,14.44.65,4.86.09,9.78.24,14.59h-1c.26-4.87,1.27-9.71.49-14.55a10.64,10.64,0,0,1-.32-3.65c.23-3.63,1.83-7.15,1.39-10.8-1.46-9.5-1.69-19.52-1.91-29.13Z"/></g><g id="eyebrows"><path d="M299.7,92.39a26,26,0,0,0-24,0,.58.58,0,0,1-.78-.21h0a.56.56,0,0,1,.27-.76,27,27,0,0,1,25,0,.56.56,0,0,1,.27.76h0A.57.57,0,0,1,299.7,92.39Z"/><path d="M356.29,92.39a26,26,0,0,0-24,0,.58.58,0,0,1-.78-.21h0a.57.57,0,0,1,.28-.76,27,27,0,0,1,25,0,.56.56,0,0,1,.27.76h0A.57.57,0,0,1,356.29,92.39Z"/></g><g id="Layer_26" data-name="Layer 26"><path class="cls-4" d="M304.62,7.25c-.79.85.77,27.35,5.67,29.67s11.1,5.17,16.78,16.26S337.47,78,337.3,78.73s7-7.14,12.17-19.3c2.7-6.41,6.28-14.93,4.84-31.44A29.08,29.08,0,0,0,340.82,5.28C334.7.94,329.37.51,321.27.51,319.2.51,310.55.79,304.62,7.25Z"/><path d="M305,7.57a80.64,80.64,0,0,0,.59,12.33,68.25,68.25,0,0,0,2.35,12.42c.68,1.91,1.35,4,3.45,4.71a30.87,30.87,0,0,1,14.12,12.71,103.21,103.21,0,0,1,5.67,11.45,136,136,0,0,1,6.39,17.23v.34s0,0,0-.11a.24.24,0,0,0-.21-.13c-.12,0-.06,0-.07,0,4.45-4.61,7.64-10.44,10.38-16.19,3.55-7.66,6.19-15.78,6.37-24.27.63-13.51-1.95-25.13-14.11-32.76C334.71,1.55,328.16,1,321.92,1,315.73.9,309.22,2.94,305,7.57Zm-.71-.65c4.46-4.86,11.21-7,17.66-6.91,6.41-.1,13.21.56,18.58,4.4C353,12.27,355.79,24.13,355.14,38.1c-.2,8.62-2.81,17-6.64,24.63a68.81,68.81,0,0,1-10.63,16c-.14.08-.26.31-.53.34a.31.31,0,0,1-.3-.38v0c-1.56-5.92-4-11.58-6.41-17.21A103.83,103.83,0,0,0,325,50.05a30.62,30.62,0,0,0-8.42-9.27c-2.16-1.63-4.63-2.53-7-3.9a10.21,10.21,0,0,1-2.39-4.31A68.86,68.86,0,0,1,304.7,20,75.15,75.15,0,0,1,304,7.55a1.45,1.45,0,0,1,.22-.63Z"/><path class="cls-4" d="M304.62,7.25C311.46,9.94,313,19,313.06,29a57.85,57.85,0,0,1-6.61,25.08c-3.11,6.08-6.93,9.87-9.24,12.6-4.64,5.46-11.6,10.86-16.91,14.7a82.87,82.87,0,0,0-13.68,12.13l-6.73,8.73a37,37,0,0,0-4-.53,20.63,20.63,0,0,0-3,.29c-1.29-2.58-2.24-43.39,6.3-62.38,6.3-14,14.34-23.49,23.57-28.71C288.17,7.86,299.76,5.33,304.62,7.25Z"/><path d="M304.73,7c8.7,3.64,9,16.08,8.91,24.17a60.08,60.08,0,0,1-8,25.72c-6.06,9.54-14.52,17.33-23.63,23.87a87.86,87.86,0,0,0-15.22,13c-2.19,2.8-4.59,5.76-6.85,8.61l-.05,0h-.06a17.13,17.13,0,0,0-7-.06l-.24,0-.08-.21a8.47,8.47,0,0,1-.42-2,174.78,174.78,0,0,1,0-29c.87-10.3,2.08-20.72,5.9-30.42C264.17,26.82,274,12.3,289.31,8c5-1.26,10.38-2.55,15.42-1Zm-.22.56c-4.88-1.46-10.21-.17-15,1.08-15,4.43-24.33,18.94-30.31,32.57-3.7,9.54-5,19.89-5.91,30q-.65,7.68-.77,15.4c0,5.06-.3,10.3.64,15.27l-.32-.17a16,16,0,0,1,7,.47c2.21-3,4.38-5.92,6.6-8.85A83.13,83.13,0,0,1,276.12,84c7-5.48,14.47-10.56,20.28-17.33a57.22,57.22,0,0,0,15.94-35.63c.14-7.76.55-19.89-7.83-23.53Z"/><circle class="cls-6" cx="316.71" cy="224.4" r="5.1"/><circle class="cls-6" cx="316.71" cy="407.17" r="5.1"/><circle class="cls-6" cx="316.71" cy="371.99" r="5.1"/><circle class="cls-6" cx="316.71" cy="334.77" r="5.1"/><circle class="cls-6" cx="316.71" cy="294.13" r="5.1"/><circle class="cls-6" cx="316.71" cy="260.31" r="5.1"/><path d="M261.54,133.86a309.57,309.57,0,0,0,0,31.66h-1a304,304,0,0,0,0-31.66Z"/><polygon class="cls-7" points="268.99 177.45 263.29 175.58 258.52 179.22 258.54 173.22 253.6 169.81 259.31 167.97 261.04 162.22 264.55 167.09 270.55 166.95 267.01 171.79 268.99 177.45"/><path d="M372.53,132.79c-.55,10.55-.49,21.12,0,31.66h-1c.49-10.54.55-21.11,0-31.66Z"/><path class="cls-8" d="M373.94,164.32a9.09,9.09,0,0,0-2.6-.41,9,9,0,0,1-5.06,15.82,8.55,8.55,0,0,0,3.24,1.42,8.71,8.71,0,0,0,4.42-16.83Z"/><circle class="cls-6" cx="321.81" cy="432.56" r="6.29"/><circle class="cls-9" cx="321.81" cy="432.56" r="4.53"/><rect class="cls-6" x="84.38" y="269.54" width="34.45" height="5.01" rx="1.98" transform="translate(-83.52 48.3) rotate(-19.12)"/><rect class="cls-6" x="510.35" y="269.37" width="34.45" height="5.01" rx="1.98" transform="translate(936.97 701.6) rotate(-160.88)"/></g><g id="legs"><path class="cls-1" d="M448.59,505.44l-13.54,56.92s14.32,3.12,19,4.75c11.72,4.09-3.84,23.93-4.14,40-.41,21.32,20.63,27.88,33.24,22.21l10.12,1c13.22-15.19,9.55-54.39,12.91-62.19,7.4-17.22,13.46-34.84,9.32-50.13-.15-.58-4.6-1.77-9.84-2.8-.67-.13-10.39-5.27-14.72-6-22.19-3.76-29.26-3.18-29.26-3.18Z"/><path class="cls-1" d="M483.12,629.32s7.79-17.56,7.79-26.33,2.55-24.8,4.1-32.48,4.59-14.65,8.8-28.94c2.09-7.11,2.52-27.29,2.52-27.29"/><path class="cls-4" d="M447.66,568.35,130,525.22a31.09,31.09,0,0,1-27.45-34.35l0-.25c1.91-17.07,23-30.5,40.09-28.59l324.64,53.42s-5.94,16.39-10.53,28.64Z"/><path d="M447.92,568.78C364,557.22,209.54,536.32,127.24,524.9c-18.1-3.5-29.77-23.28-23.15-40.66,6.17-14.33,22.94-23.57,38.33-22.29l34.8,5.74c1.8.25,4.07.85,5.85.61a49.43,49.43,0,0,1,5.83.8c82.67,13.57,195.81,32.07,278.45,45.85l.6.1-.21.57c-5.54,15.21-14.06,38.24-19.82,53.16Zm-.52-.86,19.4-52.64.39.66c-82.74-13.44-195.75-32.15-278.44-45.79l-2.9-.48c-2-.11-3.78-1.17-5.73-1.45l-37.72-6.16c-17.58-1.6-39.26,12-39.91,30.8-.92,14.93,10.11,29,24.8,31.8,81.62,11.25,237,32,320.11,43.26Z"/><path class="cls-1" d="M187,515.45l13.54,56.92s-14.32,3.12-19,4.74c-11.72,4.1,3.84,23.93,4.14,40,.41,21.31-20.63,27.87-33.24,22.21l-10.12,1c-13.22-15.19-9.55-54.4-12.91-62.19-7.4-17.22-13.46-34.84-9.32-50.13.15-.58,4.6-1.77,9.84-2.8.67-.13,10.39-5.27,14.72-6C166.88,515.45,174,516,174,516Z"/><path class="cls-1" d="M152.48,639.33s-7.79-17.56-7.79-26.34-2.55-24.79-4.1-32.48-4.59-14.64-8.8-28.94c-2.09-7.1-2.52-27.28-2.52-27.28"/><path class="cls-4" d="M500.4,514.73l-310,63.63c-.23,1.41-7.37-25.13-9.81-34.79s-7.53-29.17-7-31l315-59.17a31.22,31.22,0,0,1,36.55,24.76h0A31.21,31.21,0,0,1,500.4,514.73Z"/><path d="M500.5,515.21c-.1,0-312.67,64.29-310.42,63.63a1.24,1.24,0,0,1-.43-.64l-.19-.52-.35-1c-3-10-5.87-20.7-8.48-30.78-2.23-9.56-6.32-23.13-7.58-32.74,0-.31.08-.65.1-1l.35-.06c78.36-15,171.1-32.23,249.68-47,7.56-1.45,15.14-2.83,22.76-3.93,13-1.95,26.81-4.85,39.78-7.21a42,42,0,0,1,10-1l1.44.08c.6,0,1.2.19,1.79.16a4,4,0,0,0,.4-.22c.28-.18.51-.05.75,0,17.32,2.88,29.28,20.61,25.5,37.57a31.87,31.87,0,0,1-25.12,24.74Zm-.19-1c16.66-3.09,27.59-19.84,24.31-36a30.9,30.9,0,0,0-21.91-23.79,23.51,23.51,0,0,0-2.76-.64c-.23-.05-.48,0-.68-.26a2.46,2.46,0,0,0-.31-.33,14.19,14.19,0,0,0-3.22-.35,41.83,41.83,0,0,0-10,1c-13,2.54-26.85,4.8-39.68,7.72s-32.13,6.31-45.34,8.87c-70.29,13.22-157,29.62-227,42.53l.38-.34a2.3,2.3,0,0,1,0,.37l0,.5c1.37,9.21,5.31,22.81,7.5,32,2.59,10,5.46,20.77,8.46,30.73l.34,1,.18.48c0,.07.06.15.09.21l0,0-.06-.07-.06,0c-3.85.35,310.12-63.66,309.74-63.71Z"/></g><g id="white"><path class="cls-4" d="M122.18,465.64c-1.91,1.39-1.29.91-2.52,1.81-1,.77-1.73,1.4-3.85,3.16l63.05,5,3.51-14.32-48.22-.84S124.09,464.24,122.18,465.64Z"/><path class="cls-4" d="M507.39,457.21c1.91,1.4,1.29.91,2.52,1.82,1,.76,1.74,1.39,3.85,3.16l-63.05,5-3.5-14.32,48.21-.84S505.48,455.82,507.39,457.21Z"/><path class="cls-4" d="M154.33,347l1.78-2.22,17.94,37-.78,23.43-5,7.14-6,4.69-7.91,1.13s-6.1-.91-8.35-2.23c-2-1.18-6.57-7.83-6.57-7.83Z"/><path class="cls-4" d="M474.7,347l-1.79-2.22L455,381.7l.78,23.43,5,7.14,6,4.69,7.91,1.13s6.1-.91,8.35-2.23c2-1.18,6.57-7.83,6.57-7.83Z"/></g><g id="lines-arm-left"><path class="cls-5" d="M423.91,238.17S468,354.57,469,356.18c1.4,2.39,4.5,7.19,8.37,2.35s39.48-87.72,39.48-87.72"/><path class="cls-5" d="M417.34,252.5l28,75.87s11.81,30.38,20.25,43.62c4.78,7.48,12,6.34,18.4-1.61,3-3.7,42.48-96.23,42.48-96.23"/><path class="cls-5" d="M410.62,271.88S456.79,380.5,461.85,387c3.1,3.95,10.89,8.78,18.07,2.07,20.3-19,52.38-112.85,52.38-112.85"/><path class="cls-5" d="M406.1,290.58s43,109.54,58.08,113.41c12.38,3.18,19.26-1.92,23.74-6.46,5.44-5.5,51.47-118.9,51.47-118.9"/><line class="cls-5" x1="518.81" y1="266.19" x2="526.47" y2="249.01"/><line class="cls-5" x1="528.29" y1="269.47" x2="534.59" y2="251.65"/><line class="cls-5" x1="533.82" y1="271.39" x2="539.91" y2="253.38"/><line class="cls-5" x1="540.87" y1="273.84" x2="546.96" y2="255.67"/></g><g id="lines-arm-right"><path class="cls-5" d="M205,238.32s-44.12,116.4-45.06,118c-1.4,2.39-4.5,7.19-8.37,2.35S112,271,112,271"/><path class="cls-5" d="M211.52,252.64l-28,75.88s-11.81,30.38-20.26,43.62c-4.77,7.48-11.94,6.33-18.39-1.61-3-3.71-42.48-96.23-42.48-96.23"/><path class="cls-5" d="M218.23,272S172.06,380.64,167,387.1c-3.09,3.95-10.89,8.77-18.06,2.06-20.3-19-52.39-112.84-52.39-112.84"/><path class="cls-5" d="M222.76,290.73s-43,109.53-58.08,113.4c-12.39,3.19-19.26-1.91-23.74-6.45-5.44-5.51-51.47-118.9-51.47-118.9"/><line class="cls-5" x1="110.05" y1="266.33" x2="102.39" y2="249.16"/><line class="cls-5" x1="100.57" y1="269.62" x2="94.27" y2="251.8"/><line class="cls-5" x1="95.04" y1="271.54" x2="88.94" y2="253.53"/><line class="cls-5" x1="87.99" y1="273.98" x2="81.9" y2="255.82"/></g><g id="lines-torso"><line class="cls-5" x1="300.21" y1="223.69" x2="300.78" y2="419.75"/><line class="cls-5" x1="289.42" y1="233.24" x2="288.43" y2="419.32"/><line class="cls-5" x1="275.18" y1="231.89" x2="279.03" y2="419.32"/><line class="cls-5" x1="266.81" y1="225.98" x2="267.61" y2="419.75"/><line class="cls-5" x1="260.1" y1="220.44" x2="259.17" y2="418.6"/><line class="cls-5" x1="252.21" y1="211.4" x2="251.7" y2="417.82"/><line class="cls-5" x1="243.34" y1="203.5" x2="243.34" y2="416.96"/><line class="cls-5" x1="229.98" y1="211.4" x2="233.8" y2="414.97"/><line class="cls-5" x1="221.47" y1="214.19" x2="222.89" y2="294.3"/><line class="cls-5" x1="209.51" y1="221.71" x2="210.13" y2="250.22"/><line class="cls-5" x1="335.87" y1="226.89" x2="335.87" y2="420.19"/><line class="cls-5" x1="344.91" y1="234.89" x2="345.24" y2="419.32"/><line class="cls-5" x1="355.61" y1="233.47" x2="355.61" y2="419.32"/><line class="cls-5" x1="365.46" y1="226.13" x2="366.29" y2="419.1"/><line class="cls-5" x1="374.34" y1="219.04" x2="373.15" y2="419.32"/><line class="cls-5" x1="382.65" y1="208.22" x2="382.49" y2="416.95"/><line class="cls-5" x1="393.5" y1="208.2" x2="390.71" y2="415.96"/><line class="cls-5" x1="404.17" y1="213.9" x2="400.66" y2="413.82"/><line class="cls-5" x1="415.17" y1="219.3" x2="411.68" y2="268.39"/><line class="cls-5" x1="423.09" y1="224.4" x2="423.43" y2="239.1"/></g><g id="patch"><path class="cls-1" d="M366.32,300.23s-3.79,3.21,1.05,2.95,9.22-1.81,12.45-6.83c2.27-3.55,3.61-7,2.32-6.85a13.31,13.31,0,0,0-3.67,1.53"/><path class="cls-1" d="M353.69,289.4l-2.34,1.42a9.18,9.18,0,0,0,2.07,5.07,11,11,0,0,0,3.74,3.34l2.72-2.14"/><path class="cls-1" d="M374,274.41l2-1.85a9.18,9.18,0,0,1,4.28,3.4,11.16,11.16,0,0,1,2.16,4.54l-2.82,2"/><circle class="cls-1" cx="366.61" cy="285.64" r="13.59"/><circle cx="367.32" cy="284.75" r="9.39"/><circle class="cls-4" cx="370.3" cy="280.57" r="1.94"/></g><g id="lines"><path d="M227,149.11c2.8-15.32,5.6-30.64,9.09-45.82s8.85-30.09,17.34-43.21l.84.54c-13.84,19.18-18,42.91-22.32,65.66-1.45,7.64-2.73,15.32-4,23l-1-.17Z"/><path d="M306.45,5c9.61.43,19.89,1.88,27.72,7.88,7.13,5.72,9,15,9.17,23.65a94.93,94.93,0,0,1-1.15,18.29c-1.17,8.06-2.8,16-4.71,23.95l-.36-.08c3.6-16.48,10.06-44.36,1.43-59.56C334.36,12,326.28,8.76,318.48,7.27a71.59,71.59,0,0,0-12-1.27V5Z"/><path d="M353.26,20.7a117.42,117.42,0,0,1,24.29,26c6.73,9.85,10.26,21.43,14.05,32.62,4.12,11.16,6.21,22.94,8.19,34.61s3.51,23.46,4.84,35.26l-1,.1c-2.81-23.43-5-47.33-12.64-69.77C387.24,68.32,383.76,56.77,377.1,47a98.94,98.94,0,0,0-24.41-25.44l.57-.82Z"/><path d="M388.7,155.34c-.27-16.29-1.17-32.72-4.5-48.69-3.49-14.91-9.89-29-16.42-42.78l-.67-1.38-.34-.68c-.13-.22-.15-.5-.59-.56l.89-.46c-.2.39,0,.57.11.81l.34.69.68,1.37a284.4,284.4,0,0,1,13.2,31.05c4.16,11.59,5.82,23.9,6.92,36.1q1.13,12.24,1.38,24.52Z"/><path d="M213.84,141.49a171.67,171.67,0,0,0,33.5,14.1,192.19,192.19,0,0,0,41.07,6.54,22.78,22.78,0,0,0,5.16-.14l.08,1c-1.81-.15-3.52-.17-5.27-.27-19.08-1.23-38.26-4.35-56.06-11.55a178.16,178.16,0,0,1-19-8.81l.49-.87Z"/><path d="M338.85,162.33c15-1.48,30.15-2.49,44.91-5.61a131.85,131.85,0,0,0,23.34-9.21,57,57,0,0,0,8.72-5l.51.86c-10.57,5.16-21,10.85-32.44,13.84-8.2,1.87-16.61,2.61-24.95,3.57q-10,1-20.06,1.86l0-.32Z"/><path d="M255.71,101.48c2.28-9.68,6.68-19.37,14.34-26,3.17-2.65,6.87-4.56,10.12-7.1a73.15,73.15,0,0,0,15.1-14.61c4.27-5.62,6.35-12.5,8-19.29,2-9.15,1.12-18.73-1.52-27.68l1-.28a65.67,65.67,0,0,1,2.48,14c.66,9.51-1.75,19-5.55,27.62-4.31,8.49-11.52,15.12-19.06,20.73-3.26,2.52-7,4.41-10.14,7a39.58,39.58,0,0,0-9.54,12.45,58.5,58.5,0,0,0-4.79,13.19l-.35-.07Z"/><path d="M252,89.66c.61-8.25,3-16.29,5.23-24.24a153.15,153.15,0,0,1,8.68-23.27c5.59-11.19,14.4-20.41,23.78-28.53,3.24-2.65,6.42-5.41,10.23-7.26l.35.94c-3.6,1.72-6.89,4.47-10,7-9.38,8-18.25,17.05-23.89,28.09a151.14,151.14,0,0,0-8.89,23.12c-2.29,7.91-4.77,15.92-5.47,24.16Z"/><path d="M249.08,123.93a215.9,215.9,0,0,0-5.5,30.81l-.48,0a224.7,224.7,0,0,1,3.34-23.37c.5-2.58.95-5.14,1.69-7.73l1,.31Z"/><path d="M268.91,142.41c-.68,5.11-1.5,12.6-1.86,17.68h-.48c.21-5.09.83-12.72,1.36-17.85l1,.18Z"/><path d="M362.41,145.05c.38,4.37.82,10.78,1,15.11h-.48c-.19-2.21-.41-5.32-.63-7.5l-.85-7.46,1-.16Z"/><path d="M317.07,174.79s-.72.88-5.14-1.51c-10.75-5.82-19.12-10.59-19.12-10.59L292.54,175s21.65,15.75,24.3,15.75,23-15.75,23-15.75l-.21-12.24L328,169.52Z"/><path class="cls-5" d="M247.34,199.89s10.22,14.3,13.7,17.61c2.67,2.55,19,16.34,22.49,15.72s24.12-19.77,25.31-21.13a16.13,16.13,0,0,0,1.9-2.85"/><path class="cls-5" d="M321.38,209l1.21,1.8c1.19,1.77,17.21,15.73,18.86,17,3.23,2.45,5.93,6.15,7.79,5.64,3.36-.94,19.27-13,23-16.94s12.43-16.83,12.43-16.83"/></g><g id="lines-collar"><path class="cls-1" d="M281.21,183.86A56,56,0,0,1,250,203.57"/><path class="cls-1" d="M285,189.31a73.64,73.64,0,0,1-29.76,21.27"/><path class="cls-1" d="M292,195.66c-2,3.51-6.94,6.35-13.33,11.4-7,5.52-13.35,9-17.59,10.44"/><path class="cls-1" d="M297.11,200c-1.85,3.88-6.52,8.28-13.32,14.08a62.44,62.44,0,0,1-15.19,9.88"/><path class="cls-1" d="M304.42,205.79c-4.37,5.36-8.81,9.1-13.83,13.51-4.32,3.79-8,7.59-13.84,10.7"/><path class="cls-1" d="M275.22,182.23s7.3-1.61,9.48,0"/><path class="cls-1" d="M327,205.34c4.3,3.6,11,8.77,15.34,12.55,4.81,4.17,9.28,7.28,13.85,11.4"/><path class="cls-1" d="M335.51,200.51c4.23,4.09,9.06,8.37,14.5,12.69,5.07,4,10,7.5,14.61,10.52"/><path class="cls-1" d="M341.77,194.85a131.47,131.47,0,0,0,28.82,23.46"/><path class="cls-1" d="M345.63,190.49c4.43,3.66,9.14,7.39,14.16,11.13s11.31,7.36,16,10.5"/><path class="cls-1" d="M350.42,185.88a87.13,87.13,0,0,1,12.34,8c3.41,2.66,5.45,4.69,9.54,7.22a53.3,53.3,0,0,0,8.39,4.22"/><path class="cls-1" d="M350.42,183.23s3.06-2.82,5.3-1.7"/></g></g></svg>