<?xml version="1.0" encoding="UTF-8"?><svg xmlns="http://www.w3.org/2000/svg" viewBox="0 0 359.98 551.99"><defs><style>.ad,.ae,.af,.ag,.ah{fill:#fff;}.ae{stroke-width:1.5px;}.ae,.ai,.aj,.ak,.al,.af,.ag,.ah{stroke-miterlimit:10;}.ae,.ai,.aj,.ak,.af{stroke:#000;}.ai{fill:none;}.aj{stroke-width:.5px;}.aj,.ak{fill:#fffffd;}.al{fill:#fcfcfc;}.al,.ah{stroke:#020202;}.ag{stroke:#fff;}</style></defs><g id="a"/><g id="b"><g id="c"><path id="d" class="ag" d="M280.44,148.98s-16.78,10.58-42.24,15.74c-15.43,3.13-92.55,5.72-118.01,.56-25.46-5.16-42.23-15.74-42.23-15.74,0,0,8.25-66.84,25.54-99.87C120.79,16.64,142.73,6.57,153.83,6.57c13.89,0,20.96,1.7,24.76,3.28,3.43-1.72,10.44-3.84,25.98-3.84,11.09,0,33.03,10.06,50.32,43.1,17.29,33.03,25.55,99.87,25.55,99.87Z"/><path class="af" d="M261.35,287.85s49.89,115.93,54.2,120.24c4.31,4.31,7.54,11.49,21.89,11.49s16.87-10.77,16.51-26.2c-.36-15.43-17.23-51.33-17.23-51.33,0,0-35.53-106.6-43.43-114.85-3.72-3.89-13.77-7.9-13.77-7.9l-18.18,68.55Z"/><path class="af" d="M348,389.32c7.27,1.86,12.17,8.75,11.4,16.21-1.15,11.18-5.98,14.56-19.2,23.28-15.79,10.41-53.48,22.61-63.89,26.92-10.41,4.31-77.17,24.77-77.17,24.77l-9.33-28.71,125.02-59.94c9.66-4.63,20.65-5.72,31.03-3.06l2.13,.55Z"/><path d="M174.77,181.21s-35.81,1-36.86,2.14,21.23,23.61,21.23,23.61l15.63-25.75Z"/><path class="af" d="M96.41,287.6s-49.89,115.93-54.2,120.24c-4.31,4.31-7.54,11.49-21.89,11.49-14.36,0-16.87-10.77-16.51-26.2,.36-15.43,17.23-51.33,17.23-51.33,0,0,35.53-106.6,43.43-114.85,3.72-3.89,13.77-7.9,13.77-7.9l18.18,68.55Z"/><path class="af" d="M11.98,383.28c-7.27,1.86-12.17,8.75-11.4,16.21,1.15,11.18,5.98,14.56,19.2,23.28,15.79,10.41,53.48,22.61,63.89,26.92,10.41,4.31,77.17,24.77,77.17,24.77l9.33-28.71-125.02-59.94c-9.66-4.63-20.65-5.72-31.03-3.06l-2.13,.55Z"/><g id="e"><path class="af" d="M283.78,551.45s-2.64-58.12-9.13-81.94c-5.87-21.51-9.25-25.78-17.69-35.35l-146.64-1.61c-13.26,0-17.01,10.41-22.99,31.8s-9.36,87.1-9.36,87.1"/></g><g id="f"><path class="af" d="M83.74,491.84c7.58,1.56,23.65,7.08,34.9,8.57,12.97,1.72,14.18,2.61,17.27-.06,3.52-3.04,3.48-8.34,3.48-11.61,0-8.25-.33-25.71,2.08-44.93"/><path class="ai" d="M90.32,462.02c2.99,.49,5.3,.1,6.88-.37,7.17-2.14,13.27-12,14.5-21.8"/><path class="af" d="M83.74,486.32c6.97,2.55,17.04,5.25,23.68,7.04,8.5,2.28,.08-.03,20.52,3.48,1.2,.21,3.64,.63,5.42-.77,2.28-1.8,1.95-5.6,1.94-6.97-.14-16.29,1.42-25.42,1.94-45.7"/><path class="af" d="M278.62,490.54c-7.58,1.56-27.78,7.67-39.03,9.16-12.97,1.72-14.18,2.61-17.27-.06-3.52-3.04-3.48-8.34-3.48-11.61,0-8.25,.33-25.71-2.08-44.93"/><path class="ai" d="M269.14,462.24c-2.99,.49-6.54-.84-8.11-1.31-7.17-2.14-13.27-12-14.5-21.8"/><path class="af" d="M277.79,484.93c-6.97,2.55-20.34,5.93-26.98,7.71-8.5,2.28-.08-.03-20.52,3.48-1.2,.21-3.64,.63-5.42-.77-2.28-1.8-1.95-5.6-1.94-6.97,.14-16.29-1.42-25.42-1.94-45.7"/></g><g id="g"><path class="af" d="M186.62,504.66c-.17,2.45-.37,6.14-.39,10.63-.03,6.69,.37,11.05,.77,17.87,.26,4.27,.57,10.38,.77,17.87-2.45,.14-4.9,.28-7.35,.43,.3-6.19-.03-11.12-.39-14.46-.51-4.82-1.18-7.35-1.39-13.19-.07-2.1-.03-2.96,0-8.08,.03-5.05,.02-9.16,0-11.88,2.65,.27,5.31,.55,7.96,.82Z"/></g><path id="h" class="af" d="M255.08,407.17v30.07s-28.84,8.06-77.34,8.14h-.68c-48.51-.07-77.33-8.14-77.33-8.14v-30.07H255.08Z"/><polygon id="i" class="af" points="238.72 445.12 234.66 445.91 229.82 445.37 229.82 405.97 238.72 405.97 238.72 445.12"/><polygon id="j" class="af" points="116.07 445.12 120.52 445.99 124.97 445.37 124.97 405.97 116.07 405.97 116.07 445.12"/><rect class="af" x="176.92" y="409.84" width="18.51" height="35.54"/><g id="k"><path class="ad" d="M182.83,212.13v207.62l9.06,.26s43.65,2.07,76.74-7.12l1.15-118.33s5.12-35.84,24.19-66.4c0,0-32.69-19.3-69.68-36.76l-41.45,20.74"/><path d="M183.33,212.13c-.08-.06,.62,209.7-.48,207.12,28.64,1.05,57.8,.51,85.64-6.85l-.37,.48,.42-29.58c.24-18.65,.81-69.44,1.03-88.77,2.97-17.54,8.37-34.65,15.71-50.85,2.47-5.4,5.22-10.67,8.25-15.78l.17,.7c-22.7-13.18-45.93-25.48-69.64-36.74,2.15-.56-41.52,20.85-41.01,20.73l-.45-.89c.26-.04,41.44-20.8,41.67-20.84,6.01,2.86,12,5.75,17.93,8.75,17.61,8.86,34.96,18.22,52.01,28.14l.44,.26-.27,.44c-12.78,19.93-20.42,42.92-24.42,66.16,.02-.13-.49,59.17-.48,59.14-.13,14.9-.3,44.63-.37,59.54-14.07,3.87-28.59,5.69-43.09,6.68-14.38,1.03-28.84,.83-43.22,.3h-.49v-.5c1-.54-1.81-209.28,1-207.62h0Z"/></g><g id="l"><path class="ad" d="M174.2,211.87v207.87h-9.06s-43.65,2.07-76.74-7.12l-1.15-118.33s-5.12-35.84-24.19-66.4c0,0,32.69-19.3,69.68-36.76l41.45,20.74"/><path d="M174.7,211.87c-.5,.5,.96,208.91-.5,208.37-3.27,.08-7.58-.1-10.78,.07-25.31,.5-50.94-.75-75.51-7.3-.09,.06-.9-118.62-.97-118.7-3.96-23-11.69-46.19-24.29-66.14l-.27-.44,.44-.26c17.05-9.91,34.4-19.27,52.01-28.14,5.94-3,11.93-5.89,17.93-8.75,.2-.01,41.45,20.82,41.67,20.84l-.45,.89c.58,.15-43.25-21.3-41.01-20.73-23.71,11.26-46.94,23.57-69.64,36.74l.17-.7c1.52,2.56,3.01,5.13,4.38,7.77,6.98,13.1,12.1,27.13,15.95,41.45,1.51,5.75,2.83,11.54,3.77,17.42-.16-.48,1.88,120.5,.96,117.87,20.82,5.58,42.57,7.09,64.07,7.3,7.1,.07,14.47-.31,21.59-.19-1.3,3.19-.11-208.1-.5-207.37h1Z"/></g><g id="m"><path class="ad" d="M233.76,105.26s3.27-4.63,9.89-2.82,5.61,17.04,4.82,20.39c-2.32,9.81-6.33,12.13-11.3,13.42s-10.9,0-10.9,0l7.48-30.98Z"/><path d="M233.31,105.05c2.12-2.84,5.98-3.97,9.38-3.28,5.28,.73,6.3,7.04,6.65,11.38,.45,6.56-.45,13.62-4.53,18.99-4.47,5.44-12.22,5.41-18.64,4.6l-.5-.1,.12-.51,7.51-31.07h0Zm.91,.41l-7.45,30.89s-.4-.62-.37-.6c7.26,1.93,16.82,.35,19.85-7.35,2.21-4.73,2.7-10.04,2.31-15.2-.39-4.04-1.18-9.93-6.03-10.57-3.01-.64-6.51,.55-8.31,2.83h0Z"/></g><g id="n"><path class="ad" d="M127.44,105.26s-3.27-4.63-9.89-2.82-5.61,17.04-4.82,20.39c2.32,9.81,6.33,12.13,11.3,13.42s10.9,0,10.9,0l-7.48-30.98Z"/><path d="M126.99,105.47c-1.85-2.22-5.29-3.32-8.28-2.66-4.71,.69-5.42,6.44-5.82,10.42-.37,5.13,.06,10.4,2.19,15.13,2.88,7.71,12.58,9.56,19.74,7.4,.03-.02-.38,.61-.37,.6l-7.45-30.89h0Zm.91-.41l7.51,31.07,.12,.51-.5,.1c-6.43,.62-14.13,.85-18.68-4.56-4.18-5.34-5.19-12.45-4.71-19.04,.34-4.4,1.44-10.84,6.86-11.52,3.44-.67,7.31,.55,9.4,3.45h0Z"/></g><g id="o"><path class="ad" d="M209.61,195.28l-28.66,18.67-.37,.24-.38-.24-28.65-18.67s3.41-2.32,4.61-7.74c1.2-5.42,1-29.43,1-29.43h46.84s-.2,24.01,1,29.43c1.2,5.42,4.61,7.74,4.61,7.74Z"/><path d="M210.11,195.28c-9.75,6.5-19.65,13.09-29.54,19.5l-.27-.17-29.04-18.91-.61-.4c4.32-2.79,5.57-8.19,5.69-13.06,.31-4.82,.4-9.64,.48-14.47,.04-3.39,.11-6.78-.22-10.16h47.88v.5c-.35,3.22-.28,6.44-.25,9.66,.07,4.83,.15,9.66,.49,14.47,.22,3.16,.49,6.4,2.16,9.15,.77,1.31,1.73,2.52,2.95,3.44,.15,.09,.26,.3,.27,.45h0Zm-1,0c-.03,.12,.07,.33,.16,.38,0,0-.07-.06-.08-.06l-.13-.1c-5.26-4.43-4.89-11.79-5.12-18.03-.29-6.45,.06-12.9-.44-19.34l.5,.5h-46.84l.5-.5c-.24,3.23-.18,6.45-.2,9.67-.03,4.84-.09,9.68-.36,14.51-.14,4.9-1.14,10.14-5.27,13.4v-.83l29.02,18.91h-.54c9.56-6.24,19.11-12.33,28.81-18.49h0Z"/></g><rect class="af" x="171.08" y="211.4" width="20.27" height="208.35"/><g id="p"><path class="ad" d="M228.98,140.51c-2.51,10.74-41.36,31.44-47.25,34.47,0,0-1.88,.07-2.03,0-5.89-3.03-44.98-23.73-47.49-34.47-2.71-11.62-10.06-39.49-7.74-51.49,2.32-12,3.66-19.13,6.19-26.32,3.68-10.45,6-14.13,13.94-20.13,11.87-8.97,27.3-7.84,36-7.41,8.7-.43,24.13-1.56,36,7.41,7.93,6,11.12,10.42,14.39,18.45,5.54,13.62,5.45,23.74,5.74,28,.93,13.51-5.04,39.87-7.75,51.49Z"/><path d="M229.5,140.63c-3.02,9.72-25.67,22.05-34.66,27.43-4.34,2.44-8.67,4.88-12.97,7.41-.81-.03-1.63,.14-2.43-.1l-.09-.05-.18-.1-.7-.38c-6.03-3.33-13.43-7.49-19.41-10.93-7.32-4.28-14.57-8.81-20.96-14.54-2.36-2.2-4.79-4.55-6.14-7.58-1.44-5.2-2.41-10.34-3.62-15.58-2.28-11.4-5.08-22.97-4.57-34.69,.68-5.28,1.89-10.45,2.92-15.67,1.82-8.29,4.06-16.63,8.31-24.07,4.71-7.18,12.13-12.49,20.25-15.08,8.13-2.63,17.17-2.52,25.32-2.05,5.91-.34,11.91-.56,17.86,.27,11.97,1.37,23.1,8.47,29.6,18.6,6.02,10.37,9.04,22.38,9.36,34.31,.64,17.87-4.1,35.49-7.89,52.8h0Zm-1.04-.24c3.65-17.27,8.22-34.73,7.47-52.48-.52-11.7-3.23-23.49-9.02-33.7-2.98-5-7.53-8.94-12.3-12.27-4.87-3.25-10.55-5.11-16.34-5.9-5.84-.85-11.77-.67-17.7-.36-12.4-.87-25.99-.42-36.16,7.59-3.36,2.54-6.52,5.38-8.69,8.96-2.18,3.57-3.61,7.58-5,11.56-1.36,3.99-2.37,8.1-3.26,12.24-1.14,6.2-3.01,12.38-3.05,18.71,.47,15.82,4.83,31.33,8.73,46.57,3.53,6.42,10.14,10.45,15.88,14.76,9.52,6.66,19.45,12.84,29.88,17.99l.71,.35,.18,.09,.09,.04,.04,.02s-.06-.03-.08-.03c.06,0,.21,0,.33,0,.51,0,1.04-.03,1.57-.05l-.21,.05c4.49-2.04,8.84-4.4,13.09-6.9,8.56-5.17,30.88-18.18,33.87-27.25h0Z"/></g><path id="q" class="af" d="M197.68,201.59l-13.2,8.35c-1.68,1.17-.01,2.87,1.46,4.3l23.33,20.64c1.82,1.76,4.6,2.04,6.74,.69,5.35-3.4,15.25-9.94,20.72-15.13,7.75-7.35,15.09-19.55,15.09-19.55l-15.16-7.58c-2.07-1.04-4.04-2.26-5.89-3.66,0,0-7.69-7.35-10.7-8.11-8.13-2.06-15.43-1.49-15.43-1.49l.07,2.2c1.75-.13,10.73,.28,10.9,1.61,.39,2.9-13.07,13.84-17.96,17.74Z"/><path id="r" class="af" d="M163.53,201.59l13.2,8.35c1.68,1.17,.01,2.87-1.46,4.3l-23.33,20.64c-1.82,1.76-4.6,2.04-6.74,.69-5.35-3.4-15.25-9.94-20.72-15.13-7.75-7.35-15.09-19.55-15.09-19.55l15.16-7.58c2.07-1.04,4.04-2.26,5.89-3.66,0,0,7.69-7.35,10.7-8.11,8.13-2.06,15.21-1.41,15.21-1.41v2c-2.32-.08-10.57,.35-10.75,1.73-.39,2.9,13.07,13.84,17.96,17.74Z"/><g><path class="ad" d="M177.05,445.37l.14,12.88s.05,6.01,1.39,17.36c.48,4.03-2.13,9.96-1.18,14.28,.95,4.33,0,12.06,0,15.96,0,0-.52,2.6,3.68,2.89s12.9,0,12.9,0c0,0,1.73-.58,1.8-2.89,.12-3.86,.95-11.52,0-15.8-.95-4.29,1.66-10.16,1.18-14.15-1.34-11.25-1.39-17.2-1.39-17.2l-.14-13.19"/><path d="M177.55,445.37c.04,5.05-.02,10.13,.1,15.16,.2,5.04,.67,10.08,1.23,15.1,.21,2.63-.48,5.12-.91,7.59-.47,2.48-.82,4.97-.2,7.44,.64,5.1-.12,10.17-.22,15.22-.04,3.47,4.99,2.66,7.33,2.87,3.03,.03,6.06,.01,9.09-.09,.48-.21,1.1-.72,1.35-1.3,.69-1.84,.33-3.97,.59-5.92,.2-4,.44-8.02-.39-11.96-.55-4.05,1.13-7.97,1.36-11.94,.06-2.31-.59-5.62-.77-7.96-.61-5.32-.9-10.69-.95-16.03l-.23-8.02h1c-.03,5.33-.14,10.7,0,16.02,.15,3.84,.5,8.13,.87,11.99,.12,1.33,.38,2.65,.31,4.01-.19,4.01-1.76,7.88-1.29,11.89,.8,3.94,.5,8.03,.29,12.02-.27,1.99,.09,4.1-.63,5.99-.31,.62-.84,1.14-1.5,1.39-3.03,.08-6.06,.17-9.1,.15-2.53-.17-7.71,.63-7.63-3.16,.04-4.9,.76-10.16,.08-15.09-.26-1.22-.45-2.55-.35-3.81,.16-3.75,1.61-7.51,1.31-11.22-1.38-10.04-1.64-20.21-1.73-30.32h1Z"/></g></g><g id="s"><path d="M183.21,143.63c0-.42,.33-.76,.75-.78l4.3-.17,4.65-.37c.45-.04,.84,.32,.84,.78v.03c0,.41-.31,.75-.72,.78l-5.17,.39-3.84,.12c-.44,.01-.8-.34-.8-.78Z"/><path d="M178,143.63c0-.42-.33-.76-.75-.78l-4.3-.17-4.65-.37c-.45-.04-.84,.32-.84,.78v.03c0,.41,.31,.75,.72,.78l5.17,.39,3.84,.12c.44,.01,.8-.34,.8-.78Z"/><rect class="ai" x="160.68" y="93.09" width=".9" height="6.22" rx=".45" ry=".45" transform="translate(252.58 260.07) rotate(-150)"/><rect class="ai" x="152.25" y="91.67" width=".9" height="6.22" rx=".45" ry=".45" transform="translate(305.4 189.57) rotate(180)"/><rect class="ai" x="143.58" y="93.99" width=".9" height="6.22" rx=".45" ry=".45" transform="translate(-29.25 85.02) rotate(-30)"/><path d="M186.31,127.04c-3.48,2.59-8.29,2.59-11.77,0-.65-.48-.79-1.27-.39-1.65h0c.4-.38,1.09-.32,1.58,.05,2.78,2.07,6.61,2.07,9.39,0,.49-.36,1.18-.43,1.58-.05h0c.4,.38,.26,1.17-.39,1.65Z"/><path d="M184.28,152.65h-7.86c-.4,0-.73-.32-.73-.73s.32-.73,.73-.73h7.86c.4,0,.73,.32,.73,.73s-.32,.73-.73,.73Z"/><rect class="ai" x="146.3" y="106.75" width=".63" height="4.34" rx=".32" ry=".32" transform="translate(74.1 -58.71) rotate(30)"/><rect class="ai" x="152.19" y="107.73" width=".63" height="4.34" rx=".32" ry=".32"/><rect class="ai" x="158.23" y="106.99" width=".63" height="4.34" rx=".32" ry=".32" transform="translate(350.44 124.42) rotate(150)"/><g id="t"><path class="ae" d="M164.4,102.29c0,3.17-5.19,5.73-11.6,5.73s-11.6-2.57-11.6-5.73c0,0,5.19-5.73,11.6-5.73s11.6,5.73,11.6,5.73Z"/><rect class="ai" x="216.56" y="93.99" width=".9" height="6.22" rx=".45" ry=".45" transform="translate(356.39 289.69) rotate(-150)"/><rect class="ai" x="208.12" y="92.57" width=".9" height="6.22" rx=".45" ry=".45" transform="translate(417.14 191.37) rotate(180)"/><rect class="ai" x="199.45" y="94.89" width=".9" height="6.22" rx=".45" ry=".45" transform="translate(-22.22 113.08) rotate(-30)"/><rect class="ai" x="202.17" y="107.65" width=".63" height="4.34" rx=".32" ry=".32" transform="translate(82.04 -86.53) rotate(30)"/><rect class="ai" x="208.06" y="108.63" width=".63" height="4.34" rx=".32" ry=".32"/><rect class="ai" x="214.11" y="107.89" width=".63" height="4.34" rx=".32" ry=".32" transform="translate(455.15 98.16) rotate(150)"/><path class="ae" d="M220.27,103.19c0,3.17-5.19,5.73-11.6,5.73s-11.6-2.57-11.6-5.73c0,0,5.19-5.73,11.6-5.73s11.6,5.73,11.6,5.73Z"/><ellipse cx="208.45" cy="102.67" rx="6.02" ry="4.97"/><circle class="ad" cx="211.09" cy="100.94" r="1.28"/></g><ellipse cx="152.58" cy="101.77" rx="6.02" ry="4.97"/><circle class="ad" cx="155.22" cy="100.04" r="1.28"/></g><g id="u"><path d="M164.07,92.39c-7.51-3.91-16.46-3.91-23.97,0-.28,.15-.63,.06-.78-.21h0c-.15-.26-.03-.61,.27-.77,7.83-4.08,17.16-4.08,24.98,0,.3,.16,.42,.5,.27,.77h0c-.15,.27-.49,.35-.78,.21Z"/><path d="M220.66,92.39c-7.51-3.91-16.46-3.91-23.97,0-.28,.15-.63,.06-.78-.21h0c-.15-.26-.03-.61,.27-.77,7.83-4.08,17.16-4.08,24.98,0,.3,.16,.42,.5,.27,.77h0c-.15,.27-.49,.35-.78,.21Z"/></g><g id="v"><g><path class="ad" d="M168.98,7.25c-.78,.85,.77,27.35,5.68,29.68s11.1,5.16,16.77,16.26c5.68,11.1,10.4,24.77,10.23,25.55s7.04-7.14,12.17-19.3c2.7-6.41,6.29-14.93,4.84-31.44-1.31-15.01-11.25-21.12-13.49-22.71-6.12-4.34-11.45-4.77-19.55-4.77-2.06,0-10.72,.29-16.65,6.74Z"/><path d="M169.33,7.57c-.22,3.85,.17,8.3,.59,12.33,.49,4.2,1.09,8.42,2.35,12.43,.68,1.91,1.35,4,3.45,4.7,5.92,2.6,10.87,7.15,14.12,12.71,2.21,3.67,3.95,7.56,5.67,11.45,2.37,5.64,4.79,11.31,6.38,17.23l.02,.27v.07c-.01,.06,.03,0-.01-.11-.05-.07-.1-.12-.21-.13-.12,.02-.06,.01-.07,0,4.45-4.61,7.63-10.44,10.38-16.2,3.55-7.66,6.19-15.78,6.37-24.27,.63-13.5-1.95-25.12-14.11-32.75-5.19-3.75-11.75-4.35-17.99-4.29-6.19-.11-12.7,1.94-16.95,6.56h0Zm-.7-.65C173.09,2.06,179.84-.08,186.29,0c6.41-.09,13.21,.56,18.58,4.41,12.54,7.85,15.29,19.71,14.64,33.69-.2,8.62-2.81,16.96-6.64,24.63-2.91,5.71-6.24,11.25-10.63,15.96-.14,.08-.26,.31-.53,.34-.29,0-.31-.27-.3-.38v-.03c-1.56-5.92-4.05-11.58-6.42-17.21-1.73-3.87-3.48-7.75-5.67-11.36-2.2-3.59-4.97-6.88-8.42-9.27-2.16-1.63-4.63-2.53-6.97-3.9-1.26-1.15-1.83-2.78-2.39-4.32-1.32-4.11-1.95-8.34-2.48-12.57-.42-4.13-.93-8.29-.66-12.44,.04-.2,.07-.43,.23-.63h0Z"/></g><g><path class="ad" d="M168.98,7.25c6.84,2.69,8.42,11.7,8.45,21.77,0,3.25-.68,13.54-6.61,25.09-3.12,6.08-6.93,9.86-9.25,12.59-4.64,5.46-11.6,10.87-16.91,14.7-1.97,1.42-7.63,5.43-13.69,12.14l-6.73,8.73s-2.65-.49-4-.53c-1.04-.03-3.02,.29-3.02,.29-1.29-2.58-2.24-43.39,6.31-62.38,6.29-13.98,14.33-23.5,23.56-28.72,5.43-3.07,17.02-5.59,21.88-3.68Z"/><path d="M169.09,6.97c8.7,3.65,8.98,16.09,8.91,24.18-.61,9.05-3.45,17.87-7.96,25.72-6.06,9.54-14.52,17.33-23.62,23.87-5.52,3.8-10.7,8.03-15.22,12.99-2.19,2.8-4.59,5.76-6.85,8.6l-.04,.05h-.07c-2.32-.4-4.63-.61-6.95-.06l-.24,.04-.08-.2c-.28-.72-.32-1.33-.42-1.99-.97-9.64-.66-19.37-.02-29.03,.87-10.29,2.09-20.71,5.9-30.42,6.11-13.9,15.91-28.42,31.25-32.76,4.97-1.26,10.38-2.55,15.42-.99h0Zm-.22,.56c-4.88-1.46-10.2-.16-15.01,1.08-15.05,4.43-24.33,18.94-30.31,32.57-3.7,9.54-5,19.89-5.91,30.05-.43,5.12-.69,10.26-.77,15.4,.03,5.05-.31,10.29,.63,15.26l-.32-.16c2.18-.4,5.26-.14,6.98,.47,2.2-2.95,4.37-5.92,6.6-8.85,2.97-3.36,6.23-6.48,9.71-9.33,7-5.47,14.47-10.56,20.29-17.33,9.29-9.58,14.99-22.31,15.93-35.62,.14-7.77,.55-19.89-7.83-23.54h0Z"/></g><circle class="ak" cx="181.07" cy="224.4" r="5.1"/><circle class="ak" cx="181.07" cy="407.17" r="5.1"/><circle class="ak" cx="181.07" cy="371.99" r="5.1"/><circle class="ak" cx="181.07" cy="334.77" r="5.1"/><circle class="ak" cx="181.07" cy="294.13" r="5.1"/><circle class="ak" cx="181.07" cy="260.31" r="5.1"/><path d="M125.91,133.86c-.63,10.54-.47,21.11,0,31.66h-1c.47-10.55,.63-21.12,0-31.66h1Z"/><polygon class="ah" points="133.36 177.45 127.66 175.58 122.89 179.22 122.9 173.22 117.97 169.81 123.68 167.97 125.4 162.22 128.91 167.09 134.91 166.95 131.37 171.79 133.36 177.45"/><path d="M236.9,132.79c-.55,10.54-.49,21.11,0,31.66h-1c.49-10.55,.55-21.12,0-31.66h1Z"/><path class="al" d="M238.3,164.32c-.87-.27-1.74-.4-2.59-.41,2.41,2.07,3.65,5.36,2.95,8.69-.83,3.98-4.17,6.78-8.02,7.13,.95,.67,2.04,1.16,3.24,1.42,5.02,1.06,9.95-2.45,10.46-7.71,.4-4.04-2.17-7.91-6.04-9.12Z"/><circle class="ak" cx="186.17" cy="432.56" r="6.29"/><circle class="aj" cx="186.17" cy="432.56" r="4.53"/></g><g id="w"><path class="ad" d="M30.11,332.7l2.18-1.84,10.52,39.72-5.24,22.84-6.31,6.05-6.79,3.45-7.98-.41s-5.81-2.06-7.76-3.78c-1.77-1.56-4.95-8.95-4.95-8.95l26.34-57.08Z"/><path class="ad" d="M334.98,341.68l-2.04-2-13.43,38.83,3.54,23.17,5.84,6.5,6.51,3.95,7.99,.19s5.95-1.63,8.02-3.2c1.88-1.42,5.6-8.56,5.6-8.56l-22.04-58.87Z"/></g><g id="x"><path class="ai" d="M288.28,238.17c19,44.75,37.04,91.24,53.83,139.48,1.02,2.93,11.52,17.68,9.14,25.27-5.68,18.06-48.77,34.05-84.17,45.02"/><path class="ai" d="M281.7,252.5c29.26,89.62,48.09,124.59,55.24,139.6,.71,1.48,3.93,4.58,3.1,8.77-1.78,8.96-41.97,27.16-78.01,39.28"/><path class="ai" d="M274.99,271.88c24.88,74.99,44.52,104.11,51.63,119.19,.62,1.31,2.59,7.15,1.19,11-1.69,4.66-37.31,17.5-70.85,32.1"/><path class="ai" d="M270.46,290.58c25.17,66.2,37.14,92.28,42.22,98.42,.74,.9,4.23,4.85,3.1,8.26-1.25,3.78-6.31,7.37-8.11,7.72-7.37,1.43-22.13,7.33-52.59,23.25"/></g><g id="y"><path class="ai" d="M69.17,238.7c-19.68,47.54-38.99,95.57-57.9,144.11-.57,1.46-3.46,4.61-3.61,9.29-.65,20.03,43.21,38.05,86.76,51.37"/><path class="ai" d="M75.89,252.64c-18.18,41.9-35.95,84.43-53.27,127.58-.48,1.19-4.47,5.11-4.13,10.32,.25,3.89,2.73,8.35,10.56,13.58,18.83,12.58,63.31,26.02,70.67,28.23"/><path class="ai" d="M82.34,272.64c-13.48,35.83-29.01,71.75-46.82,107.59-.43,.86-2.37,2.5-2.58,5.16-1,12.7,34.03,25.85,66.77,35.61"/><path class="ai" d="M86.8,291.55c-24.73,62.31-36.58,87.06-41.07,90.97-.44,.38-2.71,2.22-2.56,4.49,.26,3.88,7.45,6.3,9.89,7.15,9.61,3.36,11.83,4.47,35.31,15.67"/></g><g id="a`"><line class="ai" x1="164.58" y1="223.69" x2="165.15" y2="419.75"/><line class="ai" x1="153.79" y1="233.24" x2="152.8" y2="419.32"/><line class="ai" x1="139.55" y1="231.89" x2="143.4" y2="419.32"/><line class="ai" x1="131.17" y1="225.98" x2="131.98" y2="419.75"/><line class="ai" x1="124.47" y1="220.44" x2="123.54" y2="418.6"/><line class="ai" x1="116.58" y1="211.4" x2="116.07" y2="417.82"/><line class="ai" x1="107.71" y1="203.5" x2="107.71" y2="416.96"/><line class="ai" x1="94.35" y1="211.4" x2="98.16" y2="414.97"/><line class="ai" x1="85.83" y1="214.19" x2="87.26" y2="294.3"/><line class="ai" x1="73.88" y1="221.71" x2="74.5" y2="250.22"/><line class="ai" x1="200.24" y1="226.89" x2="200.24" y2="420.19"/><line class="ai" x1="209.27" y1="234.89" x2="209.61" y2="419.32"/><line class="ai" x1="219.98" y1="233.47" x2="219.98" y2="419.32"/><line class="ai" x1="229.82" y1="226.13" x2="230.65" y2="419.1"/><line class="ai" x1="238.71" y1="219.04" x2="237.52" y2="419.32"/><line class="ai" x1="247.01" y1="208.22" x2="246.86" y2="416.95"/><line class="ai" x1="257.87" y1="208.2" x2="255.08" y2="415.96"/><line class="ai" x1="268.53" y1="213.9" x2="265.02" y2="413.82"/><line class="ai" x1="279.53" y1="219.3" x2="276.04" y2="268.39"/><line class="ai" x1="287.46" y1="224.4" x2="287.8" y2="239.1"/></g><g id="aa"><path class="af" d="M230.69,300.23s-3.79,3.2,1.05,2.94,9.23-1.81,12.45-6.83c2.27-3.54,3.61-6.97,2.32-6.84s-3.67,1.53-3.67,1.53"/><path class="af" d="M218.06,289.4l-2.34,1.42s0,2.35,2.06,5.06c1.92,2.52,3.74,3.35,3.74,3.35l2.72-2.14"/><path class="af" d="M238.4,274.41l2.02-1.85s2.26,.66,4.28,3.41c1.88,2.55,2.16,4.53,2.16,4.53l-2.82,2.01"/><circle class="af" cx="230.97" cy="285.64" r="13.59"/><circle cx="231.69" cy="284.75" r="9.39"/><circle class="ad" cx="234.67" cy="280.57" r="1.94"/></g><g id="ab"><path d="M91.34,149.11c2.8-15.32,5.6-30.64,9.09-45.83,3.43-15.19,8.85-30.09,17.34-43.21l.84,.55c-13.84,19.17-18.01,42.91-22.32,65.65-1.45,7.65-2.73,15.32-3.97,23l-.99-.16h0Z"/><path d="M170.82,5c9.6,.42,19.89,1.87,27.71,7.88,7.14,5.72,9,14.98,9.18,23.65,.34,6.11-.31,12.25-1.16,18.29-1.17,8.06-2.79,16.04-4.71,23.95l-.35-.09c3.6-16.48,10.05-44.36,1.43-59.56-4.19-7.13-12.28-10.37-20.07-11.85-3.96-.76-8.01-1.21-12.02-1.27v-1h0Z"/><path d="M217.63,20.7c9.36,7.39,17.57,16.12,24.29,25.95,6.73,9.86,10.26,21.43,14.04,32.63,4.13,11.16,6.21,22.94,8.2,34.61,1.92,11.71,3.51,23.46,4.84,35.26l-.99,.1c-2.81-23.42-4.96-47.33-12.65-69.77-3.74-11.16-7.22-22.71-13.88-32.52-6.62-9.73-14.78-18.66-24.41-25.44l.57-.82h0Z"/><path d="M253.07,155.34c-.27-16.28-1.17-32.71-4.5-48.69-3.49-14.91-9.89-28.99-16.42-42.78l-.67-1.38-.34-.69c-.13-.22-.15-.5-.58-.56l.89-.45c-.21,.39,0,.57,.1,.81l.34,.69,.68,1.38c4.91,10.11,9.52,20.42,13.2,31.04,4.16,11.59,5.81,23.9,6.91,36.11,.75,8.15,1.21,16.32,1.39,24.52h-1Z"/><path d="M78.21,141.49c10.62,5.83,21.87,10.65,33.5,14.1,13.37,3.73,27.21,5.77,41.07,6.54,1.72,.07,3.49,.18,5.16-.14l.08,1c-1.8-.15-3.52-.17-5.27-.26-19.08-1.24-38.26-4.35-56.06-11.55-6.48-2.57-12.82-5.48-18.97-8.81l.49-.87h0Z"/><path d="M203.22,162.33c15-1.48,30.15-2.49,44.91-5.61,8.07-2.23,15.84-5.5,23.34-9.22,2.97-1.54,6.05-2.93,8.72-4.98l.51,.86c-10.57,5.15-20.98,10.84-32.44,13.84-8.2,1.87-16.61,2.6-24.95,3.56-6.68,.7-13.37,1.32-20.06,1.87l-.03-.32h0Z"/><path d="M120.08,101.48c2.28-9.69,6.67-19.37,14.33-25.97,3.17-2.65,6.87-4.56,10.12-7.1,5.64-4.19,10.88-8.98,15.1-14.61,4.28-5.61,6.35-12.5,7.95-19.29,2.06-9.15,1.13-18.72-1.52-27.68l.96-.28c1.3,4.55,2.19,9.24,2.48,13.98,.66,9.51-1.76,18.97-5.56,27.63-4.3,8.49-11.52,15.11-19.06,20.73-3.26,2.51-6.98,4.41-10.14,7.02-4.07,3.35-7.11,7.79-9.54,12.44-2.09,4.19-3.76,8.63-4.78,13.19l-.35-.07h0Z"/><path d="M116.32,89.66c.61-8.25,3.02-16.29,5.23-24.24,2.37-7.94,5.05-15.81,8.68-23.27,5.58-11.2,14.4-20.41,23.77-28.53,3.24-2.65,6.42-5.41,10.23-7.26l.36,.93c-3.6,1.72-6.89,4.47-10.02,6.99-9.38,7.96-18.25,17.04-23.89,28.08-3.7,7.39-6.45,15.23-8.89,23.12-2.29,7.92-4.77,15.93-5.47,24.17h0Z"/><path d="M113.44,123.93c-2.55,10.06-4.43,20.47-5.5,30.81l-.48-.03c.54-7.86,1.98-15.61,3.33-23.37,.5-2.58,.95-5.14,1.69-7.73l.95,.32h0Z"/><path d="M133.28,142.41c-.68,5.11-1.51,12.6-1.87,17.68h-.48c.21-5.1,.83-12.73,1.36-17.86l.98,.18h0Z"/><path d="M226.77,145.05c.39,4.37,.83,10.78,.97,15.11h-.48c-.19-2.21-.41-5.31-.63-7.49l-.85-7.46,.99-.16h0Z"/><path d="M181.44,174.79s-.72,.88-5.15-1.52c-10.75-5.82-19.12-10.58-19.12-10.58l-.27,12.31s21.66,15.75,24.3,15.75,22.98-15.75,22.98-15.75l-.21-12.24-11.58,6.75-10.96,5.27Z"/><path class="ai" d="M111.7,199.89s10.23,14.29,13.71,17.61c2.67,2.55,18.99,16.34,22.49,15.72s24.12-19.77,25.31-21.14c1.1-1.27,1.9-2.85,1.9-2.85"/><path class="ai" d="M185.74,209s.45,.67,1.21,1.8c1.19,1.77,17.22,15.74,18.87,16.99,3.23,2.45,5.92,6.16,7.78,5.64,3.37-.93,19.28-12.95,22.98-16.94,3.59-3.87,12.43-16.83,12.43-16.83"/></g><g id="ac"><path class="af" d="M145.57,183.86c-2.64,3.33-6.82,7.82-12.9,11.85-7.1,4.7-13.85,6.83-18.3,7.86"/><path class="af" d="M149.39,189.31c-2.83,3.35-6.62,7.25-11.56,11.04-6.73,5.15-13.23,8.3-18.21,10.23"/><path class="af" d="M156.33,195.66c-1.96,3.5-6.94,6.34-13.33,11.4-6.99,5.52-13.35,8.96-17.58,10.44"/><path class="af" d="M161.48,199.95c-1.85,3.89-6.52,8.28-13.32,14.08-5.89,5.02-11.35,8.26-15.19,9.89"/><path class="af" d="M168.79,205.79c-4.38,5.36-8.81,9.1-13.84,13.5-4.32,3.79-8.04,7.59-13.84,10.7"/><path class="af" d="M139.58,182.23s7.31-1.61,9.49,0"/><path class="af" d="M191.35,205.34c4.31,3.6,10.97,8.77,15.34,12.55,4.81,4.16,9.28,7.28,13.85,11.4"/><path class="af" d="M199.88,200.51c4.23,4.08,9.05,8.37,14.5,12.69,5.07,4.01,9.98,7.5,14.61,10.53"/><path class="af" d="M206.13,194.85c3.9,4.23,8.7,8.86,14.49,13.49,5.04,4.03,9.91,7.31,14.33,9.97"/><path class="af" d="M210,190.49c4.42,3.66,9.14,7.39,14.15,11.14,4.89,3.65,11.31,7.36,15.97,10.49"/><path class="af" d="M214.79,185.88c5.51,2.96,9.59,5.87,12.33,8.01,3.41,2.67,5.46,4.7,9.55,7.23,3.37,2.09,6.37,3.42,8.39,4.22"/><path class="af" d="M214.79,183.23s3.05-2.82,5.29-1.7"/></g></g></svg>