<svg xmlns="http://www.w3.org/2000/svg" viewBox="0 0 491.01 171.63"><defs><style>.cls-1{fill:#fff;}</style></defs><g id="Layer_2" data-name="Layer 2"><g id="Layer_17" data-name="Layer 17"><path class="cls-1" d="M171.63,85.82c-2.44,0-4.82.06-7.16.18l.94-.32C167.45,85.78,169.52,85.82,171.63,85.82Z"/><path class="cls-1" d="M112.89,103.32c3.52,9.47,9.86,18.85,19,28-9.17-9.17-18.57-15.51-28.07-19-11.86,14.3-18,34.23-18,59.35,0-25.06-6.11-44.94-17.91-59.24-9.4,3.54-18.7,9.84-27.78,18.92C49.2,122.24,55.5,113,59,103.56,44.76,91.87,24.94,85.82,0,85.82c25.06,0,45-6.12,59.26-17.92-3.49-9.59-9.87-19.09-19.13-28.35,9.23,9.23,18.7,15.6,28.27,19.1C79.88,44.4,85.82,24.71,85.82,0c0,24.77,6,44.5,17.51,58.76,9.66-3.48,19.23-9.88,28.56-19.21-9.34,9.34-15.74,18.92-19.22,28.59,13.06,10.66,30.75,16.62,52.74,17.54l-.94.32C143,87.05,125.74,92.93,112.89,103.32Z"/><path class="cls-1" d="M171.63,85.82c-2.11,0-4.18,0-6.22-.14l2.66-.89L117.94,70.32,491,85.43l-369.5,15,43-14.43C166.81,85.88,169.19,85.82,171.63,85.82Z"/><path class="cls-1" d="M171.63,85.82c-2.44,0-4.82.06-7.16.18l.94-.32C167.45,85.78,169.52,85.82,171.63,85.82Z"/></g></g></svg>