<?xml version="1.0" encoding="UTF-8"?><svg id="Layer_2" xmlns="http://www.w3.org/2000/svg" viewBox="0 0 20.09 19.38"><defs><style>.cls-1{fill:#fff;}</style></defs><g id="Layer_17"><path class="cls-1" d="M15.03,19.28l-4.93-2.81c-.22-.12-.49-.13-.71-.02l-5.11,2.47c-.57,.28-1.21-.22-1.08-.85l1.15-5.56c.05-.25-.02-.5-.2-.69L.21,7.72c-.44-.46-.16-1.22,.47-1.29l5.64-.63c.25-.03,.47-.18,.59-.4L9.6,.4c.3-.56,1.11-.53,1.37,.05l2.34,5.17c.1,.23,.31,.39,.56,.44l5.59,1.01c.63,.11,.85,.89,.38,1.32l-4.2,3.82c-.19,.17-.28,.42-.24,.67l.77,5.62c.09,.63-.59,1.09-1.14,.77Z"/></g></svg>