<?xml version="1.0" encoding="UTF-8"?><svg xmlns="http://www.w3.org/2000/svg" viewBox="0 0 108.73 130.24"><defs><style>.f{fill:none;}.f,.g{stroke:#1d1917;stroke-miterlimit:10;}.g{fill:#fff;}</style></defs><g id="a"/><g id="b"><g id="c"><g id="d"><path class="g" d="M63.53,46.74c3.07,1.36,10.15,5.01,14.9,12.97,.97,1.62,9.45,16.37,1.55,29.03-6.6,10.56-21.97,15.45-34.26,8.9-10.78-5.74-16.25-18.7-12.77-30.97-3.61,2.52-7.23,5.03-10.84,7.55-2.39-3.1-4.77-6.19-7.16-9.29-1.55,3.03-3.1,6.06-4.65,9.1l-8.9-3.1c-1.04,5.74-2.23,17.13,3.1,29.03,9.17,20.49,32.61,31.22,53.61,29.61,3.31-.25,25.93-2.37,40.06-22.26,2.19-3.08,14.27-20.08,8.52-41.61-.42-1.56-6.21-21.91-26.32-30.97-7.41-3.34-14.2-3.99-18.39-4.06,.52,5.35,1.03,10.71,1.55,16.06Z"/></g><g id="e"><path class="f" d="M22.11,74.23c-.09,1.9-1.39,20.83,12.58,31.35,15.06,11.35,38.8,7.24,49.94-7.94,7.83-10.67,8.09-25,2.9-36.19-7.47-16.13-23.7-20.23-25.74-20.71"/><path class="f" d="M10.3,74.03c-.48,18.61,9.21,35.59,24.71,43.29,20.51,10.2,47.62,2.39,58.84-18.06,8.85-16.13,5.86-36.58-5.68-49.81-9.08-10.41-20.81-13.32-25.29-14.19"/></g><path class="g" d="M51.67,2.56l6.61,13.39c.54,1.09,1.58,1.85,2.79,2.03l14.77,2.15c3.04,.44,4.25,4.17,2.05,6.32l-10.69,10.42c-.87,.85-1.27,2.08-1.06,3.28l2.52,14.71c.52,3.02-2.66,5.33-5.37,3.9l-13.21-6.95c-1.08-.57-2.37-.57-3.45,0l-13.21,6.95c-2.72,1.43-5.89-.88-5.37-3.9l2.52-14.71c.21-1.2-.19-2.43-1.06-3.28l-10.69-10.42c-2.2-2.14-.98-5.87,2.05-6.32l14.77-2.15c1.21-.18,2.25-.93,2.79-2.03l6.61-13.39c1.36-2.75,5.28-2.75,6.64,0Z"/></g></g></svg>