<?xml version="1.0" encoding="UTF-8"?><svg xmlns="http://www.w3.org/2000/svg" viewBox="0 0 129.27 117.14"><defs><style>.d{fill:none;}.d,.e{stroke:#1d1917;stroke-miterlimit:10;}.e{fill:#fff;}</style></defs><g id="a"/><g id="b"><g id="c"><path class="e" d="M74.88,40.59c-3.8,1.17-9.59,3.45-15.42,8.06,0,0-6.19,5.08-11.4,13.17-7.86,12.23-13.94,40.65-11.92,53.05-3.81-2.2-7.63-4.4-11.44-6.61-2.71,2.17-4.55,5.09-7.61,8.07-1.8-2.89-4.65-5.37-6.45-8.26-2.87,1.28-7.19,4.91-10.06,6.19,.77-8.77,.1-17.87,4.4-30.17,7.4-21.19,17.27-34.04,26.05-41.57,1.56-1.34,3.23-2.96,5.76-4.87,13.77-10.4,28.29-13.33,37.38-14.27,4.73-1.24,9.55,1.09,11.32,5.2,1.59,3.69,.55,8.42-2.84,10.84-3.31,2.36-7.2,1.31-7.76,1.15Z"/><path class="d" d="M24.7,108.27c.18-8.17,2.19-22.12,7.36-35.54,4.04-10.5,8.77-21.36,19.87-29.42,15.51-11.25,33.65-9.42,39.74-8.52"/><path class="d" d="M10.64,108.09c.83-13.76,4.2-24.52,6.97-31.48,3.12-7.85,7.71-19.08,18.58-29.68,4.13-4.03,12.53-12.03,26.32-16.26,11.16-3.42,20.83-2.82,26.32-2.06"/><path class="e" d="M102.67,1.64l-10.36,10.75c-.85,.88-2.07,1.28-3.27,1.08l-14.73-2.45c-3.03-.5-5.32,2.68-3.87,5.39l7.02,13.18c.57,1.08,.58,2.36,.02,3.45l-6.88,13.25c-1.41,2.72,.91,5.89,3.93,5.35l14.7-2.6c1.2-.21,2.43,.18,3.28,1.05l10.48,10.64c2.15,2.19,5.88,.95,6.3-2.09l2.07-14.79c.17-1.21,.92-2.25,2.01-2.8l13.35-6.68c2.74-1.37,2.72-5.3-.04-6.64l-13.42-6.54c-1.1-.53-1.86-1.57-2.04-2.78l-2.23-14.76c-.46-3.03-4.2-4.23-6.33-2.02Z"/></g></g></svg>