<?xml version="1.0" encoding="UTF-8"?><svg xmlns="http://www.w3.org/2000/svg" viewBox="0 0 84.21 80.7"><defs><style>.e{fill:#ea7b58;}</style></defs><g id="a"/><g id="b"><g id="c"><g id="d"><path class="e" d="M47.74,3.5l8.14,16.5c.92,1.85,2.68,3.14,4.73,3.44l18.21,2.65c5.15,.75,7.21,7.08,3.48,10.72l-13.18,12.85c-1.48,1.44-2.16,3.52-1.81,5.56l3.11,18.14c.88,5.13-4.51,9.05-9.12,6.62l-16.29-8.56c-1.83-.96-4.02-.96-5.85,0l-16.29,8.56c-4.61,2.42-10-1.49-9.12-6.62l3.11-18.14c.35-2.04-.33-4.12-1.81-5.56L1.9,36.8c-3.73-3.63-1.67-9.97,3.48-10.72l18.21-2.65c2.05-.3,3.82-1.58,4.73-3.44L36.47,3.5c2.3-4.67,8.96-4.67,11.27,0Z"/></g></g></g></svg>