<?xml version="1.0" encoding="utf-8"?>
<!-- Generator: Adobe Illustrator 26.4.1, SVG Export Plug-In . SVG Version: 6.00 Build 0)  -->
<svg version="1.1" xmlns="http://www.w3.org/2000/svg" xmlns:xlink="http://www.w3.org/1999/xlink" x="0px" y="0px"
	 viewBox="0 0 512 512" style="enable-background:new 0 0 512 512;" xml:space="preserve">
<style type="text/css">
	.st0{fill:#808080;}
</style>
<g id="Layer_3">
	<rect class="st0" width="512" height="512"/>
</g>
<g id="Layer_2">
	<g>
		<path d="M256.2,619H256c-23.7,0-47.4-2.3-70.5-6.9l70.4-361.4c11.8,2.3-12.2,0,0,0L256.2,619z M326.9,612l-71-361.3
			c11.9-2.4-11.2,4.6,0,0l139.2,340.6C373.1,600.4,350.2,607.4,326.9,612z M117.3,591.5c-21.9-9.1-43-20.4-62.8-33.6l201.4-307.2
			c10.1,6.7-11.2-4.6,0,0L117.3,591.5z M457.8,557.7l-201.9-307c10.1-6.8-8.6,8.6,0,0l256.8,261.9
			C496,529.3,477.5,544.5,457.8,557.7z M-0.4,512.9c-16.8-16.7-32-35.2-45.2-54.9l301.5-207.3c6.8,10.1-8.6-8.6,0,0L-0.4,512.9z
			 M557.8,457.7l-301.9-207c6.8-10.1-4.6,11.2,0,0l335.5,144.2C582.3,416.8,571,437.9,557.8,457.7z M-79.2,395.3
			c-9.1-21.9-16.1-44.9-20.7-68.2l355.9-76.4c2.4,11.9-4.6-11.2,0,0L-79.2,395.3z M612.1,326.7l-356.1-76c2.3-11.9,0,12.2,0,0l0,0
			l363,4.7v0.6C619,279.8,616.6,303.5,612.1,326.7z M-106.9,256.7l0-0.7c0-23.6,2.3-47.3,6.8-70.3l356.1,65c-2.3,11.8,0-12.2,0,0
			l0,0l-362.9,5.6L-106.9,256.7z M255.9,250.7C253.6,238.8,260.6,261.8,255.9,250.7l335.1-134.4c9.1,21.9,16.1,44.8,20.8,68.1
			L255.9,250.7z M255.9,250.7L-79.6,117.5c9.1-21.9,20.3-43,33.5-62.8L255.9,250.7C249.2,260.8,260.6,239.5,255.9,250.7z
			 M255.9,250.7C249.1,240.6,264.6,259.3,255.9,250.7L512.1-1.2c16.8,16.7,32,35.2,45.2,54.8L255.9,250.7z M255.9,250.7L-1-0.3
			c16.7-16.8,35.2-32,54.8-45.2L255.9,250.7C245.8,257.5,264.5,242.1,255.9,250.7z M255.9,250.7
			C245.8,243.9,267.1,255.3,255.9,250.7L394.3-79.6c21.9,9,43.1,20.3,62.8,33.5L255.9,250.7z M255.9,250.7L116.5-79.2
			c21.9-9.1,44.9-16.1,68.2-20.8L255.9,250.7C244.1,253.1,267.1,246,255.9,250.7z M255.9,250.7C244.2,248.4,268.1,250.7,255.9,250.7
			L255.9,250.7l-0.4-357.6l-0.5,0l1,0c23.5,0,47.1,2.3,70.1,6.8L255.9,250.7z M255.5-106.9v88.6V-106.9L255.5-106.9L255.5-106.9z"/>
	</g>
</g>
</svg>
